<svg xmlns="http://www.w3.org/2000/svg" xmlns:xlink="http://www.w3.org/1999/xlink" width="525" height="338" viewBox="0 0 525 338">
  <defs>
    <linearGradient id="linear-gradient" x1="-0.315" y1="-0.629" x2="0.999" y2="0.497" gradientUnits="objectBoundingBox">
      <stop offset="0"/>
      <stop offset="1" stop-color="#fff" stop-opacity="0"/>
    </linearGradient>
    <linearGradient id="linear-gradient-2" x1="-0.311" y1="-1.861" x2="1" y2="1.03" xlink:href="#linear-gradient"/>
    <linearGradient id="linear-gradient-3" x1="1.427" y1="-0.374" x2="-0.063" y2="1" xlink:href="#linear-gradient"/>
    <linearGradient id="linear-gradient-4" x1="1.477" y1="-1.439" x2="-0.056" y2="1.835" xlink:href="#linear-gradient"/>
    <linearGradient id="linear-gradient-5" x1="-0.367" y1="-0.067" x2="0.954" y2="0.5" xlink:href="#linear-gradient"/>
    <linearGradient id="linear-gradient-6" x1="-0.362" y1="-0.932" x2="0.952" y2="0.517" gradientUnits="objectBoundingBox">
      <stop offset="0"/>
      <stop offset="1" stop-color="#fff"/>
    </linearGradient>
    <linearGradient id="linear-gradient-7" x1="1.091" y1="-1.288" x2="-0.099" y2="1.293" xlink:href="#linear-gradient"/>
    <linearGradient id="linear-gradient-8" x1="1.134" y1="-4.61" x2="0.021" y2="0.5" xlink:href="#linear-gradient"/>
    <linearGradient id="linear-gradient-9" x1="-0.333" y1="-0.955" x2="0.98" y2="0.58" xlink:href="#linear-gradient"/>
    <linearGradient id="linear-gradient-10" x1="-0.331" y1="-2.537" x2="0.979" y2="1.404" xlink:href="#linear-gradient"/>
  </defs>
  <g id="Grupo_1028051" data-name="Grupo 1028051" transform="translate(-2986 10090)">
    <rect id="Rectángulo_360769" data-name="Rectángulo 360769" width="525" height="338" transform="translate(2986 -10090)" fill="none"/>
    <path id="Trazado_773898" data-name="Trazado 773898" d="M.144,15,1.873,5.047l3.1.007a4.117,4.117,0,0,1,2.6.7A2.177,2.177,0,0,1,8.36,7.72,2.507,2.507,0,0,1,6.617,9.928a1.672,1.672,0,0,1,.923.769,2.3,2.3,0,0,1,.28,1.33,2.88,2.88,0,0,1-1.1,2.191A4.378,4.378,0,0,1,3.965,15Zm2.762-4.334-.472,2.687,1.579.007a2.036,2.036,0,0,0,1.237-.366,1.451,1.451,0,0,0,.595-.988,1.226,1.226,0,0,0-.167-.96,1.11,1.11,0,0,0-.885-.373Zm.246-1.449,1.36.014a2.166,2.166,0,0,0,1.241-.355,1.378,1.378,0,0,0,.578-.95q.171-1.2-1.265-1.21L3.589,6.708Zm10.671.239a3.98,3.98,0,0,0-.649-.068,1.869,1.869,0,0,0-1.634.772L10.685,15H8.757l1.285-7.4L11.854,7.6l-.178.9A2.034,2.034,0,0,1,13.4,7.453a2.812,2.812,0,0,1,.67.1ZM17.855,15a2,2,0,0,1-.075-.67,2.505,2.505,0,0,1-1.887.807,2.27,2.27,0,0,1-1.61-.632,1.913,1.913,0,0,1-.6-1.528A2.211,2.211,0,0,1,14.7,11.121a4.608,4.608,0,0,1,2.594-.646l.9.014.1-.444a1.543,1.543,0,0,0,.021-.431.74.74,0,0,0-.243-.5.836.836,0,0,0-.55-.188,1.177,1.177,0,0,0-.766.222,1.077,1.077,0,0,0-.4.68l-1.935.007a2.15,2.15,0,0,1,.974-1.719,3.773,3.773,0,0,1,2.287-.646,2.727,2.727,0,0,1,1.969.749,2.19,2.19,0,0,1,.595,1.856l-.567,3.541-.034.438a2.111,2.111,0,0,0,.116.82l-.007.13Zm-1.483-1.36a1.765,1.765,0,0,0,1.456-.725l.239-1.278-.67-.007a1.872,1.872,0,0,0-1.538.649,1.131,1.131,0,0,0-.212.554.656.656,0,0,0,.154.584A.779.779,0,0,0,16.372,13.64Zm7.492-5.216a2.578,2.578,0,0,1,2-.957,1.875,1.875,0,0,1,1.617.79,3.1,3.1,0,0,1,.386,2.082L27.091,15H25.163l.786-4.688a2.272,2.272,0,0,0,.014-.493.775.775,0,0,0-.861-.76,1.665,1.665,0,0,0-1.367.671L22.8,15H20.877L22.7,4.5H24.63ZM32.874,15a2,2,0,0,1-.075-.67,2.505,2.505,0,0,1-1.887.807A2.27,2.27,0,0,1,29.3,14.5a1.913,1.913,0,0,1-.6-1.528,2.211,2.211,0,0,1,1.015-1.856,4.608,4.608,0,0,1,2.594-.646l.9.014.1-.444a1.543,1.543,0,0,0,.021-.431.74.74,0,0,0-.243-.5.836.836,0,0,0-.55-.188,1.177,1.177,0,0,0-.766.222,1.077,1.077,0,0,0-.4.68l-1.935.007a2.15,2.15,0,0,1,.974-1.719A3.773,3.773,0,0,1,32.7,7.467a2.727,2.727,0,0,1,1.969.749,2.19,2.19,0,0,1,.595,1.856l-.567,3.541-.034.438a2.111,2.111,0,0,0,.116.82l-.007.13Zm-1.483-1.36a1.765,1.765,0,0,0,1.456-.725l.239-1.278-.67-.007a1.872,1.872,0,0,0-1.538.649,1.131,1.131,0,0,0-.212.554.656.656,0,0,0,.154.584A.779.779,0,0,0,31.391,13.64ZM39.02,7.6l-.157.841a2.723,2.723,0,0,1,2.167-.971,2.081,2.081,0,0,1,1.135.314,1.469,1.469,0,0,1,.608.813,2.848,2.848,0,0,1,2.3-1.128,1.86,1.86,0,0,1,1.535.7,2.862,2.862,0,0,1,.434,1.955l-.014.171L46.238,15H44.3l.786-4.729A3.419,3.419,0,0,0,45.11,9.8a.732.732,0,0,0-.82-.739,1.628,1.628,0,0,0-1.36.849l-.021.157L42.048,15H40.12l.786-4.71a3.411,3.411,0,0,0,.021-.472.731.731,0,0,0-.813-.745,1.634,1.634,0,0,0-1.319.69L37.871,15H35.943l1.278-7.4ZM52.049,15a2,2,0,0,1-.075-.67,2.505,2.505,0,0,1-1.887.807,2.27,2.27,0,0,1-1.61-.632,1.913,1.913,0,0,1-.6-1.528,2.211,2.211,0,0,1,1.015-1.856,4.608,4.608,0,0,1,2.594-.646l.9.014.1-.444a1.543,1.543,0,0,0,.021-.431.74.74,0,0,0-.243-.5.836.836,0,0,0-.55-.188,1.177,1.177,0,0,0-.766.222,1.077,1.077,0,0,0-.4.68l-1.935.007a2.15,2.15,0,0,1,.974-1.719,3.773,3.773,0,0,1,2.287-.646,2.727,2.727,0,0,1,1.969.749,2.19,2.19,0,0,1,.595,1.856l-.567,3.541-.034.438a2.111,2.111,0,0,0,.116.82l-.007.13Zm-1.483-1.36a1.765,1.765,0,0,0,1.456-.725l.239-1.278-.67-.007a1.872,1.872,0,0,0-1.538.649,1.131,1.131,0,0,0-.212.554.656.656,0,0,0,.154.584A.779.779,0,0,0,50.565,13.64Zm7.6-6.043L58,8.472a2.661,2.661,0,0,1,2.153-1,1.774,1.774,0,0,1,1.545.766,3.085,3.085,0,0,1,.362,2.064L61.284,15H59.356l.793-4.724a2.212,2.212,0,0,0,.014-.485.783.783,0,0,0-.875-.718,1.659,1.659,0,0,0-1.36.7L57,15H55.077l1.285-7.4Zm8.142,7.54a3.218,3.218,0,0,1-1.719-.475,2.88,2.88,0,0,1-1.118-1.285,3.582,3.582,0,0,1-.287-1.8l.021-.273a4.782,4.782,0,0,1,.629-1.982,3.8,3.8,0,0,1,1.354-1.391,3.349,3.349,0,0,1,1.832-.461,2.559,2.559,0,0,1,2.164,1.051,3.6,3.6,0,0,1,.557,2.591l-.109.842H65.1a1.587,1.587,0,0,0,.349,1.148,1.331,1.331,0,0,0,1.025.444,2.365,2.365,0,0,0,1.846-.82l.882,1.094A2.743,2.743,0,0,1,68,14.8,3.934,3.934,0,0,1,66.309,15.137Zm.615-6.077a1.37,1.37,0,0,0-.947.335,2.943,2.943,0,0,0-.742,1.21h2.652l.041-.178a1.812,1.812,0,0,0,.007-.52.992.992,0,0,0-.335-.619A1.05,1.05,0,0,0,66.924,9.06Zm7.567,3.855q.109-.547-.759-.793l-.622-.157q-2.208-.608-2.146-2.146a2.124,2.124,0,0,1,.926-1.706,3.449,3.449,0,0,1,2.15-.646,3.094,3.094,0,0,1,2.023.663,2.184,2.184,0,0,1,.786,1.729l-1.914-.007a.843.843,0,0,0-.943-.964,1.358,1.358,0,0,0-.783.226.929.929,0,0,0-.407.608q-.1.547.827.772l.273.062a5.5,5.5,0,0,1,1.442.516,2.177,2.177,0,0,1,.769.721,1.785,1.785,0,0,1,.25,1.032,1.97,1.97,0,0,1-.455,1.23,2.783,2.783,0,0,1-1.189.813,4.144,4.144,0,0,1-1.589.267,3.122,3.122,0,0,1-2.051-.708,2.281,2.281,0,0,1-.834-1.794l1.818.014A1,1,0,0,0,73.2,13.722a1.614,1.614,0,0,0,.878-.219A.864.864,0,0,0,74.491,12.915Zm3.6,1.114a1,1,0,0,1,.318-.766,1.235,1.235,0,0,1,1.6,0,1,1,0,0,1,.318.766.981.981,0,0,1-.314.755,1.256,1.256,0,0,1-1.606,0A.981.981,0,0,1,78.087,14.029Zm0-5.6a1,1,0,0,1,.318-.766,1.235,1.235,0,0,1,1.6,0,1,1,0,0,1,.318.766.981.981,0,0,1-.314.755,1.256,1.256,0,0,1-1.606,0A.981.981,0,0,1,78.087,8.431Zm11.826,4.607a.931.931,0,0,0-.386-.8,3.718,3.718,0,0,0-1.347-.489,6.367,6.367,0,0,1-1.524-.492,2.169,2.169,0,0,1-.834-.684,1.635,1.635,0,0,1-.27-.943A1.919,1.919,0,0,1,86.321,8.1a3,3,0,0,1,1.965-.629,3.091,3.091,0,0,1,2.041.649,2.063,2.063,0,0,1,.783,1.661H89.838a1.142,1.142,0,0,0-.441-.9,1.652,1.652,0,0,0-1.111-.376,1.729,1.729,0,0,0-1.08.3.947.947,0,0,0-.39.786.767.767,0,0,0,.362.69,4.458,4.458,0,0,0,1.309.444,6.821,6.821,0,0,1,1.535.506,2.239,2.239,0,0,1,.872.708,1.74,1.74,0,0,1,.284,1.008,1.893,1.893,0,0,1-.793,1.589,3.326,3.326,0,0,1-2.058.6,3.725,3.725,0,0,1-1.572-.314,2.557,2.557,0,0,1-1.07-.878,2.117,2.117,0,0,1-.386-1.22h1.265a1.309,1.309,0,0,0,.509,1.008,1.976,1.976,0,0,0,1.254.373,2.039,2.039,0,0,0,1.152-.291A.893.893,0,0,0,89.913,13.038ZM97.392,15a2.657,2.657,0,0,1-.178-.779,2.822,2.822,0,0,1-2.105.916,2.611,2.611,0,0,1-1.794-.619,2,2,0,0,1-.7-1.569,2.091,2.091,0,0,1,.878-1.794,4.141,4.141,0,0,1,2.471-.639h1.23V9.935a1.42,1.42,0,0,0-.4-1.056,1.593,1.593,0,0,0-1.169-.393,1.844,1.844,0,0,0-1.135.342,1.007,1.007,0,0,0-.458.827H92.764a1.745,1.745,0,0,1,.393-1.07,2.683,2.683,0,0,1,1.066-.817,3.588,3.588,0,0,1,1.48-.3,2.924,2.924,0,0,1,2,.639,2.306,2.306,0,0,1,.752,1.76v3.4a4.162,4.162,0,0,0,.26,1.62V15Zm-2.1-.964a2.223,2.223,0,0,0,1.128-.308,1.861,1.861,0,0,0,.772-.8V11.411H96.2q-2.324,0-2.324,1.36a1.151,1.151,0,0,0,.4.93A1.524,1.524,0,0,0,95.293,14.036Zm8.114.068a1.822,1.822,0,0,0,1.183-.41,1.443,1.443,0,0,0,.561-1.025h1.2a2.293,2.293,0,0,1-.437,1.21,2.882,2.882,0,0,1-1.077.916,3.107,3.107,0,0,1-1.425.342,3.047,3.047,0,0,1-2.4-1.008,4.016,4.016,0,0,1-.892-2.758v-.212a4.453,4.453,0,0,1,.4-1.921,3.02,3.02,0,0,1,1.138-1.306,3.233,3.233,0,0,1,1.753-.465,2.966,2.966,0,0,1,2.068.745,2.663,2.663,0,0,1,.878,1.935h-1.2a1.743,1.743,0,0,0-.543-1.179,1.691,1.691,0,0,0-1.207-.461,1.77,1.77,0,0,0-1.494.694,3.259,3.259,0,0,0-.53,2.006v.239a3.194,3.194,0,0,0,.526,1.969A1.779,1.779,0,0,0,103.407,14.1Zm7.431,1.032a3.232,3.232,0,0,1-2.447-.988,3.666,3.666,0,0,1-.943-2.642v-.232a4.438,4.438,0,0,1,.42-1.965,3.28,3.28,0,0,1,1.176-1.354,2.956,2.956,0,0,1,1.637-.489,2.77,2.77,0,0,1,2.242.95,4.114,4.114,0,0,1,.8,2.721v.526h-5.011a2.629,2.629,0,0,0,.639,1.767,2.009,2.009,0,0,0,1.555.673,2.2,2.2,0,0,0,1.135-.273,2.851,2.851,0,0,0,.813-.725l.772.6A3.106,3.106,0,0,1,110.838,15.137Zm-.157-6.631a1.687,1.687,0,0,0-1.285.557,2.708,2.708,0,0,0-.643,1.562h3.705v-.1a2.409,2.409,0,0,0-.52-1.494A1.588,1.588,0,0,0,110.681,8.506Zm8.08.232a3.79,3.79,0,0,0-.622-.048,1.667,1.667,0,0,0-1.688,1.06V15h-1.265V7.6h1.23l.021.854a1.969,1.969,0,0,1,1.764-.991,1.292,1.292,0,0,1,.561.1Zm.725,2.5a4.333,4.333,0,0,1,.807-2.738,2.745,2.745,0,0,1,4.17-.147V4.5h1.265V15h-1.162l-.062-.793a2.575,2.575,0,0,1-2.112.93,2.526,2.526,0,0,1-2.1-1.053,4.382,4.382,0,0,1-.81-2.748Zm1.265.144a3.281,3.281,0,0,0,.52,1.969,1.68,1.68,0,0,0,1.436.711,1.845,1.845,0,0,0,1.757-1.08v-3.4a1.859,1.859,0,0,0-1.743-1.046,1.687,1.687,0,0,0-1.449.718A3.612,3.612,0,0,0,120.75,11.384Zm6.6-.15a4.369,4.369,0,0,1,.427-1.955,3.187,3.187,0,0,1,1.189-1.34,3.238,3.238,0,0,1,1.74-.472,3.119,3.119,0,0,1,2.444,1.046,4.024,4.024,0,0,1,.933,2.782v.089a4.407,4.407,0,0,1-.414,1.938,3.14,3.14,0,0,1-1.183,1.336,3.275,3.275,0,0,1-1.767.479,3.111,3.111,0,0,1-2.437-1.046,4,4,0,0,1-.933-2.769Zm1.271.15a3.164,3.164,0,0,0,.571,1.976,1.934,1.934,0,0,0,3.059-.01,3.46,3.46,0,0,0,.567-2.116,3.159,3.159,0,0,0-.578-1.972,1.836,1.836,0,0,0-1.535-.755,1.816,1.816,0,0,0-1.511.745A3.435,3.435,0,0,0,128.625,11.384Zm8.764-5.571V7.6h1.381v.978h-1.381v4.593a1.027,1.027,0,0,0,.185.667.777.777,0,0,0,.629.222,3.062,3.062,0,0,0,.6-.082V15a3.688,3.688,0,0,1-.971.136,1.575,1.575,0,0,1-1.278-.513,2.2,2.2,0,0,1-.431-1.456V8.581h-1.347V7.6h1.347V5.813Zm5.927,9.324a3.232,3.232,0,0,1-2.447-.988,3.666,3.666,0,0,1-.943-2.642v-.232a4.438,4.438,0,0,1,.42-1.965,3.279,3.279,0,0,1,1.176-1.354,2.956,2.956,0,0,1,1.637-.489,2.77,2.77,0,0,1,2.242.95,4.114,4.114,0,0,1,.8,2.721v.526h-5.011a2.629,2.629,0,0,0,.639,1.767,2.009,2.009,0,0,0,1.555.673,2.2,2.2,0,0,0,1.135-.273,2.851,2.851,0,0,0,.813-.725l.772.6A3.106,3.106,0,0,1,143.315,15.137Zm-.157-6.631a1.687,1.687,0,0,0-1.285.557,2.708,2.708,0,0,0-.643,1.562h3.705v-.1a2.409,2.409,0,0,0-.52-1.494A1.588,1.588,0,0,0,143.158,8.506Zm8.812,4.532a.931.931,0,0,0-.386-.8,3.718,3.718,0,0,0-1.347-.489,6.367,6.367,0,0,1-1.524-.492,2.169,2.169,0,0,1-.834-.684,1.635,1.635,0,0,1-.27-.943,1.919,1.919,0,0,1,.769-1.538,3,3,0,0,1,1.965-.629,3.091,3.091,0,0,1,2.041.649,2.063,2.063,0,0,1,.783,1.661h-1.271a1.142,1.142,0,0,0-.441-.9,1.652,1.652,0,0,0-1.111-.376,1.729,1.729,0,0,0-1.08.3.947.947,0,0,0-.39.786.767.767,0,0,0,.362.69,4.458,4.458,0,0,0,1.309.444,6.821,6.821,0,0,1,1.535.506,2.239,2.239,0,0,1,.872.708,1.74,1.74,0,0,1,.284,1.008,1.893,1.893,0,0,1-.793,1.589,3.326,3.326,0,0,1-2.058.6,3.725,3.725,0,0,1-1.572-.314,2.557,2.557,0,0,1-1.07-.878,2.117,2.117,0,0,1-.386-1.22h1.265a1.309,1.309,0,0,0,.509,1.008,1.976,1.976,0,0,0,1.254.373,2.039,2.039,0,0,0,1.152-.291A.893.893,0,0,0,151.97,13.038Zm2.871,3.944-.718-.492a3.3,3.3,0,0,0,.67-1.846V13.5h1.237v.991a3.114,3.114,0,0,1-.338,1.381A3.233,3.233,0,0,1,154.841,16.982ZM2.331,33H1.066V25.6H2.331ZM.964,23.642a.755.755,0,0,1,.188-.52.706.706,0,0,1,.557-.212.717.717,0,0,1,.561.212.747.747,0,0,1,.191.52.722.722,0,0,1-.191.513.73.73,0,0,1-.561.205.718.718,0,0,1-.557-.205A.73.73,0,0,1,.964,23.642ZM5.551,25.6l.041.93a2.7,2.7,0,0,1,2.215-1.066q2.345,0,2.365,2.646V33H8.907V28.105a1.7,1.7,0,0,0-.366-1.183,1.466,1.466,0,0,0-1.118-.383,1.825,1.825,0,0,0-1.08.328,2.228,2.228,0,0,0-.725.861V33H4.354V25.6Zm8.244-1.791V25.6h1.381v.978H13.795v4.593a1.027,1.027,0,0,0,.185.667.777.777,0,0,0,.629.222,3.062,3.062,0,0,0,.6-.082V33a3.688,3.688,0,0,1-.971.136,1.575,1.575,0,0,1-1.278-.513,2.2,2.2,0,0,1-.431-1.456V26.581H11.184V25.6H12.53V23.813Zm5.927,9.324a3.232,3.232,0,0,1-2.447-.988,3.666,3.666,0,0,1-.943-2.642v-.232a4.438,4.438,0,0,1,.42-1.965,3.28,3.28,0,0,1,1.176-1.354,2.956,2.956,0,0,1,1.637-.489,2.77,2.77,0,0,1,2.242.95,4.114,4.114,0,0,1,.8,2.721v.526H17.6a2.629,2.629,0,0,0,.639,1.767,2.009,2.009,0,0,0,1.555.673,2.2,2.2,0,0,0,1.135-.273,2.851,2.851,0,0,0,.813-.725l.772.6A3.106,3.106,0,0,1,19.722,33.137Zm-.157-6.631a1.687,1.687,0,0,0-1.285.557,2.708,2.708,0,0,0-.643,1.562h3.705v-.1a2.409,2.409,0,0,0-.52-1.494A1.588,1.588,0,0,0,19.564,26.506ZM25.443,33H24.179V22.5h1.265Zm5.093.137a3.232,3.232,0,0,1-2.447-.988,3.666,3.666,0,0,1-.943-2.642v-.232a4.438,4.438,0,0,1,.42-1.965,3.28,3.28,0,0,1,1.176-1.354,2.956,2.956,0,0,1,1.637-.489,2.77,2.77,0,0,1,2.242.95,4.114,4.114,0,0,1,.8,2.721v.526H28.41a2.629,2.629,0,0,0,.639,1.767A2.009,2.009,0,0,0,30.6,32.1a2.2,2.2,0,0,0,1.135-.273,2.851,2.851,0,0,0,.813-.725l.772.6A3.106,3.106,0,0,1,30.536,33.137Zm-.157-6.631a1.687,1.687,0,0,0-1.285.557,2.708,2.708,0,0,0-.643,1.562h3.705v-.1a2.409,2.409,0,0,0-.52-1.494A1.588,1.588,0,0,0,30.379,26.506Zm7.472,5.6a1.822,1.822,0,0,0,1.183-.41,1.443,1.443,0,0,0,.561-1.025h1.2a2.293,2.293,0,0,1-.437,1.21,2.881,2.881,0,0,1-1.077.916,3.107,3.107,0,0,1-1.425.342,3.047,3.047,0,0,1-2.4-1.008,4.016,4.016,0,0,1-.892-2.758v-.212a4.453,4.453,0,0,1,.4-1.921,3.02,3.02,0,0,1,1.138-1.306,3.233,3.233,0,0,1,1.753-.465,2.966,2.966,0,0,1,2.068.745,2.663,2.663,0,0,1,.878,1.935h-1.2a1.743,1.743,0,0,0-.543-1.179,1.691,1.691,0,0,0-1.207-.461,1.77,1.77,0,0,0-1.494.694,3.259,3.259,0,0,0-.53,2.006v.239a3.194,3.194,0,0,0,.526,1.969A1.779,1.779,0,0,0,37.851,32.1Zm6.077-8.292V25.6h1.381v.978H43.928v4.593a1.027,1.027,0,0,0,.185.667.777.777,0,0,0,.629.222,3.062,3.062,0,0,0,.6-.082V33a3.688,3.688,0,0,1-.971.136,1.575,1.575,0,0,1-1.278-.513,2.2,2.2,0,0,1-.431-1.456V26.581H41.316V25.6h1.347V23.813Zm7.424,8.456a2.686,2.686,0,0,1-2.167.868,2.3,2.3,0,0,1-1.8-.687,2.974,2.974,0,0,1-.625-2.034V25.6h1.265v4.778q0,1.682,1.367,1.682a1.893,1.893,0,0,0,1.928-1.08V25.6h1.265V33h-1.2ZM59.069,33a2.657,2.657,0,0,1-.178-.779,2.822,2.822,0,0,1-2.105.916,2.611,2.611,0,0,1-1.794-.619,2,2,0,0,1-.7-1.569,2.091,2.091,0,0,1,.878-1.794,4.142,4.142,0,0,1,2.471-.639h1.23v-.581a1.42,1.42,0,0,0-.4-1.056,1.593,1.593,0,0,0-1.169-.393,1.844,1.844,0,0,0-1.135.342,1.007,1.007,0,0,0-.458.827H54.441a1.745,1.745,0,0,1,.393-1.07,2.683,2.683,0,0,1,1.066-.817,3.588,3.588,0,0,1,1.48-.3,2.924,2.924,0,0,1,2,.639,2.306,2.306,0,0,1,.752,1.76v3.4a4.162,4.162,0,0,0,.26,1.62V33Zm-2.1-.964a2.223,2.223,0,0,0,1.128-.308,1.861,1.861,0,0,0,.772-.8V29.411H57.88q-2.324,0-2.324,1.36a1.151,1.151,0,0,0,.4.93A1.524,1.524,0,0,0,56.971,32.036ZM63.492,33H62.228V22.5h1.265Zm5.093.137a3.232,3.232,0,0,1-2.447-.988,3.666,3.666,0,0,1-.943-2.642v-.232a4.438,4.438,0,0,1,.42-1.965,3.28,3.28,0,0,1,1.176-1.354,2.956,2.956,0,0,1,1.637-.489,2.77,2.77,0,0,1,2.242.95,4.114,4.114,0,0,1,.8,2.721v.526H66.459a2.629,2.629,0,0,0,.639,1.767,2.009,2.009,0,0,0,1.555.673,2.2,2.2,0,0,0,1.135-.273,2.851,2.851,0,0,0,.813-.725l.772.6A3.106,3.106,0,0,1,68.585,33.137Zm-.157-6.631a1.687,1.687,0,0,0-1.285.557,2.708,2.708,0,0,0-.643,1.562h3.705v-.1a2.409,2.409,0,0,0-.52-1.494A1.588,1.588,0,0,0,68.428,26.506Zm8.812,4.532a.931.931,0,0,0-.386-.8,3.718,3.718,0,0,0-1.347-.489,6.367,6.367,0,0,1-1.524-.492,2.169,2.169,0,0,1-.834-.684,1.635,1.635,0,0,1-.27-.943,1.919,1.919,0,0,1,.769-1.538,3,3,0,0,1,1.965-.629,3.091,3.091,0,0,1,2.041.649,2.063,2.063,0,0,1,.783,1.661H77.164a1.142,1.142,0,0,0-.441-.9,1.652,1.652,0,0,0-1.111-.376,1.729,1.729,0,0,0-1.08.3.947.947,0,0,0-.39.786.767.767,0,0,0,.362.69,4.458,4.458,0,0,0,1.309.444,6.821,6.821,0,0,1,1.535.506,2.239,2.239,0,0,1,.872.708,1.74,1.74,0,0,1,.284,1.008,1.893,1.893,0,0,1-.793,1.589,3.326,3.326,0,0,1-2.058.6,3.725,3.725,0,0,1-1.572-.314,2.557,2.557,0,0,1-1.07-.878,2.117,2.117,0,0,1-.386-1.22H73.89a1.309,1.309,0,0,0,.509,1.008,1.976,1.976,0,0,0,1.254.373,2.039,2.039,0,0,0,1.152-.291A.893.893,0,0,0,77.239,31.038Zm8.8.109L87.76,25.6h1.354L86.14,34.142q-.69,1.846-2.194,1.846l-.239-.021-.472-.089V34.853l.342.027a1.683,1.683,0,0,0,1-.26,1.88,1.88,0,0,0,.591-.95l.28-.752L82.811,25.6h1.381Zm13.918-1.764a4.429,4.429,0,0,1-.772,2.721,2.476,2.476,0,0,1-2.092,1.032,2.713,2.713,0,0,1-2.119-.854v3.562H93.707V25.6h1.155l.062.82a2.605,2.605,0,0,1,2.146-.957,2.522,2.522,0,0,1,2.109,1,4.477,4.477,0,0,1,.776,2.8ZM98.69,29.24a3.268,3.268,0,0,0-.533-1.976,1.718,1.718,0,0,0-1.463-.725,1.859,1.859,0,0,0-1.723,1.019v3.534A1.863,1.863,0,0,0,96.708,32.1a1.71,1.71,0,0,0,1.446-.721A3.567,3.567,0,0,0,98.69,29.24Zm6.446-2.5a3.79,3.79,0,0,0-.622-.048,1.667,1.667,0,0,0-1.688,1.06V33h-1.265V25.6h1.23l.021.854a1.969,1.969,0,0,1,1.764-.991,1.292,1.292,0,0,1,.561.1Zm.69,2.5a4.369,4.369,0,0,1,.427-1.955,3.187,3.187,0,0,1,1.189-1.34,3.238,3.238,0,0,1,1.74-.472,3.119,3.119,0,0,1,2.444,1.046,4.024,4.024,0,0,1,.933,2.782v.089a4.407,4.407,0,0,1-.414,1.938,3.14,3.14,0,0,1-1.183,1.336,3.275,3.275,0,0,1-1.767.479,3.111,3.111,0,0,1-2.437-1.046,4,4,0,0,1-.933-2.769Zm1.271.15a3.164,3.164,0,0,0,.571,1.976,1.934,1.934,0,0,0,3.059-.01,3.46,3.46,0,0,0,.567-2.116,3.159,3.159,0,0,0-.578-1.972,1.836,1.836,0,0,0-1.535-.755,1.816,1.816,0,0,0-1.511.745A3.434,3.434,0,0,0,107.1,29.384ZM114.769,33V26.581H113.6V25.6h1.169v-.759a2.519,2.519,0,0,1,.636-1.839,2.4,2.4,0,0,1,1.8-.649,3.339,3.339,0,0,1,.868.115L118,23.491a3.632,3.632,0,0,0-.684-.062,1.234,1.234,0,0,0-.95.36,1.46,1.46,0,0,0-.335,1.032V25.6h1.579v.978h-1.579V33Zm7.144.137a3.232,3.232,0,0,1-2.447-.988,3.666,3.666,0,0,1-.943-2.642v-.232a4.438,4.438,0,0,1,.42-1.965,3.28,3.28,0,0,1,1.176-1.354,2.956,2.956,0,0,1,1.637-.489,2.77,2.77,0,0,1,2.242.95,4.114,4.114,0,0,1,.8,2.721v.526h-5.011a2.629,2.629,0,0,0,.639,1.767,2.009,2.009,0,0,0,1.555.673,2.2,2.2,0,0,0,1.135-.273,2.851,2.851,0,0,0,.813-.725l.772.6A3.106,3.106,0,0,1,121.912,33.137Zm-.157-6.631a1.687,1.687,0,0,0-1.285.557,2.708,2.708,0,0,0-.643,1.562h3.705v-.1a2.409,2.409,0,0,0-.52-1.494A1.588,1.588,0,0,0,121.755,26.506Zm8.812,4.532a.931.931,0,0,0-.386-.8,3.718,3.718,0,0,0-1.347-.489,6.367,6.367,0,0,1-1.524-.492,2.169,2.169,0,0,1-.834-.684,1.635,1.635,0,0,1-.27-.943,1.919,1.919,0,0,1,.769-1.538,3,3,0,0,1,1.965-.629,3.091,3.091,0,0,1,2.041.649,2.063,2.063,0,0,1,.783,1.661h-1.271a1.142,1.142,0,0,0-.441-.9,1.652,1.652,0,0,0-1.111-.376,1.729,1.729,0,0,0-1.08.3.947.947,0,0,0-.39.786.767.767,0,0,0,.362.69,4.458,4.458,0,0,0,1.309.444,6.821,6.821,0,0,1,1.535.506,2.239,2.239,0,0,1,.872.708,1.74,1.74,0,0,1,.284,1.008,1.893,1.893,0,0,1-.793,1.589,3.326,3.326,0,0,1-2.058.6,3.725,3.725,0,0,1-1.572-.314,2.557,2.557,0,0,1-1.07-.878,2.117,2.117,0,0,1-.386-1.22h1.265a1.309,1.309,0,0,0,.509,1.008,1.976,1.976,0,0,0,1.254.373,2.039,2.039,0,0,0,1.152-.291A.893.893,0,0,0,130.566,31.038Zm2.577-1.8a4.369,4.369,0,0,1,.427-1.955,3.187,3.187,0,0,1,1.189-1.34,3.238,3.238,0,0,1,1.74-.472,3.119,3.119,0,0,1,2.444,1.046,4.024,4.024,0,0,1,.933,2.782v.089a4.407,4.407,0,0,1-.414,1.938,3.14,3.14,0,0,1-1.183,1.336,3.275,3.275,0,0,1-1.767.479,3.111,3.111,0,0,1-2.437-1.046,4,4,0,0,1-.933-2.769Zm1.271.15a3.164,3.164,0,0,0,.571,1.976,1.934,1.934,0,0,0,3.059-.01,3.46,3.46,0,0,0,.567-2.116,3.159,3.159,0,0,0-.578-1.972,1.836,1.836,0,0,0-1.535-.755,1.816,1.816,0,0,0-1.511.745A3.434,3.434,0,0,0,134.415,29.384Zm10.623-2.646a3.79,3.79,0,0,0-.622-.048,1.667,1.667,0,0,0-1.688,1.06V33h-1.265V25.6h1.23l.021.854a1.969,1.969,0,0,1,1.764-.991,1.292,1.292,0,0,1,.561.1Zm4.1,6.4a3.232,3.232,0,0,1-2.447-.988,3.666,3.666,0,0,1-.943-2.642v-.232a4.438,4.438,0,0,1,.42-1.965,3.279,3.279,0,0,1,1.176-1.354,2.956,2.956,0,0,1,1.637-.489,2.77,2.77,0,0,1,2.242.95,4.114,4.114,0,0,1,.8,2.721v.526h-5.011a2.629,2.629,0,0,0,.639,1.767,2.009,2.009,0,0,0,1.555.673,2.2,2.2,0,0,0,1.135-.273,2.851,2.851,0,0,0,.813-.725l.772.6A3.106,3.106,0,0,1,149.14,33.137Zm-.157-6.631a1.687,1.687,0,0,0-1.285.557,2.708,2.708,0,0,0-.643,1.562h3.705v-.1a2.409,2.409,0,0,0-.52-1.494A1.588,1.588,0,0,0,148.982,26.506Zm8.812,4.532a.931.931,0,0,0-.386-.8,3.718,3.718,0,0,0-1.347-.489,6.367,6.367,0,0,1-1.524-.492,2.169,2.169,0,0,1-.834-.684,1.635,1.635,0,0,1-.27-.943A1.919,1.919,0,0,1,154.2,26.1a3,3,0,0,1,1.965-.629,3.091,3.091,0,0,1,2.041.649,2.063,2.063,0,0,1,.783,1.661h-1.271a1.142,1.142,0,0,0-.441-.9,1.652,1.652,0,0,0-1.111-.376,1.729,1.729,0,0,0-1.08.3.947.947,0,0,0-.39.786.767.767,0,0,0,.362.69,4.458,4.458,0,0,0,1.309.444,6.821,6.821,0,0,1,1.535.506,2.239,2.239,0,0,1,.872.708,1.74,1.74,0,0,1,.284,1.008,1.893,1.893,0,0,1-.793,1.589,3.326,3.326,0,0,1-2.058.6,3.725,3.725,0,0,1-1.572-.314,2.557,2.557,0,0,1-1.07-.878,2.117,2.117,0,0,1-.386-1.22h1.265a1.309,1.309,0,0,0,.509,1.008,1.976,1.976,0,0,0,1.254.373,2.039,2.039,0,0,0,1.152-.291A.893.893,0,0,0,157.794,31.038Zm2.939,1.3a.792.792,0,0,1,.195-.547.742.742,0,0,1,.584-.219.765.765,0,0,1,.591.219.776.776,0,0,1,.2.547.734.734,0,0,1-.2.526.778.778,0,0,1-.591.212.7.7,0,0,1-.779-.738Z" transform="translate(3334 -10068.072)" fill="#12263f"/>
    <path id="Trazado_773899" data-name="Trazado 773899" d="M3.938,11.028,2.625,12.245,2.146,15h-2L1.873,5.047h2L3.11,9.436,4.129,8.287l2.994-3.24H9.734l-4.3,4.525L8,15H5.715ZM13,12.915q.109-.547-.759-.793l-.622-.157q-2.208-.608-2.146-2.146a2.124,2.124,0,0,1,.926-1.706,3.449,3.449,0,0,1,2.15-.646,3.094,3.094,0,0,1,2.023.663,2.184,2.184,0,0,1,.786,1.729l-1.914-.007a.843.843,0,0,0-.943-.964,1.358,1.358,0,0,0-.783.226.929.929,0,0,0-.407.608q-.1.547.827.772l.273.062a5.5,5.5,0,0,1,1.442.516,2.177,2.177,0,0,1,.769.721,1.785,1.785,0,0,1,.25,1.032,1.97,1.97,0,0,1-.455,1.23,2.782,2.782,0,0,1-1.189.813,4.144,4.144,0,0,1-1.589.267,3.122,3.122,0,0,1-2.051-.708,2.281,2.281,0,0,1-.834-1.794l1.818.014A1,1,0,0,0,11.7,13.722a1.614,1.614,0,0,0,.878-.219A.864.864,0,0,0,13,12.915Zm5.7-4.491a2.578,2.578,0,0,1,2-.957,1.875,1.875,0,0,1,1.617.79,3.1,3.1,0,0,1,.386,2.082L21.923,15H20l.786-4.688a2.272,2.272,0,0,0,.014-.493.775.775,0,0,0-.861-.76,1.665,1.665,0,0,0-1.367.671L17.637,15H15.709L17.527,4.5h1.935ZM27.706,15a2,2,0,0,1-.075-.67,2.505,2.505,0,0,1-1.887.807,2.27,2.27,0,0,1-1.61-.632,1.913,1.913,0,0,1-.6-1.528,2.211,2.211,0,0,1,1.015-1.856,4.608,4.608,0,0,1,2.594-.646l.9.014.1-.444a1.543,1.543,0,0,0,.021-.431.74.74,0,0,0-.243-.5.836.836,0,0,0-.55-.188,1.177,1.177,0,0,0-.766.222,1.077,1.077,0,0,0-.4.68l-1.935.007a2.15,2.15,0,0,1,.974-1.719,3.773,3.773,0,0,1,2.287-.646,2.727,2.727,0,0,1,1.969.749,2.19,2.19,0,0,1,.595,1.856l-.567,3.541-.034.438a2.111,2.111,0,0,0,.116.82L29.6,15Zm-1.483-1.36a1.765,1.765,0,0,0,1.456-.725l.239-1.278-.67-.007a1.872,1.872,0,0,0-1.538.649,1.131,1.131,0,0,0-.212.554.656.656,0,0,0,.154.584A.779.779,0,0,0,26.223,13.64ZM28.465,4.5H30.7L28.526,6.619h-1.7Zm6.221,1.285L34.364,7.6h1.23l-.253,1.449h-1.23l-.629,3.705a.942.942,0,0,0,.055.533q.1.185.465.2.109.007.588-.034l-.137,1.511a3.242,3.242,0,0,1-1.107.157,1.737,1.737,0,0,1-1.415-.595,2.149,2.149,0,0,1-.383-1.572l.636-3.9H31.138L31.391,7.6h1.046l.314-1.818ZM40.5,9.456a3.98,3.98,0,0,0-.649-.068,1.869,1.869,0,0,0-1.634.772L37.358,15H35.431l1.285-7.4L38.527,7.6l-.178.9a2.034,2.034,0,0,1,1.723-1.046,2.812,2.812,0,0,1,.67.1Zm2,5.544H40.551l1.285-7.4h1.941Zm-.431-9.276a.963.963,0,0,1,.3-.759,1.157,1.157,0,0,1,1.518-.034.959.959,0,0,1,.335.725.99.99,0,0,1-.284.738,1.063,1.063,0,0,1-.776.328,1.081,1.081,0,0,1-.755-.26A.954.954,0,0,1,42.062,5.724Zm5.2,6.46L49.376,7.6h2.146L47.2,16.114A3.7,3.7,0,0,1,46.1,17.55a2.383,2.383,0,0,1-1.446.458,4.406,4.406,0,0,1-.93-.144l.144-1.5.267.014a1.445,1.445,0,0,0,1.381-.69l.424-.786L44.734,7.6h2ZM55.289,15a2,2,0,0,1-.075-.67,2.505,2.505,0,0,1-1.887.807,2.27,2.27,0,0,1-1.61-.632,1.913,1.913,0,0,1-.6-1.528,2.211,2.211,0,0,1,1.015-1.856,4.608,4.608,0,0,1,2.594-.646l.9.014.1-.444a1.543,1.543,0,0,0,.021-.431.74.74,0,0,0-.243-.5.836.836,0,0,0-.55-.188,1.177,1.177,0,0,0-.766.222,1.077,1.077,0,0,0-.4.68l-1.935.007a2.15,2.15,0,0,1,.974-1.719,3.773,3.773,0,0,1,2.287-.646,2.727,2.727,0,0,1,1.969.749,2.19,2.19,0,0,1,.595,1.856l-.567,3.541-.034.438a2.111,2.111,0,0,0,.116.82l-.007.13Zm-1.483-1.36a1.765,1.765,0,0,0,1.456-.725l.239-1.278-.67-.007a1.872,1.872,0,0,0-1.538.649,1.131,1.131,0,0,0-.212.554.656.656,0,0,0,.154.584A.779.779,0,0,0,53.806,13.64Zm8.839-.725q.109-.547-.759-.793l-.622-.157q-2.208-.608-2.146-2.146a2.124,2.124,0,0,1,.926-1.706,3.449,3.449,0,0,1,2.15-.646,3.094,3.094,0,0,1,2.023.663A2.184,2.184,0,0,1,65,9.859l-1.914-.007a.843.843,0,0,0-.943-.964,1.358,1.358,0,0,0-.783.226.929.929,0,0,0-.407.608q-.1.547.827.772l.273.062a5.5,5.5,0,0,1,1.442.516,2.177,2.177,0,0,1,.769.721,1.785,1.785,0,0,1,.25,1.032,1.97,1.97,0,0,1-.455,1.23,2.782,2.782,0,0,1-1.189.813,4.144,4.144,0,0,1-1.589.267,3.122,3.122,0,0,1-2.051-.708,2.281,2.281,0,0,1-.834-1.794l1.818.014a1,1,0,0,0,1.135,1.073,1.614,1.614,0,0,0,.878-.219A.864.864,0,0,0,62.645,12.915Zm3.6,1.114a1,1,0,0,1,.318-.766,1.235,1.235,0,0,1,1.6,0,1,1,0,0,1,.318.766.981.981,0,0,1-.314.755,1.256,1.256,0,0,1-1.606,0A.981.981,0,0,1,66.24,14.029Zm0-5.6a1,1,0,0,1,.318-.766,1.235,1.235,0,0,1,1.6,0,1,1,0,0,1,.318.766.981.981,0,0,1-.314.755,1.256,1.256,0,0,1-1.606,0A.981.981,0,0,1,66.24,8.431Zm11.826,4.607a.931.931,0,0,0-.386-.8,3.718,3.718,0,0,0-1.347-.489,6.367,6.367,0,0,1-1.524-.492,2.169,2.169,0,0,1-.834-.684,1.635,1.635,0,0,1-.27-.943A1.919,1.919,0,0,1,74.474,8.1a3,3,0,0,1,1.965-.629,3.091,3.091,0,0,1,2.041.649,2.063,2.063,0,0,1,.783,1.661H77.991a1.142,1.142,0,0,0-.441-.9,1.652,1.652,0,0,0-1.111-.376,1.729,1.729,0,0,0-1.08.3.947.947,0,0,0-.39.786.767.767,0,0,0,.362.69,4.458,4.458,0,0,0,1.309.444,6.821,6.821,0,0,1,1.535.506,2.239,2.239,0,0,1,.872.708,1.74,1.74,0,0,1,.284,1.008,1.893,1.893,0,0,1-.793,1.589,3.326,3.326,0,0,1-2.058.6,3.725,3.725,0,0,1-1.572-.314,2.557,2.557,0,0,1-1.07-.878,2.117,2.117,0,0,1-.386-1.22h1.265a1.309,1.309,0,0,0,.509,1.008,1.976,1.976,0,0,0,1.254.373,2.039,2.039,0,0,0,1.152-.291A.893.893,0,0,0,78.066,13.038Zm2.577-1.8a4.369,4.369,0,0,1,.427-1.955,3.187,3.187,0,0,1,1.189-1.34A3.238,3.238,0,0,1,84,7.467a3.119,3.119,0,0,1,2.444,1.046,4.024,4.024,0,0,1,.933,2.782v.089a4.407,4.407,0,0,1-.414,1.938,3.14,3.14,0,0,1-1.183,1.336,3.275,3.275,0,0,1-1.767.479,3.111,3.111,0,0,1-2.437-1.046,4,4,0,0,1-.933-2.769Zm1.271.15a3.164,3.164,0,0,0,.571,1.976,1.934,1.934,0,0,0,3.059-.01,3.46,3.46,0,0,0,.567-2.116,3.159,3.159,0,0,0-.578-1.972A1.836,1.836,0,0,0,84,8.506a1.816,1.816,0,0,0-1.511.745A3.435,3.435,0,0,0,81.915,11.384ZM90.159,7.6l.041.93a2.7,2.7,0,0,1,2.215-1.066q2.345,0,2.365,2.646V15H93.516V10.105a1.7,1.7,0,0,0-.366-1.183,1.466,1.466,0,0,0-1.118-.383,1.825,1.825,0,0,0-1.08.328,2.228,2.228,0,0,0-.725.861V15H88.963V7.6Zm9.693,3.637a4.347,4.347,0,0,1,.8-2.751,2.757,2.757,0,0,1,4.231-.065l.062-.82H106.1v7.219a3.009,3.009,0,0,1-.851,2.263,3.141,3.141,0,0,1-2.287.827,3.8,3.8,0,0,1-1.565-.342,2.7,2.7,0,0,1-1.169-.937l.656-.759a2.473,2.473,0,0,0,1.989,1,1.938,1.938,0,0,0,1.439-.52,1.986,1.986,0,0,0,.516-1.463v-.636a2.6,2.6,0,0,1-2.071.875,2.527,2.527,0,0,1-2.1-1.046A4.571,4.571,0,0,1,99.853,11.24Zm1.271.144a3.316,3.316,0,0,0,.513,1.965,1.666,1.666,0,0,0,1.436.714,1.852,1.852,0,0,0,1.757-1.087V9.6a1.874,1.874,0,0,0-1.743-1.06,1.681,1.681,0,0,0-1.442.718A3.612,3.612,0,0,0,101.124,11.384Zm11.45,2.885a2.686,2.686,0,0,1-2.167.868,2.3,2.3,0,0,1-1.8-.687,2.974,2.974,0,0,1-.625-2.034V7.6h1.265v4.778q0,1.682,1.367,1.682a1.893,1.893,0,0,0,1.928-1.08V7.6H113.8V15h-1.2Zm6.221.868a3.232,3.232,0,0,1-2.447-.988,3.666,3.666,0,0,1-.943-2.642v-.232a4.438,4.438,0,0,1,.42-1.965A3.28,3.28,0,0,1,117,7.956a2.956,2.956,0,0,1,1.637-.489,2.77,2.77,0,0,1,2.242.95,4.114,4.114,0,0,1,.8,2.721v.526h-5.011a2.629,2.629,0,0,0,.639,1.767,2.009,2.009,0,0,0,1.555.673A2.2,2.2,0,0,0,120,13.831a2.851,2.851,0,0,0,.813-.725l.772.6A3.106,3.106,0,0,1,118.795,15.137Zm-.157-6.631a1.687,1.687,0,0,0-1.285.557,2.708,2.708,0,0,0-.643,1.562h3.705v-.1a2.409,2.409,0,0,0-.52-1.494A1.588,1.588,0,0,0,118.638,8.506Zm8.08.232a3.79,3.79,0,0,0-.622-.048,1.667,1.667,0,0,0-1.688,1.06V15h-1.265V7.6h1.23l.021.854a1.969,1.969,0,0,1,1.764-.991,1.292,1.292,0,0,1,.561.1Zm4.737,0a3.79,3.79,0,0,0-.622-.048,1.667,1.667,0,0,0-1.688,1.06V15H127.88V7.6h1.23l.021.854a1.969,1.969,0,0,1,1.764-.991,1.292,1.292,0,0,1,.561.1Zm4.1,6.4a3.232,3.232,0,0,1-2.447-.988,3.666,3.666,0,0,1-.943-2.642v-.232a4.438,4.438,0,0,1,.42-1.965,3.279,3.279,0,0,1,1.176-1.354,2.956,2.956,0,0,1,1.637-.489,2.77,2.77,0,0,1,2.242.95,4.114,4.114,0,0,1,.8,2.721v.526h-5.011a2.629,2.629,0,0,0,.639,1.767,2.009,2.009,0,0,0,1.555.673,2.2,2.2,0,0,0,1.135-.273,2.851,2.851,0,0,0,.813-.725l.772.6A3.106,3.106,0,0,1,135.557,15.137ZM135.4,8.506a1.687,1.687,0,0,0-1.285.557,2.708,2.708,0,0,0-.643,1.562h3.705v-.1a2.409,2.409,0,0,0-.52-1.494A1.588,1.588,0,0,0,135.4,8.506Zm8.08.232a3.79,3.79,0,0,0-.622-.048,1.667,1.667,0,0,0-1.688,1.06V15H139.9V7.6h1.23l.021.854a1.969,1.969,0,0,1,1.764-.991,1.292,1.292,0,0,1,.561.1Zm.69,2.5a4.369,4.369,0,0,1,.427-1.955,3.187,3.187,0,0,1,1.189-1.34,3.238,3.238,0,0,1,1.74-.472,3.119,3.119,0,0,1,2.444,1.046,4.024,4.024,0,0,1,.933,2.782v.089a4.407,4.407,0,0,1-.414,1.938,3.14,3.14,0,0,1-1.183,1.336,3.275,3.275,0,0,1-1.767.479,3.111,3.111,0,0,1-2.437-1.046,4,4,0,0,1-.933-2.769Zm1.271.15a3.164,3.164,0,0,0,.571,1.976,1.934,1.934,0,0,0,3.059-.01,3.46,3.46,0,0,0,.567-2.116,3.159,3.159,0,0,0-.578-1.972,1.836,1.836,0,0,0-1.535-.755,1.816,1.816,0,0,0-1.511.745A3.435,3.435,0,0,0,145.441,11.384ZM156.8,13.038a.931.931,0,0,0-.386-.8,3.718,3.718,0,0,0-1.347-.489,6.367,6.367,0,0,1-1.524-.492,2.169,2.169,0,0,1-.834-.684,1.635,1.635,0,0,1-.27-.943A1.919,1.919,0,0,1,153.2,8.1a3,3,0,0,1,1.965-.629,3.091,3.091,0,0,1,2.041.649,2.063,2.063,0,0,1,.783,1.661h-1.271a1.142,1.142,0,0,0-.441-.9,1.652,1.652,0,0,0-1.111-.376,1.729,1.729,0,0,0-1.08.3.947.947,0,0,0-.39.786.767.767,0,0,0,.362.69,4.458,4.458,0,0,0,1.309.444,6.821,6.821,0,0,1,1.535.506,2.239,2.239,0,0,1,.872.708,1.74,1.74,0,0,1,.284,1.008,1.893,1.893,0,0,1-.793,1.589,3.326,3.326,0,0,1-2.058.6,3.725,3.725,0,0,1-1.572-.314,2.557,2.557,0,0,1-1.07-.878,2.117,2.117,0,0,1-.386-1.22h1.265a1.309,1.309,0,0,0,.509,1.008,1.976,1.976,0,0,0,1.254.373,2.039,2.039,0,0,0,1.152-.291A.893.893,0,0,0,156.8,13.038Zm8.8.109L167.316,7.6h1.354L165.7,16.142q-.69,1.846-2.194,1.846l-.239-.021-.472-.089V16.853l.342.027a1.683,1.683,0,0,0,1-.26,1.88,1.88,0,0,0,.591-.95l.28-.752L162.367,7.6h1.381ZM4.532,26.738a3.79,3.79,0,0,0-.622-.048,1.667,1.667,0,0,0-1.688,1.06V33H.957V25.6h1.23l.021.854a1.969,1.969,0,0,1,1.764-.991,1.292,1.292,0,0,1,.561.1Zm4.1,6.4a3.232,3.232,0,0,1-2.447-.988,3.666,3.666,0,0,1-.943-2.642v-.232a4.438,4.438,0,0,1,.42-1.965,3.28,3.28,0,0,1,1.176-1.354,2.956,2.956,0,0,1,1.637-.489,2.77,2.77,0,0,1,2.242.95,4.114,4.114,0,0,1,.8,2.721v.526H6.508a2.629,2.629,0,0,0,.639,1.767A2.009,2.009,0,0,0,8.7,32.1a2.2,2.2,0,0,0,1.135-.273,2.851,2.851,0,0,0,.813-.725l.772.6A3.106,3.106,0,0,1,8.634,33.137Zm-.157-6.631a1.687,1.687,0,0,0-1.285.557,2.708,2.708,0,0,0-.643,1.562h3.705v-.1a2.409,2.409,0,0,0-.52-1.494A1.588,1.588,0,0,0,8.477,26.506Zm6.836,4.642L17.035,25.6h1.354l-2.974,8.538q-.69,1.846-2.194,1.846l-.239-.021-.472-.089V34.853l.342.027a1.683,1.683,0,0,0,1-.26,1.88,1.88,0,0,0,.591-.95l.28-.752L12.086,25.6h1.381ZM22.5,33.137a3.232,3.232,0,0,1-2.447-.988,3.666,3.666,0,0,1-.943-2.642v-.232a4.438,4.438,0,0,1,.42-1.965A3.28,3.28,0,0,1,20.7,25.956a2.956,2.956,0,0,1,1.637-.489,2.77,2.77,0,0,1,2.242.95,4.114,4.114,0,0,1,.8,2.721v.526H20.371a2.629,2.629,0,0,0,.639,1.767,2.009,2.009,0,0,0,1.555.673,2.2,2.2,0,0,0,1.135-.273,2.851,2.851,0,0,0,.813-.725l.772.6A3.106,3.106,0,0,1,22.5,33.137Zm-.157-6.631a1.687,1.687,0,0,0-1.285.557,2.708,2.708,0,0,0-.643,1.562h3.705v-.1a2.409,2.409,0,0,0-.52-1.494A1.588,1.588,0,0,0,22.34,26.506Zm8.812,4.532a.931.931,0,0,0-.386-.8,3.718,3.718,0,0,0-1.347-.489,6.367,6.367,0,0,1-1.524-.492,2.169,2.169,0,0,1-.834-.684,1.635,1.635,0,0,1-.27-.943,1.919,1.919,0,0,1,.769-1.538,3,3,0,0,1,1.965-.629,3.091,3.091,0,0,1,2.041.649,2.063,2.063,0,0,1,.783,1.661H31.076a1.142,1.142,0,0,0-.441-.9,1.652,1.652,0,0,0-1.111-.376,1.729,1.729,0,0,0-1.08.3.947.947,0,0,0-.39.786.767.767,0,0,0,.362.69,4.458,4.458,0,0,0,1.309.444,6.821,6.821,0,0,1,1.535.506,2.239,2.239,0,0,1,.872.708,1.74,1.74,0,0,1,.284,1.008,1.893,1.893,0,0,1-.793,1.589,3.326,3.326,0,0,1-2.058.6,3.725,3.725,0,0,1-1.572-.314,2.557,2.557,0,0,1-1.07-.878,2.117,2.117,0,0,1-.386-1.22H27.8a1.309,1.309,0,0,0,.509,1.008,1.976,1.976,0,0,0,1.254.373,2.039,2.039,0,0,0,1.152-.291A.893.893,0,0,0,31.151,31.038Zm2.939,1.3a.792.792,0,0,1,.195-.547.742.742,0,0,1,.584-.219.765.765,0,0,1,.591.219.776.776,0,0,1,.2.547.734.734,0,0,1-.2.526.778.778,0,0,1-.591.212.7.7,0,0,1-.779-.738Z" transform="translate(3334 -10007.072)" fill="#12263f"/>
    <path id="Trazado_773900" data-name="Trazado 773900" d="M4.143,12.512l3.35-7.465h2.3L4.874,15H2.782L.991,5.047H3.145ZM12.934,15a2,2,0,0,1-.075-.67,2.505,2.505,0,0,1-1.887.807,2.27,2.27,0,0,1-1.61-.632,1.913,1.913,0,0,1-.6-1.528,2.211,2.211,0,0,1,1.015-1.856,4.608,4.608,0,0,1,2.594-.646l.9.014.1-.444a1.543,1.543,0,0,0,.021-.431.74.74,0,0,0-.243-.5.836.836,0,0,0-.55-.188,1.177,1.177,0,0,0-.766.222,1.077,1.077,0,0,0-.4.68L9.5,9.832a2.15,2.15,0,0,1,.974-1.719,3.773,3.773,0,0,1,2.287-.646,2.727,2.727,0,0,1,1.969.749,2.19,2.19,0,0,1,.595,1.856l-.567,3.541-.034.438a2.111,2.111,0,0,0,.116.82l-.007.13ZM11.45,13.64a1.765,1.765,0,0,0,1.456-.725l.239-1.278-.67-.007a1.872,1.872,0,0,0-1.538.649,1.131,1.131,0,0,0-.212.554.656.656,0,0,0,.154.584A.779.779,0,0,0,11.45,13.64ZM18.04,15H16.1l1.285-7.4h1.941Zm-.431-9.276a.963.963,0,0,1,.3-.759,1.157,1.157,0,0,1,1.518-.034.959.959,0,0,1,.335.725.99.99,0,0,1-.284.738,1.063,1.063,0,0,1-.776.328,1.081,1.081,0,0,1-.755-.26A.954.954,0,0,1,17.609,5.724Zm6.351,7.191q.109-.547-.759-.793l-.622-.157q-2.208-.608-2.146-2.146a2.124,2.124,0,0,1,.926-1.706,3.449,3.449,0,0,1,2.15-.646,3.094,3.094,0,0,1,2.023.663,2.184,2.184,0,0,1,.786,1.729L24.4,9.853a.843.843,0,0,0-.943-.964,1.358,1.358,0,0,0-.783.226.929.929,0,0,0-.407.608q-.1.547.827.772l.273.062a5.5,5.5,0,0,1,1.442.516,2.177,2.177,0,0,1,.769.721,1.785,1.785,0,0,1,.25,1.032,1.97,1.97,0,0,1-.455,1.23,2.782,2.782,0,0,1-1.189.813,4.144,4.144,0,0,1-1.589.267,3.122,3.122,0,0,1-2.051-.708,2.281,2.281,0,0,1-.834-1.794l1.818.014a1,1,0,0,0,1.135,1.073,1.614,1.614,0,0,0,.878-.219A.864.864,0,0,0,23.96,12.915Zm5.7-4.491a2.578,2.578,0,0,1,2-.957,1.875,1.875,0,0,1,1.617.79,3.1,3.1,0,0,1,.386,2.082L32.888,15H30.96l.786-4.688a2.272,2.272,0,0,0,.014-.493.775.775,0,0,0-.861-.76,1.665,1.665,0,0,0-1.367.671L28.6,15H26.674L28.492,4.5h1.935Zm7.868,3.76L39.642,7.6h2.146l-4.327,8.511a3.7,3.7,0,0,1-1.09,1.436,2.383,2.383,0,0,1-1.446.458,4.406,4.406,0,0,1-.93-.144l.144-1.5.267.014a1.445,1.445,0,0,0,1.381-.69l.424-.786L35,7.6h2ZM45.555,15a2,2,0,0,1-.075-.67,2.505,2.505,0,0,1-1.887.807,2.27,2.27,0,0,1-1.61-.632,1.913,1.913,0,0,1-.6-1.528A2.211,2.211,0,0,1,42.4,11.121a4.608,4.608,0,0,1,2.594-.646l.9.014.1-.444a1.543,1.543,0,0,0,.021-.431.74.74,0,0,0-.243-.5.836.836,0,0,0-.55-.188,1.177,1.177,0,0,0-.766.222,1.077,1.077,0,0,0-.4.68l-1.935.007a2.15,2.15,0,0,1,.974-1.719,3.773,3.773,0,0,1,2.287-.646,2.727,2.727,0,0,1,1.969.749,2.19,2.19,0,0,1,.595,1.856l-.567,3.541-.034.438a2.111,2.111,0,0,0,.116.82l-.007.13Zm-1.483-1.36a1.765,1.765,0,0,0,1.456-.725l.239-1.278-.67-.007a1.872,1.872,0,0,0-1.538.649,1.131,1.131,0,0,0-.212.554.656.656,0,0,0,.154.584A.779.779,0,0,0,44.071,13.64Zm8.839-.725q.109-.547-.759-.793l-.622-.157q-2.208-.608-2.146-2.146a2.124,2.124,0,0,1,.926-1.706,3.449,3.449,0,0,1,2.15-.646,3.094,3.094,0,0,1,2.023.663,2.184,2.184,0,0,1,.786,1.729l-1.914-.007a.843.843,0,0,0-.943-.964,1.358,1.358,0,0,0-.783.226.929.929,0,0,0-.407.608q-.1.547.827.772l.273.062a5.5,5.5,0,0,1,1.442.516,2.177,2.177,0,0,1,.769.721,1.785,1.785,0,0,1,.25,1.032,1.97,1.97,0,0,1-.455,1.23,2.782,2.782,0,0,1-1.189.813,4.144,4.144,0,0,1-1.589.267,3.122,3.122,0,0,1-2.051-.708,2.281,2.281,0,0,1-.834-1.794l1.818.014a1,1,0,0,0,1.135,1.073A1.614,1.614,0,0,0,52.5,13.5.864.864,0,0,0,52.91,12.915Zm3.6,1.114a1,1,0,0,1,.318-.766,1.235,1.235,0,0,1,1.6,0,1,1,0,0,1,.318.766.981.981,0,0,1-.314.755,1.256,1.256,0,0,1-1.606,0A.981.981,0,0,1,56.506,14.029Zm0-5.6a1,1,0,0,1,.318-.766,1.235,1.235,0,0,1,1.6,0,1,1,0,0,1,.318.766.981.981,0,0,1-.314.755,1.256,1.256,0,0,1-1.606,0A.981.981,0,0,1,56.506,8.431Zm11.826,4.607a.931.931,0,0,0-.386-.8,3.718,3.718,0,0,0-1.347-.489,6.367,6.367,0,0,1-1.524-.492,2.169,2.169,0,0,1-.834-.684,1.635,1.635,0,0,1-.27-.943A1.919,1.919,0,0,1,64.74,8.1a3,3,0,0,1,1.965-.629,3.091,3.091,0,0,1,2.041.649,2.063,2.063,0,0,1,.783,1.661H68.257a1.142,1.142,0,0,0-.441-.9,1.652,1.652,0,0,0-1.111-.376,1.729,1.729,0,0,0-1.08.3.947.947,0,0,0-.39.786.767.767,0,0,0,.362.69,4.458,4.458,0,0,0,1.309.444,6.821,6.821,0,0,1,1.535.506,2.239,2.239,0,0,1,.872.708,1.74,1.74,0,0,1,.284,1.008,1.893,1.893,0,0,1-.793,1.589,3.326,3.326,0,0,1-2.058.6,3.725,3.725,0,0,1-1.572-.314,2.557,2.557,0,0,1-1.07-.878,2.117,2.117,0,0,1-.386-1.22h1.265a1.309,1.309,0,0,0,.509,1.008,1.976,1.976,0,0,0,1.254.373,2.039,2.039,0,0,0,1.152-.291A.893.893,0,0,0,68.332,13.038Zm2.577-1.8a4.369,4.369,0,0,1,.427-1.955,3.187,3.187,0,0,1,1.189-1.34,3.238,3.238,0,0,1,1.74-.472,3.119,3.119,0,0,1,2.444,1.046,4.024,4.024,0,0,1,.933,2.782v.089a4.407,4.407,0,0,1-.414,1.938,3.14,3.14,0,0,1-1.183,1.336,3.275,3.275,0,0,1-1.767.479,3.111,3.111,0,0,1-2.437-1.046,4,4,0,0,1-.933-2.769Zm1.271.15a3.164,3.164,0,0,0,.571,1.976,1.934,1.934,0,0,0,3.059-.01,3.46,3.46,0,0,0,.567-2.116A3.159,3.159,0,0,0,75.8,9.261a1.836,1.836,0,0,0-1.535-.755,1.816,1.816,0,0,0-1.511.745A3.435,3.435,0,0,0,72.181,11.384ZM80.425,7.6l.041.93a2.7,2.7,0,0,1,2.215-1.066q2.345,0,2.365,2.646V15H83.781V10.105a1.7,1.7,0,0,0-.366-1.183A1.466,1.466,0,0,0,82.3,8.54a1.825,1.825,0,0,0-1.08.328,2.228,2.228,0,0,0-.725.861V15H79.229V7.6ZM91.793,15H90.528V4.5h1.265Zm1.688-3.767a4.369,4.369,0,0,1,.427-1.955A3.187,3.187,0,0,1,95.1,7.938a3.238,3.238,0,0,1,1.74-.472,3.119,3.119,0,0,1,2.444,1.046,4.024,4.024,0,0,1,.933,2.782v.089a4.407,4.407,0,0,1-.414,1.938,3.14,3.14,0,0,1-1.183,1.336,3.275,3.275,0,0,1-1.767.479,3.111,3.111,0,0,1-2.437-1.046,4,4,0,0,1-.933-2.769Zm1.271.15a3.164,3.164,0,0,0,.571,1.976,1.934,1.934,0,0,0,3.059-.01,3.46,3.46,0,0,0,.567-2.116,3.159,3.159,0,0,0-.578-1.972,1.836,1.836,0,0,0-1.535-.755,1.816,1.816,0,0,0-1.511.745A3.435,3.435,0,0,0,94.753,11.384Zm11.354,1.654a.931.931,0,0,0-.386-.8,3.718,3.718,0,0,0-1.347-.489,6.367,6.367,0,0,1-1.524-.492,2.169,2.169,0,0,1-.834-.684,1.635,1.635,0,0,1-.27-.943,1.919,1.919,0,0,1,.769-1.538,3,3,0,0,1,1.965-.629,3.091,3.091,0,0,1,2.041.649,2.063,2.063,0,0,1,.783,1.661h-1.271a1.142,1.142,0,0,0-.441-.9,1.652,1.652,0,0,0-1.111-.376,1.729,1.729,0,0,0-1.08.3.947.947,0,0,0-.39.786.767.767,0,0,0,.362.69,4.458,4.458,0,0,0,1.309.444,6.821,6.821,0,0,1,1.535.506,2.239,2.239,0,0,1,.872.708,1.74,1.74,0,0,1,.284,1.008,1.893,1.893,0,0,1-.793,1.589,3.326,3.326,0,0,1-2.058.6,3.725,3.725,0,0,1-1.572-.314,2.557,2.557,0,0,1-1.07-.878,2.117,2.117,0,0,1-.386-1.22h1.265a1.309,1.309,0,0,0,.509,1.008,1.976,1.976,0,0,0,1.254.373,2.039,2.039,0,0,0,1.152-.291A.893.893,0,0,0,106.107,13.038ZM3.924,32.1a1.822,1.822,0,0,0,1.183-.41,1.443,1.443,0,0,0,.561-1.025h1.2a2.293,2.293,0,0,1-.437,1.21,2.881,2.881,0,0,1-1.077.916,3.107,3.107,0,0,1-1.425.342,3.047,3.047,0,0,1-2.4-1.008A4.016,4.016,0,0,1,.629,29.37v-.212a4.453,4.453,0,0,1,.4-1.921,3.02,3.02,0,0,1,1.138-1.306,3.233,3.233,0,0,1,1.753-.465,2.966,2.966,0,0,1,2.068.745,2.663,2.663,0,0,1,.878,1.935h-1.2a1.743,1.743,0,0,0-.543-1.179,1.691,1.691,0,0,0-1.207-.461,1.77,1.77,0,0,0-1.494.694,3.259,3.259,0,0,0-.53,2.006v.239a3.194,3.194,0,0,0,.526,1.969A1.779,1.779,0,0,0,3.924,32.1ZM7.95,29.233a4.369,4.369,0,0,1,.427-1.955,3.187,3.187,0,0,1,1.189-1.34,3.238,3.238,0,0,1,1.74-.472,3.119,3.119,0,0,1,2.444,1.046,4.024,4.024,0,0,1,.933,2.782v.089a4.407,4.407,0,0,1-.414,1.938,3.14,3.14,0,0,1-1.183,1.336,3.275,3.275,0,0,1-1.767.479,3.111,3.111,0,0,1-2.437-1.046,4,4,0,0,1-.933-2.769Zm1.271.15a3.164,3.164,0,0,0,.571,1.976,1.934,1.934,0,0,0,3.059-.01,3.46,3.46,0,0,0,.567-2.116,3.159,3.159,0,0,0-.578-1.972,1.836,1.836,0,0,0-1.535-.755,1.816,1.816,0,0,0-1.511.745A3.434,3.434,0,0,0,9.222,29.384Zm8.237-3.78.034.82a2.732,2.732,0,0,1,2.194-.957A2.115,2.115,0,0,1,21.8,26.656a2.8,2.8,0,0,1,.96-.861,2.837,2.837,0,0,1,1.4-.328q2.434,0,2.475,2.577V33H25.368V28.119a1.7,1.7,0,0,0-.362-1.186,1.6,1.6,0,0,0-1.217-.393,1.677,1.677,0,0,0-1.169.42,1.706,1.706,0,0,0-.54,1.131V33H20.809V28.153a1.411,1.411,0,0,0-1.579-1.613,1.692,1.692,0,0,0-1.7,1.06V33H16.263V25.6Zm14.15,7.533a3.232,3.232,0,0,1-2.447-.988,3.666,3.666,0,0,1-.943-2.642v-.232a4.438,4.438,0,0,1,.42-1.965,3.28,3.28,0,0,1,1.176-1.354,2.956,2.956,0,0,1,1.637-.489,2.77,2.77,0,0,1,2.242.95,4.114,4.114,0,0,1,.8,2.721v.526H29.483a2.629,2.629,0,0,0,.639,1.767,2.009,2.009,0,0,0,1.555.673,2.2,2.2,0,0,0,1.135-.273,2.851,2.851,0,0,0,.813-.725l.772.6A3.106,3.106,0,0,1,31.609,33.137Zm-.157-6.631a1.687,1.687,0,0,0-1.285.557,2.708,2.708,0,0,0-.643,1.562h3.705v-.1a2.409,2.409,0,0,0-.52-1.494A1.588,1.588,0,0,0,31.452,26.506Zm8.08.232a3.79,3.79,0,0,0-.622-.048,1.667,1.667,0,0,0-1.688,1.06V33H35.957V25.6h1.23l.021.854a1.969,1.969,0,0,1,1.764-.991,1.292,1.292,0,0,1,.561.1Zm4,5.366a1.822,1.822,0,0,0,1.183-.41,1.443,1.443,0,0,0,.561-1.025h1.2a2.293,2.293,0,0,1-.437,1.21,2.881,2.881,0,0,1-1.077.916,3.107,3.107,0,0,1-1.425.342,3.047,3.047,0,0,1-2.4-1.008,4.016,4.016,0,0,1-.892-2.758v-.212a4.453,4.453,0,0,1,.4-1.921,3.02,3.02,0,0,1,1.138-1.306,3.233,3.233,0,0,1,1.753-.465,2.966,2.966,0,0,1,2.068.745,2.663,2.663,0,0,1,.878,1.935h-1.2a1.743,1.743,0,0,0-.543-1.179,1.691,1.691,0,0,0-1.207-.461,1.77,1.77,0,0,0-1.494.694,3.259,3.259,0,0,0-.53,2.006v.239a3.194,3.194,0,0,0,.526,1.969A1.779,1.779,0,0,0,43.531,32.1Zm5.735.9H48V25.6h1.265ZM47.9,23.642a.755.755,0,0,1,.188-.52.706.706,0,0,1,.557-.212.717.717,0,0,1,.561.212.747.747,0,0,1,.191.52.722.722,0,0,1-.191.513.73.73,0,0,1-.561.205.718.718,0,0,1-.557-.205A.73.73,0,0,1,47.9,23.642ZM55.856,33a2.657,2.657,0,0,1-.178-.779,2.822,2.822,0,0,1-2.105.916,2.611,2.611,0,0,1-1.794-.619,2,2,0,0,1-.7-1.569,2.091,2.091,0,0,1,.878-1.794,4.142,4.142,0,0,1,2.471-.639h1.23v-.581a1.42,1.42,0,0,0-.4-1.056,1.593,1.593,0,0,0-1.169-.393,1.844,1.844,0,0,0-1.135.342,1.007,1.007,0,0,0-.458.827H51.229a1.745,1.745,0,0,1,.393-1.07,2.683,2.683,0,0,1,1.066-.817,3.588,3.588,0,0,1,1.48-.3,2.924,2.924,0,0,1,2,.639,2.306,2.306,0,0,1,.752,1.76v3.4a4.162,4.162,0,0,0,.26,1.62V33Zm-2.1-.964a2.223,2.223,0,0,0,1.128-.308,1.861,1.861,0,0,0,.772-.8V29.411h-.991q-2.324,0-2.324,1.36a1.151,1.151,0,0,0,.4.93A1.524,1.524,0,0,0,53.758,32.036ZM60.1,25.6l.041.93a2.7,2.7,0,0,1,2.215-1.066q2.345,0,2.365,2.646V33H63.458V28.105a1.7,1.7,0,0,0-.366-1.183,1.466,1.466,0,0,0-1.118-.383,1.825,1.825,0,0,0-1.08.328,2.228,2.228,0,0,0-.725.861V33H58.905V25.6Zm8.244-1.791V25.6h1.381v.978H68.346v4.593a1.027,1.027,0,0,0,.185.667.777.777,0,0,0,.629.222,3.062,3.062,0,0,0,.6-.082V33a3.688,3.688,0,0,1-.971.136,1.575,1.575,0,0,1-1.278-.513,2.2,2.2,0,0,1-.431-1.456V26.581H65.734V25.6h1.347V23.813Zm5.927,9.324a3.232,3.232,0,0,1-2.447-.988,3.666,3.666,0,0,1-.943-2.642v-.232a4.438,4.438,0,0,1,.42-1.965,3.28,3.28,0,0,1,1.176-1.354,2.956,2.956,0,0,1,1.637-.489,2.77,2.77,0,0,1,2.242.95,4.114,4.114,0,0,1,.8,2.721v.526H72.146a2.629,2.629,0,0,0,.639,1.767,2.009,2.009,0,0,0,1.555.673,2.2,2.2,0,0,0,1.135-.273,2.851,2.851,0,0,0,.813-.725l.772.6A3.106,3.106,0,0,1,74.272,33.137Zm-.157-6.631a1.687,1.687,0,0,0-1.285.557,2.708,2.708,0,0,0-.643,1.562h3.705v-.1a2.409,2.409,0,0,0-.52-1.494A1.588,1.588,0,0,0,74.115,26.506Zm8.812,4.532a.931.931,0,0,0-.386-.8,3.718,3.718,0,0,0-1.347-.489,6.367,6.367,0,0,1-1.524-.492,2.169,2.169,0,0,1-.834-.684,1.635,1.635,0,0,1-.27-.943,1.919,1.919,0,0,1,.769-1.538,3,3,0,0,1,1.965-.629,3.091,3.091,0,0,1,2.041.649,2.063,2.063,0,0,1,.783,1.661H82.852a1.142,1.142,0,0,0-.441-.9,1.652,1.652,0,0,0-1.111-.376,1.729,1.729,0,0,0-1.08.3.947.947,0,0,0-.39.786.767.767,0,0,0,.362.69,4.458,4.458,0,0,0,1.309.444,6.821,6.821,0,0,1,1.535.506,2.239,2.239,0,0,1,.872.708,1.74,1.74,0,0,1,.284,1.008,1.893,1.893,0,0,1-.793,1.589,3.326,3.326,0,0,1-2.058.6,3.725,3.725,0,0,1-1.572-.314,2.557,2.557,0,0,1-1.07-.878,2.117,2.117,0,0,1-.386-1.22h1.265a1.309,1.309,0,0,0,.509,1.008,1.976,1.976,0,0,0,1.254.373,2.039,2.039,0,0,0,1.152-.291A.893.893,0,0,0,82.927,31.038Zm2.939,1.3a.792.792,0,0,1,.195-.547.742.742,0,0,1,.584-.219.765.765,0,0,1,.591.219.776.776,0,0,1,.2.547.734.734,0,0,1-.2.526.778.778,0,0,1-.591.212.7.7,0,0,1-.779-.738Z" transform="translate(3334 -9949.072)" fill="#12263f"/>
    <path id="Trazado_773901" data-name="Trazado 773901" d="M5.619,12.341q.144-.813-.8-1.244L3.5,10.57Q1.2,9.545,1.319,7.747a2.593,2.593,0,0,1,.547-1.477,3.288,3.288,0,0,1,1.4-1.008A4.961,4.961,0,0,1,5.216,4.91a3.375,3.375,0,0,1,2.331.858,2.859,2.859,0,0,1,.875,2.225h-2a1.424,1.424,0,0,0-.3-1.053A1.339,1.339,0,0,0,5.1,6.551a2.074,2.074,0,0,0-1.189.311,1.276,1.276,0,0,0-.6.892q-.13.745,1,1.183l.9.342.52.239a2.824,2.824,0,0,1,1.887,2.8,2.7,2.7,0,0,1-.564,1.521,3.179,3.179,0,0,1-1.367.981,4.87,4.87,0,0,1-1.9.321A4.264,4.264,0,0,1,1.894,14.7,2.93,2.93,0,0,1,.636,13.5,3.1,3.1,0,0,1,.26,11.862l2,.007q-.1,1.62,1.593,1.647a2.093,2.093,0,0,0,1.2-.321A1.251,1.251,0,0,0,5.619,12.341Zm5.756-3.917a2.578,2.578,0,0,1,2-.957,1.875,1.875,0,0,1,1.617.79,3.1,3.1,0,0,1,.386,2.082L14.6,15H12.674l.786-4.688a2.272,2.272,0,0,0,.014-.493.775.775,0,0,0-.861-.76,1.665,1.665,0,0,0-1.367.671L10.315,15H8.388L10.206,4.5h1.935Zm9.311,5.811a2.554,2.554,0,0,1-2.037.9,1.9,1.9,0,0,1-1.613-.766,2.8,2.8,0,0,1-.424-1.982l.8-4.785h1.928l-.813,4.811a1.9,1.9,0,0,0-.007.424.7.7,0,0,0,.759.7,1.762,1.762,0,0,0,1.483-.691L21.684,7.6h1.941L22.34,15h-1.8ZM27.446,7.46a2.1,2.1,0,0,1,1.668.827L29.839,4.5h1.935L29.955,15H28.232l.109-.793a2.394,2.394,0,0,1-1.928.937,2.129,2.129,0,0,1-1.21-.362,2.281,2.281,0,0,1-.8-1.022,4.116,4.116,0,0,1-.311-1.487,5.6,5.6,0,0,1,.021-.834l.041-.308a5.921,5.921,0,0,1,.632-2,3.3,3.3,0,0,1,1.148-1.278A2.708,2.708,0,0,1,27.446,7.46Zm-1.4,3.979a5.536,5.536,0,0,0-.034.875q.068,1.2.971,1.224a1.65,1.65,0,0,0,1.415-.766l.526-2.939a1.092,1.092,0,0,0-1.066-.766,1.4,1.4,0,0,0-1.172.543A3.654,3.654,0,0,0,26.045,11.438ZM36.559,9.456a3.98,3.98,0,0,0-.649-.068,1.869,1.869,0,0,0-1.634.772L33.421,15H31.493l1.285-7.4L34.59,7.6l-.178.9a2.034,2.034,0,0,1,1.723-1.046,2.812,2.812,0,0,1,.67.1ZM40.592,15a2,2,0,0,1-.075-.67,2.505,2.505,0,0,1-1.887.807,2.27,2.27,0,0,1-1.61-.632,1.913,1.913,0,0,1-.6-1.528,2.211,2.211,0,0,1,1.015-1.856,4.608,4.608,0,0,1,2.594-.646l.9.014.1-.444a1.543,1.543,0,0,0,.021-.431.74.74,0,0,0-.243-.5.836.836,0,0,0-.55-.188,1.177,1.177,0,0,0-.766.222,1.077,1.077,0,0,0-.4.68l-1.935.007a2.15,2.15,0,0,1,.974-1.719,3.773,3.773,0,0,1,2.287-.646,2.727,2.727,0,0,1,1.969.749,2.19,2.19,0,0,1,.595,1.856l-.567,3.541-.034.438a2.111,2.111,0,0,0,.116.82l-.007.13Zm-1.483-1.36a1.765,1.765,0,0,0,1.456-.725l.239-1.278-.67-.007a1.872,1.872,0,0,0-1.538.649,1.131,1.131,0,0,0-.212.554.656.656,0,0,0,.154.584A.779.779,0,0,0,39.108,13.64Zm8.839-.725q.109-.547-.759-.793l-.622-.157q-2.208-.608-2.146-2.146a2.124,2.124,0,0,1,.926-1.706,3.449,3.449,0,0,1,2.15-.646,3.094,3.094,0,0,1,2.023.663,2.184,2.184,0,0,1,.786,1.729l-1.914-.007a.843.843,0,0,0-.943-.964,1.358,1.358,0,0,0-.783.226.929.929,0,0,0-.407.608q-.1.547.827.772l.273.062a5.5,5.5,0,0,1,1.442.516,2.177,2.177,0,0,1,.769.721,1.785,1.785,0,0,1,.25,1.032,1.97,1.97,0,0,1-.455,1.23,2.782,2.782,0,0,1-1.189.813,4.144,4.144,0,0,1-1.589.267,3.122,3.122,0,0,1-2.051-.708,2.281,2.281,0,0,1-.834-1.794l1.818.014a1,1,0,0,0,1.135,1.073,1.614,1.614,0,0,0,.878-.219A.864.864,0,0,0,47.947,12.915Zm3.6,1.114a1,1,0,0,1,.318-.766,1.235,1.235,0,0,1,1.6,0,1,1,0,0,1,.318.766.981.981,0,0,1-.314.755,1.256,1.256,0,0,1-1.606,0A.981.981,0,0,1,51.543,14.029Zm0-5.6a1,1,0,0,1,.318-.766,1.235,1.235,0,0,1,1.6,0,1,1,0,0,1,.318.766.981.981,0,0,1-.314.755,1.256,1.256,0,0,1-1.606,0A.981.981,0,0,1,51.543,8.431ZM63.39,13.038a.931.931,0,0,0-.386-.8,3.718,3.718,0,0,0-1.347-.489,6.367,6.367,0,0,1-1.524-.492,2.169,2.169,0,0,1-.834-.684,1.635,1.635,0,0,1-.27-.943A1.919,1.919,0,0,1,59.8,8.1a3,3,0,0,1,1.965-.629,3.091,3.091,0,0,1,2.041.649,2.063,2.063,0,0,1,.783,1.661H63.314a1.142,1.142,0,0,0-.441-.9,1.652,1.652,0,0,0-1.111-.376,1.729,1.729,0,0,0-1.08.3.947.947,0,0,0-.39.786.767.767,0,0,0,.362.69,4.458,4.458,0,0,0,1.309.444,6.821,6.821,0,0,1,1.535.506,2.239,2.239,0,0,1,.872.708,1.74,1.74,0,0,1,.284,1.008,1.893,1.893,0,0,1-.793,1.589,3.326,3.326,0,0,1-2.058.6,3.725,3.725,0,0,1-1.572-.314,2.557,2.557,0,0,1-1.07-.878,2.117,2.117,0,0,1-.386-1.22H60.04a1.309,1.309,0,0,0,.509,1.008A1.976,1.976,0,0,0,61.8,14.1a2.039,2.039,0,0,0,1.152-.291A.893.893,0,0,0,63.39,13.038Zm2.577-1.8a4.369,4.369,0,0,1,.427-1.955,3.187,3.187,0,0,1,1.189-1.34,3.238,3.238,0,0,1,1.74-.472,3.119,3.119,0,0,1,2.444,1.046,4.024,4.024,0,0,1,.933,2.782v.089a4.407,4.407,0,0,1-.414,1.938A3.14,3.14,0,0,1,71.1,14.658a3.275,3.275,0,0,1-1.767.479A3.111,3.111,0,0,1,66.9,14.091a4,4,0,0,1-.933-2.769Zm1.271.15a3.164,3.164,0,0,0,.571,1.976,1.934,1.934,0,0,0,3.059-.01,3.46,3.46,0,0,0,.567-2.116,3.159,3.159,0,0,0-.578-1.972,1.836,1.836,0,0,0-1.535-.755,1.816,1.816,0,0,0-1.511.745A3.435,3.435,0,0,0,67.238,11.384ZM75.482,7.6l.041.93a2.7,2.7,0,0,1,2.215-1.066q2.345,0,2.365,2.646V15H78.839V10.105a1.7,1.7,0,0,0-.366-1.183,1.466,1.466,0,0,0-1.118-.383,1.825,1.825,0,0,0-1.08.328,2.228,2.228,0,0,0-.725.861V15H74.286V7.6ZM86.851,15H85.586V4.5h1.265Zm1.688-3.767a4.369,4.369,0,0,1,.427-1.955,3.187,3.187,0,0,1,1.189-1.34,3.238,3.238,0,0,1,1.74-.472,3.119,3.119,0,0,1,2.444,1.046,4.024,4.024,0,0,1,.933,2.782v.089a4.407,4.407,0,0,1-.414,1.938,3.14,3.14,0,0,1-1.183,1.336,3.275,3.275,0,0,1-1.767.479,3.111,3.111,0,0,1-2.437-1.046,4,4,0,0,1-.933-2.769Zm1.271.15a3.164,3.164,0,0,0,.571,1.976,1.934,1.934,0,0,0,3.059-.01,3.46,3.46,0,0,0,.567-2.116,3.159,3.159,0,0,0-.578-1.972A1.836,1.836,0,0,0,91.9,8.506a1.816,1.816,0,0,0-1.511.745A3.435,3.435,0,0,0,89.811,11.384Zm11.354,1.654a.931.931,0,0,0-.386-.8,3.718,3.718,0,0,0-1.347-.489,6.367,6.367,0,0,1-1.524-.492,2.169,2.169,0,0,1-.834-.684,1.635,1.635,0,0,1-.27-.943A1.919,1.919,0,0,1,97.573,8.1a3,3,0,0,1,1.965-.629,3.091,3.091,0,0,1,2.041.649,2.063,2.063,0,0,1,.783,1.661H101.09a1.142,1.142,0,0,0-.441-.9,1.652,1.652,0,0,0-1.111-.376,1.729,1.729,0,0,0-1.08.3.947.947,0,0,0-.39.786.767.767,0,0,0,.362.69,4.458,4.458,0,0,0,1.309.444,6.821,6.821,0,0,1,1.535.506,2.239,2.239,0,0,1,.872.708,1.74,1.74,0,0,1,.284,1.008,1.893,1.893,0,0,1-.793,1.589,3.326,3.326,0,0,1-2.058.6,3.725,3.725,0,0,1-1.572-.314,2.557,2.557,0,0,1-1.07-.878,2.117,2.117,0,0,1-.386-1.22h1.265a1.309,1.309,0,0,0,.509,1.008,1.976,1.976,0,0,0,1.254.373,2.039,2.039,0,0,0,1.152-.291A.893.893,0,0,0,101.165,13.038ZM3.924,32.1a1.822,1.822,0,0,0,1.183-.41,1.443,1.443,0,0,0,.561-1.025h1.2a2.293,2.293,0,0,1-.437,1.21,2.881,2.881,0,0,1-1.077.916,3.107,3.107,0,0,1-1.425.342,3.047,3.047,0,0,1-2.4-1.008A4.016,4.016,0,0,1,.629,29.37v-.212a4.453,4.453,0,0,1,.4-1.921,3.02,3.02,0,0,1,1.138-1.306,3.233,3.233,0,0,1,1.753-.465,2.966,2.966,0,0,1,2.068.745,2.663,2.663,0,0,1,.878,1.935h-1.2a1.743,1.743,0,0,0-.543-1.179,1.691,1.691,0,0,0-1.207-.461,1.77,1.77,0,0,0-1.494.694,3.259,3.259,0,0,0-.53,2.006v.239a3.194,3.194,0,0,0,.526,1.969A1.779,1.779,0,0,0,3.924,32.1Zm8.928.9a2.657,2.657,0,0,1-.178-.779,2.822,2.822,0,0,1-2.105.916,2.611,2.611,0,0,1-1.794-.619,2,2,0,0,1-.7-1.569,2.091,2.091,0,0,1,.878-1.794,4.142,4.142,0,0,1,2.471-.639h1.23v-.581a1.42,1.42,0,0,0-.4-1.056,1.593,1.593,0,0,0-1.169-.393,1.844,1.844,0,0,0-1.135.342,1.007,1.007,0,0,0-.458.827H8.224a1.745,1.745,0,0,1,.393-1.07,2.683,2.683,0,0,1,1.066-.817,3.588,3.588,0,0,1,1.48-.3,2.924,2.924,0,0,1,2,.639,2.306,2.306,0,0,1,.752,1.76v3.4a4.162,4.162,0,0,0,.26,1.62V33Zm-2.1-.964a2.223,2.223,0,0,0,1.128-.308,1.861,1.861,0,0,0,.772-.8V29.411h-.991q-2.324,0-2.324,1.36a1.151,1.151,0,0,0,.4.93A1.524,1.524,0,0,0,10.753,32.036ZM17.09,25.6l.034.82a2.732,2.732,0,0,1,2.194-.957,2.115,2.115,0,0,1,2.112,1.189,2.8,2.8,0,0,1,.96-.861,2.837,2.837,0,0,1,1.4-.328q2.434,0,2.475,2.577V33H25V28.119a1.7,1.7,0,0,0-.362-1.186,1.6,1.6,0,0,0-1.217-.393,1.677,1.677,0,0,0-1.169.42,1.706,1.706,0,0,0-.54,1.131V33H20.439V28.153A1.411,1.411,0,0,0,18.86,26.54a1.692,1.692,0,0,0-1.7,1.06V33H15.894V25.6Zm17.329,3.78a4.429,4.429,0,0,1-.772,2.721,2.476,2.476,0,0,1-2.092,1.032,2.713,2.713,0,0,1-2.119-.854v3.562H28.171V25.6h1.155l.062.82a2.605,2.605,0,0,1,2.146-.957,2.522,2.522,0,0,1,2.109,1,4.477,4.477,0,0,1,.776,2.8Zm-1.265-.144a3.268,3.268,0,0,0-.533-1.976,1.718,1.718,0,0,0-1.463-.725,1.859,1.859,0,0,0-1.723,1.019v3.534A1.863,1.863,0,0,0,31.172,32.1a1.71,1.71,0,0,0,1.446-.721A3.567,3.567,0,0,0,33.154,29.24Zm5.94,3.9a3.232,3.232,0,0,1-2.447-.988,3.666,3.666,0,0,1-.943-2.642v-.232a4.438,4.438,0,0,1,.42-1.965A3.279,3.279,0,0,1,37.3,25.956a2.956,2.956,0,0,1,1.637-.489,2.77,2.77,0,0,1,2.242.95,4.114,4.114,0,0,1,.8,2.721v.526H36.969a2.629,2.629,0,0,0,.639,1.767,2.009,2.009,0,0,0,1.555.673,2.2,2.2,0,0,0,1.135-.273,2.851,2.851,0,0,0,.813-.725l.772.6A3.106,3.106,0,0,1,39.095,33.137Zm-.157-6.631a1.687,1.687,0,0,0-1.285.557,2.708,2.708,0,0,0-.643,1.562h3.705v-.1a2.409,2.409,0,0,0-.52-1.494A1.588,1.588,0,0,0,38.938,26.506Zm8.812,4.532a.931.931,0,0,0-.386-.8,3.718,3.718,0,0,0-1.347-.489,6.367,6.367,0,0,1-1.524-.492,2.169,2.169,0,0,1-.834-.684,1.635,1.635,0,0,1-.27-.943,1.919,1.919,0,0,1,.769-1.538,3,3,0,0,1,1.965-.629,3.091,3.091,0,0,1,2.041.649,2.063,2.063,0,0,1,.783,1.661H47.674a1.142,1.142,0,0,0-.441-.9,1.652,1.652,0,0,0-1.111-.376,1.729,1.729,0,0,0-1.08.3.947.947,0,0,0-.39.786.767.767,0,0,0,.362.69,4.458,4.458,0,0,0,1.309.444,6.821,6.821,0,0,1,1.535.506,2.239,2.239,0,0,1,.872.708,1.74,1.74,0,0,1,.284,1.008,1.893,1.893,0,0,1-.793,1.589,3.326,3.326,0,0,1-2.058.6,3.725,3.725,0,0,1-1.572-.314,2.557,2.557,0,0,1-1.07-.878,2.117,2.117,0,0,1-.386-1.22H44.4a1.309,1.309,0,0,0,.509,1.008,1.976,1.976,0,0,0,1.254.373,2.039,2.039,0,0,0,1.152-.291A.893.893,0,0,0,47.749,31.038ZM52.035,33H50.771V25.6h1.265Zm-1.367-9.358a.755.755,0,0,1,.188-.52.706.706,0,0,1,.557-.212.717.717,0,0,1,.561.212.747.747,0,0,1,.191.52.722.722,0,0,1-.191.513.73.73,0,0,1-.561.205.718.718,0,0,1-.557-.205A.73.73,0,0,1,50.668,23.642ZM55.255,25.6l.041.93a2.7,2.7,0,0,1,2.215-1.066q2.345,0,2.365,2.646V33H58.611V28.105a1.7,1.7,0,0,0-.366-1.183,1.466,1.466,0,0,0-1.118-.383,1.825,1.825,0,0,0-1.08.328,2.228,2.228,0,0,0-.725.861V33H54.059V25.6Zm6.193,3.63a4.369,4.369,0,0,1,.427-1.955,3.187,3.187,0,0,1,1.189-1.34,3.238,3.238,0,0,1,1.74-.472,3.119,3.119,0,0,1,2.444,1.046,4.024,4.024,0,0,1,.933,2.782v.089a4.407,4.407,0,0,1-.414,1.938,3.14,3.14,0,0,1-1.183,1.336,3.275,3.275,0,0,1-1.767.479,3.111,3.111,0,0,1-2.437-1.046,4,4,0,0,1-.933-2.769Zm1.271.15a3.164,3.164,0,0,0,.571,1.976,1.934,1.934,0,0,0,3.059-.01,3.46,3.46,0,0,0,.567-2.116,3.159,3.159,0,0,0-.578-1.972,1.836,1.836,0,0,0-1.535-.755,1.816,1.816,0,0,0-1.511.745A3.434,3.434,0,0,0,62.72,29.384Zm11.354,1.654a.931.931,0,0,0-.386-.8,3.718,3.718,0,0,0-1.347-.489,6.367,6.367,0,0,1-1.524-.492,2.169,2.169,0,0,1-.834-.684,1.635,1.635,0,0,1-.27-.943,1.919,1.919,0,0,1,.769-1.538,3,3,0,0,1,1.965-.629,3.091,3.091,0,0,1,2.041.649,2.063,2.063,0,0,1,.783,1.661H74a1.142,1.142,0,0,0-.441-.9,1.652,1.652,0,0,0-1.111-.376,1.729,1.729,0,0,0-1.08.3.947.947,0,0,0-.39.786.767.767,0,0,0,.362.69,4.458,4.458,0,0,0,1.309.444,6.821,6.821,0,0,1,1.535.506,2.239,2.239,0,0,1,.872.708,1.74,1.74,0,0,1,.284,1.008,1.893,1.893,0,0,1-.793,1.589,3.326,3.326,0,0,1-2.058.6,3.725,3.725,0,0,1-1.572-.314,2.557,2.557,0,0,1-1.07-.878,2.117,2.117,0,0,1-.386-1.22h1.265a1.309,1.309,0,0,0,.509,1.008,1.976,1.976,0,0,0,1.254.373,2.039,2.039,0,0,0,1.152-.291A.893.893,0,0,0,74.074,31.038Zm8.8.109L84.595,25.6h1.354l-2.974,8.538q-.69,1.846-2.194,1.846l-.239-.021-.472-.089V34.853l.342.027a1.683,1.683,0,0,0,1-.26A1.88,1.88,0,0,0,82,33.67l.28-.752L79.646,25.6h1.381Zm9.386-7.335V25.6h1.381v.978H92.258v4.593a1.027,1.027,0,0,0,.185.667.777.777,0,0,0,.629.222,3.062,3.062,0,0,0,.6-.082V33a3.688,3.688,0,0,1-.971.136,1.575,1.575,0,0,1-1.278-.513,2.2,2.2,0,0,1-.431-1.456V26.581H89.646V25.6h1.347V23.813Zm6.433,2.926a3.79,3.79,0,0,0-.622-.048,1.667,1.667,0,0,0-1.688,1.06V33H95.115V25.6h1.23l.021.854a1.969,1.969,0,0,1,1.764-.991,1.292,1.292,0,0,1,.561.1ZM104.146,33a2.657,2.657,0,0,1-.178-.779,2.822,2.822,0,0,1-2.105.916,2.611,2.611,0,0,1-1.794-.619,2,2,0,0,1-.7-1.569,2.091,2.091,0,0,1,.878-1.794,4.141,4.141,0,0,1,2.471-.639h1.23v-.581a1.42,1.42,0,0,0-.4-1.056,1.593,1.593,0,0,0-1.169-.393,1.844,1.844,0,0,0-1.135.342,1.007,1.007,0,0,0-.458.827H99.518a1.745,1.745,0,0,1,.393-1.07,2.683,2.683,0,0,1,1.066-.817,3.588,3.588,0,0,1,1.48-.3,2.924,2.924,0,0,1,2,.639,2.306,2.306,0,0,1,.752,1.76v3.4a4.162,4.162,0,0,0,.26,1.62V33Zm-2.1-.964a2.223,2.223,0,0,0,1.128-.308,1.861,1.861,0,0,0,.772-.8V29.411h-.991q-2.324,0-2.324,1.36a1.151,1.151,0,0,0,.4.93A1.524,1.524,0,0,0,102.047,32.036Zm11.409-2.652a4.4,4.4,0,0,1-.779,2.724,2.49,2.49,0,0,1-2.092,1.029,2.578,2.578,0,0,1-2.167-.991l-.062.854h-1.162V22.5h1.265v3.917a2.564,2.564,0,0,1,2.112-.95,2.505,2.505,0,0,1,2.116,1.019,4.53,4.53,0,0,1,.769,2.789Zm-1.265-.144a3.417,3.417,0,0,0-.5-2,1.652,1.652,0,0,0-1.436-.7,1.857,1.857,0,0,0-1.8,1.162v3.2a1.909,1.909,0,0,0,1.812,1.162,1.643,1.643,0,0,0,1.415-.7A3.634,3.634,0,0,0,112.191,29.24ZM119.615,33a2.657,2.657,0,0,1-.178-.779,2.822,2.822,0,0,1-2.105.916,2.611,2.611,0,0,1-1.794-.619,2,2,0,0,1-.7-1.569,2.091,2.091,0,0,1,.878-1.794,4.141,4.141,0,0,1,2.471-.639h1.23v-.581a1.42,1.42,0,0,0-.4-1.056,1.593,1.593,0,0,0-1.169-.393,1.844,1.844,0,0,0-1.135.342,1.007,1.007,0,0,0-.458.827h-1.271a1.745,1.745,0,0,1,.393-1.07,2.683,2.683,0,0,1,1.066-.817,3.588,3.588,0,0,1,1.48-.3,2.924,2.924,0,0,1,2,.639,2.306,2.306,0,0,1,.752,1.76v3.4a4.162,4.162,0,0,0,.26,1.62V33Zm-2.1-.964a2.223,2.223,0,0,0,1.128-.308,1.861,1.861,0,0,0,.772-.8V29.411h-.991q-2.324,0-2.324,1.36a1.151,1.151,0,0,0,.4.93A1.524,1.524,0,0,0,117.517,32.036ZM123.97,25.6v8.251q0,2.133-1.935,2.133a2.36,2.36,0,0,1-.772-.122V34.859a2.445,2.445,0,0,0,.574.055.859.859,0,0,0,.646-.229,1.133,1.133,0,0,0,.222-.8V25.6Zm-1.395-1.962a.758.758,0,0,1,.188-.516.691.691,0,0,1,.55-.215.717.717,0,0,1,.561.212.747.747,0,0,1,.191.52.722.722,0,0,1-.191.513.73.73,0,0,1-.561.205.707.707,0,0,1-.554-.205A.738.738,0,0,1,122.575,23.642Zm8,9.358a2.657,2.657,0,0,1-.178-.779,2.822,2.822,0,0,1-2.105.916,2.611,2.611,0,0,1-1.794-.619,2,2,0,0,1-.7-1.569,2.091,2.091,0,0,1,.878-1.794,4.142,4.142,0,0,1,2.471-.639h1.23v-.581a1.42,1.42,0,0,0-.4-1.056,1.593,1.593,0,0,0-1.169-.393,1.844,1.844,0,0,0-1.135.342,1.007,1.007,0,0,0-.458.827h-1.271a1.745,1.745,0,0,1,.393-1.07,2.683,2.683,0,0,1,1.066-.817,3.588,3.588,0,0,1,1.48-.3,2.924,2.924,0,0,1,2,.639,2.306,2.306,0,0,1,.752,1.76v3.4a4.162,4.162,0,0,0,.26,1.62V33Zm-2.1-.964a2.223,2.223,0,0,0,1.128-.308,1.861,1.861,0,0,0,.772-.8V29.411h-.991q-2.324,0-2.324,1.36a1.151,1.151,0,0,0,.4.93A1.524,1.524,0,0,0,128.475,32.036Zm4.84-2.8a4.333,4.333,0,0,1,.807-2.738,2.745,2.745,0,0,1,4.17-.147V22.5h1.265V33h-1.162l-.062-.793a2.575,2.575,0,0,1-2.112.93,2.526,2.526,0,0,1-2.1-1.053,4.382,4.382,0,0,1-.81-2.748Zm1.265.144a3.281,3.281,0,0,0,.52,1.969,1.68,1.68,0,0,0,1.436.711,1.845,1.845,0,0,0,1.757-1.08v-3.4a1.859,1.859,0,0,0-1.743-1.046,1.687,1.687,0,0,0-1.449.718A3.612,3.612,0,0,0,134.579,29.384Zm6.6-.15a4.369,4.369,0,0,1,.427-1.955,3.187,3.187,0,0,1,1.189-1.34,3.238,3.238,0,0,1,1.74-.472,3.119,3.119,0,0,1,2.444,1.046,4.024,4.024,0,0,1,.933,2.782v.089a4.407,4.407,0,0,1-.414,1.938,3.14,3.14,0,0,1-1.183,1.336,3.275,3.275,0,0,1-1.767.479,3.111,3.111,0,0,1-2.437-1.046,4,4,0,0,1-.933-2.769Zm1.271.15a3.164,3.164,0,0,0,.571,1.976,1.934,1.934,0,0,0,3.059-.01,3.46,3.46,0,0,0,.567-2.116,3.159,3.159,0,0,0-.578-1.972,1.836,1.836,0,0,0-1.535-.755,1.816,1.816,0,0,0-1.511.745A3.434,3.434,0,0,0,142.454,29.384Zm10.623-2.646a3.79,3.79,0,0,0-.622-.048,1.667,1.667,0,0,0-1.688,1.06V33H149.5V25.6h1.23l.021.854a1.969,1.969,0,0,1,1.764-.991,1.292,1.292,0,0,1,.561.1Zm4.1,6.4a3.232,3.232,0,0,1-2.447-.988,3.666,3.666,0,0,1-.943-2.642v-.232a4.438,4.438,0,0,1,.42-1.965,3.279,3.279,0,0,1,1.176-1.354,2.956,2.956,0,0,1,1.637-.489,2.77,2.77,0,0,1,2.242.95,4.114,4.114,0,0,1,.8,2.721v.526h-5.011a2.629,2.629,0,0,0,.639,1.767,2.009,2.009,0,0,0,1.555.673,2.2,2.2,0,0,0,1.135-.273,2.851,2.851,0,0,0,.813-.725l.772.6A3.106,3.106,0,0,1,157.179,33.137Zm-.157-6.631a1.687,1.687,0,0,0-1.285.557,2.708,2.708,0,0,0-.643,1.562H158.8v-.1a2.409,2.409,0,0,0-.52-1.494A1.588,1.588,0,0,0,157.021,26.506Zm8.812,4.532a.931.931,0,0,0-.386-.8,3.718,3.718,0,0,0-1.347-.489,6.367,6.367,0,0,1-1.524-.492,2.169,2.169,0,0,1-.834-.684,1.635,1.635,0,0,1-.27-.943,1.919,1.919,0,0,1,.769-1.538,3,3,0,0,1,1.965-.629,3.091,3.091,0,0,1,2.041.649,2.063,2.063,0,0,1,.783,1.661h-1.271a1.142,1.142,0,0,0-.441-.9,1.652,1.652,0,0,0-1.111-.376,1.729,1.729,0,0,0-1.08.3.947.947,0,0,0-.39.786.767.767,0,0,0,.362.69,4.458,4.458,0,0,0,1.309.444,6.821,6.821,0,0,1,1.535.506,2.239,2.239,0,0,1,.872.708,1.74,1.74,0,0,1,.284,1.008,1.893,1.893,0,0,1-.793,1.589,3.326,3.326,0,0,1-2.058.6,3.725,3.725,0,0,1-1.572-.314,2.557,2.557,0,0,1-1.07-.878,2.117,2.117,0,0,1-.386-1.22h1.265a1.309,1.309,0,0,0,.509,1.008,1.976,1.976,0,0,0,1.254.373,2.039,2.039,0,0,0,1.152-.291A.893.893,0,0,0,165.833,31.038Zm2.939,1.3a.792.792,0,0,1,.195-.547.742.742,0,0,1,.584-.219.765.765,0,0,1,.591.219.776.776,0,0,1,.2.547.734.734,0,0,1-.2.526.778.778,0,0,1-.591.212.7.7,0,0,1-.779-.738Z" transform="translate(3334 -9888.072)" fill="#12263f"/>
    <path id="Trazado_773902" data-name="Trazado 773902" d="M.144,15,1.873,5.047l2.857.007a3.914,3.914,0,0,1,1.808.455,3.417,3.417,0,0,1,1.3,1.248,4.272,4.272,0,0,1,.6,1.832A6.047,6.047,0,0,1,8.429,9.8l-.048.362a5.685,5.685,0,0,1-1.719,3.51A4.864,4.864,0,0,1,3.22,15ZM3.589,6.708,2.434,13.353l.834.007a2.736,2.736,0,0,0,2.218-1.012,5.229,5.229,0,0,0,.96-3.056l.014-.219a2.757,2.757,0,0,0-.431-1.729,1.644,1.644,0,0,0-1.347-.629ZM13.193,15a2,2,0,0,1-.075-.67,2.505,2.505,0,0,1-1.887.807,2.27,2.27,0,0,1-1.61-.632,1.913,1.913,0,0,1-.6-1.528,2.211,2.211,0,0,1,1.015-1.856,4.608,4.608,0,0,1,2.594-.646l.9.014.1-.444a1.543,1.543,0,0,0,.021-.431.74.74,0,0,0-.243-.5.836.836,0,0,0-.55-.188,1.177,1.177,0,0,0-.766.222,1.077,1.077,0,0,0-.4.68l-1.935.007a2.15,2.15,0,0,1,.974-1.719,3.773,3.773,0,0,1,2.287-.646,2.727,2.727,0,0,1,1.969.749,2.19,2.19,0,0,1,.595,1.856l-.567,3.541-.034.438a2.111,2.111,0,0,0,.116.82l-.007.13ZM11.71,13.64a1.765,1.765,0,0,0,1.456-.725l.239-1.278-.67-.007a1.872,1.872,0,0,0-1.538.649,1.131,1.131,0,0,0-.212.554.656.656,0,0,0,.154.584A.779.779,0,0,0,11.71,13.64ZM13.952,4.5h2.235L14.014,6.619h-1.7ZM18.3,15H16.358L18.184,4.5h1.935Zm3.671,0H20.029l1.285-7.4h1.941ZM21.54,5.724a.963.963,0,0,1,.3-.759,1.157,1.157,0,0,1,1.518-.034.959.959,0,0,1,.335.725.99.99,0,0,1-.284.738,1.063,1.063,0,0,1-.776.328,1.081,1.081,0,0,1-.755-.26A.954.954,0,0,1,21.54,5.724Zm6.351,7.191q.109-.547-.759-.793l-.622-.157q-2.208-.608-2.146-2.146a2.124,2.124,0,0,1,.926-1.706,3.449,3.449,0,0,1,2.15-.646,3.094,3.094,0,0,1,2.023.663,2.184,2.184,0,0,1,.786,1.729l-1.914-.007a.843.843,0,0,0-.943-.964,1.358,1.358,0,0,0-.783.226.929.929,0,0,0-.407.608q-.1.547.827.772l.273.062a5.5,5.5,0,0,1,1.442.516,2.177,2.177,0,0,1,.769.721,1.785,1.785,0,0,1,.25,1.032,1.97,1.97,0,0,1-.455,1.23,2.782,2.782,0,0,1-1.189.813,4.144,4.144,0,0,1-1.589.267,3.122,3.122,0,0,1-2.051-.708,2.281,2.281,0,0,1-.834-1.794l1.818.014A1,1,0,0,0,26.6,13.722a1.614,1.614,0,0,0,.878-.219A.864.864,0,0,0,27.891,12.915Zm3.6,1.114a1,1,0,0,1,.318-.766,1.235,1.235,0,0,1,1.6,0,1,1,0,0,1,.318.766.981.981,0,0,1-.314.755,1.256,1.256,0,0,1-1.606,0A.981.981,0,0,1,31.486,14.029Zm0-5.6a1,1,0,0,1,.318-.766,1.235,1.235,0,0,1,1.6,0,1,1,0,0,1,.318.766.981.981,0,0,1-.314.755,1.256,1.256,0,0,1-1.606,0A.981.981,0,0,1,31.486,8.431Zm11.847,4.607a.931.931,0,0,0-.386-.8,3.718,3.718,0,0,0-1.347-.489,6.367,6.367,0,0,1-1.524-.492,2.169,2.169,0,0,1-.834-.684,1.635,1.635,0,0,1-.27-.943A1.919,1.919,0,0,1,39.741,8.1a3,3,0,0,1,1.965-.629,3.091,3.091,0,0,1,2.041.649,2.063,2.063,0,0,1,.783,1.661H43.258a1.142,1.142,0,0,0-.441-.9,1.652,1.652,0,0,0-1.111-.376,1.729,1.729,0,0,0-1.08.3.947.947,0,0,0-.39.786.767.767,0,0,0,.362.69,4.458,4.458,0,0,0,1.309.444,6.821,6.821,0,0,1,1.535.506,2.239,2.239,0,0,1,.872.708,1.74,1.74,0,0,1,.284,1.008,1.893,1.893,0,0,1-.793,1.589,3.326,3.326,0,0,1-2.058.6,3.725,3.725,0,0,1-1.572-.314,2.557,2.557,0,0,1-1.07-.878,2.117,2.117,0,0,1-.386-1.22h1.265a1.309,1.309,0,0,0,.509,1.008,1.976,1.976,0,0,0,1.254.373,2.039,2.039,0,0,0,1.152-.291A.893.893,0,0,0,43.333,13.038Zm2.577-1.8a4.369,4.369,0,0,1,.427-1.955,3.187,3.187,0,0,1,1.189-1.34,3.238,3.238,0,0,1,1.74-.472A3.119,3.119,0,0,1,51.71,8.513a4.024,4.024,0,0,1,.933,2.782v.089a4.407,4.407,0,0,1-.414,1.938,3.14,3.14,0,0,1-1.183,1.336,3.275,3.275,0,0,1-1.767.479,3.111,3.111,0,0,1-2.437-1.046,4,4,0,0,1-.933-2.769Zm1.271.15a3.164,3.164,0,0,0,.571,1.976,1.934,1.934,0,0,0,3.059-.01,3.46,3.46,0,0,0,.567-2.116A3.159,3.159,0,0,0,50.8,9.261a1.836,1.836,0,0,0-1.535-.755,1.816,1.816,0,0,0-1.511.745A3.435,3.435,0,0,0,47.182,11.384ZM55.426,7.6l.041.93a2.7,2.7,0,0,1,2.215-1.066q2.345,0,2.365,2.646V15H58.782V10.105a1.7,1.7,0,0,0-.366-1.183A1.466,1.466,0,0,0,57.3,8.54a1.825,1.825,0,0,0-1.08.328,2.228,2.228,0,0,0-.725.861V15H54.229V7.6ZM66.794,15H65.529V4.5h1.265Zm1.688-3.767a4.369,4.369,0,0,1,.427-1.955A3.187,3.187,0,0,1,70.1,7.938a3.238,3.238,0,0,1,1.74-.472,3.119,3.119,0,0,1,2.444,1.046,4.024,4.024,0,0,1,.933,2.782v.089a4.407,4.407,0,0,1-.414,1.938,3.14,3.14,0,0,1-1.183,1.336,3.275,3.275,0,0,1-1.767.479,3.111,3.111,0,0,1-2.437-1.046,4,4,0,0,1-.933-2.769Zm1.271.15a3.164,3.164,0,0,0,.571,1.976,1.934,1.934,0,0,0,3.059-.01,3.46,3.46,0,0,0,.567-2.116,3.159,3.159,0,0,0-.578-1.972,1.836,1.836,0,0,0-1.535-.755,1.816,1.816,0,0,0-1.511.745A3.435,3.435,0,0,0,69.754,11.384Zm11.354,1.654a.931.931,0,0,0-.386-.8,3.718,3.718,0,0,0-1.347-.489,6.367,6.367,0,0,1-1.524-.492,2.169,2.169,0,0,1-.834-.684,1.635,1.635,0,0,1-.27-.943A1.919,1.919,0,0,1,77.516,8.1a3,3,0,0,1,1.965-.629,3.091,3.091,0,0,1,2.041.649A2.063,2.063,0,0,1,82.3,9.777H81.033a1.142,1.142,0,0,0-.441-.9,1.652,1.652,0,0,0-1.111-.376,1.729,1.729,0,0,0-1.08.3.947.947,0,0,0-.39.786.767.767,0,0,0,.362.69,4.458,4.458,0,0,0,1.309.444,6.821,6.821,0,0,1,1.535.506,2.239,2.239,0,0,1,.872.708,1.74,1.74,0,0,1,.284,1.008,1.893,1.893,0,0,1-.793,1.589,3.326,3.326,0,0,1-2.058.6,3.725,3.725,0,0,1-1.572-.314,2.557,2.557,0,0,1-1.07-.878,2.117,2.117,0,0,1-.386-1.22h1.265a1.309,1.309,0,0,0,.509,1.008,1.976,1.976,0,0,0,1.254.373,2.039,2.039,0,0,0,1.152-.291A.893.893,0,0,0,81.108,13.038Zm12.626-1.654a4.429,4.429,0,0,1-.772,2.721,2.476,2.476,0,0,1-2.092,1.032,2.713,2.713,0,0,1-2.119-.854v3.562H87.486V7.6h1.155l.062.82a2.605,2.605,0,0,1,2.146-.957,2.522,2.522,0,0,1,2.109,1,4.477,4.477,0,0,1,.776,2.8ZM92.47,11.24a3.268,3.268,0,0,0-.533-1.976,1.718,1.718,0,0,0-1.463-.725,1.859,1.859,0,0,0-1.723,1.019v3.534A1.863,1.863,0,0,0,90.487,14.1a1.71,1.71,0,0,0,1.446-.721A3.567,3.567,0,0,0,92.47,11.24ZM99.907,15a2.657,2.657,0,0,1-.178-.779,2.822,2.822,0,0,1-2.105.916,2.611,2.611,0,0,1-1.794-.619,2,2,0,0,1-.7-1.569,2.091,2.091,0,0,1,.878-1.794,4.141,4.141,0,0,1,2.471-.639h1.23V9.935a1.42,1.42,0,0,0-.4-1.056,1.593,1.593,0,0,0-1.169-.393,1.844,1.844,0,0,0-1.135.342,1.007,1.007,0,0,0-.458.827H95.279a1.745,1.745,0,0,1,.393-1.07,2.683,2.683,0,0,1,1.066-.817,3.588,3.588,0,0,1,1.48-.3,2.924,2.924,0,0,1,2,.639,2.306,2.306,0,0,1,.752,1.76v3.4a4.162,4.162,0,0,0,.26,1.62V15Zm-2.1-.964a2.223,2.223,0,0,0,1.128-.308,1.861,1.861,0,0,0,.772-.8V11.411h-.991q-2.324,0-2.324,1.36a1.151,1.151,0,0,0,.4.93A1.524,1.524,0,0,0,97.809,14.036Zm8.723-5.3a3.79,3.79,0,0,0-.622-.048,1.667,1.667,0,0,0-1.688,1.06V15h-1.265V7.6h1.23l.021.854a1.969,1.969,0,0,1,1.764-.991,1.292,1.292,0,0,1,.561.1ZM109.067,15H107.8V7.6h1.265ZM107.7,5.642a.755.755,0,0,1,.188-.52.706.706,0,0,1,.557-.212.717.717,0,0,1,.561.212.747.747,0,0,1,.191.52.722.722,0,0,1-.191.513.73.73,0,0,1-.561.205.718.718,0,0,1-.557-.205A.73.73,0,0,1,107.7,5.642ZM115.657,15a2.657,2.657,0,0,1-.178-.779,2.822,2.822,0,0,1-2.105.916,2.611,2.611,0,0,1-1.794-.619,2,2,0,0,1-.7-1.569,2.091,2.091,0,0,1,.878-1.794,4.141,4.141,0,0,1,2.471-.639h1.23V9.935a1.42,1.42,0,0,0-.4-1.056,1.593,1.593,0,0,0-1.169-.393,1.844,1.844,0,0,0-1.135.342,1.007,1.007,0,0,0-.458.827h-1.271a1.745,1.745,0,0,1,.393-1.07,2.683,2.683,0,0,1,1.066-.817,3.588,3.588,0,0,1,1.48-.3,2.924,2.924,0,0,1,2,.639,2.306,2.306,0,0,1,.752,1.76v3.4a4.162,4.162,0,0,0,.26,1.62V15Zm-2.1-.964a2.223,2.223,0,0,0,1.128-.308,1.861,1.861,0,0,0,.772-.8V11.411h-.991q-2.324,0-2.324,1.36a1.151,1.151,0,0,0,.4.93A1.524,1.524,0,0,0,113.559,14.036Zm9.454-1a.931.931,0,0,0-.386-.8,3.718,3.718,0,0,0-1.347-.489,6.367,6.367,0,0,1-1.524-.492,2.169,2.169,0,0,1-.834-.684,1.635,1.635,0,0,1-.27-.943A1.919,1.919,0,0,1,119.42,8.1a3,3,0,0,1,1.965-.629,3.091,3.091,0,0,1,2.041.649,2.063,2.063,0,0,1,.783,1.661h-1.271a1.142,1.142,0,0,0-.441-.9,1.652,1.652,0,0,0-1.111-.376,1.729,1.729,0,0,0-1.08.3.947.947,0,0,0-.39.786.767.767,0,0,0,.362.69,4.458,4.458,0,0,0,1.309.444,6.821,6.821,0,0,1,1.535.506,2.239,2.239,0,0,1,.872.708,1.74,1.74,0,0,1,.284,1.008,1.893,1.893,0,0,1-.793,1.589,3.326,3.326,0,0,1-2.058.6,3.725,3.725,0,0,1-1.572-.314,2.557,2.557,0,0,1-1.07-.878,2.117,2.117,0,0,1-.386-1.22h1.265a1.309,1.309,0,0,0,.509,1.008,1.976,1.976,0,0,0,1.254.373,2.039,2.039,0,0,0,1.152-.291A.893.893,0,0,0,123.013,13.038ZM2.331,33H1.066V25.6H2.331ZM.964,23.642a.755.755,0,0,1,.188-.52.706.706,0,0,1,.557-.212.717.717,0,0,1,.561.212.747.747,0,0,1,.191.52.722.722,0,0,1-.191.513.73.73,0,0,1-.561.205.718.718,0,0,1-.557-.205A.73.73,0,0,1,.964,23.642ZM5.551,25.6l.041.93a2.7,2.7,0,0,1,2.215-1.066q2.345,0,2.365,2.646V33H8.907V28.105a1.7,1.7,0,0,0-.366-1.183,1.466,1.466,0,0,0-1.118-.383,1.825,1.825,0,0,0-1.08.328,2.228,2.228,0,0,0-.725.861V33H4.354V25.6Zm8.244-1.791V25.6h1.381v.978H13.795v4.593a1.027,1.027,0,0,0,.185.667.777.777,0,0,0,.629.222,3.062,3.062,0,0,0,.6-.082V33a3.688,3.688,0,0,1-.971.136,1.575,1.575,0,0,1-1.278-.513,2.2,2.2,0,0,1-.431-1.456V26.581H11.184V25.6H12.53V23.813Zm2.386,5.421a4.369,4.369,0,0,1,.427-1.955,3.187,3.187,0,0,1,1.189-1.34,3.238,3.238,0,0,1,1.74-.472,3.119,3.119,0,0,1,2.444,1.046,4.024,4.024,0,0,1,.933,2.782v.089a4.407,4.407,0,0,1-.414,1.938,3.14,3.14,0,0,1-1.183,1.336,3.275,3.275,0,0,1-1.767.479,3.111,3.111,0,0,1-2.437-1.046,4,4,0,0,1-.933-2.769Zm1.271.15a3.164,3.164,0,0,0,.571,1.976,1.934,1.934,0,0,0,3.059-.01,3.46,3.46,0,0,0,.567-2.116,3.159,3.159,0,0,0-.578-1.972,1.836,1.836,0,0,0-1.535-.755,1.816,1.816,0,0,0-1.511.745A3.434,3.434,0,0,0,17.452,29.384ZM27.467,32.1a1.822,1.822,0,0,0,1.183-.41,1.443,1.443,0,0,0,.561-1.025h1.2a2.293,2.293,0,0,1-.437,1.21,2.881,2.881,0,0,1-1.077.916,3.107,3.107,0,0,1-1.425.342,3.047,3.047,0,0,1-2.4-1.008,4.016,4.016,0,0,1-.892-2.758v-.212a4.453,4.453,0,0,1,.4-1.921,3.02,3.02,0,0,1,1.138-1.306,3.233,3.233,0,0,1,1.753-.465,2.966,2.966,0,0,1,2.068.745,2.663,2.663,0,0,1,.878,1.935h-1.2a1.743,1.743,0,0,0-.543-1.179,1.691,1.691,0,0,0-1.207-.461,1.77,1.77,0,0,0-1.494.694,3.259,3.259,0,0,0-.53,2.006v.239a3.194,3.194,0,0,0,.526,1.969A1.779,1.779,0,0,0,27.467,32.1Zm8.928.9a2.657,2.657,0,0,1-.178-.779,2.822,2.822,0,0,1-2.105.916,2.611,2.611,0,0,1-1.794-.619,2,2,0,0,1-.7-1.569,2.091,2.091,0,0,1,.878-1.794,4.142,4.142,0,0,1,2.471-.639H36.2v-.581a1.42,1.42,0,0,0-.4-1.056,1.593,1.593,0,0,0-1.169-.393,1.844,1.844,0,0,0-1.135.342,1.007,1.007,0,0,0-.458.827H31.767a1.745,1.745,0,0,1,.393-1.07,2.683,2.683,0,0,1,1.066-.817,3.588,3.588,0,0,1,1.48-.3,2.924,2.924,0,0,1,2,.639,2.306,2.306,0,0,1,.752,1.76v3.4a4.162,4.162,0,0,0,.26,1.62V33Zm-2.1-.964a2.223,2.223,0,0,0,1.128-.308,1.861,1.861,0,0,0,.772-.8V29.411h-.991q-2.324,0-2.324,1.36a1.151,1.151,0,0,0,.4.93A1.524,1.524,0,0,0,34.3,32.036Zm11.409-2.652a4.4,4.4,0,0,1-.779,2.724,2.49,2.49,0,0,1-2.092,1.029,2.578,2.578,0,0,1-2.167-.991L40.605,33H39.443V22.5h1.265v3.917a2.564,2.564,0,0,1,2.112-.95,2.505,2.505,0,0,1,2.116,1.019,4.53,4.53,0,0,1,.769,2.789ZM44.44,29.24a3.417,3.417,0,0,0-.5-2,1.652,1.652,0,0,0-1.436-.7,1.857,1.857,0,0,0-1.8,1.162v3.2a1.909,1.909,0,0,0,1.812,1.162,1.643,1.643,0,0,0,1.415-.7A3.634,3.634,0,0,0,44.44,29.24ZM48.672,33H47.407V22.5h1.265Zm5.093.137a3.232,3.232,0,0,1-2.447-.988,3.666,3.666,0,0,1-.943-2.642v-.232a4.438,4.438,0,0,1,.42-1.965,3.279,3.279,0,0,1,1.176-1.354,2.956,2.956,0,0,1,1.637-.489,2.77,2.77,0,0,1,2.242.95,4.114,4.114,0,0,1,.8,2.721v.526H51.639a2.629,2.629,0,0,0,.639,1.767,2.009,2.009,0,0,0,1.555.673,2.2,2.2,0,0,0,1.135-.273,2.851,2.851,0,0,0,.813-.725l.772.6A3.106,3.106,0,0,1,53.765,33.137Zm-.157-6.631a1.687,1.687,0,0,0-1.285.557,2.708,2.708,0,0,0-.643,1.562h3.705v-.1a2.409,2.409,0,0,0-.52-1.494A1.588,1.588,0,0,0,53.607,26.506Zm8.812,4.532a.931.931,0,0,0-.386-.8,3.718,3.718,0,0,0-1.347-.489,6.367,6.367,0,0,1-1.524-.492,2.169,2.169,0,0,1-.834-.684,1.635,1.635,0,0,1-.27-.943,1.919,1.919,0,0,1,.769-1.538,3,3,0,0,1,1.965-.629,3.091,3.091,0,0,1,2.041.649,2.063,2.063,0,0,1,.783,1.661H62.344a1.142,1.142,0,0,0-.441-.9,1.652,1.652,0,0,0-1.111-.376,1.729,1.729,0,0,0-1.08.3.947.947,0,0,0-.39.786.767.767,0,0,0,.362.69,4.458,4.458,0,0,0,1.309.444,6.821,6.821,0,0,1,1.535.506,2.239,2.239,0,0,1,.872.708,1.74,1.74,0,0,1,.284,1.008,1.893,1.893,0,0,1-.793,1.589,3.326,3.326,0,0,1-2.058.6,3.725,3.725,0,0,1-1.572-.314,2.557,2.557,0,0,1-1.07-.878,2.117,2.117,0,0,1-.386-1.22h1.265a1.309,1.309,0,0,0,.509,1.008,1.976,1.976,0,0,0,1.254.373,2.039,2.039,0,0,0,1.152-.291A.893.893,0,0,0,62.419,31.038Zm2.939,1.3a.792.792,0,0,1,.195-.547.742.742,0,0,1,.584-.219.765.765,0,0,1,.591.219.776.776,0,0,1,.2.547.734.734,0,0,1-.2.526.778.778,0,0,1-.591.212.7.7,0,0,1-.779-.738Z" transform="translate(3334 -9827.072)" fill="#12263f"/>
    <path id="Trazado_773883" data-name="Trazado 773883" d="M117.66,351.03l188.182,14.637-16.9-14.637Z" transform="translate(2925.519 -10262.519)" opacity="0.5" fill="url(#linear-gradient)"/>
    <path id="Trazado_773884" data-name="Trazado 773884" d="M117.66,351.03,295.136,356.4l-6.2-5.365Z" transform="translate(2925.519 -10262.519)" opacity="0.5" fill="url(#linear-gradient-2)"/>
    <path id="Trazado_773885" data-name="Trazado 773885" d="M289.2,298.65H117.66l28.59-49.52H260.6Z" transform="translate(2925.519 -10210.139)" fill="#d3d3d3"/>
    <path id="Trazado_773886" data-name="Trazado 773886" d="M278.944,226.45l-125.6,12.64,11.279-12.64Z" transform="translate(2907.179 -10198.48)" opacity="0.5" fill="url(#linear-gradient-3)"/>
    <path id="Trazado_773887" data-name="Trazado 773887" d="M286.5,226.45l-118.46,4.631,4.136-4.631Z" transform="translate(2899.623 -10198.48)" opacity="0.5" fill="url(#linear-gradient-4)"/>
    <path id="Trazado_773888" data-name="Trazado 773888" d="M290.844,174.086H176.49l28.585-49.506h57.189Z" transform="translate(2895.279 -10146.116)" fill="#dee9f0"/>
    <path id="Trazado_773889" data-name="Trazado 773889" d="M235.31,101.9l62.831,9.773L292.5,101.9Z" transform="translate(2865.044 -10134.458)" opacity="0.5" fill="url(#linear-gradient-5)"/>
    <path id="Trazado_773890" data-name="Trazado 773890" d="M235.31,101.9l59.254,3.582L292.5,101.9Z" transform="translate(2865.044 -10134.458)" opacity="0.5" fill="url(#linear-gradient-6)"/>
    <path id="Trazado_773891" data-name="Trazado 773891" d="M292.5,49.52H235.31L263.9,0Z" transform="translate(2865.044 -10082.078)" fill="#2d54fe"/>
    <g id="Grupo_1028046" data-name="Grupo 1028046" transform="translate(3143.245 -10063.038)">
      <rect id="Rectángulo_360974" data-name="Rectángulo 360974" width="180.222" height="0.734" transform="translate(0 5.351)" fill="#2d54fe"/>
      <circle id="Elipse_8696" data-name="Elipse 8696" cx="4.043" cy="4.043" r="4.043" transform="translate(174.503 5.718) rotate(-45)" fill="#2d54fe"/>
    </g>
    <g id="Grupo_1028047" data-name="Grupo 1028047" transform="translate(3171.83 -10000.829)">
      <rect id="Rectángulo_360975" data-name="Rectángulo 360975" width="151.632" height="0.734" transform="translate(0 3.679)" fill="#dee9f0"/>
      <circle id="Elipse_8697" data-name="Elipse 8697" cx="4.043" cy="4.043" r="4.043" transform="translate(147.594)" fill="#dee9f0"/>
    </g>
    <g id="Grupo_1028048" data-name="Grupo 1028048" transform="translate(3200.42 -9941.122)">
      <rect id="Rectángulo_360976" data-name="Rectángulo 360976" width="123.043" height="0.734" transform="translate(0 4.505)" fill="#d3d3d3"/>
      <circle id="Elipse_8698" data-name="Elipse 8698" cx="4.043" cy="4.043" r="4.043" transform="matrix(0.231, -0.973, 0.973, 0.231, 118.177, 7.869)" fill="#d3d3d3"/>
    </g>
    <g id="Grupo_1028049" data-name="Grupo 1028049" transform="translate(3229.01 -9879.754)">
      <rect id="Rectángulo_360977" data-name="Rectángulo 360977" width="94.458" height="0.734" transform="translate(0 3.679)" fill="#ffca00"/>
      <circle id="Elipse_8699" data-name="Elipse 8699" cx="4.043" cy="4.043" r="4.043" transform="translate(90.415)" fill="#ffca00"/>
    </g>
    <g id="Grupo_1028050" data-name="Grupo 1028050" transform="translate(3257.599 -9820.89)">
      <rect id="Rectángulo_360978" data-name="Rectángulo 360978" width="65.868" height="0.734" transform="translate(0 5.356)" fill="#fe502d"/>
      <circle id="Elipse_8700" data-name="Elipse 8700" cx="4.043" cy="4.043" r="4.043" transform="translate(60.149 5.718) rotate(-45)" fill="#fe502d"/>
    </g>
    <path id="Trazado_773892" data-name="Trazado 773892" d="M265.187,475.61,15.34,494.393,37.782,475.61Z" transform="translate(2978.115 -10326.556)" opacity="0.5" fill="url(#linear-gradient-7)"/>
    <path id="Trazado_773893" data-name="Trazado 773893" d="M280.222,475.61,44.59,482.491l8.227-6.881Z" transform="translate(2963.079 -10326.556)" opacity="0.5" fill="url(#linear-gradient-8)"/>
    <path id="Trazado_773894" data-name="Trazado 773894" d="M287.547,423.23H58.84l28.585-49.52H258.963Z" transform="translate(2955.755 -10274.176)" fill="#ffca00"/>
    <path id="Trazado_773895" data-name="Trazado 773895" d="M0,600.18l313.179,17.859L285.046,600.18Z" transform="translate(2986 -10390.588)" opacity="0.5" fill="url(#linear-gradient-9)"/>
    <path id="Trazado_773896" data-name="Trazado 773896" d="M0,600.18l295.358,6.546-10.312-6.546Z" transform="translate(2986 -10390.588)" opacity="0.5" fill="url(#linear-gradient-10)"/>
    <path id="Trazado_773897" data-name="Trazado 773897" d="M285.9,547.8H0l28.594-49.52H257.3Z" transform="translate(2986 -10338.209)" fill="#fe502d"/>
  </g>
</svg>
