<svg xmlns="http://www.w3.org/2000/svg" xmlns:xlink="http://www.w3.org/1999/xlink" width="276.714" height="220.729" viewBox="0 0 276.714 220.729">
  <defs>
    <filter id="Trazado_762389" x="22.302" y="11.856" width="200.624" height="200.624" filterUnits="userSpaceOnUse">
      <feOffset dx="3" dy="3" input="SourceAlpha"/>
      <feGaussianBlur stdDeviation="3" result="blur"/>
      <feFlood flood-opacity="0.161"/>
      <feComposite operator="in" in2="blur"/>
      <feComposite in="SourceGraphic"/>
    </filter>
    <clipPath id="clip-path">
      <path id="Trazado_762412" data-name="Trazado 762412" d="M67.171,67.173a74.167,74.167,0,1,0,52.443-21.722A74.166,74.166,0,0,0,67.171,67.173" fill="none"/>
    </clipPath>
    <linearGradient id="linear-gradient" x1="-0.031" y1="1.015" x2="-0.027" y2="1.015" gradientUnits="objectBoundingBox">
      <stop offset="0" stop-color="#fdfdfd"/>
      <stop offset="0.397" stop-color="#f5f5f5"/>
      <stop offset="1" stop-color="#e0e0e0"/>
    </linearGradient>
  </defs>
  <g id="Grupo_1028062" data-name="Grupo 1028062" transform="translate(9702 8411.043)">
    <path id="Trazado_762388" data-name="Trazado 762388" d="M35.265,35.268a118.822,118.822,0,0,1,35.4-24.459v-.357a119.671,119.671,0,0,0,0,218.329v-.359a119.253,119.253,0,0,1-35.4-193.154M229.819,73.05a119.962,119.962,0,0,0-61.264-62.6V10.8a119.346,119.346,0,0,1,0,217.626v.357A119.721,119.721,0,0,0,229.819,73.05" transform="translate(-9702 -8421.49)" fill="#fe502d"/>
    <g transform="matrix(1, 0, 0, 1, -9702, -8411.04)" filter="url(#Trazado_762389)">
      <path id="Trazado_762389-2" data-name="Trazado 762389" d="M210.926,119.616A91.312,91.312,0,1,1,119.614,28.3a91.312,91.312,0,0,1,91.312,91.312" transform="translate(0 -10.45)" fill="#fe502d"/>
    </g>
    <path id="Trazado_762390" data-name="Trazado 762390" d="M18.939,162.154a108.692,108.692,0,0,0,17.849,28.74l-1.62,1.62A111.691,111.691,0,0,1,16.834,76.189a112.32,112.32,0,0,1,6.155-12.363,1.142,1.142,0,0,1,1.979,1.141,109.879,109.879,0,0,0-6.029,12.112,109.594,109.594,0,0,0,0,85.075" transform="translate(-9702 -8421.49)" fill="#fe502d"/>
    <path id="Trazado_762391" data-name="Trazado 762391" d="M120.765,230.034a1.143,1.143,0,0,1-1.142,1.142,111.219,111.219,0,0,1-72.918-27.125l1.62-1.618a108.933,108.933,0,0,0,71.3,26.459,1.142,1.142,0,0,1,1.142,1.142" transform="translate(-9702 -8421.49)" fill="#fe502d"/>
    <path id="Trazado_762392" data-name="Trazado 762392" d="M31.465,70.042a1.122,1.122,0,0,0,.572.155,1.142,1.142,0,0,0,.989-.569l.041-.071a1.143,1.143,0,1,0-1.977-1.146l-.04.071a1.14,1.14,0,0,0,.415,1.56" transform="translate(-9702 -8421.49)" fill="#fe502d"/>
    <path id="Trazado_762393" data-name="Trazado 762393" d="M145.409,23.013l.155.042a1.179,1.179,0,0,0,.3.039,1.142,1.142,0,0,0,.3-2.245l-.16-.043a1.142,1.142,0,0,0-.589,2.207" transform="translate(-9702 -8421.49)" fill="#fe502d"/>
    <path id="Trazado_762394" data-name="Trazado 762394" d="M157.792,27.209l.149.062a1.142,1.142,0,1,0,.877-2.109l-.153-.064a1.142,1.142,0,0,0-.873,2.111" transform="translate(-9702 -8421.49)" fill="#fe502d"/>
    <path id="Trazado_762395" data-name="Trazado 762395" d="M198.971,58.815a1.142,1.142,0,1,0,1.81-1.393l-.1-.129a1.142,1.142,0,0,0-1.811,1.392Z" transform="translate(-9702 -8421.49)" fill="#fe502d"/>
    <path id="Trazado_762396" data-name="Trazado 762396" d="M132.58,20.486l.161.021a1.257,1.257,0,0,0,.149.01,1.142,1.142,0,0,0,.147-2.275l-.163-.021a1.142,1.142,0,1,0-.294,2.265" transform="translate(-9702 -8421.49)" fill="#fe502d"/>
    <path id="Trazado_762397" data-name="Trazado 762397" d="M180.4,40.246l.129.1a1.142,1.142,0,0,0,1.392-1.811l-.13-.1a1.142,1.142,0,1,0-1.391,1.812" transform="translate(-9702 -8421.49)" fill="#fe502d"/>
    <path id="Trazado_762398" data-name="Trazado 762398" d="M119.527,19.657h.164a1.142,1.142,0,0,0,0-2.284h-.164a1.142,1.142,0,0,0,0,2.284" transform="translate(-9702 -8421.49)" fill="#fe502d"/>
    <path id="Trazado_762399" data-name="Trazado 762399" d="M169.525,32.983l.141.081a1.142,1.142,0,1,0,1.142-1.978L170.666,31a1.142,1.142,0,0,0-1.141,1.979" transform="translate(-9702 -8421.49)" fill="#fe502d"/>
    <path id="Trazado_762400" data-name="Trazado 762400" d="M190.346,48.983a1.142,1.142,0,0,0,1.614-1.615l-.114-.116a1.143,1.143,0,0,0-1.617,1.616Z" transform="translate(-9702 -8421.49)" fill="#fe502d"/>
    <path id="Trazado_762401" data-name="Trazado 762401" d="M80.839,27.363a1.131,1.131,0,0,0,.438-.088l.149-.061a1.142,1.142,0,0,0-.872-2.112l-.154.064a1.142,1.142,0,0,0,.439,2.2" transform="translate(-9702 -8421.49)" fill="#fe502d"/>
    <path id="Trazado_762402" data-name="Trazado 762402" d="M58,40.589a1.139,1.139,0,0,0,.7-.238l.127-.1a1.142,1.142,0,1,0-1.391-1.812l-.131.1a1.142,1.142,0,0,0,.7,2.047" transform="translate(-9702 -8421.49)" fill="#fe502d"/>
    <path id="Trazado_762403" data-name="Trazado 762403" d="M48.067,49.326a1.14,1.14,0,0,0,.808-.335l.117-.117a1.142,1.142,0,0,0-1.619-1.612l-.114.114a1.142,1.142,0,0,0,.808,1.95" transform="translate(-9702 -8421.49)" fill="#fe502d"/>
    <path id="Trazado_762404" data-name="Trazado 762404" d="M38.649,59.034a1.142,1.142,0,0,0,1.6-.211l.1-.127a1.143,1.143,0,0,0-1.81-1.4l-.1.132a1.142,1.142,0,0,0,.211,1.6" transform="translate(-9702 -8421.49)" fill="#fe502d"/>
    <path id="Trazado_762405" data-name="Trazado 762405" d="M106.327,20.518a1.08,1.08,0,0,0,.15-.01l.159-.021a1.142,1.142,0,1,0-.291-2.265l-.165.021a1.142,1.142,0,0,0,.147,2.275" transform="translate(-9702 -8421.49)" fill="#fe502d"/>
    <path id="Trazado_762406" data-name="Trazado 762406" d="M93.356,23.1a1.177,1.177,0,0,0,.3-.039l.156-.042a1.142,1.142,0,0,0-.589-2.207l-.159.042a1.143,1.143,0,0,0,.3,2.246" transform="translate(-9702 -8421.49)" fill="#fe502d"/>
    <path id="Trazado_762407" data-name="Trazado 762407" d="M68.982,33.224a1.14,1.14,0,0,0,.571-.154l.141-.081a1.142,1.142,0,0,0-1.143-1.978l-.142.082a1.142,1.142,0,0,0,.573,2.131" transform="translate(-9702 -8421.49)" fill="#fe502d"/>
    <path id="Trazado_762408" data-name="Trazado 762408" d="M220.715,117.24a2.376,2.376,0,1,0,2.376,2.377,2.379,2.379,0,0,0-2.376-2.377" transform="translate(-9702 -8421.49)" fill="#fe502d"/>
    <path id="Trazado_762409" data-name="Trazado 762409" d="M275.571,118.475H228.227a7.616,7.616,0,0,0-6.642-6.4,101.458,101.458,0,0,0-7.767-32.256,102.615,102.615,0,0,0-5.64-11.332h0l-.041-.07a1.142,1.142,0,0,0-1.977,1.143l.041.069v0a100.32,100.32,0,0,1,5.513,11.079,99.134,99.134,0,0,1,7.586,31.449,7.6,7.6,0,0,0,0,14.925,99.884,99.884,0,0,1-99.687,92.5,1.142,1.142,0,1,0,0,2.284,102.17,102.17,0,0,0,101.972-94.7,7.616,7.616,0,0,0,6.642-6.4h47.344a1.142,1.142,0,1,0,0-2.284m-54.856,6.454a5.313,5.313,0,1,1,5.312-5.312,5.319,5.319,0,0,1-5.312,5.312" transform="translate(-9702 -8421.49)" fill="#fe502d"/>
    <path id="Trazado_762410" data-name="Trazado 762410" d="M46.623,197.508a4.895,4.895,0,1,1-4.9-4.895,4.895,4.895,0,0,1,4.9,4.895" transform="translate(-9702 -8421.49)" fill="#fe502d"/>
    <path id="Trazado_762411" data-name="Trazado 762411" d="M43.777,197.508a2.048,2.048,0,1,1-2.048-2.048,2.048,2.048,0,0,1,2.048,2.048" transform="translate(-9702 -8421.49)" fill="#fff"/>
    <g id="Grupo_1024271" data-name="Grupo 1024271" transform="translate(-9702 -8421.49)" clip-path="url(#clip-path)">
      <rect id="Rectángulo_358970" data-name="Rectángulo 358970" width="225.131" height="225.131" transform="translate(-39.577 123.237) rotate(-45)" fill="url(#linear-gradient)"/>
    </g>
    <path id="Trazado_762413" data-name="Trazado 762413" d="M68.994,69a71.587,71.587,0,1,1,0,101.239A71.587,71.587,0,0,1,68.994,69" transform="translate(-9702 -8421.49)" fill="#f3f4f5"/>
    <g id="Grupo_1027965" data-name="Grupo 1027965" transform="translate(-9614.452 -8338.146)">
      <g id="Grupo_1027916" data-name="Grupo 1027916" transform="translate(0.708 44.136)">
        <path id="Trazado_773137" data-name="Trazado 773137" d="M65.082,162.117a4.162,4.162,0,0,0-3.139-3.8l-6.054-1.524a20.645,20.645,0,0,1-3.092-1.047.8.8,0,0,1-.229.5l-4.246,4.246a.8.8,0,0,1-1.137,0l-1.9-1.9a.8.8,0,0,1-.228-.649h-2.18a.8.8,0,0,1-.228.649l-1.9,1.9a.8.8,0,0,1-1.137,0l-4.246-4.246a.8.8,0,0,1-.229-.5,20.662,20.662,0,0,1-3.085,1.043l-6.061,1.525a4.161,4.161,0,0,0-3.139,3.8l-1.166,20.107a1.157,1.157,0,0,0,1.155,1.221H65.093a1.157,1.157,0,0,0,1.155-1.221Z" transform="translate(-21.684 -155.742)" fill="#70d6f9"/>
      </g>
      <g id="Grupo_1027917" data-name="Grupo 1027917" transform="translate(14.155 41.364)">
        <path id="Trazado_773138" data-name="Trazado 773138" d="M76.653,150.443,72.407,146.2a.8.8,0,0,0-1.137,0l-1.9,1.9a.8.8,0,0,0,0,1.137l4.246,4.246a.8.8,0,0,0,1.137,0l1.9-1.9A.8.8,0,0,0,76.653,150.443Z" transform="translate(-69.134 -145.962)" fill="#9be5f9"/>
      </g>
      <g id="Grupo_1027918" data-name="Grupo 1027918" transform="translate(24.074 41.364)">
        <path id="Trazado_773139" data-name="Trazado 773139" d="M104.37,150.443l4.246-4.246a.8.8,0,0,1,1.137,0l1.9,1.9a.8.8,0,0,1,0,1.137l-4.246,4.246a.8.8,0,0,1-1.137,0l-1.9-1.9A.8.8,0,0,1,104.37,150.443Z" transform="translate(-104.135 -145.962)" fill="#9be5f9"/>
      </g>
      <g id="Grupo_1027919" data-name="Grupo 1027919" transform="translate(12.445 15.873)">
        <path id="Trazado_773140" data-name="Trazado 773140" d="M82.052,58.781a10.274,10.274,0,0,1-5.981-2.608.568.568,0,0,0-.844.053c-3.852,4.844-9.534,4.16-11.445,3.761a.563.563,0,0,0-.681.544v8.491a10.546,10.546,0,0,0,21.093,0V63.966a14.841,14.841,0,0,1-2.142-5.186Z" transform="translate(-63.101 -56.009)" fill="#f9d0b4"/>
      </g>
      <g id="Grupo_1027920" data-name="Grupo 1027920" transform="translate(9.021 6.049)">
        <path id="Trazado_773141" data-name="Trazado 773141" d="M73.142,29.683a14.679,14.679,0,0,1,1.838-5.992,5.944,5.944,0,0,0-4.815.6A6.031,6.031,0,0,0,65,21.342H61.9A10.918,10.918,0,0,0,51.019,32.228v4.878a4.382,4.382,0,0,1,2.747-.965,4.438,4.438,0,0,1,.677.054v-.507a.563.563,0,0,1,.681-.544c1.911.4,7.593,1.083,11.445-3.761a.568.568,0,0,1,.844-.053,10.275,10.275,0,0,0,5.981,2.608,15.117,15.117,0,0,1-.252-4.254Z" transform="translate(-51.019 -21.342)" fill="#754e34"/>
      </g>
      <g id="Grupo_1027921" data-name="Grupo 1027921" transform="translate(33.511 23.83)">
        <path id="Trazado_773142" data-name="Trazado 773142" d="M137.464,84.088v5.054c0,.238-.011.473-.027.707a4.344,4.344,0,0,0,4.137-1.589A15.016,15.016,0,0,1,137.464,84.088Z" transform="translate(-137.437 -84.088)" fill="#f9d0b4"/>
      </g>
      <g id="Grupo_1027922" data-name="Grupo 1027922" transform="translate(7.365 20.847)">
        <path id="Trazado_773143" data-name="Trazado 773143" d="M50.255,81.6V73.615a4.4,4.4,0,1,0,.027,8.691h0C50.266,82.072,50.255,81.836,50.255,81.6Z" transform="translate(-45.175 -73.561)" fill="#f9d0b4"/>
      </g>
      <g id="Grupo_1027923" data-name="Grupo 1027923" transform="translate(37.675 59.37)">
        <path id="Trazado_773144" data-name="Trazado 773144" d="M152.131,221.969h6.443a1.157,1.157,0,0,0,1.155-1.221l-.652-11.248h-6.945Z" transform="translate(-152.131 -209.5)" fill="#f9d0b4"/>
      </g>
      <g id="Grupo_1027924" data-name="Grupo 1027924" transform="translate(0.708 59.37)">
        <path id="Trazado_773145" data-name="Trazado 773145" d="M29.437,209.5h-7.1l-.652,11.248a1.157,1.157,0,0,0,1.155,1.221h6.6V209.5Z" transform="translate(-21.684 -209.5)" fill="#f9d0b4"/>
      </g>
      <g id="Grupo_1027925" data-name="Grupo 1027925" transform="translate(17.627 38.234)">
        <path id="Trazado_773146" data-name="Trazado 773146" d="M85.661,143.016h2.18a.8.8,0,0,1,.228-.489l4.05-4.05a3.627,3.627,0,0,1-.509-1.845v-1.716a10.461,10.461,0,0,1-9.717,0v1.716a3.635,3.635,0,0,1-.506,1.849l4.047,4.047A.8.8,0,0,1,85.661,143.016Z" transform="translate(-81.386 -134.915)" fill="#f9d0b4"/>
      </g>
      <g id="Grupo_1027926" data-name="Grupo 1027926" transform="translate(25.645 23.812)">
        <path id="Trazado_773147" data-name="Trazado 773147" d="M113.3,86.067a.706.706,0,0,1-.543-.253,1.309,1.309,0,0,0-1.825,0,.708.708,0,1,1-1.086-.91,2.716,2.716,0,0,1,4,0,.708.708,0,0,1-.543,1.164Z" transform="translate(-109.679 -84.026)"/>
      </g>
      <g id="Grupo_1027927" data-name="Grupo 1027927" transform="translate(16.01 23.812)">
        <path id="Trazado_773148" data-name="Trazado 773148" d="M79.3,86.067a.706.706,0,0,1-.543-.253,1.309,1.309,0,0,0-1.825,0,.708.708,0,1,1-1.086-.91,2.716,2.716,0,0,1,4,0,.708.708,0,0,1-.543,1.164Z" transform="translate(-75.679 -84.026)"/>
      </g>
      <g id="Grupo_1027928" data-name="Grupo 1027928" transform="translate(36.967 53.644)">
        <path id="Trazado_773149" data-name="Trazado 773149" d="M150.339,207.914a.708.708,0,0,1-.708-.708V190a.708.708,0,0,1,1.417,0v17.2A.708.708,0,0,1,150.339,207.914Z" transform="translate(-149.631 -189.294)"/>
      </g>
      <g id="Grupo_1027929" data-name="Grupo 1027929" transform="translate(7.753 53.644)">
        <path id="Trazado_773150" data-name="Trazado 773150" d="M47.25,207.914a.708.708,0,0,1-.708-.708V190a.708.708,0,0,1,1.417,0v17.2A.708.708,0,0,1,47.25,207.914Z" transform="translate(-46.542 -189.294)"/>
      </g>
      <g id="Grupo_1027930" data-name="Grupo 1027930" transform="translate(0 43.457)">
        <path id="Trazado_773151" data-name="Trazado 773151" d="M63.3,182.437H21.05a1.866,1.866,0,0,1-1.862-1.969l1.166-20.108a4.849,4.849,0,0,1,3.674-4.451l6.061-1.526a19.939,19.939,0,0,0,2.919-.981.708.708,0,0,1,.553,1.3,21.391,21.391,0,0,1-3.127,1.051l-6.061,1.526a3.438,3.438,0,0,0-2.605,3.157L20.6,180.548a.449.449,0,0,0,.447.472H63.3a.449.449,0,0,0,.448-.474l-1.166-20.1a3.438,3.438,0,0,0-2.605-3.158l-6.054-1.524a21.482,21.482,0,0,1-3.119-1.049.708.708,0,1,1,.553-1.3,19.953,19.953,0,0,0,2.912.98l6.054,1.524A4.849,4.849,0,0,1,64,160.361l1.166,20.1a1.865,1.865,0,0,1-1.863,1.971Z" transform="translate(-19.185 -153.346)"/>
      </g>
      <g id="Grupo_1027931" data-name="Grupo 1027931" transform="translate(13.448 40.656)">
        <path id="Trazado_773152" data-name="Trazado 773152" d="M72.4,152.633a1.508,1.508,0,0,1-1.069-.442l-4.246-4.246a1.514,1.514,0,0,1,0-2.139l1.9-1.9a1.513,1.513,0,0,1,2.139,0l4.246,4.246a1.514,1.514,0,0,1,0,2.139l-1.9,1.9A1.508,1.508,0,0,1,72.4,152.633ZM70.05,144.88a.094.094,0,0,0-.067.028l-1.9,1.9a.1.1,0,0,0,0,.135l4.246,4.246a.1.1,0,0,0,.135,0l1.9-1.9a.1.1,0,0,0,0-.135l-4.246-4.246A.094.094,0,0,0,70.05,144.88Z" transform="translate(-66.638 -143.464)"/>
      </g>
      <g id="Grupo_1027932" data-name="Grupo 1027932" transform="translate(23.366 40.657)">
        <path id="Trazado_773153" data-name="Trazado 773153" d="M105.048,152.635a1.507,1.507,0,0,1-1.069-.442l-1.9-1.9a1.512,1.512,0,0,1,0-2.139l4.246-4.246a1.515,1.515,0,0,1,2.139,0l1.9,1.9a1.514,1.514,0,0,1,0,2.139l-4.246,4.246A1.508,1.508,0,0,1,105.048,152.635Zm2.346-7.753a.1.1,0,0,0-.068.028l-4.245,4.246h0a.1.1,0,0,0,0,.135l1.9,1.9a.084.084,0,0,0,.135,0l4.246-4.246a.1.1,0,0,0,0-.135l-1.9-1.9A.1.1,0,0,0,107.394,144.882Zm-4.814,3.773h0Z" transform="translate(-101.636 -143.466)"/>
      </g>
      <g id="Grupo_1027933" data-name="Grupo 1027933" transform="translate(11.736 15.164)">
        <path id="Trazado_773154" data-name="Trazado 773154" d="M71.855,78.483A11.268,11.268,0,0,1,60.6,67.228V58.744A1.271,1.271,0,0,1,62.135,57.5c2.05.43,7.2.946,10.745-3.508a1.276,1.276,0,0,1,1.895-.118,9.538,9.538,0,0,0,5.547,2.408.709.709,0,1,1-.187,1.4,11.068,11.068,0,0,1-6.241-2.694c-4.02,4.931-9.9,4.313-11.876,3.93v8.307a9.838,9.838,0,0,0,19.676,0V62.2a.708.708,0,1,1,1.417,0v5.027A11.268,11.268,0,0,1,71.855,78.483Z" transform="translate(-60.6 -53.507)"/>
      </g>
      <g id="Grupo_1027934" data-name="Grupo 1027934" transform="translate(8.313 5.34)">
        <path id="Trazado_773155" data-name="Trazado 773155" d="M49.227,35.948a.708.708,0,0,1-.708-.708v-4.8A11.607,11.607,0,0,1,60.113,18.842h3.093a6.77,6.77,0,0,1,5.4,2.731,6.7,6.7,0,0,1,4.681-.384.709.709,0,1,1-.389,1.363,5.282,5.282,0,0,0-4.16.554.709.709,0,0,1-.972-.244,5.352,5.352,0,0,0-4.559-2.6H60.113A10.189,10.189,0,0,0,49.936,30.437v4.8a.709.709,0,0,1-.708.708Z" transform="translate(-48.519 -18.842)"/>
      </g>
      <g id="Grupo_1027935" data-name="Grupo 1027935" transform="translate(33.034 27.434)">
        <path id="Trazado_773156" data-name="Trazado 773156" d="M136.934,99.734a4.676,4.676,0,0,1-.555-.034.708.708,0,1,1,.166-1.407,3.326,3.326,0,0,0,.389.024,3.693,3.693,0,0,0,2.783-1.268.708.708,0,0,1,1.068.931A5.11,5.11,0,0,1,136.934,99.734Z" transform="translate(-135.753 -96.807)"/>
      </g>
      <g id="Grupo_1027936" data-name="Grupo 1027936" transform="translate(6.657 20.138)">
        <path id="Trazado_773157" data-name="Trazado 773157" d="M47.787,81.284a5.112,5.112,0,1,1,0-10.223,4.977,4.977,0,0,1,.557.031.709.709,0,1,1-.16,1.408,3.548,3.548,0,0,0-.4-.023,3.695,3.695,0,1,0,0,7.389,3.367,3.367,0,0,0,.4-.026.708.708,0,0,1,.17,1.406,4.723,4.723,0,0,1-.573.036Z" transform="translate(-42.675 -71.061)"/>
      </g>
      <g id="Grupo_1027937" data-name="Grupo 1027937" transform="translate(37.166 58.662)">
        <path id="Trazado_773158" data-name="Trazado 773158" d="M157.6,208.417h-6.556a.708.708,0,0,1,0-1.417H157.6a.708.708,0,0,1,0,1.417Z" transform="translate(-150.333 -207)"/>
      </g>
      <g id="Grupo_1027938" data-name="Grupo 1027938" transform="translate(0.869 58.662)">
        <path id="Trazado_773159" data-name="Trazado 773159" d="M29.618,208.417h-6.66a.708.708,0,1,1,0-1.417h6.66a.708.708,0,1,1,0,1.417Z" transform="translate(-22.25 -207)"/>
      </g>
      <g id="Grupo_1027939" data-name="Grupo 1027939" transform="translate(27.142 37.638)">
        <path id="Trazado_773160" data-name="Trazado 773160" d="M116.131,137.594a.709.709,0,0,1-.62-.364,4.347,4.347,0,0,1-.55-2.106v-1.6a.708.708,0,0,1,1.417,0v1.6a2.923,2.923,0,0,0,.372,1.417.709.709,0,0,1-.619,1.053Z" transform="translate(-114.961 -132.812)"/>
      </g>
      <g id="Grupo_1027940" data-name="Grupo 1027940" transform="translate(21.343 45.626)">
        <path id="Trazado_773161" data-name="Trazado 773161" d="M97.145,162.417H95.208a.708.708,0,1,1,0-1.417h1.936a.708.708,0,1,1,0,1.417Z" transform="translate(-94.5 -161)"/>
      </g>
      <g id="Grupo_1027941" data-name="Grupo 1027941" transform="translate(16.995 37.7)">
        <path id="Trazado_773162" data-name="Trazado 773162" d="M79.864,137.7a.709.709,0,0,1-.624-1.043,2.931,2.931,0,0,0,.345-1.378V133.74a.708.708,0,0,1,1.417,0v1.542a4.358,4.358,0,0,1-.513,2.047A.709.709,0,0,1,79.864,137.7Z" transform="translate(-79.156 -133.032)"/>
      </g>
      <g id="Grupo_1027942" data-name="Grupo 1027942" transform="translate(31.093 0.709)">
        <path id="Trazado_773163" data-name="Trazado 773163" d="M158.777,17.436a14.937,14.937,0,1,0-20.353,13.92,1.834,1.834,0,0,1,1.183,1.7V35.89a1,1,0,0,0,1.553.836l7.608-5.014a9.7,9.7,0,0,1,1.3-.7A14.934,14.934,0,0,0,158.777,17.436Z" transform="translate(-128.905 -2.5)" fill="#f5c84c"/>
      </g>
      <g id="Grupo_1027943" data-name="Grupo 1027943" transform="translate(39.315 19.226)">
        <path id="Trazado_773164" data-name="Trazado 773164" d="M170.791,67.841H158.472a.557.557,0,0,0-.522.745,7.085,7.085,0,0,0,13.363,0,.557.557,0,0,0-.522-.745Z" transform="translate(-157.917 -67.841)" fill="#fc657e"/>
      </g>
      <g id="Grupo_1027944" data-name="Grupo 1027944" transform="translate(30.385)">
        <path id="Trazado_773165" data-name="Trazado 773165" d="M138.816,35.807a1.711,1.711,0,0,1-1.71-1.711V31.267a1.123,1.123,0,0,0-.731-1.045A15.645,15.645,0,0,1,141.05.029,15.523,15.523,0,0,1,152.76,4.24a15.644,15.644,0,0,1-4.193,25.624,8.788,8.788,0,0,0-1.2.646l-7.608,5.014A1.7,1.7,0,0,1,138.816,35.807Zm3.242-34.392q-.459,0-.921.029A14.228,14.228,0,0,0,136.89,28.9a2.531,2.531,0,0,1,1.634,2.365V34.1a.293.293,0,0,0,.455.244l7.608-5.014a10.114,10.114,0,0,1,1.391-.751,14.272,14.272,0,0,0,8.3-12.934A14.228,14.228,0,0,0,142.059,1.415Z" transform="translate(-126.405 0.002)"/>
      </g>
      <g id="Grupo_1027947" data-name="Grupo 1027947" transform="translate(36.252 10.203)">
        <g id="Grupo_1027945" data-name="Grupo 1027945" transform="translate(11.902)">
          <path id="Trazado_773166" data-name="Trazado 773166" d="M196.053,40.534a.708.708,0,0,1-.708-.708,2.409,2.409,0,1,0-4.818,0,.708.708,0,1,1-1.417,0,3.826,3.826,0,0,1,7.651,0A.708.708,0,0,1,196.053,40.534Z" transform="translate(-189.11 -36)"/>
        </g>
        <g id="Grupo_1027946" data-name="Grupo 1027946">
          <path id="Trazado_773167" data-name="Trazado 773167" d="M154.053,40.534a.708.708,0,0,1-.708-.708,2.409,2.409,0,1,0-4.818,0,.708.708,0,1,1-1.417,0,3.826,3.826,0,0,1,7.651,0A.708.708,0,0,1,154.053,40.534Z" transform="translate(-147.11 -36)"/>
        </g>
      </g>
      <g id="Grupo_1027948" data-name="Grupo 1027948" transform="translate(38.607 18.517)">
        <path id="Trazado_773168" data-name="Trazado 773168" d="M162.841,72.232a7.8,7.8,0,0,1-7.35-5.2,1.265,1.265,0,0,1,1.19-1.689H169a1.265,1.265,0,0,1,1.19,1.689,7.8,7.8,0,0,1-7.349,5.2Zm-5.94-5.474a6.376,6.376,0,0,0,11.879,0Zm12.1,0h0Z" transform="translate(-155.419 -65.341)"/>
      </g>
      <g id="Grupo_1027949" data-name="Grupo 1027949" transform="translate(18.987 30.397)">
        <path id="Trazado_773169" data-name="Trazado 773169" d="M90.19,110.09a5.018,5.018,0,0,1-3.839-1.665.708.708,0,1,1,1.086-.91,3.848,3.848,0,0,0,5.505,0,.708.708,0,1,1,1.086.91A5.017,5.017,0,0,1,90.19,110.09Z" transform="translate(-86.186 -107.261)"/>
      </g>
      <g id="Grupo_1027952" data-name="Grupo 1027952" transform="translate(3.777 4.251)">
        <g id="Grupo_1027951" data-name="Grupo 1027951">
          <g id="Grupo_1027950" data-name="Grupo 1027950">
            <path id="Trazado_773170" data-name="Trazado 773170" d="M32.555,17.508a3.145,3.145,0,0,0,2.522-2.465c0-.057.113-.057.113,0a3.145,3.145,0,0,0,2.522,2.465c.057,0,.057.085,0,.113a3.145,3.145,0,0,0-2.522,2.465c0,.057-.113.057-.113,0a3.145,3.145,0,0,0-2.522-2.465c-.057-.028-.057-.113,0-.113Z" transform="translate(-32.512 -15)" fill="#f5c84c"/>
          </g>
        </g>
      </g>
      <g id="Grupo_1027955" data-name="Grupo 1027955" transform="translate(35.602 36.476)">
        <g id="Grupo_1027954" data-name="Grupo 1027954">
          <g id="Grupo_1027953" data-name="Grupo 1027953">
            <path id="Trazado_773171" data-name="Trazado 773171" d="M144.85,130.746a2.55,2.55,0,0,0,2.045-2c0-.046.092-.046.092,0a2.55,2.55,0,0,0,2.045,2c.046,0,.046.069,0,.092a2.55,2.55,0,0,0-2.045,2c0,.046-.092.046-.092,0a2.55,2.55,0,0,0-2.045-2C144.8,130.815,144.8,130.746,144.85,130.746Z" transform="translate(-144.816 -128.712)" fill="#fc657e"/>
          </g>
        </g>
      </g>
      <g id="Grupo_1027958" data-name="Grupo 1027958" transform="translate(48.835 62.119)">
        <g id="Grupo_1027957" data-name="Grupo 1027957">
          <g id="Grupo_1027956" data-name="Grupo 1027956">
            <ellipse id="Elipse_8688" data-name="Elipse 8688" cx="0.964" cy="0.964" rx="0.964" ry="0.964" fill="#f5c84c"/>
          </g>
        </g>
      </g>
      <g id="Grupo_1027961" data-name="Grupo 1027961" transform="translate(13.412 0.001)">
        <g id="Grupo_1027960" data-name="Grupo 1027960" transform="translate(0 0)">
          <g id="Grupo_1027959" data-name="Grupo 1027959">
            <ellipse id="Elipse_8689" data-name="Elipse 8689" cx="0.964" cy="0.964" rx="0.964" ry="0.964" fill="#70d6f9"/>
          </g>
        </g>
      </g>
      <g id="Grupo_1027964" data-name="Grupo 1027964" transform="translate(48.864 51.86)">
        <g id="Grupo_1027963" data-name="Grupo 1027963">
          <g id="Grupo_1027962" data-name="Grupo 1027962">
            <path id="Trazado_773172" data-name="Trazado 773172" d="M195.636,184.559h-.652v-.652a.913.913,0,0,0-.907-.907.9.9,0,0,0-.907.907v.652h-.652a.913.913,0,0,0-.907.907.9.9,0,0,0,.907.907h.652v.652a.913.913,0,0,0,.907.907.9.9,0,0,0,.907-.907v-.652h.652a.913.913,0,0,0,.907-.907A.9.9,0,0,0,195.636,184.559Z" transform="translate(-191.612 -183)" fill="#87d147"/>
          </g>
        </g>
      </g>
    </g>
  </g>
</svg>
