<svg xmlns="http://www.w3.org/2000/svg" xmlns:xlink="http://www.w3.org/1999/xlink" width="239.228" height="239.228" viewBox="0 0 239.228 239.228">
  <defs>
    <filter id="Trazado_762442" x="22.302" y="22.302" width="200.624" height="200.624" filterUnits="userSpaceOnUse">
      <feOffset dx="3" dy="3" input="SourceAlpha"/>
      <feGaussianBlur stdDeviation="3" result="blur"/>
      <feFlood flood-opacity="0.161"/>
      <feComposite operator="in" in2="blur"/>
      <feComposite in="SourceGraphic"/>
    </filter>
    <clipPath id="clip-path">
      <path id="Trazado_762461" data-name="Trazado 762461" d="M593.957,67.171A74.166,74.166,0,1,0,646.4,45.449a74.163,74.163,0,0,0-52.442,21.722" fill="none"/>
    </clipPath>
    <linearGradient id="linear-gradient" x1="-2.371" y1="1.015" x2="-2.367" y2="1.015" gradientUnits="objectBoundingBox">
      <stop offset="0" stop-color="#fdfdfd"/>
      <stop offset="0.397" stop-color="#f5f5f5"/>
      <stop offset="1" stop-color="#e0e0e0"/>
    </linearGradient>
  </defs>
  <g id="Grupo_1028061" data-name="Grupo 1028061" transform="translate(9175.215 8421.49)">
    <path id="Trazado_762441" data-name="Trazado 762441" d="M758.1,76.749l-.252.253a119.353,119.353,0,0,1-153.5,154.272l-.252.252a119.675,119.675,0,0,0,154-154.777M688.45,7.954,688.7,7.7a119.679,119.679,0,0,0-154,154.78l.253-.254A119.353,119.353,0,0,1,688.45,7.954" transform="translate(-9702 -8421.49)" fill="#2d54fe"/>
    <g transform="matrix(1, 0, 0, 1, -9175.21, -8421.49)" filter="url(#Trazado_762442)">
      <path id="Trazado_762442-2" data-name="Trazado 762442" d="M737.711,119.614A91.312,91.312,0,1,1,646.4,28.3a91.312,91.312,0,0,1,91.312,91.312" transform="translate(-526.79 0)" fill="#2d54fe"/>
    </g>
    <path id="Trazado_762443" data-name="Trazado 762443" d="M717.665,202.454l1.62,1.62a111.24,111.24,0,0,1-72.895,27.1,1.142,1.142,0,1,1,0-2.284,108.935,108.935,0,0,0,71.275-26.438" transform="translate(-9702 -8421.49)" fill="#2d54fe"/>
    <path id="Trazado_762444" data-name="Trazado 762444" d="M757.953,119.613a111.218,111.218,0,0,1-27.128,72.928l-1.62-1.62A109.406,109.406,0,0,0,747.077,77.075a110.084,110.084,0,0,0-5.963-12,1.142,1.142,0,1,1,1.98-1.138,112.293,112.293,0,0,1,6.088,12.248,110.9,110.9,0,0,1,8.771,43.427" transform="translate(-9702 -8421.49)" fill="#2d54fe"/>
    <path id="Trazado_762445" data-name="Trazado 762445" d="M735.024,68.588a102.314,102.314,0,0,0-177.251,0l0,0a102.979,102.979,0,0,0-5.577,11.223,101.44,101.44,0,0,0-7.766,32.252,7.6,7.6,0,0,0,.644,15.138,1.147,1.147,0,0,0,.43.083h.075a1.2,1.2,0,0,0,.419-.11,7.6,7.6,0,0,0,.716-15.027A99.126,99.126,0,0,1,554.3,80.7a100.139,100.139,0,0,1,5.453-10.975,99.078,99.078,0,0,1,7.275-10.894,100.8,100.8,0,0,1,8.69-9.9,100.032,100.032,0,0,1,157.328,20.8,1.142,1.142,0,1,0,1.979-1.141M550.61,119.611A5.313,5.313,0,1,1,545.3,114.3a5.32,5.32,0,0,1,5.312,5.312" transform="translate(-9702 -8421.49)" fill="#2d54fe"/>
    <path id="Trazado_762446" data-name="Trazado 762446" d="M577.95,192.462a1.142,1.142,0,0,0-1.566,1.663l.116.109a1.142,1.142,0,1,0,1.562-1.666Z" transform="translate(-9702 -8421.49)" fill="#2d54fe"/>
    <path id="Trazado_762447" data-name="Trazado 762447" d="M587.732,200.565l-.127-.092a1.142,1.142,0,0,0-1.344,1.846l.126.092a1.142,1.142,0,1,0,1.345-1.846" transform="translate(-9702 -8421.49)" fill="#2d54fe"/>
    <path id="Trazado_762448" data-name="Trazado 762448" d="M551.308,150.519a1.142,1.142,0,1,0-2.173.7l.05.153a1.142,1.142,0,0,0,2.17-.712Z" transform="translate(-9702 -8421.49)" fill="#2d54fe"/>
    <path id="Trazado_762449" data-name="Trazado 762449" d="M569.357,183.316a1.142,1.142,0,0,0-1.758,1.458l.1.121a1.142,1.142,0,1,0,1.758-1.459Z" transform="translate(-9702 -8421.49)" fill="#2d54fe"/>
    <path id="Trazado_762450" data-name="Trazado 762450" d="M548.191,138.367a1.142,1.142,0,1,0-2.244.425l.03.157a1.142,1.142,0,0,0,2.243-.431Z" transform="translate(-9702 -8421.49)" fill="#2d54fe"/>
    <path id="Trazado_762451" data-name="Trazado 762451" d="M561.976,173.174a1.142,1.142,0,1,0-1.928,1.225l.087.136a1.142,1.142,0,1,0,1.923-1.233Z" transform="translate(-9702 -8421.49)" fill="#2d54fe"/>
    <path id="Trazado_762452" data-name="Trazado 762452" d="M555.931,162.181a1.142,1.142,0,0,0-2.066.974l.067.142a1.142,1.142,0,1,0,2.066-.974Z" transform="translate(-9702 -8421.49)" fill="#2d54fe"/>
    <path id="Trazado_762453" data-name="Trazado 762453" d="M621.617,216.481l-.149-.038a1.142,1.142,0,1,0-.571,2.212l.154.039a1.157,1.157,0,0,0,.284.036,1.142,1.142,0,0,0,.282-2.249" transform="translate(-9702 -8421.49)" fill="#2d54fe"/>
    <path id="Trazado_762454" data-name="Trazado 762454" d="M598.325,207.279l-.134-.074a1.142,1.142,0,1,0-1.1,2l.14.077a1.142,1.142,0,0,0,1.1-2" transform="translate(-9702 -8421.49)" fill="#2d54fe"/>
    <path id="Trazado_762455" data-name="Trazado 762455" d="M633.938,218.808l-.148-.018a1.142,1.142,0,1,0-.286,2.266l.162.02a1.059,1.059,0,0,0,.137.008,1.142,1.142,0,0,0,.135-2.276" transform="translate(-9702 -8421.49)" fill="#2d54fe"/>
    <path id="Trazado_762456" data-name="Trazado 762456" d="M609.684,212.613l-.146-.058a1.142,1.142,0,1,0-.842,2.123l.146.058a1.142,1.142,0,1,0,.842-2.123" transform="translate(-9702 -8421.49)" fill="#2d54fe"/>
    <path id="Trazado_762457" data-name="Trazado 762457" d="M646.318,221.857h.082a1.142,1.142,0,0,0,0-2.284h-.082a1.142,1.142,0,0,0,0,2.284" transform="translate(-9702 -8421.49)" fill="#2d54fe"/>
    <path id="Trazado_762458" data-name="Trazado 762458" d="M542.922,119.611a2.375,2.375,0,1,0,2.376-2.376,2.379,2.379,0,0,0-2.376,2.376" transform="translate(-9702 -8421.49)" fill="#2d54fe"/>
    <path id="Trazado_762459" data-name="Trazado 762459" d="M729.19,197.508a4.895,4.895,0,1,1-4.9-4.895,4.895,4.895,0,0,1,4.9,4.895" transform="translate(-9702 -8421.49)" fill="#2d54fe"/>
    <path id="Trazado_762460" data-name="Trazado 762460" d="M726.344,197.508a2.048,2.048,0,1,1-2.049-2.048,2.049,2.049,0,0,1,2.049,2.048" transform="translate(-9702 -8421.49)" fill="#fff"/>
    <g id="Grupo_1024280" data-name="Grupo 1024280" transform="translate(-9702 -8421.49)">
      <g id="Grupo_1024279" data-name="Grupo 1024279" clip-path="url(#clip-path)">
        <rect id="Rectángulo_358974" data-name="Rectángulo 358974" width="225.131" height="225.131" transform="translate(487.207 123.234) rotate(-45)" fill="url(#linear-gradient)"/>
      </g>
    </g>
    <g id="Layer_34" transform="translate(-9082.714 -8349.279)">
      <g id="Grupo_1027915" data-name="Grupo 1027915" transform="translate(0 0)">
        <g id="Grupo_1027864" data-name="Grupo 1027864" transform="translate(6.504 44.135)">
          <path id="Trazado_773100" data-name="Trazado 773100" d="M102.992,162.117a4.162,4.162,0,0,0-3.139-3.8L93.8,156.789a20.645,20.645,0,0,1-3.092-1.047.8.8,0,0,1-.229.5l-4.246,4.246a.8.8,0,0,1-1.137,0l-1.9-1.9a.8.8,0,0,1-.228-.649h-2.18a.8.8,0,0,1-.228.649l-1.9,1.9a.8.8,0,0,1-1.137,0l-4.246-4.246a.8.8,0,0,1-.229-.5,20.662,20.662,0,0,1-3.085,1.043L63.9,158.313a4.161,4.161,0,0,0-3.139,3.8L59.6,182.224a1.157,1.157,0,0,0,1.155,1.221H103a1.157,1.157,0,0,0,1.155-1.221Z" transform="translate(-59.594 -155.742)" fill="#70d6f9"/>
        </g>
        <g id="Grupo_1027865" data-name="Grupo 1027865" transform="translate(19.951 41.364)">
          <path id="Trazado_773101" data-name="Trazado 773101" d="M114.563,150.443l-4.246-4.246a.8.8,0,0,0-1.137,0l-1.9,1.9a.8.8,0,0,0,0,1.137l4.246,4.246a.8.8,0,0,0,1.137,0l1.9-1.9A.8.8,0,0,0,114.563,150.443Z" transform="translate(-107.044 -145.962)" fill="#9be5f9"/>
        </g>
        <g id="Grupo_1027866" data-name="Grupo 1027866" transform="translate(29.87 41.364)">
          <path id="Trazado_773102" data-name="Trazado 773102" d="M142.279,150.443l4.246-4.246a.8.8,0,0,1,1.137,0l1.9,1.9a.8.8,0,0,1,0,1.137l-4.246,4.246a.8.8,0,0,1-1.137,0l-1.9-1.9A.8.8,0,0,1,142.279,150.443Z" transform="translate(-142.044 -145.962)" fill="#9be5f9"/>
        </g>
        <g id="Grupo_1027867" data-name="Grupo 1027867" transform="translate(19.23 51.464)">
          <path id="Trazado_773103" data-name="Trazado 773103" d="M121.426,183.787h0a7.486,7.486,0,0,0-7.37-1.885,7.464,7.464,0,0,0-7.371,12.442l3.011,3.011a6.175,6.175,0,0,0,8.721,0l3.01-3.01A7.458,7.458,0,0,0,121.426,183.787Z" transform="translate(-104.501 -181.604)" fill="#f98fa6"/>
        </g>
        <g id="Grupo_1027868" data-name="Grupo 1027868" transform="translate(21.823 54.056)">
          <path id="Trazado_773104" data-name="Trazado 773104" d="M126.15,192.174a4.88,4.88,0,0,0-5.538-.954,4.872,4.872,0,0,0-5.538,7.844l3.01,3.01a3.573,3.573,0,0,0,5.055,0l3.01-3.01a4.869,4.869,0,0,0,0-6.89Z" transform="translate(-113.65 -190.749)" fill="#fc657e"/>
        </g>
        <g id="Grupo_1027869" data-name="Grupo 1027869" transform="translate(18.241 15.872)">
          <path id="Trazado_773105" data-name="Trazado 773105" d="M113.137,56.225c-3.852,4.844-9.534,4.16-11.445,3.761a.563.563,0,0,0-.681.544V69.02a10.546,10.546,0,0,0,21.093,0V59.626q0-.082,0-.165a.565.565,0,0,0-.544-.554c-4.381-.128-6.69-1.865-7.577-2.734A.568.568,0,0,0,113.137,56.225Z" transform="translate(-101.011 -56.009)" fill="#f9d0b4"/>
        </g>
        <g id="Grupo_1027871" data-name="Grupo 1027871" transform="translate(14.817 6.048)">
          <g id="Grupo_1027870" data-name="Grupo 1027870">
            <path id="Trazado_773106" data-name="Trazado 773106" d="M91.676,36.139a4.438,4.438,0,0,1,.677.054v-.507a.563.563,0,0,1,.681-.544c1.911.4,7.593,1.083,11.445-3.761a.568.568,0,0,1,.844-.053c.887.869,3.2,2.606,7.577,2.734a.565.565,0,0,1,.544.554q0,.082,0,.165v1.411a4.377,4.377,0,0,1,3.731,1.182v-7.92a6.042,6.042,0,0,0-6.024-6.024,5.966,5.966,0,0,0-3.077.859,6.031,6.031,0,0,0-5.166-2.949H99.815A10.918,10.918,0,0,0,88.929,32.227V37.1a4.382,4.382,0,0,1,2.747-.965Z" transform="translate(-88.929 -21.341)" fill="#754e34"/>
          </g>
        </g>
        <g id="Grupo_1027872" data-name="Grupo 1027872" transform="translate(39.307 20.846)">
          <path id="Trazado_773107" data-name="Trazado 773107" d="M176.05,73.561a4.438,4.438,0,0,0-.677.054V81.6c0,.238-.011.473-.027.707a4.4,4.4,0,1,0,.7-8.745Z" transform="translate(-175.347 -73.561)" fill="#f9d0b4"/>
        </g>
        <g id="Grupo_1027873" data-name="Grupo 1027873" transform="translate(13.161 20.846)">
          <path id="Trazado_773108" data-name="Trazado 773108" d="M88.164,81.6V73.615a4.4,4.4,0,1,0,.027,8.691h0C88.175,82.072,88.164,81.836,88.164,81.6Z" transform="translate(-83.084 -73.561)" fill="#f9d0b4"/>
        </g>
        <g id="Grupo_1027874" data-name="Grupo 1027874" transform="translate(43.471 59.37)">
          <path id="Trazado_773109" data-name="Trazado 773109" d="M190.041,221.969h6.443a1.157,1.157,0,0,0,1.155-1.221l-.652-11.248h-6.945Z" transform="translate(-190.041 -209.5)" fill="#f9d0b4"/>
        </g>
        <g id="Grupo_1027875" data-name="Grupo 1027875" transform="translate(6.504 59.37)">
          <path id="Trazado_773110" data-name="Trazado 773110" d="M67.346,209.5h-7.1L59.6,220.748a1.157,1.157,0,0,0,1.155,1.221h6.6Z" transform="translate(-59.594 -209.5)" fill="#f9d0b4"/>
        </g>
        <g id="Grupo_1027876" data-name="Grupo 1027876" transform="translate(24.415 56.646)">
          <path id="Trazado_773111" data-name="Trazado 773111" d="M130.874,200.557a2.279,2.279,0,0,0-3.224,0l-.177.177a.43.43,0,0,1-.608,0l-.177-.177a2.279,2.279,0,0,0-3.224,3.224l3.01,3.01a.982.982,0,0,0,1.389,0l3.01-3.01a2.279,2.279,0,0,0,0-3.224Z" transform="translate(-122.796 -199.889)" fill="#ef4460"/>
        </g>
        <g id="Grupo_1027877" data-name="Grupo 1027877" transform="translate(24.52 29.774)">
          <path id="Trazado_773112" data-name="Trazado 773112" d="M131,105.063h-7.127a.7.7,0,0,0-.663.936,4.479,4.479,0,0,0,8.453,0A.7.7,0,0,0,131,105.063Z" transform="translate(-123.168 -105.063)" fill="#fc657e"/>
        </g>
        <g id="Grupo_1027878" data-name="Grupo 1027878" transform="translate(23.423 38.233)">
          <path id="Trazado_773113" data-name="Trazado 773113" d="M123.571,143.016h2.18a.8.8,0,0,1,.228-.489l4.05-4.05a3.628,3.628,0,0,1-.509-1.845v-1.716a10.461,10.461,0,0,1-9.717,0v1.716a3.635,3.635,0,0,1-.506,1.849l4.047,4.047a.8.8,0,0,1,.228.488Z" transform="translate(-119.296 -134.915)" fill="#f9d0b4"/>
        </g>
        <g id="Grupo_1027879" data-name="Grupo 1027879" transform="translate(31.441 23.812)">
          <path id="Trazado_773114" data-name="Trazado 773114" d="M148.3,86.067a.708.708,0,0,1-.543-1.163,2.715,2.715,0,0,1,4,0,.708.708,0,1,1-1.086.91,1.309,1.309,0,0,0-1.825,0,.708.708,0,0,1-.544.253Z" transform="translate(-147.59 -84.027)"/>
        </g>
        <g id="Grupo_1027880" data-name="Grupo 1027880" transform="translate(21.806 23.812)">
          <path id="Trazado_773115" data-name="Trazado 773115" d="M114.3,86.067a.708.708,0,0,1-.543-1.163,2.715,2.715,0,0,1,4,0,.708.708,0,0,1-1.086.91,1.309,1.309,0,0,0-1.825,0,.708.708,0,0,1-.544.253Z" transform="translate(-113.59 -84.027)"/>
        </g>
        <g id="Grupo_1027881" data-name="Grupo 1027881" transform="translate(42.763 53.643)">
          <path id="Trazado_773116" data-name="Trazado 773116" d="M188.249,207.914a.708.708,0,0,1-.708-.708V190a.708.708,0,0,1,1.417,0v17.2A.708.708,0,0,1,188.249,207.914Z" transform="translate(-187.541 -189.293)"/>
        </g>
        <g id="Grupo_1027882" data-name="Grupo 1027882" transform="translate(13.548 53.643)">
          <path id="Trazado_773117" data-name="Trazado 773117" d="M85.159,207.914a.708.708,0,0,1-.708-.708V190a.708.708,0,0,1,1.417,0v17.2A.708.708,0,0,1,85.159,207.914Z" transform="translate(-84.451 -189.293)"/>
        </g>
        <g id="Grupo_1027883" data-name="Grupo 1027883" transform="translate(5.796 43.474)">
          <path id="Trazado_773118" data-name="Trazado 773118" d="M101.212,182.482H58.96a1.866,1.866,0,0,1-1.863-1.969l1.166-20.108a4.849,4.849,0,0,1,3.674-4.451L68,154.429a20.017,20.017,0,0,0,2.878-.964.708.708,0,0,1,.55,1.306,21.423,21.423,0,0,1-3.082,1.032l-6.061,1.525a3.438,3.438,0,0,0-2.6,3.157l-1.166,20.108a.448.448,0,0,0,.448.472h42.252a.448.448,0,0,0,.448-.473l-1.166-20.105a3.438,3.438,0,0,0-2.6-3.158L91.835,155.8a21.388,21.388,0,0,1-3.067-1.028.708.708,0,1,1,.549-1.306,19.989,19.989,0,0,0,2.864.96l6.054,1.524a4.849,4.849,0,0,1,3.674,4.452l1.166,20.105a1.865,1.865,0,0,1-1.863,1.971Z" transform="translate(-57.094 -153.41)"/>
        </g>
        <g id="Grupo_1027884" data-name="Grupo 1027884" transform="translate(19.243 40.656)">
          <path id="Trazado_773119" data-name="Trazado 773119" d="M110.3,152.636a1.5,1.5,0,0,1-1.07-.443l-4.246-4.246a1.513,1.513,0,0,1,0-2.139l1.9-1.9a1.514,1.514,0,0,1,2.139,0l4.246,4.246h0a1.515,1.515,0,0,1,0,2.139l-1.9,1.9A1.5,1.5,0,0,1,110.3,152.636Zm-2.346-7.754a.1.1,0,0,0-.068.028l-1.9,1.9a.1.1,0,0,0,0,.135l4.246,4.246a.083.083,0,0,0,.135,0l1.9-1.9a.1.1,0,0,0,0-.135l-4.246-4.246a.1.1,0,0,0-.068-.028Z" transform="translate(-104.545 -143.465)"/>
        </g>
        <g id="Grupo_1027885" data-name="Grupo 1027885" transform="translate(29.161 40.656)">
          <path id="Trazado_773120" data-name="Trazado 773120" d="M142.957,152.633a1.508,1.508,0,0,1-1.069-.442l-1.9-1.9a1.512,1.512,0,0,1,0-2.139l4.246-4.246a1.512,1.512,0,0,1,2.139,0l1.9,1.9a1.515,1.515,0,0,1,0,2.139l-4.246,4.246A1.508,1.508,0,0,1,142.957,152.633Zm2.346-7.753a.093.093,0,0,0-.067.028l-4.246,4.246a.1.1,0,0,0,0,.135l1.9,1.9a.1.1,0,0,0,.135,0l4.246-4.246a.1.1,0,0,0,0-.135l-1.9-1.9a.094.094,0,0,0-.068-.028Zm-4.814,3.773h0Z" transform="translate(-139.545 -143.463)"/>
        </g>
        <g id="Grupo_1027886" data-name="Grupo 1027886" transform="translate(18.523 50.754)">
          <path id="Trazado_773121" data-name="Trazado 773121" d="M112.266,198.069a6.857,6.857,0,0,1-4.861-2.009l-3.011-3.011a8.172,8.172,0,0,1,7.872-13.678,8.177,8.177,0,0,1,7.864,2.112l.008.008a8.182,8.182,0,0,1,0,11.558l-3.01,3.01A6.854,6.854,0,0,1,112.266,198.069Zm-2.092-17.553a6.754,6.754,0,0,0-4.778,11.531l3.011,3.011a5.466,5.466,0,0,0,7.719,0l3.01-3.01a6.764,6.764,0,0,0,.007-9.547l-.008-.008a6.761,6.761,0,0,0-6.671-1.706.707.707,0,0,1-.4,0A6.777,6.777,0,0,0,110.174,180.516Z" transform="translate(-102.004 -179.098)"/>
        </g>
        <g id="Grupo_1027887" data-name="Grupo 1027887" transform="translate(21.115 53.347)">
          <path id="Trazado_773122" data-name="Trazado 773122" d="M118.823,202.036a4.272,4.272,0,0,1-3.029-1.252l-3.01-3.01a5.58,5.58,0,0,1,6.039-9.119,5.6,5.6,0,0,1,6.038,1.226h0a5.587,5.587,0,0,1,0,7.892l-3.01,3.01A4.27,4.27,0,0,1,118.823,202.036Zm-2.089-12.369a4.161,4.161,0,0,0-2.948,7.105l3.01,3.01a2.87,2.87,0,0,0,4.054,0l3.01-3.01a4.163,4.163,0,0,0-4.733-6.7.709.709,0,0,1-.608,0A4.157,4.157,0,0,0,116.735,189.666Z" transform="translate(-111.152 -188.249)"/>
        </g>
        <g id="Grupo_1027888" data-name="Grupo 1027888" transform="translate(17.533 15.164)">
          <path id="Trazado_773123" data-name="Trazado 773123" d="M109.766,78.484A11.268,11.268,0,0,1,98.511,67.23V58.746a1.261,1.261,0,0,1,.467-.986,1.275,1.275,0,0,1,1.067-.259c2.051.429,7.2.946,10.745-3.508h0a1.276,1.276,0,0,1,1.895-.118c.735.72,2.9,2.409,7.1,2.532a1.271,1.271,0,0,1,1.232,1.248q0,.089,0,.179V67.23A11.268,11.268,0,0,1,109.766,78.484ZM99.928,58.924V67.23a9.838,9.838,0,0,0,19.676,0V57.819c-4.294-.16-6.7-1.788-7.8-2.825C107.783,59.924,101.908,59.306,99.928,58.924Zm11.417-4.489h0Z" transform="translate(-98.511 -53.51)"/>
        </g>
        <g id="Grupo_1027890" data-name="Grupo 1027890" transform="translate(14.108 5.339)">
          <g id="Grupo_1027889" data-name="Grupo 1027889">
            <path id="Trazado_773124" data-name="Trazado 773124" d="M115.383,36.09a.708.708,0,0,1-.708-.708V27.663a5.3,5.3,0,0,0-8.029-4.558.709.709,0,0,1-.972-.243,5.352,5.352,0,0,0-4.559-2.6H98.022A10.189,10.189,0,0,0,87.844,30.436v4.728a.708.708,0,1,1-1.417,0V30.436A11.608,11.608,0,0,1,98.022,18.841h3.093a6.771,6.771,0,0,1,5.4,2.731,6.668,6.668,0,0,1,2.846-.642,6.74,6.74,0,0,1,6.733,6.733v7.718A.709.709,0,0,1,115.383,36.09Z" transform="translate(-86.427 -18.841)"/>
          </g>
        </g>
        <g id="Grupo_1027891" data-name="Grupo 1027891" transform="translate(38.882 20.137)">
          <path id="Trazado_773125" data-name="Trazado 773125" d="M174.974,81.283a4.612,4.612,0,0,1-.495-.027.708.708,0,1,1,.149-1.409,3.311,3.311,0,0,0,.345.019,3.695,3.695,0,0,0,0-7.39c-.11,0-.224.006-.338.016a.708.708,0,1,1-.135-1.41c.159-.015.318-.023.473-.023a5.112,5.112,0,1,1,0,10.223Z" transform="translate(-173.845 -71.06)"/>
        </g>
        <g id="Grupo_1027892" data-name="Grupo 1027892" transform="translate(12.453 20.137)">
          <path id="Trazado_773126" data-name="Trazado 773126" d="M85.7,81.282a5.111,5.111,0,1,1,.565-10.191A.709.709,0,0,1,86.1,72.5a3.593,3.593,0,0,0-.405-.024,3.695,3.695,0,0,0,0,7.39,3.3,3.3,0,0,0,.38-.023.708.708,0,1,1,.162,1.408A4.706,4.706,0,0,1,85.7,81.282Z" transform="translate(-80.585 -71.058)"/>
        </g>
        <g id="Grupo_1027893" data-name="Grupo 1027893" transform="translate(43.052 58.661)">
          <path id="Trazado_773127" data-name="Trazado 773127" d="M195.683,208.417h-6.412a.708.708,0,1,1,0-1.417h6.412a.708.708,0,0,1,0,1.417Z" transform="translate(-188.563 -207)"/>
        </g>
        <g id="Grupo_1027894" data-name="Grupo 1027894" transform="translate(6.655 58.661)">
          <path id="Trazado_773128" data-name="Trazado 773128" d="M67.4,208.417H60.833a.708.708,0,1,1,0-1.417H67.4a.708.708,0,1,1,0,1.417Z" transform="translate(-60.125 -207)"/>
        </g>
        <g id="Grupo_1027895" data-name="Grupo 1027895" transform="translate(23.706 55.937)">
          <path id="Trazado_773129" data-name="Trazado 773129" d="M125.377,205.994a1.68,1.68,0,0,1-1.2-.5l-3.01-3.01a2.988,2.988,0,0,1,4.206-4.245,2.988,2.988,0,0,1,4.206,4.245l-3.01,3.01A1.68,1.68,0,0,1,125.377,205.994Zm-2.093-7.189a1.571,1.571,0,0,0-1.111,2.682l3.01,3.01a.274.274,0,0,0,.388,0l3.01-3.01a1.571,1.571,0,0,0-2.222-2.221l-.177.177a1.138,1.138,0,0,1-1.61,0l-.177-.177A1.56,1.56,0,0,0,123.284,198.805Z" transform="translate(-120.296 -197.388)"/>
        </g>
        <g id="Grupo_1027896" data-name="Grupo 1027896" transform="translate(23.813 29.065)">
          <path id="Trazado_773130" data-name="Trazado 773130" d="M125.646,107.913a5.206,5.206,0,0,1-4.894-3.468,1.411,1.411,0,0,1,1.331-1.881h7.127a1.411,1.411,0,0,1,1.331,1.881A5.207,5.207,0,0,1,125.646,107.913Zm-3.564-3.932a3.777,3.777,0,0,0,7.119,0Zm7.127,0h0Z" transform="translate(-120.671 -102.564)"/>
        </g>
        <g id="Grupo_1027897" data-name="Grupo 1027897" transform="translate(22.809 37.785)">
          <path id="Trazado_773131" data-name="Trazado 773131" d="M117.838,137.885a.709.709,0,0,1-.628-1.036,2.938,2.938,0,0,0,.331-1.351v-1.456a.708.708,0,0,1,1.417,0V135.5a4.36,4.36,0,0,1-.491,2.006A.708.708,0,0,1,117.838,137.885Z" transform="translate(-117.13 -133.333)"/>
        </g>
        <g id="Grupo_1027898" data-name="Grupo 1027898" transform="translate(32.938 37.749)">
          <path id="Trazado_773132" data-name="Trazado 773132" d="M153.991,137.786a.709.709,0,0,1-.629-.382,4.344,4.344,0,0,1-.491-2v-1.492a.708.708,0,0,1,1.417,0v1.492a2.921,2.921,0,0,0,.332,1.342.708.708,0,0,1-.628,1.035Z" transform="translate(-152.87 -133.208)"/>
        </g>
        <g id="Grupo_1027899" data-name="Grupo 1027899" transform="translate(27.188 45.625)">
          <path id="Trazado_773133" data-name="Trazado 773133" d="M135.075,162.417h-1.783a.708.708,0,0,1,0-1.417h1.783a.708.708,0,1,1,0,1.417Z" transform="translate(-132.583 -161)"/>
        </g>
        <g id="Grupo_1027902" data-name="Grupo 1027902" transform="translate(0 54.694)">
          <g id="Grupo_1027901" data-name="Grupo 1027901">
            <g id="Grupo_1027900" data-name="Grupo 1027900">
              <path id="Trazado_773134" data-name="Trazado 773134" d="M40.291,194.761a2.207,2.207,0,0,1-1.77-1.73c0-.04-.08-.04-.08,0a2.206,2.206,0,0,1-1.77,1.73c-.04,0-.04.06,0,.08a2.207,2.207,0,0,1,1.77,1.73c0,.04.08.04.08,0a2.206,2.206,0,0,1,1.77-1.73C40.331,194.82,40.331,194.761,40.291,194.761Z" transform="translate(-36.642 -193.001)" fill="#fc657e"/>
            </g>
          </g>
        </g>
        <g id="Grupo_1027905" data-name="Grupo 1027905" transform="translate(46.409 30.889)">
          <g id="Grupo_1027904" data-name="Grupo 1027904">
            <g id="Grupo_1027903" data-name="Grupo 1027903">
              <path id="Trazado_773135" data-name="Trazado 773135" d="M204.432,110.559h-.652v-.652a.913.913,0,0,0-.907-.907.9.9,0,0,0-.907.907v.652h-.652a.913.913,0,0,0-.907.907.9.9,0,0,0,.907.907h.652v.652a.913.913,0,0,0,.907.907.9.9,0,0,0,.907-.907v-.652h.652a.913.913,0,0,0,.907-.907A.9.9,0,0,0,204.432,110.559Z" transform="translate(-200.408 -109)" fill="#70d6f9"/>
            </g>
          </g>
        </g>
        <g id="Grupo_1027908" data-name="Grupo 1027908" transform="translate(42.413 39.107)">
          <g id="Grupo_1027907" data-name="Grupo 1027907">
            <g id="Grupo_1027906" data-name="Grupo 1027906">
              <ellipse id="Elipse_8686" data-name="Elipse 8686" cx="0.964" cy="0.964" rx="0.964" ry="0.964" fill="#f5c84c"/>
            </g>
          </g>
        </g>
        <g id="Grupo_1027911" data-name="Grupo 1027911" transform="translate(7.004 5.384)">
          <g id="Grupo_1027910" data-name="Grupo 1027910">
            <g id="Grupo_1027909" data-name="Grupo 1027909">
              <path id="Trazado_773136" data-name="Trazado 773136" d="M66.558,21.508a3.145,3.145,0,0,1-2.522-2.465c0-.057-.113-.057-.113,0A3.145,3.145,0,0,1,61.4,21.508c-.057,0-.057.085,0,.113a3.145,3.145,0,0,1,2.522,2.465c0,.057.113.057.113,0a3.145,3.145,0,0,1,2.522-2.465C66.615,21.593,66.615,21.508,66.558,21.508Z" transform="translate(-61.358 -19)" fill="#f5c84c"/>
            </g>
          </g>
        </g>
        <g id="Grupo_1027914" data-name="Grupo 1027914" transform="translate(14.925)">
          <g id="Grupo_1027913" data-name="Grupo 1027913">
            <g id="Grupo_1027912" data-name="Grupo 1027912">
              <ellipse id="Elipse_8687" data-name="Elipse 8687" cx="0.964" cy="0.964" rx="0.964" ry="0.964" fill="#87d147"/>
            </g>
          </g>
        </g>
      </g>
    </g>
  </g>
</svg>
