<svg xmlns="http://www.w3.org/2000/svg" xmlns:xlink="http://www.w3.org/1999/xlink" width="766.013" height="239.228" viewBox="0 0 766.013 239.228">
  <defs>
    <clipPath id="clip-path">
      <rect id="Rectángulo_358969" data-name="Rectángulo 358969" width="766.013" height="239.228" fill="none"/>
    </clipPath>
    <filter id="Trazado_762389" x="22.302" y="22.304" width="200.624" height="200.624" filterUnits="userSpaceOnUse">
      <feOffset dx="3" dy="3" input="SourceAlpha"/>
      <feGaussianBlur stdDeviation="3" result="blur"/>
      <feFlood flood-opacity="0.161"/>
      <feComposite operator="in" in2="blur"/>
      <feComposite in="SourceGraphic"/>
    </filter>
    <clipPath id="clip-path-2">
      <path id="Trazado_762412" data-name="Trazado 762412" d="M67.171,67.173a74.167,74.167,0,1,0,52.443-21.722A74.166,74.166,0,0,0,67.171,67.173" fill="none"/>
    </clipPath>
    <linearGradient id="linear-gradient" x1="-0.031" y1="1.015" x2="-0.027" y2="1.015" gradientUnits="objectBoundingBox">
      <stop offset="0" stop-color="#fdfdfd"/>
      <stop offset="0.397" stop-color="#f5f5f5"/>
      <stop offset="1" stop-color="#e0e0e0"/>
    </linearGradient>
    <filter id="Trazado_762415" x="285.815" y="22.302" width="200.624" height="200.624" filterUnits="userSpaceOnUse">
      <feOffset dx="3" dy="3" input="SourceAlpha"/>
      <feGaussianBlur stdDeviation="3" result="blur-2"/>
      <feFlood flood-opacity="0.161"/>
      <feComposite operator="in" in2="blur-2"/>
      <feComposite in="SourceGraphic"/>
    </filter>
    <clipPath id="clip-path-4">
      <path id="Trazado_762439" data-name="Trazado 762439" d="M330.684,67.171a74.167,74.167,0,1,0,52.443-21.722,74.165,74.165,0,0,0-52.443,21.722" fill="none"/>
    </clipPath>
    <linearGradient id="linear-gradient-2" x1="-1.202" y1="1.015" x2="-1.197" y2="1.015" xlink:href="#linear-gradient"/>
    <filter id="Trazado_762442" x="549.087" y="22.302" width="200.624" height="200.624" filterUnits="userSpaceOnUse">
      <feOffset dx="3" dy="3" input="SourceAlpha"/>
      <feGaussianBlur stdDeviation="3" result="blur-3"/>
      <feFlood flood-opacity="0.161"/>
      <feComposite operator="in" in2="blur-3"/>
      <feComposite in="SourceGraphic"/>
    </filter>
    <clipPath id="clip-path-5">
      <path id="Trazado_762461" data-name="Trazado 762461" d="M593.957,67.171A74.166,74.166,0,1,0,646.4,45.449a74.163,74.163,0,0,0-52.442,21.722" fill="none"/>
    </clipPath>
    <linearGradient id="linear-gradient-3" x1="-2.371" y1="1.015" x2="-2.367" y2="1.015" xlink:href="#linear-gradient"/>
  </defs>
  <g id="Grupo_1028061" data-name="Grupo 1028061" transform="translate(-417 -3298)">
    <g id="Grupo_1024270" data-name="Grupo 1024270" transform="translate(417 3298)">
      <g id="Grupo_1024269" data-name="Grupo 1024269" clip-path="url(#clip-path)">
        <path id="Trazado_762388" data-name="Trazado 762388" d="M35.265,35.268a118.822,118.822,0,0,1,35.4-24.459v-.357a119.671,119.671,0,0,0,0,218.329v-.359a119.253,119.253,0,0,1-35.4-193.154M229.819,73.05a119.962,119.962,0,0,0-61.264-62.6V10.8a119.346,119.346,0,0,1,0,217.626v.357A119.721,119.721,0,0,0,229.819,73.05" fill="#fe502d"/>
        <g transform="matrix(1, 0, 0, 1, 0, 0)" filter="url(#Trazado_762389)">
          <path id="Trazado_762389-2" data-name="Trazado 762389" d="M210.926,119.616A91.312,91.312,0,1,1,119.614,28.3a91.312,91.312,0,0,1,91.312,91.312" fill="#fe502d"/>
        </g>
        <path id="Trazado_762390" data-name="Trazado 762390" d="M18.939,162.154a108.692,108.692,0,0,0,17.849,28.74l-1.62,1.62A111.691,111.691,0,0,1,16.834,76.189a112.32,112.32,0,0,1,6.155-12.363,1.142,1.142,0,0,1,1.979,1.141,109.879,109.879,0,0,0-6.029,12.112,109.594,109.594,0,0,0,0,85.075" fill="#fe502d"/>
        <path id="Trazado_762391" data-name="Trazado 762391" d="M120.765,230.034a1.143,1.143,0,0,1-1.142,1.142,111.219,111.219,0,0,1-72.918-27.125l1.62-1.618a108.933,108.933,0,0,0,71.3,26.459,1.142,1.142,0,0,1,1.142,1.142" fill="#fe502d"/>
        <path id="Trazado_762392" data-name="Trazado 762392" d="M31.465,70.042a1.122,1.122,0,0,0,.572.155,1.142,1.142,0,0,0,.989-.569l.041-.071a1.143,1.143,0,1,0-1.977-1.146l-.04.071a1.14,1.14,0,0,0,.415,1.56" fill="#fe502d"/>
        <path id="Trazado_762393" data-name="Trazado 762393" d="M145.409,23.013l.155.042a1.179,1.179,0,0,0,.3.039,1.142,1.142,0,0,0,.3-2.245l-.16-.043a1.142,1.142,0,0,0-.589,2.207" fill="#fe502d"/>
        <path id="Trazado_762394" data-name="Trazado 762394" d="M157.792,27.209l.149.062a1.142,1.142,0,1,0,.877-2.109l-.153-.064a1.142,1.142,0,0,0-.873,2.111" fill="#fe502d"/>
        <path id="Trazado_762395" data-name="Trazado 762395" d="M198.971,58.815a1.142,1.142,0,1,0,1.81-1.393l-.1-.129a1.142,1.142,0,0,0-1.811,1.392Z" fill="#fe502d"/>
        <path id="Trazado_762396" data-name="Trazado 762396" d="M132.58,20.486l.161.021a1.257,1.257,0,0,0,.149.01,1.142,1.142,0,0,0,.147-2.275l-.163-.021a1.142,1.142,0,1,0-.294,2.265" fill="#fe502d"/>
        <path id="Trazado_762397" data-name="Trazado 762397" d="M180.4,40.246l.129.1a1.142,1.142,0,0,0,1.392-1.811l-.13-.1a1.142,1.142,0,1,0-1.391,1.812" fill="#fe502d"/>
        <path id="Trazado_762398" data-name="Trazado 762398" d="M119.527,19.657h.164a1.142,1.142,0,0,0,0-2.284h-.164a1.142,1.142,0,0,0,0,2.284" fill="#fe502d"/>
        <path id="Trazado_762399" data-name="Trazado 762399" d="M169.525,32.983l.141.081a1.142,1.142,0,1,0,1.142-1.978L170.666,31a1.142,1.142,0,0,0-1.141,1.979" fill="#fe502d"/>
        <path id="Trazado_762400" data-name="Trazado 762400" d="M190.346,48.983a1.142,1.142,0,0,0,1.614-1.615l-.114-.116a1.143,1.143,0,0,0-1.617,1.616Z" fill="#fe502d"/>
        <path id="Trazado_762401" data-name="Trazado 762401" d="M80.839,27.363a1.131,1.131,0,0,0,.438-.088l.149-.061a1.142,1.142,0,0,0-.872-2.112l-.154.064a1.142,1.142,0,0,0,.439,2.2" fill="#fe502d"/>
        <path id="Trazado_762402" data-name="Trazado 762402" d="M58,40.589a1.139,1.139,0,0,0,.7-.238l.127-.1a1.142,1.142,0,1,0-1.391-1.812l-.131.1a1.142,1.142,0,0,0,.7,2.047" fill="#fe502d"/>
        <path id="Trazado_762403" data-name="Trazado 762403" d="M48.067,49.326a1.14,1.14,0,0,0,.808-.335l.117-.117a1.142,1.142,0,0,0-1.619-1.612l-.114.114a1.142,1.142,0,0,0,.808,1.95" fill="#fe502d"/>
        <path id="Trazado_762404" data-name="Trazado 762404" d="M38.649,59.034a1.142,1.142,0,0,0,1.6-.211l.1-.127a1.143,1.143,0,0,0-1.81-1.4l-.1.132a1.142,1.142,0,0,0,.211,1.6" fill="#fe502d"/>
        <path id="Trazado_762405" data-name="Trazado 762405" d="M106.327,20.518a1.08,1.08,0,0,0,.15-.01l.159-.021a1.142,1.142,0,1,0-.291-2.265l-.165.021a1.142,1.142,0,0,0,.147,2.275" fill="#fe502d"/>
        <path id="Trazado_762406" data-name="Trazado 762406" d="M93.356,23.1a1.177,1.177,0,0,0,.3-.039l.156-.042a1.142,1.142,0,0,0-.589-2.207l-.159.042a1.143,1.143,0,0,0,.3,2.246" fill="#fe502d"/>
        <path id="Trazado_762407" data-name="Trazado 762407" d="M68.982,33.224a1.14,1.14,0,0,0,.571-.154l.141-.081a1.142,1.142,0,0,0-1.143-1.978l-.142.082a1.142,1.142,0,0,0,.573,2.131" fill="#fe502d"/>
        <path id="Trazado_762408" data-name="Trazado 762408" d="M220.715,117.24a2.376,2.376,0,1,0,2.376,2.377,2.379,2.379,0,0,0-2.376-2.377" fill="#fe502d"/>
        <path id="Trazado_762409" data-name="Trazado 762409" d="M275.571,118.475H228.227a7.616,7.616,0,0,0-6.642-6.4,101.458,101.458,0,0,0-7.767-32.256,102.615,102.615,0,0,0-5.64-11.332h0l-.041-.07a1.142,1.142,0,0,0-1.977,1.143l.041.069v0a100.32,100.32,0,0,1,5.513,11.079,99.134,99.134,0,0,1,7.586,31.449,7.6,7.6,0,0,0,0,14.925,99.884,99.884,0,0,1-99.687,92.5,1.142,1.142,0,1,0,0,2.284,102.17,102.17,0,0,0,101.972-94.7,7.616,7.616,0,0,0,6.642-6.4h47.344a1.142,1.142,0,1,0,0-2.284m-54.856,6.454a5.313,5.313,0,1,1,5.312-5.312,5.319,5.319,0,0,1-5.312,5.312" fill="#fe502d"/>
        <path id="Trazado_762410" data-name="Trazado 762410" d="M46.623,197.508a4.895,4.895,0,1,1-4.9-4.895,4.895,4.895,0,0,1,4.9,4.895" fill="#fe502d"/>
        <path id="Trazado_762411" data-name="Trazado 762411" d="M43.777,197.508a2.048,2.048,0,1,1-2.048-2.048,2.048,2.048,0,0,1,2.048,2.048" fill="#fff"/>
      </g>
    </g>
    <g id="Grupo_1024272" data-name="Grupo 1024272" transform="translate(417 3298)">
      <g id="Grupo_1024271" data-name="Grupo 1024271" clip-path="url(#clip-path-2)">
        <rect id="Rectángulo_358970" data-name="Rectángulo 358970" width="225.131" height="225.131" transform="translate(-39.577 123.237) rotate(-45)" fill="url(#linear-gradient)"/>
      </g>
    </g>
    <g id="Grupo_1024274" data-name="Grupo 1024274" transform="translate(417 3298)">
      <g id="Grupo_1024273" data-name="Grupo 1024273" clip-path="url(#clip-path)">
        <path id="Trazado_762413" data-name="Trazado 762413" d="M68.994,69a71.587,71.587,0,1,1,0,101.239A71.587,71.587,0,0,1,68.994,69" fill="#f3f4f5"/>
        <path id="Trazado_762414" data-name="Trazado 762414" d="M429.692,229.82a119.738,119.738,0,0,0,65.124-153.1l-.254.251a119.352,119.352,0,0,1-154.637,153.86l-.251.251a119.98,119.98,0,0,0,90.018-1.264M263.839,119.614A119.357,119.357,0,0,1,425.149,7.943l.252-.253A119.684,119.684,0,0,0,270.99,161.325l.255-.253a118.633,118.633,0,0,1-7.406-41.458" fill="#ffca00"/>
        <g transform="matrix(1, 0, 0, 1, 0, 0)" filter="url(#Trazado_762415)">
          <path id="Trazado_762415-2" data-name="Trazado 762415" d="M474.439,119.614A91.312,91.312,0,1,1,383.127,28.3a91.312,91.312,0,0,1,91.312,91.312" fill="#ffca00"/>
        </g>
        <path id="Trazado_762416" data-name="Trazado 762416" d="M338.51,14.012a113.576,113.576,0,0,1,36.459-8.729V7.572A112.007,112.007,0,0,0,303.7,40.184a112.535,112.535,0,0,0-17.711,22.974,1.142,1.142,0,1,1-1.974-1.149,115.1,115.1,0,0,1,54.5-48" fill="#ffca00"/>
        <path id="Trazado_762417" data-name="Trazado 762417" d="M481.992,63.856a1.142,1.142,0,0,1-1.56-.418,112.837,112.837,0,0,0-53.577-47.323,111.315,111.315,0,0,0-35.57-8.543V5.283a114.306,114.306,0,0,1,72.889,33.285A114.811,114.811,0,0,1,482.41,62.3a1.142,1.142,0,0,1-.418,1.56" fill="#ffca00"/>
        <path id="Trazado_762418" data-name="Trazado 762418" d="M471.693,68.482a1.142,1.142,0,1,0-1.977,1.143l.039.069a1.142,1.142,0,1,0,1.98-1.14Z" fill="#ffca00"/>
        <path id="Trazado_762419" data-name="Trazado 762419" d="M479.574,89.173a1.142,1.142,0,0,0-.762,1.424l.041.134a1.142,1.142,0,1,0,2.188-.656l-.043-.14a1.143,1.143,0,0,0-1.424-.762" fill="#ffca00"/>
        <path id="Trazado_762420" data-name="Trazado 762420" d="M477,79.048l-.059-.136a1.142,1.142,0,0,0-2.093.914l.055.128a1.142,1.142,0,0,0,2.1-.906" fill="#ffca00"/>
        <path id="Trazado_762421" data-name="Trazado 762421" d="M481.5,101.756l.025.141a1.143,1.143,0,0,0,1.123.94,1.079,1.079,0,0,0,.2-.018,1.142,1.142,0,0,0,.923-1.325l-.026-.142a1.142,1.142,0,1,0-2.248.4" fill="#ffca00"/>
        <path id="Trazado_762422" data-name="Trazado 762422" d="M383.208,219.572h-.081a99.883,99.883,0,0,1-99.685-92.493,7.6,7.6,0,0,0,0-14.926,99.121,99.121,0,0,1,7.587-31.45,100.259,100.259,0,0,1,5.656-11.328,1.142,1.142,0,1,0-1.974-1.148,103.148,103.148,0,0,0-5.787,11.585,101.467,101.467,0,0,0-7.766,32.258,7.6,7.6,0,0,0,0,15.092,102.162,102.162,0,0,0,101.97,94.694h.081a1.142,1.142,0,1,0,0-2.284M276.713,119.616a5.313,5.313,0,1,1,5.312,5.312,5.318,5.318,0,0,1-5.312-5.312" fill="#ffca00"/>
        <path id="Trazado_762423" data-name="Trazado 762423" d="M431.33,207.209l-.136.075a1.142,1.142,0,1,0,1.1,2l.139-.076a1.142,1.142,0,0,0-1.1-2" fill="#ffca00"/>
        <path id="Trazado_762424" data-name="Trazado 762424" d="M395.731,218.79l-.152.019a1.142,1.142,0,0,0,.138,2.276,1.109,1.109,0,0,0,.14-.009l.16-.02a1.142,1.142,0,0,0-.286-2.266" fill="#ffca00"/>
        <path id="Trazado_762425" data-name="Trazado 762425" d="M419.98,212.558l-.141.056a1.142,1.142,0,0,0,.836,2.126l.15-.06a1.142,1.142,0,1,0-.845-2.122" fill="#ffca00"/>
        <path id="Trazado_762426" data-name="Trazado 762426" d="M441.917,200.476l-.128.094a1.142,1.142,0,1,0,1.344,1.846l.126-.091a1.142,1.142,0,0,0-1.342-1.849" fill="#ffca00"/>
        <path id="Trazado_762427" data-name="Trazado 762427" d="M408.053,216.444l-.148.038a1.142,1.142,0,1,0,.564,2.213l.156-.039a1.142,1.142,0,0,0-.572-2.212" fill="#ffca00"/>
        <path id="Trazado_762428" data-name="Trazado 762428" d="M451.57,192.468l-.113.1a1.143,1.143,0,0,0,1.563,1.667l.116-.109a1.142,1.142,0,0,0-1.566-1.663" fill="#ffca00"/>
        <path id="Trazado_762429" data-name="Trazado 762429" d="M482.668,137.47a1.144,1.144,0,0,0-1.335.91l-.028.15a1.142,1.142,0,0,0,2.243.432l.03-.157a1.142,1.142,0,0,0-.91-1.335" fill="#ffca00"/>
        <path id="Trazado_762430" data-name="Trazado 762430" d="M475.108,161.643a1.142,1.142,0,0,0-1.518.55l-.065.138a1.142,1.142,0,0,0,2.065.976l.068-.146a1.141,1.141,0,0,0-.55-1.518" fill="#ffca00"/>
        <path id="Trazado_762431" data-name="Trazado 762431" d="M479.655,149.8a1.143,1.143,0,0,0-1.439.734l-.048.146a1.142,1.142,0,0,0,.731,1.441,1.156,1.156,0,0,0,.355.057,1.141,1.141,0,0,0,1.085-.788l.049-.151a1.142,1.142,0,0,0-.733-1.439" fill="#ffca00"/>
        <path id="Trazado_762432" data-name="Trazado 762432" d="M469.124,172.832a1.143,1.143,0,0,0-1.578.349l-.084.132a1.142,1.142,0,0,0,1.926,1.228l.085-.132a1.144,1.144,0,0,0-.349-1.577" fill="#ffca00"/>
        <path id="Trazado_762433" data-name="Trazado 762433" d="M461.769,183.172a1.142,1.142,0,0,0-1.608.153l-.1.117a1.142,1.142,0,0,0,1.755,1.462l.1-.124a1.142,1.142,0,0,0-.153-1.608" fill="#ffca00"/>
        <path id="Trazado_762434" data-name="Trazado 762434" d="M284.4,119.616a2.376,2.376,0,1,0-2.376,2.376,2.379,2.379,0,0,0,2.376-2.376" fill="#ffca00"/>
        <path id="Trazado_762435" data-name="Trazado 762435" d="M484.228,117.24a2.376,2.376,0,1,0,2.376,2.377,2.379,2.379,0,0,0-2.376-2.377" fill="#ffca00"/>
        <path id="Trazado_762436" data-name="Trazado 762436" d="M538.844,118.475h-47.1a7.609,7.609,0,0,0-7.288-6.45,1.128,1.128,0,0,0-.919.028,7.6,7.6,0,0,0,0,15.126,1.084,1.084,0,0,0,.426.111c.023,0,.046,0,.068,0a1.148,1.148,0,0,0,.43-.084,7.609,7.609,0,0,0,7.286-6.449h47.1a1.142,1.142,0,1,0,0-2.284m-54.615,6.454a5.313,5.313,0,1,1,5.312-5.312,5.319,5.319,0,0,1-5.312,5.312" fill="#ffca00"/>
        <path id="Trazado_762437" data-name="Trazado 762437" d="M388.022,6.425a4.895,4.895,0,1,1-4.895-4.9,4.895,4.895,0,0,1,4.895,4.9" fill="#ffca00"/>
        <path id="Trazado_762438" data-name="Trazado 762438" d="M385.175,6.425a2.048,2.048,0,1,1-2.048-2.048,2.048,2.048,0,0,1,2.048,2.048" fill="#fff"/>
      </g>
    </g>
    <g id="Grupo_1024276" data-name="Grupo 1024276" transform="translate(417 3298)">
      <g id="Grupo_1024275" data-name="Grupo 1024275" clip-path="url(#clip-path-4)">
        <rect id="Rectángulo_358972" data-name="Rectángulo 358972" width="225.131" height="225.131" transform="translate(223.936 123.235) rotate(-45)" fill="url(#linear-gradient-2)"/>
      </g>
    </g>
    <path id="Trazado_762440" data-name="Trazado 762440" d="M332.508,68.994a71.587,71.587,0,1,1,0,101.239,71.587,71.587,0,0,1,0-101.239" transform="translate(417 3298)" fill="#f3f4f5"/>
    <path id="Trazado_762441" data-name="Trazado 762441" d="M758.1,76.749l-.252.253a119.353,119.353,0,0,1-153.5,154.272l-.252.252a119.675,119.675,0,0,0,154-154.777M688.45,7.954,688.7,7.7a119.679,119.679,0,0,0-154,154.78l.253-.254A119.353,119.353,0,0,1,688.45,7.954" transform="translate(417 3298)" fill="#2d54fe"/>
    <g transform="matrix(1, 0, 0, 1, 417, 3298)" filter="url(#Trazado_762442)">
      <path id="Trazado_762442-2" data-name="Trazado 762442" d="M737.711,119.614A91.312,91.312,0,1,1,646.4,28.3a91.312,91.312,0,0,1,91.312,91.312" fill="#2d54fe"/>
    </g>
    <path id="Trazado_762443" data-name="Trazado 762443" d="M717.665,202.454l1.62,1.62a111.24,111.24,0,0,1-72.895,27.1,1.142,1.142,0,1,1,0-2.284,108.935,108.935,0,0,0,71.275-26.438" transform="translate(417 3298)" fill="#2d54fe"/>
    <path id="Trazado_762444" data-name="Trazado 762444" d="M757.953,119.613a111.218,111.218,0,0,1-27.128,72.928l-1.62-1.62A109.406,109.406,0,0,0,747.077,77.075a110.084,110.084,0,0,0-5.963-12,1.142,1.142,0,1,1,1.98-1.138,112.293,112.293,0,0,1,6.088,12.248,110.9,110.9,0,0,1,8.771,43.427" transform="translate(417 3298)" fill="#2d54fe"/>
    <path id="Trazado_762445" data-name="Trazado 762445" d="M735.024,68.588a102.314,102.314,0,0,0-177.251,0l0,0a102.979,102.979,0,0,0-5.577,11.223,101.44,101.44,0,0,0-7.766,32.252,7.6,7.6,0,0,0,.644,15.138,1.147,1.147,0,0,0,.43.083h.075a1.2,1.2,0,0,0,.419-.11,7.6,7.6,0,0,0,.716-15.027A99.126,99.126,0,0,1,554.3,80.7a100.139,100.139,0,0,1,5.453-10.975,99.078,99.078,0,0,1,7.275-10.894,100.8,100.8,0,0,1,8.69-9.9,100.032,100.032,0,0,1,157.328,20.8,1.142,1.142,0,1,0,1.979-1.141M550.61,119.611A5.313,5.313,0,1,1,545.3,114.3a5.32,5.32,0,0,1,5.312,5.312" transform="translate(417 3298)" fill="#2d54fe"/>
    <path id="Trazado_762446" data-name="Trazado 762446" d="M577.95,192.462a1.142,1.142,0,0,0-1.566,1.663l.116.109a1.142,1.142,0,1,0,1.562-1.666Z" transform="translate(417 3298)" fill="#2d54fe"/>
    <path id="Trazado_762447" data-name="Trazado 762447" d="M587.732,200.565l-.127-.092a1.142,1.142,0,0,0-1.344,1.846l.126.092a1.142,1.142,0,1,0,1.345-1.846" transform="translate(417 3298)" fill="#2d54fe"/>
    <path id="Trazado_762448" data-name="Trazado 762448" d="M551.308,150.519a1.142,1.142,0,1,0-2.173.7l.05.153a1.142,1.142,0,0,0,2.17-.712Z" transform="translate(417 3298)" fill="#2d54fe"/>
    <path id="Trazado_762449" data-name="Trazado 762449" d="M569.357,183.316a1.142,1.142,0,0,0-1.758,1.458l.1.121a1.142,1.142,0,1,0,1.758-1.459Z" transform="translate(417 3298)" fill="#2d54fe"/>
    <path id="Trazado_762450" data-name="Trazado 762450" d="M548.191,138.367a1.142,1.142,0,1,0-2.244.425l.03.157a1.142,1.142,0,0,0,2.243-.431Z" transform="translate(417 3298)" fill="#2d54fe"/>
    <path id="Trazado_762451" data-name="Trazado 762451" d="M561.976,173.174a1.142,1.142,0,1,0-1.928,1.225l.087.136a1.142,1.142,0,1,0,1.923-1.233Z" transform="translate(417 3298)" fill="#2d54fe"/>
    <path id="Trazado_762452" data-name="Trazado 762452" d="M555.931,162.181a1.142,1.142,0,0,0-2.066.974l.067.142a1.142,1.142,0,1,0,2.066-.974Z" transform="translate(417 3298)" fill="#2d54fe"/>
    <path id="Trazado_762453" data-name="Trazado 762453" d="M621.617,216.481l-.149-.038a1.142,1.142,0,1,0-.571,2.212l.154.039a1.157,1.157,0,0,0,.284.036,1.142,1.142,0,0,0,.282-2.249" transform="translate(417 3298)" fill="#2d54fe"/>
    <path id="Trazado_762454" data-name="Trazado 762454" d="M598.325,207.279l-.134-.074a1.142,1.142,0,1,0-1.1,2l.14.077a1.142,1.142,0,0,0,1.1-2" transform="translate(417 3298)" fill="#2d54fe"/>
    <path id="Trazado_762455" data-name="Trazado 762455" d="M633.938,218.808l-.148-.018a1.142,1.142,0,1,0-.286,2.266l.162.02a1.059,1.059,0,0,0,.137.008,1.142,1.142,0,0,0,.135-2.276" transform="translate(417 3298)" fill="#2d54fe"/>
    <path id="Trazado_762456" data-name="Trazado 762456" d="M609.684,212.613l-.146-.058a1.142,1.142,0,1,0-.842,2.123l.146.058a1.142,1.142,0,1,0,.842-2.123" transform="translate(417 3298)" fill="#2d54fe"/>
    <path id="Trazado_762457" data-name="Trazado 762457" d="M646.318,221.857h.082a1.142,1.142,0,0,0,0-2.284h-.082a1.142,1.142,0,0,0,0,2.284" transform="translate(417 3298)" fill="#2d54fe"/>
    <path id="Trazado_762458" data-name="Trazado 762458" d="M542.922,119.611a2.375,2.375,0,1,0,2.376-2.376,2.379,2.379,0,0,0-2.376,2.376" transform="translate(417 3298)" fill="#2d54fe"/>
    <path id="Trazado_762459" data-name="Trazado 762459" d="M729.19,197.508a4.895,4.895,0,1,1-4.9-4.895,4.895,4.895,0,0,1,4.9,4.895" transform="translate(417 3298)" fill="#2d54fe"/>
    <path id="Trazado_762460" data-name="Trazado 762460" d="M726.344,197.508a2.048,2.048,0,1,1-2.049-2.048,2.049,2.049,0,0,1,2.049,2.048" transform="translate(417 3298)" fill="#fff"/>
    <path id="Trazado_773918" data-name="Trazado 773918" d="M0,0H766.013V239.228H0Z" transform="translate(417 3298)" fill="none"/>
    <g id="Grupo_1024280" data-name="Grupo 1024280" transform="translate(417 3298)">
      <g id="Grupo_1024279" data-name="Grupo 1024279" clip-path="url(#clip-path-5)">
        <rect id="Rectángulo_358974" data-name="Rectángulo 358974" width="225.131" height="225.131" transform="translate(487.207 123.234) rotate(-45)" fill="url(#linear-gradient-3)"/>
      </g>
    </g>
    <g id="Grupo_1024282" data-name="Grupo 1024282" transform="translate(417 3298)">
      <g id="Grupo_1024281" data-name="Grupo 1024281" clip-path="url(#clip-path)">
        <path id="Trazado_762462" data-name="Trazado 762462" d="M595.78,68.994a71.587,71.587,0,1,1,0,101.239,71.587,71.587,0,0,1,0-101.239" fill="#f3f4f5"/>
      </g>
    </g>
    <path id="Trazado_773919" data-name="Trazado 773919" d="M20.055,10.992V15H17.711V3.625h4.438a5.134,5.134,0,0,1,2.254.469,3.454,3.454,0,0,1,1.5,1.332,3.714,3.714,0,0,1,.523,1.965,3.266,3.266,0,0,1-1.145,2.637,4.767,4.767,0,0,1-3.168.965Zm0-1.9h2.094a2.059,2.059,0,0,0,1.418-.437,1.591,1.591,0,0,0,.488-1.25,1.876,1.876,0,0,0-.492-1.352A1.839,1.839,0,0,0,22.2,5.523H20.055Zm11.617,6.063a4.15,4.15,0,0,1-3.027-1.141,4.054,4.054,0,0,1-1.168-3.039v-.219a5.106,5.106,0,0,1,.492-2.277,3.612,3.612,0,0,1,1.395-1.547,3.914,3.914,0,0,1,2.059-.543,3.508,3.508,0,0,1,2.73,1.094,4.444,4.444,0,0,1,1,3.1v.922H29.766a2.1,2.1,0,0,0,.66,1.328,2,2,0,0,0,1.395.5,2.437,2.437,0,0,0,2.039-.945l1.109,1.242a3.389,3.389,0,0,1-1.375,1.121A4.511,4.511,0,0,1,31.672,15.156Zm-.258-6.945a1.411,1.411,0,0,0-1.09.455,2.357,2.357,0,0,0-.535,1.3H32.93V9.788a1.681,1.681,0,0,0-.406-1.165A1.456,1.456,0,0,0,31.414,8.211Zm9.766.453a6.134,6.134,0,0,0-.812-.062,1.654,1.654,0,0,0-1.68.867V15H36.43V6.547h2.133l.063,1.008a2.092,2.092,0,0,1,1.883-1.164,2.366,2.366,0,0,1,.7.1Zm5.664,4a.727.727,0,0,0-.41-.652,4.659,4.659,0,0,0-1.316-.426Q42.1,10.953,42.1,9.023a2.323,2.323,0,0,1,.934-1.879,3.766,3.766,0,0,1,2.441-.754,4.053,4.053,0,0,1,2.574.758,2.388,2.388,0,0,1,.965,1.969H46.758a1.092,1.092,0,0,0-.312-.8A1.322,1.322,0,0,0,45.469,8a1.351,1.351,0,0,0-.883.258.814.814,0,0,0-.312.656.7.7,0,0,0,.355.605,3.657,3.657,0,0,0,1.2.4,9.8,9.8,0,0,1,1.422.379,2.336,2.336,0,0,1,1.789,2.273,2.2,2.2,0,0,1-.992,1.871,4.28,4.28,0,0,1-2.562.715,4.47,4.47,0,0,1-1.887-.379A3.166,3.166,0,0,1,42.3,13.738a2.414,2.414,0,0,1-.469-1.426h2.141a1.179,1.179,0,0,0,.445.922,1.766,1.766,0,0,0,1.109.32,1.635,1.635,0,0,0,.98-.246A.766.766,0,0,0,46.844,12.664Zm3.3-1.969a5.013,5.013,0,0,1,.484-2.242A3.546,3.546,0,0,1,52.02,6.93a4.069,4.069,0,0,1,2.113-.539,3.849,3.849,0,0,1,2.793,1.047,4.2,4.2,0,0,1,1.207,2.844l.016.578a4.418,4.418,0,0,1-1.086,3.121,4.209,4.209,0,0,1-5.832,0,4.5,4.5,0,0,1-1.09-3.187Zm2.258.16a3.16,3.16,0,0,0,.453,1.843,1.628,1.628,0,0,0,2.578.008,3.457,3.457,0,0,0,.461-2.015A3.128,3.128,0,0,0,55.43,8.86a1.5,1.5,0,0,0-1.3-.649,1.474,1.474,0,0,0-1.281.646A3.516,3.516,0,0,0,52.4,10.856Zm9.219-4.309.07.977a2.951,2.951,0,0,1,2.43-1.133,2.453,2.453,0,0,1,2,.789,3.682,3.682,0,0,1,.672,2.359V15H64.531V9.594a1.465,1.465,0,0,0-.312-1.043,1.4,1.4,0,0,0-1.039-.324,1.553,1.553,0,0,0-1.43.813V15H59.492V6.547ZM73.4,15a2.507,2.507,0,0,1-.227-.758,2.732,2.732,0,0,1-2.133.914,3,3,0,0,1-2.059-.719,2.312,2.312,0,0,1-.816-1.812,2.389,2.389,0,0,1,1-2.062,4.915,4.915,0,0,1,2.879-.727h1.039V9.352a1.393,1.393,0,0,0-.3-.937,1.183,1.183,0,0,0-.949-.352,1.345,1.345,0,0,0-.895.273.929.929,0,0,0-.324.75H68.352A2.268,2.268,0,0,1,68.8,7.727a3,3,0,0,1,1.281-.98,4.669,4.669,0,0,1,1.859-.355,3.689,3.689,0,0,1,2.48.785,2.747,2.747,0,0,1,.918,2.207v3.664a4.041,4.041,0,0,0,.336,1.82V15Zm-1.867-1.57a1.945,1.945,0,0,0,.922-.223,1.462,1.462,0,0,0,.625-.6V11.156h-.844q-1.7,0-1.8,1.172l-.008.133a.9.9,0,0,0,.3.7A1.153,1.153,0,0,0,71.531,13.43ZM79.461,15H77.2V3h2.266ZM83.7,15H81.438V6.547H83.7ZM81.3,4.359a1.112,1.112,0,0,1,.34-.836,1.465,1.465,0,0,1,1.848,0,1.105,1.105,0,0,1,.344.836,1.108,1.108,0,0,1-.348.844,1.448,1.448,0,0,1-1.836,0A1.108,1.108,0,0,1,81.3,4.359Zm3.906,6.352A5.094,5.094,0,0,1,86.1,7.563a2.877,2.877,0,0,1,2.426-1.172,2.589,2.589,0,0,1,2.039.922V3h2.266V15H90.789l-.109-.9a2.657,2.657,0,0,1-2.172,1.055,2.869,2.869,0,0,1-2.395-1.176A5.258,5.258,0,0,1,85.211,10.711Zm2.258.168a3.337,3.337,0,0,0,.414,1.823,1.349,1.349,0,0,0,1.2.634,1.511,1.511,0,0,0,1.477-.884V9.111A1.489,1.489,0,0,0,89.1,8.227Q87.469,8.227,87.469,10.879ZM99.477,15a2.507,2.507,0,0,1-.227-.758,2.732,2.732,0,0,1-2.133.914,3,3,0,0,1-2.059-.719,2.312,2.312,0,0,1-.816-1.812,2.389,2.389,0,0,1,1-2.062,4.915,4.915,0,0,1,2.879-.727h1.039V9.352a1.393,1.393,0,0,0-.3-.937,1.183,1.183,0,0,0-.949-.352,1.345,1.345,0,0,0-.895.273.929.929,0,0,0-.324.75H94.43a2.268,2.268,0,0,1,.453-1.359,3,3,0,0,1,1.281-.98,4.669,4.669,0,0,1,1.859-.355,3.689,3.689,0,0,1,2.48.785,2.747,2.747,0,0,1,.918,2.207v3.664a4.041,4.041,0,0,0,.336,1.82V15Zm-1.867-1.57a1.945,1.945,0,0,0,.922-.223,1.462,1.462,0,0,0,.625-.6V11.156h-.844q-1.7,0-1.8,1.172l-.008.133a.9.9,0,0,0,.3.7A1.153,1.153,0,0,0,97.609,13.43Zm5.2-2.719a5.094,5.094,0,0,1,.887-3.148,2.877,2.877,0,0,1,2.426-1.172,2.589,2.589,0,0,1,2.039.922V3h2.266V15h-2.039l-.109-.9a2.657,2.657,0,0,1-2.172,1.055,2.869,2.869,0,0,1-2.395-1.176A5.258,5.258,0,0,1,102.8,10.711Zm2.258.168a3.337,3.337,0,0,0,.414,1.823,1.349,1.349,0,0,0,1.2.634,1.511,1.511,0,0,0,1.477-.884V9.111a1.489,1.489,0,0,0-1.461-.884Q105.063,8.227,105.063,10.879Z" transform="translate(474 3442)" fill="#12263f"/>
    <path id="Trazado_773920" data-name="Trazado 773920" d="M39,10.07H34.5v3.047h5.281V15H32.156V3.625h7.609v1.9H34.5V8.234H39Zm6.586,2.594a.727.727,0,0,0-.41-.652,4.659,4.659,0,0,0-1.316-.426q-3.016-.633-3.016-2.562a2.323,2.323,0,0,1,.934-1.879,3.766,3.766,0,0,1,2.441-.754,4.053,4.053,0,0,1,2.574.758,2.388,2.388,0,0,1,.965,1.969H45.5a1.092,1.092,0,0,0-.312-.8A1.322,1.322,0,0,0,44.211,8a1.351,1.351,0,0,0-.883.258.814.814,0,0,0-.312.656.7.7,0,0,0,.355.605,3.657,3.657,0,0,0,1.2.4,9.8,9.8,0,0,1,1.422.379,2.336,2.336,0,0,1,1.789,2.273,2.2,2.2,0,0,1-.992,1.871,4.28,4.28,0,0,1-2.562.715,4.47,4.47,0,0,1-1.887-.379,3.166,3.166,0,0,1-1.293-1.039,2.414,2.414,0,0,1-.469-1.426h2.141a1.179,1.179,0,0,0,.445.922,1.766,1.766,0,0,0,1.109.32,1.635,1.635,0,0,0,.98-.246A.766.766,0,0,0,45.586,12.664Zm6.352-8.2V6.547h1.445V8.2H51.938v4.219a1.007,1.007,0,0,0,.18.672.9.9,0,0,0,.688.2,3.6,3.6,0,0,0,.664-.055v1.711a4.648,4.648,0,0,1-1.367.2,2.156,2.156,0,0,1-2.422-2.4V8.2H48.445V6.547H49.68V4.469ZM57.023,15H54.758V6.547h2.266Zm-2.4-10.641a1.112,1.112,0,0,1,.34-.836,1.465,1.465,0,0,1,1.848,0,1.105,1.105,0,0,1,.344.836,1.108,1.108,0,0,1-.348.844,1.448,1.448,0,0,1-1.836,0A1.108,1.108,0,0,1,54.625,4.359ZM61.266,15H59V3h2.266Zm1.508-4.3a5.013,5.013,0,0,1,.484-2.242A3.546,3.546,0,0,1,64.652,6.93a4.069,4.069,0,0,1,2.113-.539,3.849,3.849,0,0,1,2.793,1.047,4.2,4.2,0,0,1,1.207,2.844l.016.578A4.418,4.418,0,0,1,69.7,13.98a4.209,4.209,0,0,1-5.832,0,4.5,4.5,0,0,1-1.09-3.187Zm2.258.16a3.16,3.16,0,0,0,.453,1.843,1.628,1.628,0,0,0,2.578.008,3.457,3.457,0,0,0,.461-2.015,3.128,3.128,0,0,0-.461-1.831,1.5,1.5,0,0,0-1.3-.649,1.474,1.474,0,0,0-1.281.646A3.516,3.516,0,0,0,65.031,10.856ZM75.8,10.711a5.094,5.094,0,0,1,.887-3.148,2.877,2.877,0,0,1,2.426-1.172,2.589,2.589,0,0,1,2.039.922V3h2.266V15H81.383l-.109-.9A2.657,2.657,0,0,1,79.1,15.156a2.869,2.869,0,0,1-2.395-1.176A5.258,5.258,0,0,1,75.8,10.711Zm2.258.168a3.337,3.337,0,0,0,.414,1.823,1.349,1.349,0,0,0,1.2.634,1.511,1.511,0,0,0,1.477-.884V9.111A1.489,1.489,0,0,0,79.7,8.227Q78.063,8.227,78.063,10.879Zm11,4.277a4.15,4.15,0,0,1-3.027-1.141,4.054,4.054,0,0,1-1.168-3.039v-.219a5.106,5.106,0,0,1,.492-2.277,3.612,3.612,0,0,1,1.395-1.547,3.914,3.914,0,0,1,2.059-.543,3.508,3.508,0,0,1,2.73,1.094,4.444,4.444,0,0,1,1,3.1v.922H87.156a2.1,2.1,0,0,0,.66,1.328,2,2,0,0,0,1.395.5,2.437,2.437,0,0,0,2.039-.945l1.109,1.242a3.389,3.389,0,0,1-1.375,1.121A4.511,4.511,0,0,1,89.063,15.156ZM88.8,8.211a1.411,1.411,0,0,0-1.09.455,2.357,2.357,0,0,0-.535,1.3H90.32V9.788a1.681,1.681,0,0,0-.406-1.165A1.456,1.456,0,0,0,88.8,8.211Zm12.164,4.031,1.57-5.7H104.9L102.047,15H99.891L97.039,6.547H99.4Zm7.3,2.758h-2.266V6.547h2.266Zm-2.4-10.641a1.112,1.112,0,0,1,.34-.836,1.465,1.465,0,0,1,1.848,0,1.105,1.105,0,0,1,.344.836,1.108,1.108,0,0,1-.348.844,1.448,1.448,0,0,1-1.836,0A1.108,1.108,0,0,1,105.875,4.359Zm3.906,6.352a5.094,5.094,0,0,1,.887-3.148,2.877,2.877,0,0,1,2.426-1.172,2.589,2.589,0,0,1,2.039.922V3H117.4V15h-2.039l-.109-.9a2.657,2.657,0,0,1-2.172,1.055,2.869,2.869,0,0,1-2.395-1.176A5.258,5.258,0,0,1,109.781,10.711Zm2.258.168a3.337,3.337,0,0,0,.414,1.823,1.349,1.349,0,0,0,1.2.634,1.511,1.511,0,0,0,1.477-.884V9.111a1.489,1.489,0,0,0-1.461-.884Q112.039,8.227,112.039,10.879ZM124.047,15a2.507,2.507,0,0,1-.227-.758,2.732,2.732,0,0,1-2.133.914,3,3,0,0,1-2.059-.719,2.312,2.312,0,0,1-.816-1.812,2.389,2.389,0,0,1,1-2.062,4.915,4.915,0,0,1,2.879-.727h1.039V9.352a1.393,1.393,0,0,0-.3-.937,1.183,1.183,0,0,0-.949-.352,1.345,1.345,0,0,0-.895.273.929.929,0,0,0-.324.75H119a2.268,2.268,0,0,1,.453-1.359,3,3,0,0,1,1.281-.98,4.669,4.669,0,0,1,1.859-.355,3.689,3.689,0,0,1,2.48.785,2.747,2.747,0,0,1,.918,2.207v3.664a4.041,4.041,0,0,0,.336,1.82V15Zm-1.867-1.57a1.945,1.945,0,0,0,.922-.223,1.462,1.462,0,0,0,.625-.6V11.156h-.844q-1.7,0-1.8,1.172l-.008.133a.9.9,0,0,0,.3.7A1.153,1.153,0,0,0,122.18,13.43Z" transform="translate(721 3442)" fill="#12263f"/>
    <path id="Trazado_773921" data-name="Trazado 773921" d="M44.453,12.18l2.578-8.555h2.609L45.68,15H43.234L39.289,3.625h2.6ZM55.1,15a2.507,2.507,0,0,1-.227-.758,2.732,2.732,0,0,1-2.133.914,3,3,0,0,1-2.059-.719,2.312,2.312,0,0,1-.816-1.812,2.389,2.389,0,0,1,1-2.062,4.915,4.915,0,0,1,2.879-.727h1.039V9.352a1.393,1.393,0,0,0-.3-.937,1.183,1.183,0,0,0-.949-.352,1.345,1.345,0,0,0-.895.273.929.929,0,0,0-.324.75H50.055a2.268,2.268,0,0,1,.453-1.359,3,3,0,0,1,1.281-.98,4.669,4.669,0,0,1,1.859-.355,3.689,3.689,0,0,1,2.48.785,2.747,2.747,0,0,1,.918,2.207v3.664a4.041,4.041,0,0,0,.336,1.82V15Zm-1.867-1.57a1.945,1.945,0,0,0,.922-.223,1.462,1.462,0,0,0,.625-.6V11.156h-.844q-1.7,0-1.8,1.172l-.008.133a.9.9,0,0,0,.3.7A1.153,1.153,0,0,0,53.234,13.43ZM61.164,15H58.9V3h2.266Zm1.508-4.3a5.013,5.013,0,0,1,.484-2.242A3.546,3.546,0,0,1,64.551,6.93a4.069,4.069,0,0,1,2.113-.539,3.849,3.849,0,0,1,2.793,1.047,4.2,4.2,0,0,1,1.207,2.844l.016.578a4.418,4.418,0,0,1-1.086,3.121,4.209,4.209,0,0,1-5.832,0,4.5,4.5,0,0,1-1.09-3.187Zm2.258.16a3.16,3.16,0,0,0,.453,1.843,1.628,1.628,0,0,0,2.578.008,3.457,3.457,0,0,0,.461-2.015,3.128,3.128,0,0,0-.461-1.831,1.5,1.5,0,0,0-1.3-.649,1.474,1.474,0,0,0-1.281.646A3.516,3.516,0,0,0,64.93,10.856ZM76.82,8.664a6.134,6.134,0,0,0-.812-.062,1.654,1.654,0,0,0-1.68.867V15H72.07V6.547H74.2l.063,1.008a2.092,2.092,0,0,1,1.883-1.164,2.366,2.366,0,0,1,.7.1Zm4.828,6.492a4.15,4.15,0,0,1-3.027-1.141,4.054,4.054,0,0,1-1.168-3.039v-.219a5.106,5.106,0,0,1,.492-2.277A3.612,3.612,0,0,1,79.34,6.934,3.914,3.914,0,0,1,81.4,6.391a3.508,3.508,0,0,1,2.73,1.094,4.444,4.444,0,0,1,1,3.1v.922H79.742a2.1,2.1,0,0,0,.66,1.328,2,2,0,0,0,1.395.5,2.437,2.437,0,0,0,2.039-.945l1.109,1.242a3.389,3.389,0,0,1-1.375,1.121A4.511,4.511,0,0,1,81.648,15.156Zm-.258-6.945a1.411,1.411,0,0,0-1.09.455,2.357,2.357,0,0,0-.535,1.3h3.141V9.788A1.681,1.681,0,0,0,82.5,8.623,1.456,1.456,0,0,0,81.391,8.211Zm9.594,4.453a.727.727,0,0,0-.41-.652,4.659,4.659,0,0,0-1.316-.426q-3.016-.633-3.016-2.562a2.323,2.323,0,0,1,.934-1.879,3.766,3.766,0,0,1,2.441-.754,4.053,4.053,0,0,1,2.574.758,2.388,2.388,0,0,1,.965,1.969H90.9a1.092,1.092,0,0,0-.312-.8A1.322,1.322,0,0,0,89.609,8a1.351,1.351,0,0,0-.883.258.814.814,0,0,0-.312.656.7.7,0,0,0,.355.605,3.657,3.657,0,0,0,1.2.4,9.8,9.8,0,0,1,1.422.379A2.336,2.336,0,0,1,93.18,12.57a2.2,2.2,0,0,1-.992,1.871,4.28,4.28,0,0,1-2.562.715,4.47,4.47,0,0,1-1.887-.379,3.166,3.166,0,0,1-1.293-1.039,2.414,2.414,0,0,1-.469-1.426h2.141a1.179,1.179,0,0,0,.445.922,1.766,1.766,0,0,0,1.109.32,1.635,1.635,0,0,0,.98-.246A.766.766,0,0,0,90.984,12.664Z" transform="translate(997 3442)" fill="#12263f"/>
    <g id="Grupo_1027863" data-name="Grupo 1027863" transform="translate(764.549 3363)">
      <g id="Grupo_1027774" data-name="Grupo 1027774" transform="translate(31.818 42.484)">
        <path id="Trazado_773035" data-name="Trazado 773035" d="M117.9,155.5h1.5a.549.549,0,0,1,.157-.337l2.791-2.791A2.5,2.5,0,0,1,122,151.1v-1.183a7.208,7.208,0,0,1-6.695,0V151.1a2.5,2.5,0,0,1-.348,1.274l2.788,2.788A.552.552,0,0,1,117.9,155.5Z" transform="translate(-114.96 -149.914)" fill="#f9d0b4"/>
      </g>
      <g id="Grupo_1027775" data-name="Grupo 1027775" transform="translate(9.937 25.128)">
        <path id="Trazado_773036" data-name="Trazado 773036" d="M44.1,89.348a7.064,7.064,0,0,0-6.349.159V99.733a7.065,7.065,0,0,1,5.977-.322c.338.136.688-.153.688-.582V89.921A.625.625,0,0,0,44.1,89.348Z" transform="translate(-37.747 -88.672)" fill="#edf4fc"/>
      </g>
      <g id="Grupo_1027776" data-name="Grupo 1027776" transform="translate(3.271 25.129)">
        <path id="Trazado_773037" data-name="Trazado 773037" d="M14.543,89.348a.625.625,0,0,0-.317.573v8.908c0,.429.351.718.688.582a7.065,7.065,0,0,1,5.977.322V89.508a7.064,7.064,0,0,0-6.349-.16Z" transform="translate(-14.226 -88.672)" fill="#edf4fc"/>
      </g>
      <g id="Grupo_1027777" data-name="Grupo 1027777" transform="translate(0.708 26.872)">
        <path id="Trazado_773038" data-name="Trazado 773038" d="M23.06,94.826H21.077v8.413c0,.429-.351.718-.688.582a7.065,7.065,0,0,0-5.977.322,7.065,7.065,0,0,0-5.977-.322c-.338.136-.688-.153-.688-.582V94.826H5.762a.579.579,0,0,0-.579.579v10.588a.579.579,0,0,0,.579.579h17.3a.579.579,0,0,0,.579-.579V95.4A.579.579,0,0,0,23.06,94.826Z" transform="translate(-5.183 -94.826)" fill="#70d6f9"/>
      </g>
      <g id="Grupo_1027778" data-name="Grupo 1027778" transform="translate(12.275 4.959)">
        <path id="Trazado_773039" data-name="Trazado 773039" d="M58.419,18.246a.852.852,0,0,0-.845-.746H46.9a.852.852,0,0,0-.845.746,6.511,6.511,0,0,0-.051.812,6.236,6.236,0,1,0,12.469,0A6.566,6.566,0,0,0,58.419,18.246Z" transform="translate(-46 -17.5)" fill="#edf4fc"/>
      </g>
      <g id="Grupo_1027779" data-name="Grupo 1027779" transform="translate(13.267 12.894)">
        <path id="Trazado_773040" data-name="Trazado 773040" d="M59.35,45.5H50.135a.635.635,0,0,0-.635.635,2.2,2.2,0,0,0,2.2,2.2h6.088a2.2,2.2,0,0,0,2.2-2.2.635.635,0,0,0-.635-.635Z" transform="translate(-49.5 -45.5)" fill="#edf4fc"/>
      </g>
      <g id="Grupo_1027781" data-name="Grupo 1027781" transform="translate(49.283 6.693)">
        <g id="Grupo_1027780" data-name="Grupo 1027780">
          <path id="Trazado_773041" data-name="Trazado 773041" d="M176.715,25.708a.453.453,0,0,1,.112.453l1.868,1.989a.448.448,0,0,0,.126-.087l2.089-2.089-2.354-2.354-1.965,1.965Z" transform="translate(-176.591 -23.619)" fill="#edf4fc"/>
        </g>
      </g>
      <g id="Grupo_1027782" data-name="Grupo 1027782" transform="translate(44.964 6.693)">
        <path id="Trazado_773042" data-name="Trazado 773042" d="M163.705,23.618l2.089,2.089a.455.455,0,0,1,0,.643l-1.711,1.711a.455.455,0,0,1-.643,0l-2.089-2.089Z" transform="translate(-161.351 -23.618)" fill="#edf4fc"/>
      </g>
      <g id="Grupo_1027784" data-name="Grupo 1027784" transform="translate(43.07 11.223)">
        <g id="Grupo_1027783" data-name="Grupo 1027783">
          <path id="Trazado_773043" data-name="Trazado 773043" d="M159.1,39.629a.452.452,0,0,1-.326-.025l-3.794,4.039a1.165,1.165,0,0,0,1.647,1.647l4.251-3.993Z" transform="translate(-154.665 -39.604)" fill="#d1956d"/>
        </g>
      </g>
      <g id="Grupo_1027785" data-name="Grupo 1027785" transform="translate(47.506 9.235)">
        <path id="Trazado_773044" data-name="Trazado 773044" d="M170.51,34.489l1.711-1.711a.45.45,0,0,0,.112-.19l5.662,6.028a1.165,1.165,0,0,1-1.647,1.647L170.319,34.6a.453.453,0,0,0,.191-.112Z" transform="translate(-170.319 -32.587)" fill="#d1956d"/>
      </g>
      <g id="Grupo_1027786" data-name="Grupo 1027786" transform="translate(51.248 2.54)">
        <path id="Trazado_773045" data-name="Trazado 773045" d="M185.879,15.47l-2.354-2.354a5.1,5.1,0,0,1,1.413-3.3c1.156-1.156,3.1-.262,4.414-.8a.673.673,0,0,1,.943.559C190.408,11.331,190.432,14.965,185.879,15.47Z" transform="translate(-183.525 -8.963)" fill="#f5c84c"/>
      </g>
      <g id="Grupo_1027787" data-name="Grupo 1027787" transform="translate(40.519 2.54)">
        <path id="Trazado_773046" data-name="Trazado 773046" d="M150.11,15.47l2.354-2.354a5.1,5.1,0,0,0-1.413-3.3c-1.156-1.156-3.1-.262-4.414-.8a.673.673,0,0,0-.943.559C145.581,11.331,145.557,14.965,150.11,15.47Z" transform="translate(-145.664 -8.963)" fill="#f5c84c"/>
      </g>
      <g id="Grupo_1027788" data-name="Grupo 1027788" transform="translate(56.917 24.739)">
        <path id="Trazado_773047" data-name="Trazado 773047" d="M212,90.623l-8.468,1.815V89.111L212,87.3Z" transform="translate(-203.529 -87.296)" fill="#fc657e"/>
      </g>
      <g id="Grupo_1027789" data-name="Grupo 1027789" transform="translate(61.152 33.509)">
        <ellipse id="Elipse_8680" data-name="Elipse 8680" cx="2.117" cy="2.117" rx="2.117" ry="2.117" fill="#fc657e"/>
      </g>
      <g id="Grupo_1027790" data-name="Grupo 1027790" transform="translate(52.683 35.324)">
        <ellipse id="Elipse_8681" data-name="Elipse 8681" cx="2.117" cy="2.117" rx="2.117" ry="2.117" fill="#fc657e"/>
      </g>
      <g id="Grupo_1027791" data-name="Grupo 1027791" transform="translate(49.249 52.84)">
        <path id="Trazado_773048" data-name="Trazado 773048" d="M197.332,190.577l-.806-2.6c-.017-.056-.037-.11-.059-.163a1.794,1.794,0,0,0-2.837-.59l-.358.316a.972.972,0,0,1-1.547-.375.859.859,0,0,0-1.192-.636,1.686,1.686,0,0,0-1,1.718l.133,1.279a1.69,1.69,0,0,1-.955,1.726c-.837.4-2.442,1.147-5.658,2.688a.36.36,0,0,1-.451-.117l-1.325-1.9-4.808,3.663,3,4.117a2.749,2.749,0,0,0,3.722.686l8.126-5.289a12.827,12.827,0,0,1,2.208-1.149l2.729-1.1a1.857,1.857,0,0,0,1.08-2.274Z" transform="translate(-176.469 -186.459)" fill="#f9d0b4"/>
      </g>
      <g id="Grupo_1027792" data-name="Grupo 1027792" transform="translate(0.831 52.84)">
        <path id="Trazado_773049" data-name="Trazado 773049" d="M5.7,190.577l.806-2.6c.017-.056.037-.11.059-.163a1.794,1.794,0,0,1,2.837-.59l.358.316a.972.972,0,0,0,1.547-.375.859.859,0,0,1,1.192-.636,1.686,1.686,0,0,1,1,1.718l-.133,1.279a1.69,1.69,0,0,0,.955,1.726c.837.4,2.442,1.147,5.658,2.688a.36.36,0,0,0,.451-.117l1.325-1.9,4.808,3.663-3,4.117a2.749,2.749,0,0,1-3.722.686L11.717,195.1a12.827,12.827,0,0,0-2.208-1.149l-2.729-1.1a1.857,1.857,0,0,1-1.08-2.274Z" transform="translate(-5.616 -186.459)" fill="#f9d0b4"/>
      </g>
      <g id="Grupo_1027794" data-name="Grupo 1027794" transform="translate(16.531 46.647)">
        <g id="Grupo_1027793" data-name="Grupo 1027793">
          <path id="Trazado_773050" data-name="Trazado 773050" d="M98.854,175.2l-4.268-6.535a7.442,7.442,0,0,0-4.193-2.826,32.847,32.847,0,0,1-4.327-1.236.549.549,0,0,1-.141.249L83,167.779a.554.554,0,0,1-.783,0l-1.309-1.309a.551.551,0,0,1-.157-.447h-1.5a.55.55,0,0,1-.157.447l-1.309,1.309a.554.554,0,0,1-.783,0l-2.925-2.925a.549.549,0,0,1-.141-.249,32.823,32.823,0,0,1-4.327,1.236,7.442,7.442,0,0,0-4.193,2.826L61.146,175.2a.666.666,0,0,0,.134.923l5.108,3.892a.666.666,0,0,0,.931-.122l2.813-3.726v12.923a.7.7,0,0,0,.7.7H89.164a.7.7,0,0,0,.7-.7V176.17L92.68,179.9a.666.666,0,0,0,.931.122l5.108-3.892A.666.666,0,0,0,98.854,175.2Z" transform="translate(-61.018 -164.605)" fill="#70d6f9"/>
        </g>
      </g>
      <g id="Grupo_1027795" data-name="Grupo 1027795" transform="translate(48.631 52.132)">
        <path id="Trazado_773051" data-name="Trazado 773051" d="M180.128,199.752a3.454,3.454,0,0,1-2.8-1.423l-2.906-3.993a.709.709,0,0,1,1.146-.834l2.906,3.993a2.039,2.039,0,0,0,2.763.51l8.127-5.289a13.537,13.537,0,0,1,2.33-1.212l2.729-1.1a1.155,1.155,0,0,0,.668-1.406l-.806-2.6c-.01-.034-.023-.069-.037-.1a.982.982,0,0,0-.7-.581,1.138,1.138,0,0,0-1.011.252l-.359.315a1.68,1.68,0,0,1-2.675-.649.714.714,0,0,1-.038-.134.151.151,0,0,0-.21-.112.975.975,0,0,0-.579,1l.133,1.279a2.394,2.394,0,0,1-1.357,2.439l-.628.3c-.944.445-2.479,1.169-5.027,2.39a1.064,1.064,0,0,1-1.338-.351l-1.229-1.766a.708.708,0,1,1,1.163-.809l1.059,1.521c2.393-1.146,3.856-1.836,4.768-2.266l.626-.3a.981.981,0,0,0,.555-1l-.134-1.289a2.387,2.387,0,0,1,1.417-2.439,1.568,1.568,0,0,1,2.155,1.063.26.26,0,0,0,.166.124.256.256,0,0,0,.236-.058l.358-.315a2.559,2.559,0,0,1,2.267-.569,2.39,2.39,0,0,1,1.692,1.419q.045.109.08.222l.807,2.6a2.58,2.58,0,0,1-1.492,3.141l-2.729,1.1a12.112,12.112,0,0,0-2.086,1.085l-8.127,5.289a3.452,3.452,0,0,1-1.884.559Z" transform="translate(-174.288 -183.961)"/>
      </g>
      <g id="Grupo_1027796" data-name="Grupo 1027796" transform="translate(0.124 52.131)">
        <path id="Trazado_773052" data-name="Trazado 773052" d="M19.553,199.749a3.444,3.444,0,0,1-1.884-.561L9.543,193.9a12.107,12.107,0,0,0-2.086-1.086l-2.729-1.1a2.58,2.58,0,0,1-1.492-3.141l.806-2.6c.024-.077.051-.152.081-.224a2.389,2.389,0,0,1,1.693-1.42,2.56,2.56,0,0,1,2.267.569l.359.316a.264.264,0,0,0,.4-.066A1.569,1.569,0,0,1,11,184.091a2.387,2.387,0,0,1,1.417,2.44l-.133,1.279a.984.984,0,0,0,.553,1.013l.626.3c.912.43,2.375,1.12,4.768,2.266l1.078-1.549a.708.708,0,0,1,1.163.809l-1.248,1.793a1.064,1.064,0,0,1-1.338.352c-2.548-1.221-4.083-1.945-5.027-2.39l-.628-.3a2.4,2.4,0,0,1-1.355-2.449l.132-1.269a.976.976,0,0,0-.579-1,.151.151,0,0,0-.21.112.7.7,0,0,1-.038.134,1.68,1.68,0,0,1-2.675.649l-.359-.316a1.139,1.139,0,0,0-1.011-.252.981.981,0,0,0-.7.582c-.014.033-.026.068-.037.1l-.806,2.595a1.155,1.155,0,0,0,.668,1.406l2.729,1.1a13.549,13.549,0,0,1,2.33,1.213L18.443,198a2.038,2.038,0,0,0,2.763-.509l2.9-3.98a.709.709,0,1,1,1.146.834l-2.9,3.981A3.454,3.454,0,0,1,19.553,199.749Z" transform="translate(-3.122 -183.957)"/>
      </g>
      <g id="Grupo_1027798" data-name="Grupo 1027798" transform="translate(15.825 45.984)">
        <g id="Grupo_1027797" data-name="Grupo 1027797">
          <path id="Trazado_773053" data-name="Trazado 773053" d="M87.378,188.829H69.051a1.414,1.414,0,0,1-1.412-1.412V176.608L66.1,178.646a1.38,1.38,0,0,1-1.926.259l-5.108-3.892a1.382,1.382,0,0,1-.29-1.887l4.26-6.523.021-.03a8.15,8.15,0,0,1,4.592-3.1c.568-.152,1.063-.273,1.513-.382a17.7,17.7,0,0,0,2.6-.776.709.709,0,1,1,.525,1.316,19.008,19.008,0,0,1-2.794.836c-.441.107-.925.225-1.492.377a6.73,6.73,0,0,0-3.793,2.546l-4.255,6.516L65,177.753l2.783-3.686a.709.709,0,0,1,1.274.427v12.923l18.323-.005,0-12.918a.709.709,0,0,1,1.274-.427l2.783,3.686,5.043-3.842-4.255-6.516a6.736,6.736,0,0,0-3.783-2.543c-.574-.154-1.057-.271-1.5-.378a18.986,18.986,0,0,1-2.806-.841.708.708,0,1,1,.526-1.316,17.712,17.712,0,0,0,2.615.78c.449.109.942.23,1.518.384a8.154,8.154,0,0,1,4.581,3.093l.021.03,4.26,6.523a1.382,1.382,0,0,1-.289,1.887L92.255,178.9a1.378,1.378,0,0,1-1.921-.253l-1.544-2.045v10.809A1.414,1.414,0,0,1,87.378,188.829Z" transform="translate(-58.527 -162.266)"/>
        </g>
      </g>
      <g id="Grupo_1027799" data-name="Grupo 1027799" transform="translate(29.426 44.641)">
        <path id="Trazado_773054" data-name="Trazado 773054" d="M111.7,160.614l-2.925-2.925a.554.554,0,0,0-.783,0L106.682,159a.554.554,0,0,0,0,.783l2.925,2.925a.554.554,0,0,0,.783,0L111.7,161.4a.554.554,0,0,0,0-.783Z" transform="translate(-106.52 -157.527)" fill="#9be5f9"/>
      </g>
      <g id="Grupo_1027800" data-name="Grupo 1027800" transform="translate(36.259 44.641)">
        <path id="Trazado_773055" data-name="Trazado 773055" d="M130.793,160.614l2.925-2.925a.554.554,0,0,1,.783,0L135.81,159a.554.554,0,0,1,0,.783l-2.925,2.925a.554.554,0,0,1-.783,0l-1.309-1.309a.554.554,0,0,1,0-.783Z" transform="translate(-130.631 -157.527)" fill="#9be5f9"/>
      </g>
      <g id="Grupo_1027801" data-name="Grupo 1027801" transform="translate(28.718 43.933)">
        <path id="Trazado_773056" data-name="Trazado 773056" d="M108.208,161.785a1.257,1.257,0,0,1-.893-.369l-2.925-2.925a1.264,1.264,0,0,1,0-1.785L105.7,155.4a1.263,1.263,0,0,1,1.785,0l2.925,2.925h0a1.265,1.265,0,0,1,0,1.785l-1.309,1.309A1.258,1.258,0,0,1,108.208,161.785ZM105.5,157.6l2.707,2.707,1.091-1.091-2.707-2.707Z" transform="translate(-104.021 -155.027)"/>
      </g>
      <g id="Grupo_1027802" data-name="Grupo 1027802" transform="translate(35.551 43.933)">
        <path id="Trazado_773057" data-name="Trazado 773057" d="M130.7,161.786a1.257,1.257,0,0,1-.892-.369l-1.309-1.309a1.265,1.265,0,0,1,0-1.785h0l2.925-2.925a1.263,1.263,0,0,1,1.785,0l1.309,1.309a1.264,1.264,0,0,1,0,1.785l-2.925,2.925A1.258,1.258,0,0,1,130.7,161.786Zm-1.09-2.571,1.091,1.091,2.707-2.707-1.09-1.09Z" transform="translate(-128.135 -155.027)"/>
      </g>
      <g id="Grupo_1027803" data-name="Grupo 1027803" transform="translate(28.247 27.079)">
        <path id="Trazado_773058" data-name="Trazado 773058" d="M110.715,95.7a7.875,7.875,0,0,1-7.885,2.591.388.388,0,0,0-.469.375v5.849a7.266,7.266,0,0,0,14.532,0V98.046c0-.038,0-.076,0-.114a.39.39,0,0,0-.375-.382,7.566,7.566,0,0,1-5.22-1.884.391.391,0,0,0-.581.037Z" transform="translate(-102.361 -95.554)" fill="#f9d0b4"/>
      </g>
      <g id="Grupo_1027805" data-name="Grupo 1027805" transform="translate(25.889 20.311)">
        <g id="Grupo_1027804" data-name="Grupo 1027804">
          <path id="Trazado_773059" data-name="Trazado 773059" d="M95.931,81.866a3.042,3.042,0,0,1,.466.037v-.349a.388.388,0,0,1,.469-.375,7.875,7.875,0,0,0,7.885-2.591.391.391,0,0,1,.582-.037,7.563,7.563,0,0,0,5.22,1.884.39.39,0,0,1,.375.382c0,.038,0,.076,0,.114V81.9a3.016,3.016,0,0,1,2.57.814V77.261a4.162,4.162,0,0,0-4.15-4.15,4.11,4.11,0,0,0-2.12.592,4.155,4.155,0,0,0-3.559-2.031h-2.131a7.522,7.522,0,0,0-7.5,7.5v3.36a3.016,3.016,0,0,1,1.892-.665Z" transform="translate(-94.039 -71.671)" fill="#754e34"/>
        </g>
      </g>
      <g id="Grupo_1027806" data-name="Grupo 1027806" transform="translate(42.761 30.505)">
        <path id="Trazado_773060" data-name="Trazado 773060" d="M154.059,107.646a3.044,3.044,0,0,0-.466.037v5.5c0,.164-.007.326-.018.487a3.032,3.032,0,1,0,.485-6.025Z" transform="translate(-153.574 -107.646)" fill="#f9d0b4"/>
      </g>
      <g id="Grupo_1027807" data-name="Grupo 1027807" transform="translate(24.748 30.505)">
        <path id="Trazado_773061" data-name="Trazado 773061" d="M93.512,113.183v-5.5a3.035,3.035,0,1,0,.018,5.988C93.519,113.509,93.512,113.347,93.512,113.183Z" transform="translate(-90.012 -107.646)" fill="#f9d0b4"/>
      </g>
      <g id="Grupo_1027808" data-name="Grupo 1027808" transform="translate(27.539 26.37)">
        <path id="Trazado_773062" data-name="Trazado 773062" d="M107.835,110.7a7.983,7.983,0,0,1-7.974-7.975V96.882a1.1,1.1,0,0,1,1.323-1.073,7.119,7.119,0,0,0,7.185-2.338,1.1,1.1,0,0,1,1.632-.1,6.9,6.9,0,0,0,4.745,1.682,1.1,1.1,0,0,1,1.062,1.076c0,.041,0,.085,0,.128v6.472A7.983,7.983,0,0,1,107.835,110.7Zm-6.557-13.434v5.459a6.557,6.557,0,1,0,13.115,0V96.454a8.34,8.34,0,0,1-5.13-1.84,8.575,8.575,0,0,1-7.984,2.653Zm8.2-2.915Zm-.555-.441h0Z" transform="translate(-99.861 -93.054)"/>
      </g>
      <g id="Grupo_1027810" data-name="Grupo 1027810" transform="translate(25.18 19.602)">
        <g id="Grupo_1027809" data-name="Grupo 1027809">
          <path id="Trazado_773063" data-name="Trazado 773063" d="M111.705,81.467a.708.708,0,0,1-.708-.708v-5.29a3.429,3.429,0,0,0-5.2-2.951.709.709,0,0,1-.972-.243,3.465,3.465,0,0,0-2.951-1.687H99.744a6.8,6.8,0,0,0-6.791,6.791v3.25a.708.708,0,0,1-1.417,0v-3.25a8.217,8.217,0,0,1,8.208-8.208h2.131A4.885,4.885,0,0,1,105.662,71a4.811,4.811,0,0,1,1.893-.39,4.864,4.864,0,0,1,4.859,4.859v5.29A.709.709,0,0,1,111.705,81.467Z" transform="translate(-91.536 -69.17)"/>
        </g>
      </g>
      <g id="Grupo_1027811" data-name="Grupo 1027811" transform="translate(42.271 29.797)">
        <path id="Trazado_773064" data-name="Trazado 773064" d="M152.821,112.63c-.113,0-.224-.006-.335-.017a.708.708,0,1,1,.138-1.41c.065.006.13.01.2.01a2.325,2.325,0,0,0,0-4.65c-.06,0-.119,0-.178.007a.708.708,0,0,1-.116-1.412c.1-.008.195-.012.294-.012a3.742,3.742,0,0,1,0,7.484Z" transform="translate(-151.847 -105.146)"/>
      </g>
      <g id="Grupo_1027812" data-name="Grupo 1027812" transform="translate(24.039 29.797)">
        <path id="Trazado_773065" data-name="Trazado 773065" d="M91.254,112.63a3.742,3.742,0,0,1,0-7.484c.1,0,.2,0,.294.012a.708.708,0,1,1-.116,1.412q-.088-.007-.178-.007a2.325,2.325,0,0,0,0,4.65c.061,0,.12,0,.179-.009a.709.709,0,0,1,.131,1.411c-.1.009-.206.014-.311.014Z" transform="translate(-87.512 -105.146)"/>
      </g>
      <g id="Grupo_1027813" data-name="Grupo 1027813" transform="translate(38.152 41.924)">
        <path id="Trazado_773066" data-name="Trazado 773066" d="M138.314,151.557a.708.708,0,0,1-.627-.377,3.216,3.216,0,0,1-.375-1.5v-1.034a.708.708,0,0,1,1.417,0v1.034a1.8,1.8,0,0,0,.211.836.709.709,0,0,1-.625,1.04Z" transform="translate(-137.312 -147.938)"/>
      </g>
      <g id="Grupo_1027814" data-name="Grupo 1027814" transform="translate(34.185 47.356)">
        <path id="Trazado_773067" data-name="Trazado 773067" d="M125.272,168.525H124.02a.708.708,0,1,1,0-1.417h1.252a.708.708,0,1,1,0,1.417Z" transform="translate(-123.312 -167.108)"/>
      </g>
      <g id="Grupo_1027815" data-name="Grupo 1027815" transform="translate(31.204 41.906)">
        <path id="Trazado_773068" data-name="Trazado 773068" d="M113.5,151.442a.709.709,0,0,1-.636-1.02,1.778,1.778,0,0,0,.182-.787v-1.052a.708.708,0,0,1,1.417,0v1.052a3.229,3.229,0,0,1-.325,1.408.71.71,0,0,1-.638.4Z" transform="translate(-112.793 -147.875)"/>
      </g>
      <g id="Grupo_1027816" data-name="Grupo 1027816" transform="translate(9.228 25.523)">
        <path id="Trazado_773069" data-name="Trazado 773069" d="M35.955,101.109a.708.708,0,0,1-.708-.708V90.771a.708.708,0,1,1,1.417,0V100.4A.708.708,0,0,1,35.955,101.109Z" transform="translate(-35.247 -90.063)"/>
      </g>
      <g id="Grupo_1027817" data-name="Grupo 1027817" transform="translate(2.562 24.424)">
        <path id="Trazado_773070" data-name="Trazado 773070" d="M19.1,98.66a.708.708,0,0,1-.334-.084,6.339,6.339,0,0,0-5.378-.289,1.152,1.152,0,0,1-1.089-.116,1.342,1.342,0,0,1-.573-1.123V88.14a1.327,1.327,0,0,1,.723-1.213,7.811,7.811,0,0,1,6.651.007,7.81,7.81,0,0,1,6.651-.007,1.327,1.327,0,0,1,.723,1.213v8.908a1.343,1.343,0,0,1-.573,1.123,1.151,1.151,0,0,1-1.089.116,6.341,6.341,0,0,0-5.378.289A.706.706,0,0,1,19.1,98.66Zm-3.332-2.254a7.761,7.761,0,0,1,3.332.752,7.754,7.754,0,0,1,5.957-.294v-8.7a6.387,6.387,0,0,0-5.623.184.706.706,0,0,1-.668,0,6.384,6.384,0,0,0-5.622-.185v8.7a7.756,7.756,0,0,1,2.626-.458Zm9.377-8.2h0Z" transform="translate(-11.725 -86.186)"/>
      </g>
      <g id="Grupo_1027818" data-name="Grupo 1027818" transform="translate(0 26.164)">
        <path id="Trazado_773071" data-name="Trazado 773071" d="M21.269,105.489H3.971A1.289,1.289,0,0,1,2.683,104.2V93.613a1.289,1.289,0,0,1,1.288-1.288h1.8a.708.708,0,0,1,0,1.417H4.1v10.33h17.04V93.742H19.564a.708.708,0,0,1,0-1.417h1.705a1.289,1.289,0,0,1,1.287,1.288V104.2A1.289,1.289,0,0,1,21.269,105.489Z" transform="translate(-2.683 -92.325)"/>
      </g>
      <g id="Grupo_1027819" data-name="Grupo 1027819" transform="translate(11.57 27.132)">
        <path id="Trazado_773072" data-name="Trazado 773072" d="M44.22,97.221a.709.709,0,0,1-.094-1.411,7.646,7.646,0,0,1,2.016,0,.708.708,0,1,1-.185,1.4,6.237,6.237,0,0,0-1.643,0A.677.677,0,0,1,44.22,97.221Z" transform="translate(-43.512 -95.743)"/>
      </g>
      <g id="Grupo_1027820" data-name="Grupo 1027820" transform="translate(11.57 29.556)">
        <path id="Trazado_773073" data-name="Trazado 773073" d="M44.22,105.772a.709.709,0,0,1-.094-1.411,7.645,7.645,0,0,1,2.016,0,.708.708,0,0,1-.185,1.4,6.225,6.225,0,0,0-1.643,0A.677.677,0,0,1,44.22,105.772Z" transform="translate(-43.512 -104.294)"/>
      </g>
      <g id="Grupo_1027821" data-name="Grupo 1027821" transform="translate(11.57 31.979)">
        <path id="Trazado_773074" data-name="Trazado 773074" d="M44.22,114.323a.709.709,0,0,1-.094-1.411,7.645,7.645,0,0,1,2.016,0,.708.708,0,1,1-.185,1.4,6.249,6.249,0,0,0-1.643,0,.677.677,0,0,1-.095.007Z" transform="translate(-43.512 -112.845)"/>
      </g>
      <g id="Grupo_1027822" data-name="Grupo 1027822" transform="translate(4.907 27.132)">
        <path id="Trazado_773075" data-name="Trazado 773075" d="M22.536,97.221a.726.726,0,0,1-.1-.006,6.213,6.213,0,0,0-1.643,0,.708.708,0,1,1-.185-1.4,7.621,7.621,0,0,1,2.016,0,.708.708,0,0,1-.093,1.41Z" transform="translate(-19.997 -95.743)"/>
      </g>
      <g id="Grupo_1027823" data-name="Grupo 1027823" transform="translate(4.907 29.556)">
        <path id="Trazado_773076" data-name="Trazado 773076" d="M22.536,105.772a.726.726,0,0,1-.1-.006,6.225,6.225,0,0,0-1.643,0,.708.708,0,1,1-.185-1.4,7.621,7.621,0,0,1,2.016,0,.708.708,0,0,1-.093,1.41Z" transform="translate(-19.997 -104.294)"/>
      </g>
      <g id="Grupo_1027824" data-name="Grupo 1027824" transform="translate(4.907 31.979)">
        <path id="Trazado_773077" data-name="Trazado 773077" d="M22.536,114.323a.726.726,0,0,1-.1-.006,6.225,6.225,0,0,0-1.643,0,.708.708,0,0,1-.185-1.4,7.621,7.621,0,0,1,2.016,0,.708.708,0,0,1-.093,1.41Z" transform="translate(-19.997 -112.845)"/>
      </g>
      <g id="Grupo_1027825" data-name="Grupo 1027825" transform="translate(11.567 4.251)">
        <path id="Trazado_773078" data-name="Trazado 773078" d="M50.443,24.352A7.023,7.023,0,0,1,43.5,17.267a7.221,7.221,0,0,1,.056-.9A1.562,1.562,0,0,1,45.1,15H55.782a1.562,1.562,0,0,1,1.548,1.366,7.221,7.221,0,0,1,.056.9A7.023,7.023,0,0,1,50.443,24.352ZM45.1,16.417a.143.143,0,0,0-.142.125,5.878,5.878,0,0,0-.045.725,5.528,5.528,0,1,0,11.052,0,5.854,5.854,0,0,0-.045-.724h0a.143.143,0,0,0-.142-.125Z" transform="translate(-43.5 -15)"/>
      </g>
      <g id="Grupo_1027826" data-name="Grupo 1027826" transform="translate(12.559 12.186)">
        <path id="Trazado_773079" data-name="Trazado 773079" d="M56,47.251H49.907A2.91,2.91,0,0,1,47,44.344,1.345,1.345,0,0,1,48.344,43h9.215A1.345,1.345,0,0,1,58.9,44.344,2.91,2.91,0,0,1,56,47.251Zm-7.577-2.834a1.492,1.492,0,0,0,1.488,1.417H56a1.492,1.492,0,0,0,1.488-1.417Zm9.14,0h0Z" transform="translate(-47 -43)"/>
      </g>
      <g id="Grupo_1027827" data-name="Grupo 1027827" transform="translate(14.968)">
        <path id="Trazado_773080" data-name="Trazado 773080" d="M56.208,2.834a.708.708,0,0,1-.708-.708V.708a.708.708,0,0,1,1.417,0V2.125A.708.708,0,0,1,56.208,2.834Z" transform="translate(-55.5)"/>
      </g>
      <g id="Grupo_1027828" data-name="Grupo 1027828" transform="translate(17.802)">
        <path id="Trazado_773081" data-name="Trazado 773081" d="M66.208,2.834a.708.708,0,0,1-.708-.708V.708a.708.708,0,0,1,1.417,0V2.125A.708.708,0,0,1,66.208,2.834Z" transform="translate(-65.5)"/>
      </g>
      <g id="Grupo_1027829" data-name="Grupo 1027829" transform="translate(20.635)">
        <path id="Trazado_773082" data-name="Trazado 773082" d="M76.208,2.834a.708.708,0,0,1-.708-.708V.708a.708.708,0,0,1,1.417,0V2.125A.708.708,0,0,1,76.208,2.834Z" transform="translate(-75.5)"/>
      </g>
      <g id="Grupo_1027830" data-name="Grupo 1027830" transform="translate(22.407 5.384)">
        <path id="Trazado_773083" data-name="Trazado 773083" d="M84.382,25.235H82.458a.708.708,0,0,1,0-1.417h1.923a2.685,2.685,0,0,0,2.528-1.789,1.209,1.209,0,0,0-1.14-1.612H84.159a.708.708,0,0,1,0-1.417H85.77a2.626,2.626,0,0,1,2.476,3.5A4.1,4.1,0,0,1,84.382,25.235Z" transform="translate(-81.75 -19)"/>
      </g>
      <g id="Grupo_1027831" data-name="Grupo 1027831" transform="translate(56.209 24.03)">
        <path id="Trazado_773084" data-name="Trazado 773084" d="M201.737,91.355a.709.709,0,0,1-.708-.708V87.32a.708.708,0,0,1,.56-.693l8.468-1.815a.709.709,0,0,1,.857.693v3.327a.708.708,0,0,1-.56.693l-8.468,1.815A.694.694,0,0,1,201.737,91.355Zm.708-3.462V89.77l7.052-1.511V86.382Zm7.76.939h0Z" transform="translate(-201.029 -84.797)"/>
      </g>
      <g id="Grupo_1027832" data-name="Grupo 1027832" transform="translate(64.677 27.357)">
        <path id="Trazado_773085" data-name="Trazado 773085" d="M231.62,105.514a.708.708,0,0,1-.708-.708V97.244a.708.708,0,1,1,1.417,0v7.561A.708.708,0,0,1,231.62,105.514Z" transform="translate(-230.912 -96.536)"/>
      </g>
      <g id="Grupo_1027833" data-name="Grupo 1027833" transform="translate(60.443 32.801)">
        <path id="Trazado_773086" data-name="Trazado 773086" d="M218.8,121.4a2.826,2.826,0,1,1,2.826-2.826A2.829,2.829,0,0,1,218.8,121.4Zm0-4.234a1.409,1.409,0,1,0,1.409,1.409A1.41,1.41,0,0,0,218.8,117.162Z" transform="translate(-215.97 -115.745)"/>
      </g>
      <g id="Grupo_1027834" data-name="Grupo 1027834" transform="translate(56.209 29.172)">
        <path id="Trazado_773087" data-name="Trazado 773087" d="M201.737,111.917a.708.708,0,0,1-.708-.708v-7.561a.708.708,0,1,1,1.417,0v7.561A.708.708,0,0,1,201.737,111.917Z" transform="translate(-201.029 -102.939)"/>
      </g>
      <g id="Grupo_1027835" data-name="Grupo 1027835" transform="translate(51.975 34.616)">
        <path id="Trazado_773088" data-name="Trazado 773088" d="M188.914,127.8a2.826,2.826,0,1,1,2.826-2.826A2.829,2.829,0,0,1,188.914,127.8Zm0-4.234a1.409,1.409,0,1,0,1.409,1.409,1.41,1.41,0,0,0-1.409-1.409Z" transform="translate(-186.088 -122.15)"/>
      </g>
      <g id="Grupo_1027838" data-name="Grupo 1027838" transform="translate(48.702 6.069)">
        <g id="Grupo_1027836" data-name="Grupo 1027836" transform="translate(2.103 2.36)">
          <path id="Trazado_773089" data-name="Trazado 773089" d="M182.669,33.159a.708.708,0,0,1-.5-1.209l2-2a.708.708,0,0,1,1,1l-2,2A.706.706,0,0,1,182.669,33.159Z" transform="translate(-181.96 -29.743)"/>
        </g>
        <g id="Grupo_1027837" data-name="Grupo 1027837">
          <path id="Trazado_773090" data-name="Trazado 773090" d="M175.248,24.586a.708.708,0,0,1-.5-1.209l1.754-1.754a.708.708,0,0,1,1,1l-1.754,1.754A.707.707,0,0,1,175.248,24.586Z" transform="translate(-174.539 -21.415)"/>
        </g>
      </g>
      <g id="Grupo_1027839" data-name="Grupo 1027839" transform="translate(50.54 1.832)">
        <path id="Trazado_773091" data-name="Trazado 773091" d="M184.087,14.388a.71.71,0,0,1-.5-.207l-2.355-2.355a.708.708,0,0,1-.207-.5,5.8,5.8,0,0,1,1.62-3.8,3.9,3.9,0,0,1,3.1-.829,4.077,4.077,0,0,0,1.55-.128,1.411,1.411,0,0,1,1.283.1,1.344,1.344,0,0,1,.637,1.065c.258,4.008-1.439,6.243-5.044,6.643a.658.658,0,0,1-.078,0Zm-1.626-3.336,1.879,1.879c3.283-.514,3.586-2.944,3.458-5.047a5.005,5.005,0,0,1-2.1.232c-.849-.027-1.585-.05-2.049.414A4.333,4.333,0,0,0,182.462,11.051Z" transform="translate(-181.024 -6.464)"/>
      </g>
      <g id="Grupo_1027841" data-name="Grupo 1027841" transform="translate(42.358 10.621)">
        <g id="Grupo_1027840" data-name="Grupo 1027840">
          <path id="Trazado_773092" data-name="Trazado 773092" d="M154.029,44.8a1.877,1.877,0,0,1-1.366-3.16l3.694-3.933a.709.709,0,0,1,1.033.97L153.7,42.607a.457.457,0,0,0,.646.646l4.1-3.849a.709.709,0,1,1,.97,1.033l-4.1,3.849A1.871,1.871,0,0,1,154.029,44.8Z" transform="translate(-152.153 -37.48)"/>
        </g>
      </g>
      <g id="Grupo_1027842" data-name="Grupo 1027842" transform="translate(44.346 6.114)">
        <path id="Trazado_773093" data-name="Trazado 773093" d="M162.2,27.439a1.155,1.155,0,0,1-.823-.341l-2-2a.708.708,0,0,1,1-1l1.82,1.82,1.352-1.352-1.781-1.781a.708.708,0,1,1,1-1l1.96,1.96a1.165,1.165,0,0,1,0,1.645L163.019,27.1a1.157,1.157,0,0,1-.822.34Zm1.532-2.7h0Z" transform="translate(-159.167 -21.575)"/>
      </g>
      <g id="Grupo_1027843" data-name="Grupo 1027843" transform="translate(39.816 1.832)">
        <path id="Trazado_773094" data-name="Trazado 773094" d="M148.333,14.389a.658.658,0,0,1-.078,0c-3.605-.4-5.3-2.636-5.045-6.643a1.344,1.344,0,0,1,.637-1.065,1.414,1.414,0,0,1,1.283-.1,4.07,4.07,0,0,0,1.55.128,3.9,3.9,0,0,1,3.1.829,5.8,5.8,0,0,1,1.62,3.8.71.71,0,0,1-.207.5l-2.354,2.355A.71.71,0,0,1,148.333,14.389Zm-3.713-6.495c-.126,2.1.181,4.524,3.459,5.038l1.877-1.877a4.388,4.388,0,0,0-1.183-2.524c-.464-.464-1.2-.441-2.049-.414A5.2,5.2,0,0,1,144.621,7.894Z" transform="translate(-143.185 -6.465)"/>
      </g>
      <g id="Grupo_1027844" data-name="Grupo 1027844" transform="translate(46.884 8.64)">
        <path id="Trazado_773095" data-name="Trazado 773095" d="M175.573,39.786a1.868,1.868,0,0,1-1.283-.511l-5.942-5.581a.709.709,0,1,1,.97-1.033l5.942,5.581a.457.457,0,0,0,.646-.646l-5.555-5.914a.709.709,0,0,1,1.033-.97l5.555,5.915a1.877,1.877,0,0,1-1.365,3.16Z" transform="translate(-168.125 -30.489)"/>
      </g>
      <g id="Grupo_1027847" data-name="Grupo 1027847" transform="translate(4.863 10.202)">
        <g id="Grupo_1027846" data-name="Grupo 1027846">
          <g id="Grupo_1027845" data-name="Grupo 1027845">
            <path id="Trazado_773096" data-name="Trazado 773096" d="M25.042,38.508a3.145,3.145,0,0,1-2.522-2.465c0-.057-.113-.057-.113,0a3.145,3.145,0,0,1-2.522,2.465c-.057,0-.057.085,0,.113a3.145,3.145,0,0,1,2.522,2.465c0,.057.113.057.113,0a3.145,3.145,0,0,1,2.522-2.465C25.1,38.593,25.1,38.508,25.042,38.508Z" transform="translate(-19.842 -36)" fill="#f5c84c"/>
          </g>
        </g>
      </g>
      <g id="Grupo_1027850" data-name="Grupo 1027850" transform="translate(49.718 22.345)">
        <g id="Grupo_1027849" data-name="Grupo 1027849">
          <g id="Grupo_1027848" data-name="Grupo 1027848">
            <path id="Trazado_773097" data-name="Trazado 773097" d="M181.775,80.61a2.206,2.206,0,0,1-1.77-1.73c0-.04-.08-.04-.08,0a2.206,2.206,0,0,1-1.77,1.73c-.04,0-.04.06,0,.08a2.206,2.206,0,0,1,1.77,1.73c0,.04.08.04.08,0a2.206,2.206,0,0,1,1.77-1.73C181.815,80.669,181.815,80.61,181.775,80.61Z" transform="translate(-178.126 -78.85)" fill="#70d6f9"/>
          </g>
        </g>
      </g>
      <g id="Grupo_1027853" data-name="Grupo 1027853" transform="translate(53.619 46.716)">
        <g id="Grupo_1027852" data-name="Grupo 1027852">
          <g id="Grupo_1027851" data-name="Grupo 1027851">
            <path id="Trazado_773098" data-name="Trazado 773098" d="M195.916,166.408h-.652v-.652a.913.913,0,0,0-.907-.907.9.9,0,0,0-.907.907v.652H192.8a.913.913,0,0,0-.907.907.9.9,0,0,0,.907.907h.652v.652a.913.913,0,0,0,.907.907.9.9,0,0,0,.907-.907v-.652h.652a.913.913,0,0,0,.907-.907A.9.9,0,0,0,195.916,166.408Z" transform="translate(-191.892 -164.849)" fill="#87d147"/>
          </g>
        </g>
      </g>
      <g id="Grupo_1027856" data-name="Grupo 1027856" transform="translate(9.949 19.228)">
        <g id="Grupo_1027855" data-name="Grupo 1027855">
          <g id="Grupo_1027854" data-name="Grupo 1027854">
            <ellipse id="Elipse_8682" data-name="Elipse 8682" cx="0.964" cy="0.964" rx="0.964" ry="0.964" fill="#fc657e"/>
          </g>
        </g>
      </g>
      <g id="Grupo_1027859" data-name="Grupo 1027859" transform="translate(58.692 41.615)">
        <g id="Grupo_1027858" data-name="Grupo 1027858">
          <g id="Grupo_1027857" data-name="Grupo 1027857">
            <ellipse id="Elipse_8683" data-name="Elipse 8683" cx="0.964" cy="0.964" rx="0.964" ry="0.964" fill="#f5c84c"/>
          </g>
        </g>
      </g>
      <g id="Grupo_1027860" data-name="Grupo 1027860" transform="translate(32.724 37.179)">
        <path id="Trazado_773099" data-name="Trazado 773099" d="M121.057,133.55a3.574,3.574,0,0,1-2.733-1.192.708.708,0,1,1,1.086-.91,2.323,2.323,0,0,0,3.295,0,.708.708,0,0,1,1.085.91,3.574,3.574,0,0,1-2.733,1.192Z" transform="translate(-118.158 -131.195)"/>
      </g>
      <g id="Grupo_1027861" data-name="Grupo 1027861" transform="translate(37.379 32.58)">
        <ellipse id="Elipse_8684" data-name="Elipse 8684" cx="1.032" cy="1.032" rx="1.032" ry="1.032"/>
      </g>
      <g id="Grupo_1027862" data-name="Grupo 1027862" transform="translate(31.585 32.58)">
        <ellipse id="Elipse_8685" data-name="Elipse 8685" cx="1.032" cy="1.032" rx="1.032" ry="1.032"/>
      </g>
    </g>
    <g id="Grupo_1027915" data-name="Grupo 1027915" transform="translate(1036.911 3363)">
      <g id="Grupo_1027864" data-name="Grupo 1027864" transform="translate(6.504 44.135)">
        <path id="Trazado_773100" data-name="Trazado 773100" d="M102.992,162.117a4.162,4.162,0,0,0-3.139-3.8L93.8,156.789a20.645,20.645,0,0,1-3.092-1.047.8.8,0,0,1-.229.5l-4.246,4.246a.8.8,0,0,1-1.137,0l-1.9-1.9a.8.8,0,0,1-.228-.649h-2.18a.8.8,0,0,1-.228.649l-1.9,1.9a.8.8,0,0,1-1.137,0l-4.246-4.246a.8.8,0,0,1-.229-.5,20.662,20.662,0,0,1-3.085,1.043L63.9,158.313a4.161,4.161,0,0,0-3.139,3.8L59.6,182.224a1.157,1.157,0,0,0,1.155,1.221H103a1.157,1.157,0,0,0,1.155-1.221Z" transform="translate(-59.594 -155.742)" fill="#70d6f9"/>
      </g>
      <g id="Grupo_1027865" data-name="Grupo 1027865" transform="translate(19.951 41.364)">
        <path id="Trazado_773101" data-name="Trazado 773101" d="M114.563,150.443l-4.246-4.246a.8.8,0,0,0-1.137,0l-1.9,1.9a.8.8,0,0,0,0,1.137l4.246,4.246a.8.8,0,0,0,1.137,0l1.9-1.9A.8.8,0,0,0,114.563,150.443Z" transform="translate(-107.044 -145.962)" fill="#9be5f9"/>
      </g>
      <g id="Grupo_1027866" data-name="Grupo 1027866" transform="translate(29.87 41.364)">
        <path id="Trazado_773102" data-name="Trazado 773102" d="M142.279,150.443l4.246-4.246a.8.8,0,0,1,1.137,0l1.9,1.9a.8.8,0,0,1,0,1.137l-4.246,4.246a.8.8,0,0,1-1.137,0l-1.9-1.9A.8.8,0,0,1,142.279,150.443Z" transform="translate(-142.044 -145.962)" fill="#9be5f9"/>
      </g>
      <g id="Grupo_1027867" data-name="Grupo 1027867" transform="translate(19.23 51.464)">
        <path id="Trazado_773103" data-name="Trazado 773103" d="M121.426,183.787h0a7.486,7.486,0,0,0-7.37-1.885,7.464,7.464,0,0,0-7.371,12.442l3.011,3.011a6.175,6.175,0,0,0,8.721,0l3.01-3.01A7.458,7.458,0,0,0,121.426,183.787Z" transform="translate(-104.501 -181.604)" fill="#f98fa6"/>
      </g>
      <g id="Grupo_1027868" data-name="Grupo 1027868" transform="translate(21.823 54.056)">
        <path id="Trazado_773104" data-name="Trazado 773104" d="M126.15,192.174a4.88,4.88,0,0,0-5.538-.954,4.872,4.872,0,0,0-5.538,7.844l3.01,3.01a3.573,3.573,0,0,0,5.055,0l3.01-3.01a4.869,4.869,0,0,0,0-6.89Z" transform="translate(-113.65 -190.749)" fill="#fc657e"/>
      </g>
      <g id="Grupo_1027869" data-name="Grupo 1027869" transform="translate(18.241 15.872)">
        <path id="Trazado_773105" data-name="Trazado 773105" d="M113.137,56.225c-3.852,4.844-9.534,4.16-11.445,3.761a.563.563,0,0,0-.681.544V69.02a10.546,10.546,0,0,0,21.093,0V59.626q0-.082,0-.165a.565.565,0,0,0-.544-.554c-4.381-.128-6.69-1.865-7.577-2.734A.568.568,0,0,0,113.137,56.225Z" transform="translate(-101.011 -56.009)" fill="#f9d0b4"/>
      </g>
      <g id="Grupo_1027871" data-name="Grupo 1027871" transform="translate(14.817 6.048)">
        <g id="Grupo_1027870" data-name="Grupo 1027870">
          <path id="Trazado_773106" data-name="Trazado 773106" d="M91.676,36.139a4.438,4.438,0,0,1,.677.054v-.507a.563.563,0,0,1,.681-.544c1.911.4,7.593,1.083,11.445-3.761a.568.568,0,0,1,.844-.053c.887.869,3.2,2.606,7.577,2.734a.565.565,0,0,1,.544.554q0,.082,0,.165v1.411a4.377,4.377,0,0,1,3.731,1.182v-7.92a6.042,6.042,0,0,0-6.024-6.024,5.966,5.966,0,0,0-3.077.859,6.031,6.031,0,0,0-5.166-2.949H99.815A10.918,10.918,0,0,0,88.929,32.227V37.1a4.382,4.382,0,0,1,2.747-.965Z" transform="translate(-88.929 -21.341)" fill="#754e34"/>
        </g>
      </g>
      <g id="Grupo_1027872" data-name="Grupo 1027872" transform="translate(39.307 20.846)">
        <path id="Trazado_773107" data-name="Trazado 773107" d="M176.05,73.561a4.438,4.438,0,0,0-.677.054V81.6c0,.238-.011.473-.027.707a4.4,4.4,0,1,0,.7-8.745Z" transform="translate(-175.347 -73.561)" fill="#f9d0b4"/>
      </g>
      <g id="Grupo_1027873" data-name="Grupo 1027873" transform="translate(13.161 20.846)">
        <path id="Trazado_773108" data-name="Trazado 773108" d="M88.164,81.6V73.615a4.4,4.4,0,1,0,.027,8.691h0C88.175,82.072,88.164,81.836,88.164,81.6Z" transform="translate(-83.084 -73.561)" fill="#f9d0b4"/>
      </g>
      <g id="Grupo_1027874" data-name="Grupo 1027874" transform="translate(43.471 59.37)">
        <path id="Trazado_773109" data-name="Trazado 773109" d="M190.041,221.969h6.443a1.157,1.157,0,0,0,1.155-1.221l-.652-11.248h-6.945Z" transform="translate(-190.041 -209.5)" fill="#f9d0b4"/>
      </g>
      <g id="Grupo_1027875" data-name="Grupo 1027875" transform="translate(6.504 59.37)">
        <path id="Trazado_773110" data-name="Trazado 773110" d="M67.346,209.5h-7.1L59.6,220.748a1.157,1.157,0,0,0,1.155,1.221h6.6Z" transform="translate(-59.594 -209.5)" fill="#f9d0b4"/>
      </g>
      <g id="Grupo_1027876" data-name="Grupo 1027876" transform="translate(24.415 56.646)">
        <path id="Trazado_773111" data-name="Trazado 773111" d="M130.874,200.557a2.279,2.279,0,0,0-3.224,0l-.177.177a.43.43,0,0,1-.608,0l-.177-.177a2.279,2.279,0,0,0-3.224,3.224l3.01,3.01a.982.982,0,0,0,1.389,0l3.01-3.01a2.279,2.279,0,0,0,0-3.224Z" transform="translate(-122.796 -199.889)" fill="#ef4460"/>
      </g>
      <g id="Grupo_1027877" data-name="Grupo 1027877" transform="translate(24.52 29.774)">
        <path id="Trazado_773112" data-name="Trazado 773112" d="M131,105.063h-7.127a.7.7,0,0,0-.663.936,4.479,4.479,0,0,0,8.453,0A.7.7,0,0,0,131,105.063Z" transform="translate(-123.168 -105.063)" fill="#fc657e"/>
      </g>
      <g id="Grupo_1027878" data-name="Grupo 1027878" transform="translate(23.423 38.233)">
        <path id="Trazado_773113" data-name="Trazado 773113" d="M123.571,143.016h2.18a.8.8,0,0,1,.228-.489l4.05-4.05a3.628,3.628,0,0,1-.509-1.845v-1.716a10.461,10.461,0,0,1-9.717,0v1.716a3.635,3.635,0,0,1-.506,1.849l4.047,4.047a.8.8,0,0,1,.228.488Z" transform="translate(-119.296 -134.915)" fill="#f9d0b4"/>
      </g>
      <g id="Grupo_1027879" data-name="Grupo 1027879" transform="translate(31.441 23.812)">
        <path id="Trazado_773114" data-name="Trazado 773114" d="M148.3,86.067a.708.708,0,0,1-.543-1.163,2.715,2.715,0,0,1,4,0,.708.708,0,1,1-1.086.91,1.309,1.309,0,0,0-1.825,0,.708.708,0,0,1-.544.253Z" transform="translate(-147.59 -84.027)"/>
      </g>
      <g id="Grupo_1027880" data-name="Grupo 1027880" transform="translate(21.806 23.812)">
        <path id="Trazado_773115" data-name="Trazado 773115" d="M114.3,86.067a.708.708,0,0,1-.543-1.163,2.715,2.715,0,0,1,4,0,.708.708,0,0,1-1.086.91,1.309,1.309,0,0,0-1.825,0,.708.708,0,0,1-.544.253Z" transform="translate(-113.59 -84.027)"/>
      </g>
      <g id="Grupo_1027881" data-name="Grupo 1027881" transform="translate(42.763 53.643)">
        <path id="Trazado_773116" data-name="Trazado 773116" d="M188.249,207.914a.708.708,0,0,1-.708-.708V190a.708.708,0,0,1,1.417,0v17.2A.708.708,0,0,1,188.249,207.914Z" transform="translate(-187.541 -189.293)"/>
      </g>
      <g id="Grupo_1027882" data-name="Grupo 1027882" transform="translate(13.548 53.643)">
        <path id="Trazado_773117" data-name="Trazado 773117" d="M85.159,207.914a.708.708,0,0,1-.708-.708V190a.708.708,0,0,1,1.417,0v17.2A.708.708,0,0,1,85.159,207.914Z" transform="translate(-84.451 -189.293)"/>
      </g>
      <g id="Grupo_1027883" data-name="Grupo 1027883" transform="translate(5.796 43.474)">
        <path id="Trazado_773118" data-name="Trazado 773118" d="M101.212,182.482H58.96a1.866,1.866,0,0,1-1.863-1.969l1.166-20.108a4.849,4.849,0,0,1,3.674-4.451L68,154.429a20.017,20.017,0,0,0,2.878-.964.708.708,0,0,1,.55,1.306,21.423,21.423,0,0,1-3.082,1.032l-6.061,1.525a3.438,3.438,0,0,0-2.6,3.157l-1.166,20.108a.448.448,0,0,0,.448.472h42.252a.448.448,0,0,0,.448-.473l-1.166-20.105a3.438,3.438,0,0,0-2.6-3.158L91.835,155.8a21.388,21.388,0,0,1-3.067-1.028.708.708,0,1,1,.549-1.306,19.989,19.989,0,0,0,2.864.96l6.054,1.524a4.849,4.849,0,0,1,3.674,4.452l1.166,20.105a1.865,1.865,0,0,1-1.863,1.971Z" transform="translate(-57.094 -153.41)"/>
      </g>
      <g id="Grupo_1027884" data-name="Grupo 1027884" transform="translate(19.243 40.656)">
        <path id="Trazado_773119" data-name="Trazado 773119" d="M110.3,152.636a1.5,1.5,0,0,1-1.07-.443l-4.246-4.246a1.513,1.513,0,0,1,0-2.139l1.9-1.9a1.514,1.514,0,0,1,2.139,0l4.246,4.246h0a1.515,1.515,0,0,1,0,2.139l-1.9,1.9A1.5,1.5,0,0,1,110.3,152.636Zm-2.346-7.754a.1.1,0,0,0-.068.028l-1.9,1.9a.1.1,0,0,0,0,.135l4.246,4.246a.083.083,0,0,0,.135,0l1.9-1.9a.1.1,0,0,0,0-.135l-4.246-4.246a.1.1,0,0,0-.068-.028Z" transform="translate(-104.545 -143.465)"/>
      </g>
      <g id="Grupo_1027885" data-name="Grupo 1027885" transform="translate(29.161 40.656)">
        <path id="Trazado_773120" data-name="Trazado 773120" d="M142.957,152.633a1.508,1.508,0,0,1-1.069-.442l-1.9-1.9a1.512,1.512,0,0,1,0-2.139l4.246-4.246a1.512,1.512,0,0,1,2.139,0l1.9,1.9a1.515,1.515,0,0,1,0,2.139l-4.246,4.246A1.508,1.508,0,0,1,142.957,152.633Zm2.346-7.753a.093.093,0,0,0-.067.028l-4.246,4.246a.1.1,0,0,0,0,.135l1.9,1.9a.1.1,0,0,0,.135,0l4.246-4.246a.1.1,0,0,0,0-.135l-1.9-1.9a.094.094,0,0,0-.068-.028Zm-4.814,3.773h0Z" transform="translate(-139.545 -143.463)"/>
      </g>
      <g id="Grupo_1027886" data-name="Grupo 1027886" transform="translate(18.523 50.754)">
        <path id="Trazado_773121" data-name="Trazado 773121" d="M112.266,198.069a6.857,6.857,0,0,1-4.861-2.009l-3.011-3.011a8.172,8.172,0,0,1,7.872-13.678,8.177,8.177,0,0,1,7.864,2.112l.008.008a8.182,8.182,0,0,1,0,11.558l-3.01,3.01A6.854,6.854,0,0,1,112.266,198.069Zm-2.092-17.553a6.754,6.754,0,0,0-4.778,11.531l3.011,3.011a5.466,5.466,0,0,0,7.719,0l3.01-3.01a6.764,6.764,0,0,0,.007-9.547l-.008-.008a6.761,6.761,0,0,0-6.671-1.706.707.707,0,0,1-.4,0A6.777,6.777,0,0,0,110.174,180.516Z" transform="translate(-102.004 -179.098)"/>
      </g>
      <g id="Grupo_1027887" data-name="Grupo 1027887" transform="translate(21.115 53.347)">
        <path id="Trazado_773122" data-name="Trazado 773122" d="M118.823,202.036a4.272,4.272,0,0,1-3.029-1.252l-3.01-3.01a5.58,5.58,0,0,1,6.039-9.119,5.6,5.6,0,0,1,6.038,1.226h0a5.587,5.587,0,0,1,0,7.892l-3.01,3.01A4.27,4.27,0,0,1,118.823,202.036Zm-2.089-12.369a4.161,4.161,0,0,0-2.948,7.105l3.01,3.01a2.87,2.87,0,0,0,4.054,0l3.01-3.01a4.163,4.163,0,0,0-4.733-6.7.709.709,0,0,1-.608,0A4.157,4.157,0,0,0,116.735,189.666Z" transform="translate(-111.152 -188.249)"/>
      </g>
      <g id="Grupo_1027888" data-name="Grupo 1027888" transform="translate(17.533 15.164)">
        <path id="Trazado_773123" data-name="Trazado 773123" d="M109.766,78.484A11.268,11.268,0,0,1,98.511,67.23V58.746a1.261,1.261,0,0,1,.467-.986,1.275,1.275,0,0,1,1.067-.259c2.051.429,7.2.946,10.745-3.508h0a1.276,1.276,0,0,1,1.895-.118c.735.72,2.9,2.409,7.1,2.532a1.271,1.271,0,0,1,1.232,1.248q0,.089,0,.179V67.23A11.268,11.268,0,0,1,109.766,78.484ZM99.928,58.924V67.23a9.838,9.838,0,0,0,19.676,0V57.819c-4.294-.16-6.7-1.788-7.8-2.825C107.783,59.924,101.908,59.306,99.928,58.924Zm11.417-4.489h0Z" transform="translate(-98.511 -53.51)"/>
      </g>
      <g id="Grupo_1027890" data-name="Grupo 1027890" transform="translate(14.108 5.339)">
        <g id="Grupo_1027889" data-name="Grupo 1027889">
          <path id="Trazado_773124" data-name="Trazado 773124" d="M115.383,36.09a.708.708,0,0,1-.708-.708V27.663a5.3,5.3,0,0,0-8.029-4.558.709.709,0,0,1-.972-.243,5.352,5.352,0,0,0-4.559-2.6H98.022A10.189,10.189,0,0,0,87.844,30.436v4.728a.708.708,0,1,1-1.417,0V30.436A11.608,11.608,0,0,1,98.022,18.841h3.093a6.771,6.771,0,0,1,5.4,2.731,6.668,6.668,0,0,1,2.846-.642,6.74,6.74,0,0,1,6.733,6.733v7.718A.709.709,0,0,1,115.383,36.09Z" transform="translate(-86.427 -18.841)"/>
        </g>
      </g>
      <g id="Grupo_1027891" data-name="Grupo 1027891" transform="translate(38.882 20.137)">
        <path id="Trazado_773125" data-name="Trazado 773125" d="M174.974,81.283a4.612,4.612,0,0,1-.495-.027.708.708,0,1,1,.149-1.409,3.311,3.311,0,0,0,.345.019,3.695,3.695,0,0,0,0-7.39c-.11,0-.224.006-.338.016a.708.708,0,1,1-.135-1.41c.159-.015.318-.023.473-.023a5.112,5.112,0,1,1,0,10.223Z" transform="translate(-173.845 -71.06)"/>
      </g>
      <g id="Grupo_1027892" data-name="Grupo 1027892" transform="translate(12.453 20.137)">
        <path id="Trazado_773126" data-name="Trazado 773126" d="M85.7,81.282a5.111,5.111,0,1,1,.565-10.191A.709.709,0,0,1,86.1,72.5a3.593,3.593,0,0,0-.405-.024,3.695,3.695,0,0,0,0,7.39,3.3,3.3,0,0,0,.38-.023.708.708,0,1,1,.162,1.408A4.706,4.706,0,0,1,85.7,81.282Z" transform="translate(-80.585 -71.058)"/>
      </g>
      <g id="Grupo_1027893" data-name="Grupo 1027893" transform="translate(43.052 58.661)">
        <path id="Trazado_773127" data-name="Trazado 773127" d="M195.683,208.417h-6.412a.708.708,0,1,1,0-1.417h6.412a.708.708,0,0,1,0,1.417Z" transform="translate(-188.563 -207)"/>
      </g>
      <g id="Grupo_1027894" data-name="Grupo 1027894" transform="translate(6.655 58.661)">
        <path id="Trazado_773128" data-name="Trazado 773128" d="M67.4,208.417H60.833a.708.708,0,1,1,0-1.417H67.4a.708.708,0,1,1,0,1.417Z" transform="translate(-60.125 -207)"/>
      </g>
      <g id="Grupo_1027895" data-name="Grupo 1027895" transform="translate(23.706 55.937)">
        <path id="Trazado_773129" data-name="Trazado 773129" d="M125.377,205.994a1.68,1.68,0,0,1-1.2-.5l-3.01-3.01a2.988,2.988,0,0,1,4.206-4.245,2.988,2.988,0,0,1,4.206,4.245l-3.01,3.01A1.68,1.68,0,0,1,125.377,205.994Zm-2.093-7.189a1.571,1.571,0,0,0-1.111,2.682l3.01,3.01a.274.274,0,0,0,.388,0l3.01-3.01a1.571,1.571,0,0,0-2.222-2.221l-.177.177a1.138,1.138,0,0,1-1.61,0l-.177-.177A1.56,1.56,0,0,0,123.284,198.805Z" transform="translate(-120.296 -197.388)"/>
      </g>
      <g id="Grupo_1027896" data-name="Grupo 1027896" transform="translate(23.813 29.065)">
        <path id="Trazado_773130" data-name="Trazado 773130" d="M125.646,107.913a5.206,5.206,0,0,1-4.894-3.468,1.411,1.411,0,0,1,1.331-1.881h7.127a1.411,1.411,0,0,1,1.331,1.881A5.207,5.207,0,0,1,125.646,107.913Zm-3.564-3.932a3.777,3.777,0,0,0,7.119,0Zm7.127,0h0Z" transform="translate(-120.671 -102.564)"/>
      </g>
      <g id="Grupo_1027897" data-name="Grupo 1027897" transform="translate(22.809 37.785)">
        <path id="Trazado_773131" data-name="Trazado 773131" d="M117.838,137.885a.709.709,0,0,1-.628-1.036,2.938,2.938,0,0,0,.331-1.351v-1.456a.708.708,0,0,1,1.417,0V135.5a4.36,4.36,0,0,1-.491,2.006A.708.708,0,0,1,117.838,137.885Z" transform="translate(-117.13 -133.333)"/>
      </g>
      <g id="Grupo_1027898" data-name="Grupo 1027898" transform="translate(32.938 37.749)">
        <path id="Trazado_773132" data-name="Trazado 773132" d="M153.991,137.786a.709.709,0,0,1-.629-.382,4.344,4.344,0,0,1-.491-2v-1.492a.708.708,0,0,1,1.417,0v1.492a2.921,2.921,0,0,0,.332,1.342.708.708,0,0,1-.628,1.035Z" transform="translate(-152.87 -133.208)"/>
      </g>
      <g id="Grupo_1027899" data-name="Grupo 1027899" transform="translate(27.188 45.625)">
        <path id="Trazado_773133" data-name="Trazado 773133" d="M135.075,162.417h-1.783a.708.708,0,0,1,0-1.417h1.783a.708.708,0,1,1,0,1.417Z" transform="translate(-132.583 -161)"/>
      </g>
      <g id="Grupo_1027902" data-name="Grupo 1027902" transform="translate(0 54.694)">
        <g id="Grupo_1027901" data-name="Grupo 1027901">
          <g id="Grupo_1027900" data-name="Grupo 1027900">
            <path id="Trazado_773134" data-name="Trazado 773134" d="M40.291,194.761a2.207,2.207,0,0,1-1.77-1.73c0-.04-.08-.04-.08,0a2.206,2.206,0,0,1-1.77,1.73c-.04,0-.04.06,0,.08a2.207,2.207,0,0,1,1.77,1.73c0,.04.08.04.08,0a2.206,2.206,0,0,1,1.77-1.73C40.331,194.82,40.331,194.761,40.291,194.761Z" transform="translate(-36.642 -193.001)" fill="#fc657e"/>
          </g>
        </g>
      </g>
      <g id="Grupo_1027905" data-name="Grupo 1027905" transform="translate(46.409 30.889)">
        <g id="Grupo_1027904" data-name="Grupo 1027904">
          <g id="Grupo_1027903" data-name="Grupo 1027903">
            <path id="Trazado_773135" data-name="Trazado 773135" d="M204.432,110.559h-.652v-.652a.913.913,0,0,0-.907-.907.9.9,0,0,0-.907.907v.652h-.652a.913.913,0,0,0-.907.907.9.9,0,0,0,.907.907h.652v.652a.913.913,0,0,0,.907.907.9.9,0,0,0,.907-.907v-.652h.652a.913.913,0,0,0,.907-.907A.9.9,0,0,0,204.432,110.559Z" transform="translate(-200.408 -109)" fill="#70d6f9"/>
          </g>
        </g>
      </g>
      <g id="Grupo_1027908" data-name="Grupo 1027908" transform="translate(42.413 39.107)">
        <g id="Grupo_1027907" data-name="Grupo 1027907">
          <g id="Grupo_1027906" data-name="Grupo 1027906">
            <ellipse id="Elipse_8686" data-name="Elipse 8686" cx="0.964" cy="0.964" rx="0.964" ry="0.964" fill="#f5c84c"/>
          </g>
        </g>
      </g>
      <g id="Grupo_1027911" data-name="Grupo 1027911" transform="translate(7.004 5.384)">
        <g id="Grupo_1027910" data-name="Grupo 1027910">
          <g id="Grupo_1027909" data-name="Grupo 1027909">
            <path id="Trazado_773136" data-name="Trazado 773136" d="M66.558,21.508a3.145,3.145,0,0,1-2.522-2.465c0-.057-.113-.057-.113,0A3.145,3.145,0,0,1,61.4,21.508c-.057,0-.057.085,0,.113a3.145,3.145,0,0,1,2.522,2.465c0,.057.113.057.113,0a3.145,3.145,0,0,1,2.522-2.465C66.615,21.593,66.615,21.508,66.558,21.508Z" transform="translate(-61.358 -19)" fill="#f5c84c"/>
          </g>
        </g>
      </g>
      <g id="Grupo_1027914" data-name="Grupo 1027914" transform="translate(14.925)">
        <g id="Grupo_1027913" data-name="Grupo 1027913">
          <g id="Grupo_1027912" data-name="Grupo 1027912">
            <ellipse id="Elipse_8687" data-name="Elipse 8687" cx="0.964" cy="0.964" rx="0.964" ry="0.964" fill="#87d147"/>
          </g>
        </g>
      </g>
    </g>
    <g id="Grupo_1027916" data-name="Grupo 1027916" transform="translate(505.018 3407.136)">
      <path id="Trazado_773137" data-name="Trazado 773137" d="M65.082,162.117a4.162,4.162,0,0,0-3.139-3.8l-6.054-1.524a20.645,20.645,0,0,1-3.092-1.047.8.8,0,0,1-.229.5l-4.246,4.246a.8.8,0,0,1-1.137,0l-1.9-1.9a.8.8,0,0,1-.228-.649h-2.18a.8.8,0,0,1-.228.649l-1.9,1.9a.8.8,0,0,1-1.137,0l-4.246-4.246a.8.8,0,0,1-.229-.5,20.662,20.662,0,0,1-3.085,1.043l-6.061,1.525a4.161,4.161,0,0,0-3.139,3.8l-1.166,20.107a1.157,1.157,0,0,0,1.155,1.221H65.093a1.157,1.157,0,0,0,1.155-1.221Z" transform="translate(-21.684 -155.742)" fill="#70d6f9"/>
    </g>
    <g id="Grupo_1027917" data-name="Grupo 1027917" transform="translate(518.465 3404.364)">
      <path id="Trazado_773138" data-name="Trazado 773138" d="M76.653,150.443,72.407,146.2a.8.8,0,0,0-1.137,0l-1.9,1.9a.8.8,0,0,0,0,1.137l4.246,4.246a.8.8,0,0,0,1.137,0l1.9-1.9A.8.8,0,0,0,76.653,150.443Z" transform="translate(-69.134 -145.962)" fill="#9be5f9"/>
    </g>
    <g id="Grupo_1027918" data-name="Grupo 1027918" transform="translate(528.383 3404.364)">
      <path id="Trazado_773139" data-name="Trazado 773139" d="M104.37,150.443l4.246-4.246a.8.8,0,0,1,1.137,0l1.9,1.9a.8.8,0,0,1,0,1.137l-4.246,4.246a.8.8,0,0,1-1.137,0l-1.9-1.9A.8.8,0,0,1,104.37,150.443Z" transform="translate(-104.135 -145.962)" fill="#9be5f9"/>
    </g>
    <g id="Grupo_1027919" data-name="Grupo 1027919" transform="translate(516.755 3378.873)">
      <path id="Trazado_773140" data-name="Trazado 773140" d="M82.052,58.781a10.274,10.274,0,0,1-5.981-2.608.568.568,0,0,0-.844.053c-3.852,4.844-9.534,4.16-11.445,3.761a.563.563,0,0,0-.681.544v8.491a10.546,10.546,0,0,0,21.093,0V63.966a14.841,14.841,0,0,1-2.142-5.186Z" transform="translate(-63.101 -56.009)" fill="#f9d0b4"/>
    </g>
    <g id="Grupo_1027920" data-name="Grupo 1027920" transform="translate(513.331 3369.049)">
      <path id="Trazado_773141" data-name="Trazado 773141" d="M73.142,29.683a14.679,14.679,0,0,1,1.838-5.992,5.944,5.944,0,0,0-4.815.6A6.031,6.031,0,0,0,65,21.342H61.9A10.918,10.918,0,0,0,51.019,32.228v4.878a4.382,4.382,0,0,1,2.747-.965,4.438,4.438,0,0,1,.677.054v-.507a.563.563,0,0,1,.681-.544c1.911.4,7.593,1.083,11.445-3.761a.568.568,0,0,1,.844-.053,10.275,10.275,0,0,0,5.981,2.608,15.117,15.117,0,0,1-.252-4.254Z" transform="translate(-51.019 -21.342)" fill="#754e34"/>
    </g>
    <g id="Grupo_1027921" data-name="Grupo 1027921" transform="translate(537.82 3386.83)">
      <path id="Trazado_773142" data-name="Trazado 773142" d="M137.464,84.088v5.054c0,.238-.011.473-.027.707a4.344,4.344,0,0,0,4.137-1.589A15.016,15.016,0,0,1,137.464,84.088Z" transform="translate(-137.437 -84.088)" fill="#f9d0b4"/>
    </g>
    <g id="Grupo_1027922" data-name="Grupo 1027922" transform="translate(511.675 3383.847)">
      <path id="Trazado_773143" data-name="Trazado 773143" d="M50.255,81.6V73.615a4.4,4.4,0,1,0,.027,8.691h0C50.266,82.072,50.255,81.836,50.255,81.6Z" transform="translate(-45.175 -73.561)" fill="#f9d0b4"/>
    </g>
    <g id="Grupo_1027923" data-name="Grupo 1027923" transform="translate(541.984 3422.37)">
      <path id="Trazado_773144" data-name="Trazado 773144" d="M152.131,221.969h6.443a1.157,1.157,0,0,0,1.155-1.221l-.652-11.248h-6.945Z" transform="translate(-152.131 -209.5)" fill="#f9d0b4"/>
    </g>
    <g id="Grupo_1027924" data-name="Grupo 1027924" transform="translate(505.018 3422.37)">
      <path id="Trazado_773145" data-name="Trazado 773145" d="M29.437,209.5h-7.1l-.652,11.248a1.157,1.157,0,0,0,1.155,1.221h6.6V209.5Z" transform="translate(-21.684 -209.5)" fill="#f9d0b4"/>
    </g>
    <g id="Grupo_1027925" data-name="Grupo 1027925" transform="translate(521.937 3401.233)">
      <path id="Trazado_773146" data-name="Trazado 773146" d="M85.661,143.016h2.18a.8.8,0,0,1,.228-.489l4.05-4.05a3.627,3.627,0,0,1-.509-1.845v-1.716a10.461,10.461,0,0,1-9.717,0v1.716a3.635,3.635,0,0,1-.506,1.849l4.047,4.047A.8.8,0,0,1,85.661,143.016Z" transform="translate(-81.386 -134.915)" fill="#f9d0b4"/>
    </g>
    <g id="Grupo_1027926" data-name="Grupo 1027926" transform="translate(529.954 3386.813)">
      <path id="Trazado_773147" data-name="Trazado 773147" d="M113.3,86.067a.706.706,0,0,1-.543-.253,1.309,1.309,0,0,0-1.825,0,.708.708,0,1,1-1.086-.91,2.716,2.716,0,0,1,4,0,.708.708,0,0,1-.543,1.164Z" transform="translate(-109.679 -84.026)"/>
    </g>
    <g id="Grupo_1027927" data-name="Grupo 1027927" transform="translate(520.319 3386.813)">
      <path id="Trazado_773148" data-name="Trazado 773148" d="M79.3,86.067a.706.706,0,0,1-.543-.253,1.309,1.309,0,0,0-1.825,0,.708.708,0,1,1-1.086-.91,2.716,2.716,0,0,1,4,0,.708.708,0,0,1-.543,1.164Z" transform="translate(-75.679 -84.026)"/>
    </g>
    <g id="Grupo_1027928" data-name="Grupo 1027928" transform="translate(541.276 3416.645)">
      <path id="Trazado_773149" data-name="Trazado 773149" d="M150.339,207.914a.708.708,0,0,1-.708-.708V190a.708.708,0,0,1,1.417,0v17.2A.708.708,0,0,1,150.339,207.914Z" transform="translate(-149.631 -189.294)"/>
    </g>
    <g id="Grupo_1027929" data-name="Grupo 1027929" transform="translate(512.063 3416.645)">
      <path id="Trazado_773150" data-name="Trazado 773150" d="M47.25,207.914a.708.708,0,0,1-.708-.708V190a.708.708,0,0,1,1.417,0v17.2A.708.708,0,0,1,47.25,207.914Z" transform="translate(-46.542 -189.294)"/>
    </g>
    <g id="Grupo_1027930" data-name="Grupo 1027930" transform="translate(504.31 3406.457)">
      <path id="Trazado_773151" data-name="Trazado 773151" d="M63.3,182.437H21.05a1.866,1.866,0,0,1-1.862-1.969l1.166-20.108a4.849,4.849,0,0,1,3.674-4.451l6.061-1.526a19.939,19.939,0,0,0,2.919-.981.708.708,0,0,1,.553,1.3,21.391,21.391,0,0,1-3.127,1.051l-6.061,1.526a3.438,3.438,0,0,0-2.605,3.157L20.6,180.548a.449.449,0,0,0,.447.472H63.3a.449.449,0,0,0,.448-.474l-1.166-20.1a3.438,3.438,0,0,0-2.605-3.158l-6.054-1.524a21.482,21.482,0,0,1-3.119-1.049.708.708,0,1,1,.553-1.3,19.953,19.953,0,0,0,2.912.98l6.054,1.524A4.849,4.849,0,0,1,64,160.361l1.166,20.1a1.865,1.865,0,0,1-1.863,1.971Z" transform="translate(-19.185 -153.346)"/>
    </g>
    <g id="Grupo_1027931" data-name="Grupo 1027931" transform="translate(517.757 3403.656)">
      <path id="Trazado_773152" data-name="Trazado 773152" d="M72.4,152.633a1.508,1.508,0,0,1-1.069-.442l-4.246-4.246a1.514,1.514,0,0,1,0-2.139l1.9-1.9a1.513,1.513,0,0,1,2.139,0l4.246,4.246a1.514,1.514,0,0,1,0,2.139l-1.9,1.9A1.508,1.508,0,0,1,72.4,152.633ZM70.05,144.88a.094.094,0,0,0-.067.028l-1.9,1.9a.1.1,0,0,0,0,.135l4.246,4.246a.1.1,0,0,0,.135,0l1.9-1.9a.1.1,0,0,0,0-.135l-4.246-4.246A.094.094,0,0,0,70.05,144.88Z" transform="translate(-66.638 -143.464)"/>
    </g>
    <g id="Grupo_1027932" data-name="Grupo 1027932" transform="translate(527.675 3403.657)">
      <path id="Trazado_773153" data-name="Trazado 773153" d="M105.048,152.635a1.507,1.507,0,0,1-1.069-.442l-1.9-1.9a1.512,1.512,0,0,1,0-2.139l4.246-4.246a1.515,1.515,0,0,1,2.139,0l1.9,1.9a1.514,1.514,0,0,1,0,2.139l-4.246,4.246A1.508,1.508,0,0,1,105.048,152.635Zm2.346-7.753a.1.1,0,0,0-.068.028l-4.245,4.246h0a.1.1,0,0,0,0,.135l1.9,1.9a.084.084,0,0,0,.135,0l4.246-4.246a.1.1,0,0,0,0-.135l-1.9-1.9A.1.1,0,0,0,107.394,144.882Zm-4.814,3.773h0Z" transform="translate(-101.636 -143.466)"/>
    </g>
    <g id="Grupo_1027933" data-name="Grupo 1027933" transform="translate(516.046 3378.164)">
      <path id="Trazado_773154" data-name="Trazado 773154" d="M71.855,78.483A11.268,11.268,0,0,1,60.6,67.228V58.744A1.271,1.271,0,0,1,62.135,57.5c2.05.43,7.2.946,10.745-3.508a1.276,1.276,0,0,1,1.895-.118,9.538,9.538,0,0,0,5.547,2.408.709.709,0,1,1-.187,1.4,11.068,11.068,0,0,1-6.241-2.694c-4.02,4.931-9.9,4.313-11.876,3.93v8.307a9.838,9.838,0,0,0,19.676,0V62.2a.708.708,0,1,1,1.417,0v5.027A11.268,11.268,0,0,1,71.855,78.483Z" transform="translate(-60.6 -53.507)"/>
    </g>
    <g id="Grupo_1027934" data-name="Grupo 1027934" transform="translate(512.622 3368.34)">
      <path id="Trazado_773155" data-name="Trazado 773155" d="M49.227,35.948a.708.708,0,0,1-.708-.708v-4.8A11.607,11.607,0,0,1,60.113,18.842h3.093a6.77,6.77,0,0,1,5.4,2.731,6.7,6.7,0,0,1,4.681-.384.709.709,0,1,1-.389,1.363,5.282,5.282,0,0,0-4.16.554.709.709,0,0,1-.972-.244,5.352,5.352,0,0,0-4.559-2.6H60.113A10.189,10.189,0,0,0,49.936,30.437v4.8a.709.709,0,0,1-.708.708Z" transform="translate(-48.519 -18.842)"/>
    </g>
    <g id="Grupo_1027935" data-name="Grupo 1027935" transform="translate(537.344 3390.435)">
      <path id="Trazado_773156" data-name="Trazado 773156" d="M136.934,99.734a4.676,4.676,0,0,1-.555-.034.708.708,0,1,1,.166-1.407,3.326,3.326,0,0,0,.389.024,3.693,3.693,0,0,0,2.783-1.268.708.708,0,0,1,1.068.931A5.11,5.11,0,0,1,136.934,99.734Z" transform="translate(-135.753 -96.807)"/>
    </g>
    <g id="Grupo_1027936" data-name="Grupo 1027936" transform="translate(510.967 3383.139)">
      <path id="Trazado_773157" data-name="Trazado 773157" d="M47.787,81.284a5.112,5.112,0,1,1,0-10.223,4.977,4.977,0,0,1,.557.031.709.709,0,1,1-.16,1.408,3.548,3.548,0,0,0-.4-.023,3.695,3.695,0,1,0,0,7.389,3.367,3.367,0,0,0,.4-.026.708.708,0,0,1,.17,1.406,4.723,4.723,0,0,1-.573.036Z" transform="translate(-42.675 -71.061)"/>
    </g>
    <g id="Grupo_1027937" data-name="Grupo 1027937" transform="translate(541.476 3421.662)">
      <path id="Trazado_773158" data-name="Trazado 773158" d="M157.6,208.417h-6.556a.708.708,0,0,1,0-1.417H157.6a.708.708,0,0,1,0,1.417Z" transform="translate(-150.333 -207)"/>
    </g>
    <g id="Grupo_1027938" data-name="Grupo 1027938" transform="translate(505.178 3421.662)">
      <path id="Trazado_773159" data-name="Trazado 773159" d="M29.618,208.417h-6.66a.708.708,0,1,1,0-1.417h6.66a.708.708,0,1,1,0,1.417Z" transform="translate(-22.25 -207)"/>
    </g>
    <g id="Grupo_1027939" data-name="Grupo 1027939" transform="translate(531.451 3400.638)">
      <path id="Trazado_773160" data-name="Trazado 773160" d="M116.131,137.594a.709.709,0,0,1-.62-.364,4.347,4.347,0,0,1-.55-2.106v-1.6a.708.708,0,0,1,1.417,0v1.6a2.923,2.923,0,0,0,.372,1.417.709.709,0,0,1-.619,1.053Z" transform="translate(-114.961 -132.812)"/>
    </g>
    <g id="Grupo_1027940" data-name="Grupo 1027940" transform="translate(525.653 3408.626)">
      <path id="Trazado_773161" data-name="Trazado 773161" d="M97.145,162.417H95.208a.708.708,0,1,1,0-1.417h1.936a.708.708,0,1,1,0,1.417Z" transform="translate(-94.5 -161)"/>
    </g>
    <g id="Grupo_1027941" data-name="Grupo 1027941" transform="translate(521.305 3400.7)">
      <path id="Trazado_773162" data-name="Trazado 773162" d="M79.864,137.7a.709.709,0,0,1-.624-1.043,2.931,2.931,0,0,0,.345-1.378V133.74a.708.708,0,0,1,1.417,0v1.542a4.358,4.358,0,0,1-.513,2.047A.709.709,0,0,1,79.864,137.7Z" transform="translate(-79.156 -133.032)"/>
    </g>
    <g id="Grupo_1027942" data-name="Grupo 1027942" transform="translate(535.402 3363.709)">
      <path id="Trazado_773163" data-name="Trazado 773163" d="M158.777,17.436a14.937,14.937,0,1,0-20.353,13.92,1.834,1.834,0,0,1,1.183,1.7V35.89a1,1,0,0,0,1.553.836l7.608-5.014a9.7,9.7,0,0,1,1.3-.7A14.934,14.934,0,0,0,158.777,17.436Z" transform="translate(-128.905 -2.5)" fill="#f5c84c"/>
    </g>
    <g id="Grupo_1027943" data-name="Grupo 1027943" transform="translate(543.625 3382.226)">
      <path id="Trazado_773164" data-name="Trazado 773164" d="M170.791,67.841H158.472a.557.557,0,0,0-.522.745,7.085,7.085,0,0,0,13.363,0,.557.557,0,0,0-.522-.745Z" transform="translate(-157.917 -67.841)" fill="#fc657e"/>
    </g>
    <g id="Grupo_1027944" data-name="Grupo 1027944" transform="translate(534.694 3363)">
      <path id="Trazado_773165" data-name="Trazado 773165" d="M138.816,35.807a1.711,1.711,0,0,1-1.71-1.711V31.267a1.123,1.123,0,0,0-.731-1.045A15.645,15.645,0,0,1,141.05.029,15.523,15.523,0,0,1,152.76,4.24a15.644,15.644,0,0,1-4.193,25.624,8.788,8.788,0,0,0-1.2.646l-7.608,5.014A1.7,1.7,0,0,1,138.816,35.807Zm3.242-34.392q-.459,0-.921.029A14.228,14.228,0,0,0,136.89,28.9a2.531,2.531,0,0,1,1.634,2.365V34.1a.293.293,0,0,0,.455.244l7.608-5.014a10.114,10.114,0,0,1,1.391-.751,14.272,14.272,0,0,0,8.3-12.934A14.228,14.228,0,0,0,142.059,1.415Z" transform="translate(-126.405 0.002)"/>
    </g>
    <g id="Grupo_1027947" data-name="Grupo 1027947" transform="translate(540.562 3373.203)">
      <g id="Grupo_1027945" data-name="Grupo 1027945" transform="translate(11.902)">
        <path id="Trazado_773166" data-name="Trazado 773166" d="M196.053,40.534a.708.708,0,0,1-.708-.708,2.409,2.409,0,1,0-4.818,0,.708.708,0,1,1-1.417,0,3.826,3.826,0,0,1,7.651,0A.708.708,0,0,1,196.053,40.534Z" transform="translate(-189.11 -36)"/>
      </g>
      <g id="Grupo_1027946" data-name="Grupo 1027946">
        <path id="Trazado_773167" data-name="Trazado 773167" d="M154.053,40.534a.708.708,0,0,1-.708-.708,2.409,2.409,0,1,0-4.818,0,.708.708,0,1,1-1.417,0,3.826,3.826,0,0,1,7.651,0A.708.708,0,0,1,154.053,40.534Z" transform="translate(-147.11 -36)"/>
      </g>
    </g>
    <g id="Grupo_1027948" data-name="Grupo 1027948" transform="translate(542.917 3381.518)">
      <path id="Trazado_773168" data-name="Trazado 773168" d="M162.841,72.232a7.8,7.8,0,0,1-7.35-5.2,1.265,1.265,0,0,1,1.19-1.689H169a1.265,1.265,0,0,1,1.19,1.689,7.8,7.8,0,0,1-7.349,5.2Zm-5.94-5.474a6.376,6.376,0,0,0,11.879,0Zm12.1,0h0Z" transform="translate(-155.419 -65.341)"/>
    </g>
    <g id="Grupo_1027949" data-name="Grupo 1027949" transform="translate(523.297 3393.396)">
      <path id="Trazado_773169" data-name="Trazado 773169" d="M90.19,110.09a5.018,5.018,0,0,1-3.839-1.665.708.708,0,1,1,1.086-.91,3.848,3.848,0,0,0,5.505,0,.708.708,0,1,1,1.086.91A5.017,5.017,0,0,1,90.19,110.09Z" transform="translate(-86.186 -107.261)"/>
    </g>
    <g id="Grupo_1027952" data-name="Grupo 1027952" transform="translate(508.086 3367.252)">
      <g id="Grupo_1027951" data-name="Grupo 1027951">
        <g id="Grupo_1027950" data-name="Grupo 1027950">
          <path id="Trazado_773170" data-name="Trazado 773170" d="M32.555,17.508a3.145,3.145,0,0,0,2.522-2.465c0-.057.113-.057.113,0a3.145,3.145,0,0,0,2.522,2.465c.057,0,.057.085,0,.113a3.145,3.145,0,0,0-2.522,2.465c0,.057-.113.057-.113,0a3.145,3.145,0,0,0-2.522-2.465c-.057-.028-.057-.113,0-.113Z" transform="translate(-32.512 -15)" fill="#f5c84c"/>
        </g>
      </g>
    </g>
    <g id="Grupo_1027955" data-name="Grupo 1027955" transform="translate(539.912 3399.477)">
      <g id="Grupo_1027954" data-name="Grupo 1027954">
        <g id="Grupo_1027953" data-name="Grupo 1027953">
          <path id="Trazado_773171" data-name="Trazado 773171" d="M144.85,130.746a2.55,2.55,0,0,0,2.045-2c0-.046.092-.046.092,0a2.55,2.55,0,0,0,2.045,2c.046,0,.046.069,0,.092a2.55,2.55,0,0,0-2.045,2c0,.046-.092.046-.092,0a2.55,2.55,0,0,0-2.045-2C144.8,130.815,144.8,130.746,144.85,130.746Z" transform="translate(-144.816 -128.712)" fill="#fc657e"/>
        </g>
      </g>
    </g>
    <g id="Grupo_1027958" data-name="Grupo 1027958" transform="translate(553.145 3425.119)">
      <g id="Grupo_1027957" data-name="Grupo 1027957">
        <g id="Grupo_1027956" data-name="Grupo 1027956">
          <ellipse id="Elipse_8688" data-name="Elipse 8688" cx="0.964" cy="0.964" rx="0.964" ry="0.964" fill="#f5c84c"/>
        </g>
      </g>
    </g>
    <g id="Grupo_1027961" data-name="Grupo 1027961" transform="translate(517.722 3363)">
      <g id="Grupo_1027960" data-name="Grupo 1027960" transform="translate(0 0)">
        <g id="Grupo_1027959" data-name="Grupo 1027959">
          <ellipse id="Elipse_8689" data-name="Elipse 8689" cx="0.964" cy="0.964" rx="0.964" ry="0.964" fill="#70d6f9"/>
        </g>
      </g>
    </g>
    <g id="Grupo_1027964" data-name="Grupo 1027964" transform="translate(553.173 3414.86)">
      <g id="Grupo_1027963" data-name="Grupo 1027963">
        <g id="Grupo_1027962" data-name="Grupo 1027962">
          <path id="Trazado_773172" data-name="Trazado 773172" d="M195.636,184.559h-.652v-.652a.913.913,0,0,0-.907-.907.9.9,0,0,0-.907.907v.652h-.652a.913.913,0,0,0-.907.907.9.9,0,0,0,.907.907h.652v.652a.913.913,0,0,0,.907.907.9.9,0,0,0,.907-.907v-.652h.652a.913.913,0,0,0,.907-.907A.9.9,0,0,0,195.636,184.559Z" transform="translate(-191.612 -183)" fill="#87d147"/>
        </g>
      </g>
    </g>
  </g>
</svg>
