<svg xmlns="http://www.w3.org/2000/svg" xmlns:xlink="http://www.w3.org/1999/xlink" width="525" height="325" viewBox="0 0 525 325">
  <defs>
    <clipPath id="clip-path">
      <rect id="Rectángulo_360883" data-name="Rectángulo 360883" width="72.514" height="72.514" transform="translate(209.235 223.612)" fill="none"/>
    </clipPath>
    <clipPath id="clip-path-2">
      <rect id="Rectángulo_360884" data-name="Rectángulo 360884" width="490.983" height="296.126" fill="none"/>
    </clipPath>
    <clipPath id="clip-path-3">
      <rect id="Rectángulo_360885" data-name="Rectángulo 360885" width="89.512" height="89.513" transform="translate(270.82 77.276)" fill="none"/>
    </clipPath>
  </defs>
  <g id="Grupo_1028060" data-name="Grupo 1028060" transform="translate(-810 -1204)">
    <path id="Trazado_773898" data-name="Trazado 773898" d="M38.563,11.211A4.025,4.025,0,0,1,37.207,14.1a4.76,4.76,0,0,1-3.223,1.055,4.281,4.281,0,0,1-3.441-1.473,6.038,6.038,0,0,1-1.254-4.043v-.7a6.819,6.819,0,0,1,.578-2.891A4.332,4.332,0,0,1,31.52,4.137a5.164,5.164,0,0,1,5.668.387,4.326,4.326,0,0,1,1.391,2.961H36.234a2.376,2.376,0,0,0-.613-1.6,2.271,2.271,0,0,0-1.605-.5,1.991,1.991,0,0,0-1.754.84,4.707,4.707,0,0,0-.6,2.605V9.7a5.038,5.038,0,0,0,.559,2.7,1.954,1.954,0,0,0,1.762.852,2.314,2.314,0,0,0,1.621-.5,2.241,2.241,0,0,0,.613-1.535ZM44.852,15a2.507,2.507,0,0,1-.227-.758,2.732,2.732,0,0,1-2.133.914,3,3,0,0,1-2.059-.719,2.312,2.312,0,0,1-.816-1.812,2.389,2.389,0,0,1,1-2.062,4.915,4.915,0,0,1,2.879-.727h1.039V9.352a1.393,1.393,0,0,0-.3-.937,1.183,1.183,0,0,0-.949-.352,1.345,1.345,0,0,0-.895.273.929.929,0,0,0-.324.75H39.8a2.268,2.268,0,0,1,.453-1.359,3,3,0,0,1,1.281-.98A4.669,4.669,0,0,1,43.4,6.391a3.689,3.689,0,0,1,2.48.785A2.747,2.747,0,0,1,46.8,9.383v3.664a4.041,4.041,0,0,0,.336,1.82V15Zm-1.867-1.57a1.945,1.945,0,0,0,.922-.223,1.462,1.462,0,0,0,.625-.6V11.156h-.844q-1.7,0-1.8,1.172l-.008.133a.9.9,0,0,0,.3.7A1.153,1.153,0,0,0,42.984,13.43Zm8.141-.25h4.133V15H48.242V13.625l3.977-5.258H48.359V6.547h6.773v1.33ZM61.57,15a2.507,2.507,0,0,1-.227-.758,2.732,2.732,0,0,1-2.133.914,3,3,0,0,1-2.059-.719,2.312,2.312,0,0,1-.816-1.812,2.389,2.389,0,0,1,1-2.062,4.915,4.915,0,0,1,2.879-.727H61.25V9.352a1.393,1.393,0,0,0-.3-.937A1.183,1.183,0,0,0,60,8.063a1.345,1.345,0,0,0-.895.273.929.929,0,0,0-.324.75H56.523a2.268,2.268,0,0,1,.453-1.359,3,3,0,0,1,1.281-.98,4.669,4.669,0,0,1,1.859-.355,3.689,3.689,0,0,1,2.48.785,2.747,2.747,0,0,1,.918,2.207v3.664a4.041,4.041,0,0,0,.336,1.82V15ZM59.7,13.43a1.945,1.945,0,0,0,.922-.223,1.462,1.462,0,0,0,.625-.6V11.156h-.844q-1.7,0-1.8,1.172l-.008.133a.9.9,0,0,0,.3.7A1.153,1.153,0,0,0,59.7,13.43Z" transform="translate(1221 1501)" fill="#12263f"/>
    <path id="Trazado_773899" data-name="Trazado 773899" d="M0,0H525V325H0Z" transform="translate(810 1204)" fill="none"/>
    <g id="Grupo_1027995" data-name="Grupo 1027995" transform="translate(827 1207)">
      <g id="Grupo_1027988" data-name="Grupo 1027988">
        <g id="Grupo_1027987" data-name="Grupo 1027987" clip-path="url(#clip-path)">
          <path id="Trazado_773300" data-name="Trazado 773300" d="M213.17,261.129l-2.873-2.874,26.823-26.823a2.032,2.032,0,1,1,2.873,2.874Z" fill="#ffab56"/>
          <path id="Trazado_773301" data-name="Trazado 773301" d="M227.687,240.865c1.234.674,2.428,1.4,3.568,2.179l5.134-5.135a30.9,30.9,0,0,0-2.705-3.041Z" fill="#ff982a"/>
          <path id="Trazado_773302" data-name="Trazado 773302" d="M217.666,250.887l-7.369,7.369,2.873,2.874,26.823-26.824a2.032,2.032,0,0,0-2.873-2.873l-16.54,16.54" fill="none" stroke="#000" stroke-linecap="round" stroke-linejoin="round" stroke-width="2.124"/>
          <path id="Trazado_773303" data-name="Trazado 773303" d="M242.289,250.751c-4.464-7.491-12.855-12.671-21.943-15.538l7.556-7.556c7.994,3.961,13.981,11.545,16.346,21.135l-1.959,1.959" fill="#f5f0f4"/>
          <path id="Trazado_773304" data-name="Trazado 773304" d="M242.289,250.751c-4.464-7.491-12.855-12.671-21.943-15.538l7.556-7.556c7.994,3.961,13.981,11.545,16.346,21.135Z" fill="none" stroke="#000" stroke-linecap="round" stroke-linejoin="round" stroke-width="2.124"/>
          <path id="Trazado_773305" data-name="Trazado 773305" d="M280.686,232.676l-14.717,3.562-5.6,13.1-9.982,1.275-10.265,18.4-6.552,1.189-2.32,6.876-10.865,1.964-3.655,13.044h63.957Z" fill="#6c5e69"/>
          <path id="Trazado_773306" data-name="Trazado 773306" d="M280.686,232.676l-3.139.76v58.646h3.139Z" fill="#574d56"/>
          <path id="Trazado_773307" data-name="Trazado 773307" d="M269.629,292.081h11.057V232.675l-14.717,3.562-5.6,13.1-9.982,1.274-10.265,18.4-6.552,1.188-2.32,6.876-10.865,1.965-3.655,13.043h48.793" fill="none" stroke="#000" stroke-linecap="round" stroke-linejoin="round" stroke-width="2.124"/>
          <line id="Línea_3513" data-name="Línea 3513" x1="6.433" transform="translate(210.297 292.081)" fill="none" stroke="#000" stroke-linecap="round" stroke-linejoin="round" stroke-width="2.124"/>
          <path id="Trazado_773308" data-name="Trazado 773308" d="M257.316,253.124a4.159,4.159,0,0,1-3.65-4.471c.124-1.539.624-3.066,2.007-3.61,3.147-1.239,7.311-3.065,8.55,0s2.541,2.5,2.043,6.245c-.325,2.43-5.418,2.257-8.95,1.836" fill="#ffe270"/>
          <path id="Trazado_773309" data-name="Trazado 773309" d="M264.223,245.043c-.74-1.828-2.52-1.916-4.505-1.425a2.478,2.478,0,0,1,1.324,1.425c1.24,3.065,2.542,2.5,2.043,6.245-.175,1.311-1.737,1.863-3.692,2.029,3.174.2,6.608-.047,6.872-2.029.5-3.743-.8-3.18-2.042-6.245" fill="#ffd250"/>
          <path id="Trazado_773310" data-name="Trazado 773310" d="M240.118,272.539a4.159,4.159,0,0,1-3.65-4.471c.125-1.54.624-3.066,2.007-3.61,3.147-1.239,7.311-3.065,8.55,0s2.542,2.5,2.043,6.245c-.324,2.43-5.418,2.257-8.95,1.836" fill="#ffe270"/>
          <path id="Trazado_773311" data-name="Trazado 773311" d="M247.025,264.457c-.72-1.781-2.428-1.909-4.35-1.462a2.479,2.479,0,0,1,1.4,1.462c1.24,3.064,2.541,2.5,2.042,6.245-.177,1.333-1.791,1.882-3.793,2.037,3.136.188,6.478-.083,6.739-2.037.5-3.743-.8-3.181-2.043-6.245" fill="#ffd250"/>
          <path id="Trazado_773312" data-name="Trazado 773312" d="M240.118,272.539a4.159,4.159,0,0,1-3.65-4.471c.125-1.54.624-3.066,2.007-3.61,3.147-1.239,7.311-3.065,8.55,0s2.542,2.5,2.043,6.245C248.744,273.133,243.65,272.96,240.118,272.539Z" fill="none" stroke="#000" stroke-linecap="round" stroke-linejoin="round" stroke-width="2.124"/>
          <path id="Trazado_773313" data-name="Trazado 773313" d="M268.163,235.706l3.283,9.318,5.454,2.111,3.786-3.773" fill="none" stroke="#000" stroke-linecap="round" stroke-linejoin="round" stroke-width="2.124"/>
          <path id="Trazado_773314" data-name="Trazado 773314" d="M229.157,277.452l4.777,3.89-3.2,10.74" fill="none" stroke="#000" stroke-linecap="round" stroke-linejoin="round" stroke-width="2.124"/>
          <path id="Trazado_773315" data-name="Trazado 773315" d="M246.589,292.081l6.328-8.132,18.529-6.5h9.241" fill="none" stroke="#000" stroke-linecap="round" stroke-linejoin="round" stroke-width="2.124"/>
          <path id="Trazado_773316" data-name="Trazado 773316" d="M258.573,281.3a3.171,3.171,0,0,1,1.221-4.228,2.961,2.961,0,0,1,3.134-.307c2.142,1.436,5.092,3.255,3.708,5.362s-.467,2.678-3.03,3.989c-1.665.851-3.765-2.418-5.033-4.816" fill="#ffe270"/>
          <path id="Trazado_773317" data-name="Trazado 773317" d="M262.929,276.766a2.96,2.96,0,0,0-3.134.307c-.067.038-.129.081-.192.124a1.745,1.745,0,0,1,.208.12c2.142,1.436,5.092,3.255,3.708,5.361-1.036,1.578-.783,2.295-1.666,3.106a1.637,1.637,0,0,0,1.754.333c2.563-1.311,1.646-1.883,3.03-3.99s-1.566-3.925-3.708-5.361" fill="#ffd250"/>
          <path id="Trazado_773318" data-name="Trazado 773318" d="M258.573,281.3a3.171,3.171,0,0,1,1.221-4.228,2.961,2.961,0,0,1,3.134-.307c2.142,1.436,5.092,3.255,3.708,5.362s-.467,2.678-3.03,3.989C261.941,286.967,259.841,283.7,258.573,281.3Z" fill="none" stroke="#000" stroke-linecap="round" stroke-linejoin="round" stroke-width="2.124"/>
          <path id="Trazado_773319" data-name="Trazado 773319" d="M247.447,255.876l7.455,7.949,16.166-.357,9.618-5.684" fill="none" stroke="#000" stroke-linecap="round" stroke-linejoin="round" stroke-width="2.124"/>
          <path id="Trazado_773320" data-name="Trazado 773320" d="M267.043,264.787a3.17,3.17,0,0,1,1.221-4.228,2.961,2.961,0,0,1,3.134-.307c2.142,1.436,5.092,3.255,3.708,5.362s-.467,2.678-3.03,3.989c-1.665.851-3.765-2.418-5.033-4.816" fill="#ffe270"/>
          <path id="Trazado_773321" data-name="Trazado 773321" d="M271.4,260.253a2.7,2.7,0,0,0-2.753.1c2.126,1.42,4.907,3.2,3.556,5.259-1.185,1.8-.685,2.483-2.125,3.463a1.8,1.8,0,0,0,2,.526c2.563-1.31,1.646-1.882,3.03-3.989s-1.566-3.925-3.708-5.361" fill="#ffd250"/>
          <path id="Trazado_773322" data-name="Trazado 773322" d="M267.043,264.787a3.17,3.17,0,0,1,1.221-4.228,2.961,2.961,0,0,1,3.134-.307c2.142,1.436,5.092,3.255,3.708,5.362s-.467,2.678-3.03,3.989C270.411,270.454,268.311,267.185,267.043,264.787Z" fill="none" stroke="#000" stroke-linecap="round" stroke-linejoin="round" stroke-width="2.124"/>
          <line id="Línea_3514" data-name="Línea 3514" x1="1.555" y2="2.912" transform="translate(246.588 239.648)" fill="none" stroke="#000" stroke-linecap="round" stroke-linejoin="round" stroke-width="2.124"/>
          <line id="Línea_3515" data-name="Línea 3515" x1="2.201" y2="2.46" transform="translate(249.797 241.814)" fill="none" stroke="#000" stroke-linecap="round" stroke-linejoin="round" stroke-width="2.124"/>
          <line id="Línea_3516" data-name="Línea 3516" y1="1.042" x2="3.133" transform="translate(235.879 256.596)" fill="none" stroke="#000" stroke-linecap="round" stroke-linejoin="round" stroke-width="2.124"/>
          <line id="Línea_3517" data-name="Línea 3517" y1="0.269" x2="3.291" transform="translate(234.574 253.144)" fill="none" stroke="#000" stroke-linecap="round" stroke-linejoin="round" stroke-width="2.124"/>
          <path id="Trazado_773323" data-name="Trazado 773323" d="M261.744,263.85l-8.093,8.94,1.478,10.383" fill="none" stroke="#000" stroke-linecap="round" stroke-linejoin="round" stroke-width="2.124"/>
          <path id="Trazado_773324" data-name="Trazado 773324" d="M261.656,253.368c2.365-.065,4.408-.569,4.609-2.08.5-3.742-.8-3.18-2.043-6.245s-5.4-1.239-8.549,0c-1.384.545-1.883,2.071-2.008,3.61a4.16,4.16,0,0,0,3.65,4.472l.234.027" fill="none" stroke="#000" stroke-linecap="round" stroke-linejoin="round" stroke-width="2.124"/>
        </g>
      </g>
      <path id="Trazado_773325" data-name="Trazado 773325" d="M173.238,109.819l-8.994-1.435-4.347,2.373L154.1,121.741l5.795,11.277,12.118-.22,3.209-2.576,4.9-8.481-1.081-6.42Z" fill="#fee45a"/>
      <g id="Grupo_1027990" data-name="Grupo 1027990">
        <g id="Grupo_1027989" data-name="Grupo 1027989" clip-path="url(#clip-path-2)">
          <path id="Trazado_773326" data-name="Trazado 773326" d="M193.887,121.741l-9.754-1.04-3.587,1.978-5.795,10.984,5.795,11.277,12.118-.22,3.209-2.576,4.377-8.035a3.817,3.817,0,0,0,.268-.881Z" fill="#fee45a"/>
          <path id="Trazado_773327" data-name="Trazado 773327" d="M200.521,134.093l-4.648,8.051-3.209,2.576-12.118.22-5.795-11.277,5.37-11.922,2.739-.844,2.606.844a.841.841,0,0,0-.331,1.155,10.914,10.914,0,0,1,1.335,4.123.514.514,0,0,0,.451.449A25.826,25.826,0,0,1,198.64,131.7c.146.1.29.208.435.313a15.293,15.293,0,0,1,1.443,1.214.863.863,0,0,1,0,.865" fill="#ffd15b"/>
          <path id="Trazado_773328" data-name="Trazado 773328" d="M175.225,130.223l-1.986,3.439H159.471l-5.764-4.51-1.118-7.41,1.987-5.938,4.895-5.984,2.139-1.085,1.834,1.085L157.106,120.8a1.892,1.892,0,0,0,0,1.892l3.123,5.407a4.255,4.255,0,0,0,3.686,2.128Z" fill="#ffd15b"/>
          <path id="Trazado_773329" data-name="Trazado 773329" d="M172.742,85.976h-9.3l-3.546.938L154.1,97.9l5.8,11.277,12.118-.22,5.137-2.781,2.968-8.276-6.634-11.492A.861.861,0,0,0,172.742,85.976Z" fill="#fee45a"/>
          <path id="Trazado_773330" data-name="Trazado 773330" d="M175.225,106.379l.3,2.136-2.289,1.3H159.471l-5.369-4.683L152.589,97.9,159.223,86.4a.86.86,0,0,1,.745-.429h3.476l-6.338,10.976a1.892,1.892,0,0,0,0,1.892l3.8,6.589a1.894,1.894,0,0,0,1.639.946Z" fill="#ffd15b"/>
          <path id="Trazado_773331" data-name="Trazado 773331" d="M152.589,97.9H142.8l-3.547.939-5.795,10.983,5.795,11.277,12.118-.22,3.209-2.576,4.9-8.481Z" fill="#fee45a"/>
          <path id="Trazado_773332" data-name="Trazado 773332" d="M154.576,118.3l-1.986,3.439-6.918,1.835-6.85-1.835-6.633-11.49a.858.858,0,0,1,0-.86l6.385-11.063a.86.86,0,0,1,.745-.429h3.476l-6.338,10.976a1.892,1.892,0,0,0,0,1.892l3.8,6.589a1.894,1.894,0,0,0,1.639.946Z" fill="#ffd15b"/>
          <path id="Trazado_773333" data-name="Trazado 773333" d="M193.39,97.9h-9.3l-3.546.938-5.8,10.984,5.8,11.277,12.118-.22,3.209-2.576,4.648-8.052a.856.856,0,0,0,0-.859l-6.386-11.062A.861.861,0,0,0,193.39,97.9Z" fill="#fee45a"/>
          <path id="Trazado_773334" data-name="Trazado 773334" d="M195.874,118.3l-1.986,3.439H180.12l-6.882-11.92L180.12,97.9h3.973l-6.338,10.976a1.892,1.892,0,0,0,0,1.892l3.8,6.589a1.894,1.894,0,0,0,1.639.946Z" fill="#ffd15b"/>
          <path id="Trazado_773335" data-name="Trazado 773335" d="M152.589,121.741H142.8l-3.547.939-5.795,10.983,5.795,11.277,12.118-.22,3.209-2.576,4.9-8.481Z" fill="#fee45a"/>
          <path id="Trazado_773336" data-name="Trazado 773336" d="M154.576,142.144l-1.986,3.439H139.319a.861.861,0,0,1-.745-.43l-6.385-11.06a.858.858,0,0,1,0-.86l6.633-11.492h3.973l-6.338,10.976a1.892,1.892,0,0,0,0,1.892l3.8,6.589a1.894,1.894,0,0,0,1.639.946Z" fill="#ffd15b"/>
          <path id="Trazado_773337" data-name="Trazado 773337" d="M175.362,147.767a17.862,17.862,0,0,0-9.612,2.545c-.476,2.291.487,4.571,1.634,6.63l7.978-1.667,8.569,1.791a16.612,16.612,0,0,0,1.146-2.574s.242-3.7.248-3.731a15.589,15.589,0,0,0-9.963-2.994" fill="#878382"/>
          <path id="Trazado_773338" data-name="Trazado 773338" d="M186.148,148a20.83,20.83,0,0,1-.227,3.064,22.6,22.6,0,0,0-21.12,0,20.847,20.847,0,0,1-.227-3.063c0-8.242,4.83-14.923,10.787-14.923S186.148,139.762,186.148,148Z" fill="#ffd15b"/>
          <path id="Trazado_773339" data-name="Trazado 773339" d="M170.726,161.484l2.31,2.957-.056,1.671,1.763,3.621a.688.688,0,0,0,1.236,0l1.763-3.621.168-1.518,2.086-3.11Z" fill="#878382"/>
          <path id="Trazado_773340" data-name="Trazado 773340" d="M180,161.484l-2.254,4.628a11.2,11.2,0,0,1-4.762,0l-2.255-4.628Z" fill="#7a7473"/>
          <path id="Trazado_773341" data-name="Trazado 773341" d="M183.931,157.067a11.216,11.216,0,0,1-6.077,5.461s-1.635.058-2.493.058c-3.493,0-6.6-1.956-8.57-5.519a16.339,16.339,0,0,1,17.14,0" fill="#ffd15b"/>
          <path id="Trazado_773342" data-name="Trazado 773342" d="M185.921,151.068c-.006.028-.01.055-.015.083a18.639,18.639,0,0,1-.83,3.341,21.215,21.215,0,0,1-7.265-5.914l4.864.18A32.753,32.753,0,0,0,185.921,151.068Z" fill="#7a7473"/>
          <path id="Trazado_773343" data-name="Trazado 773343" d="M172.915,148.578c-1.775.189-5.116.4-5.116.4-.848.315-1.791,1.449-3,2.087a16.61,16.61,0,0,0,.842,3.421h0a16.775,16.775,0,0,0,1.145,2.58H168.7l1.013-1.429c-.294-.675-.605-1.486-.9-2.335a.857.857,0,0,1,.281-.954,24.148,24.148,0,0,0,3.824-3.77" fill="#7a7473"/>
          <path id="Trazado_773344" data-name="Trazado 773344" d="M181.459,127.612c0,3.8-2.3,6.881-6.1,6.881s-6.414-3.081-6.414-6.881c0-.287-.448-.57-.414-.847a6.881,6.881,0,0,1,13.658,0c.034.277-.731.56-.731.847" fill="#ffd15b"/>
          <path id="Trazado_773345" data-name="Trazado 773345" d="M182.242,127.613a6.881,6.881,0,0,1-13.762,0,6.993,6.993,0,0,1,.051-.848c.193,0,.386,0,.578,0,.411,0,.829.007,1.243.021a8.7,8.7,0,0,1,4.53,1.419.868.868,0,0,0,.96,0,8.681,8.681,0,0,1,4.526-1.419c.414-.014.832-.021,1.243-.021.194,0,.386,0,.579,0A7,7,0,0,1,182.242,127.613Z" fill="#fec165"/>
          <path id="Trazado_773346" data-name="Trazado 773346" d="M177.854,162.528a7.961,7.961,0,0,1-2.494.4c-3.492,0-6.6-2.3-8.569-5.862a15.919,15.919,0,0,1,2.918-1.429c.183.423.36.793.522,1.085,1.789,3.238,4.519,5.434,7.623,5.8" fill="#fec165"/>
          <path id="Trazado_773347" data-name="Trazado 773347" d="M164.8,151.067c.005.028.009.057.014.084h-.17l.156-.084" fill="#ffd15b"/>
          <path id="Trazado_773348" data-name="Trazado 773348" d="M186.075,151.151h-.169c.006-.028.009-.055.014-.083Z" fill="#ffd15b"/>
          <path id="Trazado_773349" data-name="Trazado 773349" d="M186.148,148a20.83,20.83,0,0,1-.227,3.064,22.183,22.183,0,0,0-8.11-2.49,25.807,25.807,0,0,1-2.01-2.844.515.515,0,0,0-.882.01,24.721,24.721,0,0,1-2,2.834,22.181,22.181,0,0,0-8.114,2.489,20.847,20.847,0,0,1-.227-3.063c0-8.242,4.83-14.923,10.787-14.923s10.787,6.681,10.787,14.923" fill="#fec165"/>
          <path id="Trazado_773350" data-name="Trazado 773350" d="M166.107,149.754q-.185.129-.37.252c-6.978,4.629-13.58-.425-14.632-6.553-.182-1.061-.451-3.225-.451-3.225a9.563,9.563,0,0,1,3.9-5.888q.18-.132.364-.261c4.836-3.387,10.867-4,15.332-3.862a5.262,5.262,0,0,1,4.824,3.546s-.621,2.7-1,3.862c-1.4,4.243-3.125,8.743-7.961,12.129" fill="#fff9e2"/>
          <path id="Trazado_773351" data-name="Trazado 773351" d="M175.36,135.475v0a5.318,5.318,0,0,1-.268,1.659c-1.4,4.243-4.036,9.7-8.874,13.087q-.183.129-.369.252c-8.2,5.438-16.629-2.785-15.195-10.247,1.149,6.225,8.256,11.412,15.195,6.808.124-.082.247-.167.369-.253,4.812-3.368,7.449-8.788,8.853-13.02a5.2,5.2,0,0,1,.289,1.712" fill="#fff5c6"/>
          <path id="Trazado_773352" data-name="Trazado 773352" d="M184.614,149.754q.185.129.37.252c6.978,4.629,13.58-.425,14.632-6.553.182-1.061.451-3.225.451-3.225a9.563,9.563,0,0,0-3.9-5.888c-.12-.088-.242-.175-.364-.261-4.836-3.387-10.867-4-15.332-3.862a5.262,5.262,0,0,0-4.824,3.546s.621,2.7,1,3.862c1.4,4.243,3.125,8.743,7.961,12.129" fill="#fff9e2"/>
          <path id="Trazado_773353" data-name="Trazado 773353" d="M175.361,135.475v0a5.318,5.318,0,0,0,.268,1.659c1.4,4.243,4.036,9.7,8.874,13.087q.183.129.369.252c8.2,5.438,16.629-2.785,15.2-10.247-1.149,6.225-8.256,11.412-15.2,6.808-.124-.082-.247-.167-.369-.253-4.812-3.368-7.449-8.788-8.853-13.02a5.2,5.2,0,0,0-.289,1.712" fill="#fff5c6"/>
          <path id="Trazado_773354" data-name="Trazado 773354" d="M195.376,121.74l6.511-11.276a1.292,1.292,0,0,0,0-1.29L195,97.252a1.291,1.291,0,0,0-1.117-.645H180.865l-6.51-11.276a1.289,1.289,0,0,0-1.117-.645H159.472a1.291,1.291,0,0,0-1.117.645l-6.51,11.277H138.823a1.29,1.29,0,0,0-1.117.644l-6.883,11.922a1.292,1.292,0,0,0,0,1.29l6.511,11.277-6.511,11.276a1.292,1.292,0,0,0,0,1.29l1.564,2.708a1.29,1.29,0,0,0,2.234-1.29l-1.191-2.063,6.138-10.632h12.277l5.1,8.825a20.829,20.829,0,0,0-3.144,1.887,10.448,10.448,0,0,0-4.409,10.552h-9.819l-1.938-3.356a1.29,1.29,0,0,0-2.234,1.289l2.31,4a1.29,1.29,0,0,0,1.117.644h11.351a12.31,12.31,0,0,0,1.208,2.156,11.487,11.487,0,0,0,6.514,4.622,10.377,10.377,0,0,0,5.964-.294,16.091,16.091,0,0,0,5.87,9.445l4.482,9.2a1.29,1.29,0,0,0,2.319,0l4.489-9.219c2.971-2.079,4.972-5.69,5.864-9.433a10.26,10.26,0,0,0,9.972-1.685,1.29,1.29,0,0,0-1.582-2.038,8.032,8.032,0,0,1-10.021-.026c-4.611-3.228-7.106-8.543-8.387-12.434a3.978,3.978,0,0,1,3.659-5.226c4.1-.126,9.942.4,14.553,3.63a8.119,8.119,0,0,1,3.335,9.747,1.29,1.29,0,0,0,2.423.884,10.419,10.419,0,0,0-.675-8.909l1.726-2.99a1.292,1.292,0,0,0,0-1.29Zm3.9-11.921-6.139,10.632H180.558a12.7,12.7,0,0,1,4.851-2.764,1.289,1.289,0,1,0-.77-2.461A15.464,15.464,0,0,0,179.45,118l-4.723-8.179,6.138-10.632h12.277ZM139.568,99.187h12.277l1.874,3.246a1.289,1.289,0,1,0,2.233-1.29L154.078,97.9l6.139-10.632h12.276L178.632,97.9l-6.139,10.632H160.217l-1.247-2.159a1.29,1.29,0,0,0-2.234,1.29l1.247,2.159-6.138,10.632H139.568l-6.138-10.632Zm14.51,22.553,6.139-10.631h12.276l5.066,8.773c-.067.081-.132.162-.2.245a8.156,8.156,0,0,0-3.984,0,14.78,14.78,0,0,0-7.274-4.9,1.29,1.29,0,0,0-.77,2.462,12.392,12.392,0,0,1,5.588,3.516,8.156,8.156,0,0,0-3.609,8.192,29.07,29.07,0,0,0-7.967,1.469Zm-.583,25.809c-2.308-3.295-2.718-8.372,1.834-11.732,4.061-3.059,9.791-3.924,13.8-3.889.373,0,.736.006,1.085.017a3.98,3.98,0,0,1,3.66,5.226c-1.263,3.9-3.978,9.55-8.731,12.668C160.432,152.966,155.8,150.844,153.495,147.549Zm30.992,4.7a16.856,16.856,0,0,1-1.1,3.465,17.287,17.287,0,0,0-4.775-1.63,1.29,1.29,0,0,0-.47,2.537,14.745,14.745,0,0,1,3.993,1.348c-1.748,2.548-4.168,4.109-6.767,4.109s-5.02-1.561-6.767-4.108a14.717,14.717,0,0,1,3.992-1.349,1.29,1.29,0,1,0-.47-2.536,17.277,17.277,0,0,0-4.775,1.63,16.906,16.906,0,0,1-1.1-3.464,20.869,20.869,0,0,1,9.116-2.074,21.185,21.185,0,0,1,9.115,2.072m-9.115,16.246-1.976-4.058a8.984,8.984,0,0,0,3.952,0Zm4.41-20.48a23.691,23.691,0,0,0-8.814-.009,28.986,28.986,0,0,0,4.4-7.451,28.957,28.957,0,0,0,4.41,7.46m-4.411-15.99a6.691,6.691,0,0,0-5.437-2.667,5.591,5.591,0,1,1,10.875,0,6.734,6.734,0,0,0-5.438,2.667m21.576,1.717c-3.965-2.987-9.4-4.177-13.517-4.346a8.246,8.246,0,0,0,.112-1.345,8.127,8.127,0,0,0-1.732-5.021h11.332l6.139,10.632-.812,1.406a12.484,12.484,0,0,0-1.522-1.326"/>
        </g>
      </g>
      <g id="Grupo_1027992" data-name="Grupo 1027992">
        <g id="Grupo_1027991" data-name="Grupo 1027991" clip-path="url(#clip-path-3)">
          <path id="Trazado_773355" data-name="Trazado 773355" d="M315.576,161.589a14.715,14.715,0,0,1,10.191,3.829.206.206,0,0,0,.348-.165c-.545-8.009-5.055-14.258-10.539-14.258s-9.994,6.249-10.539,14.258a.206.206,0,0,0,.348.165,14.715,14.715,0,0,1,10.191-3.829" fill="#fde35c"/>
          <path id="Trazado_773356" data-name="Trazado 773356" d="M337.3,161.589a14.715,14.715,0,0,1,10.191,3.829.206.206,0,0,0,.348-.165c-.545-8.009-5.056-14.258-10.539-14.258s-9.994,6.249-10.539,14.258a.206.206,0,0,0,.348.165,14.715,14.715,0,0,1,10.191-3.829" fill="#fca75c"/>
          <path id="Trazado_773357" data-name="Trazado 773357" d="M356.385,134.1h-9.432l2.414-16.9a16.262,16.262,0,0,1,7.24,13.529v3.144a.221.221,0,0,1-.222.222" fill="#fca75c"/>
          <path id="Trazado_773358" data-name="Trazado 773358" d="M341.511,99.743l-4.04,12.121a.181.181,0,0,1-.343,0l-4.04-12.121a.181.181,0,0,0-.315-.054c-3.868,5.083-8.638,14.269-8.638,24.757,0,15.995,11.1,28.962,13.164,28.962s13.165-12.967,13.165-28.962c0-10.488-4.77-19.674-8.639-24.757a.18.18,0,0,0-.314.054" fill="#fed9bc"/>
          <path id="Trazado_773359" data-name="Trazado 773359" d="M334.662,134.1H325.23l2.414-16.9a16.262,16.262,0,0,1,7.24,13.529v3.144a.222.222,0,0,1-.222.222" fill="#fde35c"/>
          <path id="Trazado_773360" data-name="Trazado 773360" d="M319.788,99.743l-4.04,12.121a.181.181,0,0,1-.343,0l-4.04-12.121a.181.181,0,0,0-.315-.054c-3.868,5.083-8.638,14.269-8.638,24.757,0,15.995,11.1,28.962,13.164,28.962s13.165-12.967,13.165-28.962c0-10.488-4.77-19.674-8.639-24.757a.18.18,0,0,0-.314.054" fill="#fdefad"/>
          <path id="Trazado_773361" data-name="Trazado 773361" d="M318.4,121.7a12.15,12.15,0,0,1-5.508.035l-1.89,15.128a.883.883,0,0,0,1.406.817l4.288-3.216a7.342,7.342,0,0,0,2.794-7.313Z" fill="#fde35c"/>
          <path id="Trazado_773362" data-name="Trazado 773362" d="M293.856,161.589a14.715,14.715,0,0,1,10.191,3.829.206.206,0,0,0,.348-.165c-.545-8.009-5.055-14.258-10.539-14.258s-9.994,6.249-10.539,14.258a.206.206,0,0,0,.348.165,14.715,14.715,0,0,1,10.191-3.829" fill="#a799a7"/>
          <path id="Trazado_773363" data-name="Trazado 773363" d="M312.942,134.1H303.51l2.414-16.9a16.262,16.262,0,0,1,7.24,13.529v3.144a.222.222,0,0,1-.222.222" fill="#a799a7"/>
          <path id="Trazado_773364" data-name="Trazado 773364" d="M274.768,134.1H284.2l-2.414-16.9a16.262,16.262,0,0,0-7.24,13.529v3.144a.222.222,0,0,0,.222.222" fill="#a799a7"/>
          <path id="Trazado_773365" data-name="Trazado 773365" d="M298.068,99.743l-4.04,12.121a.181.181,0,0,1-.343,0l-4.04-12.121a.181.181,0,0,0-.315-.054c-3.868,5.083-8.638,14.269-8.638,24.757,0,15.995,11.1,28.962,13.164,28.962s13.165-12.967,13.165-28.962c0-10.488-4.77-19.674-8.639-24.757a.18.18,0,0,0-.314.054" fill="#c9c2ca"/>
          <path id="Trazado_773366" data-name="Trazado 773366" d="M341.826,99.69a.181.181,0,0,0-.315.054l-1.667,5a40.092,40.092,0,0,1,3.627,16.207c0,12.968-7.294,23.945-11.157,27.636,2.218,3.047,4.22,4.823,4.985,4.823,2.068,0,13.165-12.967,13.165-28.963,0-10.488-4.771-19.674-8.638-24.756" fill="#fdc99c"/>
          <path id="Trazado_773367" data-name="Trazado 773367" d="M320.1,99.69a.18.18,0,0,0-.314.054l-1.667,5a40.093,40.093,0,0,1,3.627,16.207c0,12.968-7.294,23.945-11.157,27.636,2.218,3.047,4.22,4.823,4.985,4.823,2.068,0,13.165-12.967,13.165-28.963,0-10.488-4.771-19.674-8.639-24.756" fill="#fce87b"/>
          <path id="Trazado_773368" data-name="Trazado 773368" d="M298.382,99.69a.18.18,0,0,0-.314.054l-1.667,5a40.093,40.093,0,0,1,3.626,16.207c0,12.968-7.293,23.945-11.156,27.636,2.218,3.047,4.22,4.823,4.985,4.823,2.068,0,13.165-12.967,13.165-28.963,0-10.488-4.771-19.674-8.639-24.756" fill="#b2acb6"/>
          <path id="Trazado_773369" data-name="Trazado 773369" d="M296.686,121.7a12.145,12.145,0,0,1-5.507.035l-1.891,15.128a.883.883,0,0,0,1.406.817l4.288-3.216a7.34,7.34,0,0,0,2.794-7.313Z" fill="#a799a7"/>
          <path id="Trazado_773370" data-name="Trazado 773370" d="M340.129,121.7a12.145,12.145,0,0,1-5.507.035l-1.891,15.128a.883.883,0,0,0,1.406.817l4.288-3.216a7.342,7.342,0,0,0,2.794-7.313Z" fill="#fca75c"/>
          <path id="Trazado_773371" data-name="Trazado 773371" d="M313.6,152.372a16.142,16.142,0,0,0-2.024,5.53" fill="none" stroke="#000" stroke-linecap="round" stroke-linejoin="round" stroke-width="2.622"/>
          <path id="Trazado_773372" data-name="Trazado 773372" d="M319.676,158.376a16.914,16.914,0,0,0-2.121-6.005" fill="none" stroke="#000" stroke-linecap="round" stroke-linejoin="round" stroke-width="2.622"/>
          <path id="Trazado_773373" data-name="Trazado 773373" d="M319.2,82.209a3.62,3.62,0,1,1-3.62-3.62A3.62,3.62,0,0,1,319.2,82.209Z" fill="none" stroke="#000" stroke-linecap="round" stroke-linejoin="round" stroke-width="2.622"/>
          <path id="Trazado_773374" data-name="Trazado 773374" d="M308.836,104.759a8.413,8.413,0,0,1-1.707-5.092,8.593,8.593,0,0,1,.794-3.621" fill="none" stroke="#000" stroke-linecap="round" stroke-linejoin="round" stroke-width="2.622"/>
          <path id="Trazado_773375" data-name="Trazado 773375" d="M315.577,85.829v2.414a3.48,3.48,0,0,0,2.452,3.338,8.432,8.432,0,0,1,4.28,13.171" fill="none" stroke="#000" stroke-linecap="round" stroke-linejoin="round" stroke-width="2.622"/>
          <line id="Línea_3518" data-name="Línea 3518" x1="7.241" transform="translate(303.509 96.047)" fill="none" stroke="#000" stroke-linecap="round" stroke-linejoin="round" stroke-width="2.622"/>
          <path id="Trazado_773376" data-name="Trazado 773376" d="M324.11,118.5a12.072,12.072,0,0,1-14.7,1.841" fill="none" stroke="#000" stroke-linecap="round" stroke-linejoin="round" stroke-width="2.622"/>
          <path id="Trazado_773377" data-name="Trazado 773377" d="M327.441,134.1h7.221a.222.222,0,0,0,.223-.222v-3.144a16.26,16.26,0,0,0-6.824-13.241" fill="none" stroke="#000" stroke-linecap="round" stroke-linejoin="round" stroke-width="2.622"/>
          <path id="Trazado_773378" data-name="Trazado 773378" d="M312.97,151.48c-4.25,1.613-7.477,7.078-7.932,13.774a.205.205,0,0,0,.347.164,15.476,15.476,0,0,1,20.382,0,.206.206,0,0,0,.349-.164c-.456-6.7-3.682-12.161-7.932-13.774" fill="none" stroke="#000" stroke-linecap="round" stroke-linejoin="round" stroke-width="2.622"/>
          <path id="Trazado_773379" data-name="Trazado 773379" d="M309.9,147.606c2.483,3.643,4.831,5.8,5.675,5.8,2.068,0,13.164-12.966,13.164-28.962,0-10.488-4.77-19.674-8.638-24.756a.181.181,0,0,0-.315.053l-4.04,12.122a.181.181,0,0,1-.343,0l-4.04-12.122a.18.18,0,0,0-.314-.053,44.523,44.523,0,0,0-6.334,11.858" fill="none" stroke="#000" stroke-linecap="round" stroke-linejoin="round" stroke-width="2.622"/>
          <path id="Trazado_773380" data-name="Trazado 773380" d="M304.717,137.344a45.26,45.26,0,0,0,2.109,4.984" fill="none" stroke="#000" stroke-linecap="round" stroke-linejoin="round" stroke-width="2.622"/>
          <path id="Trazado_773381" data-name="Trazado 773381" d="M335.318,152.372a16.141,16.141,0,0,0-2.024,5.53" fill="none" stroke="#000" stroke-linecap="round" stroke-linejoin="round" stroke-width="2.622"/>
          <path id="Trazado_773382" data-name="Trazado 773382" d="M341.4,158.376a16.935,16.935,0,0,0-2.12-6.005" fill="none" stroke="#000" stroke-linecap="round" stroke-linejoin="round" stroke-width="2.622"/>
          <path id="Trazado_773383" data-name="Trazado 773383" d="M340.917,82.209a3.62,3.62,0,1,1-3.62-3.62A3.62,3.62,0,0,1,340.917,82.209Z" fill="none" stroke="#000" stroke-linecap="round" stroke-linejoin="round" stroke-width="2.622"/>
          <path id="Trazado_773384" data-name="Trazado 773384" d="M330.556,104.759a8.406,8.406,0,0,1-1.707-5.092,8.593,8.593,0,0,1,.794-3.621" fill="none" stroke="#000" stroke-linecap="round" stroke-linejoin="round" stroke-width="2.622"/>
          <path id="Trazado_773385" data-name="Trazado 773385" d="M337.3,85.829v2.414a3.48,3.48,0,0,0,2.452,3.338,8.432,8.432,0,0,1,4.28,13.171" fill="none" stroke="#000" stroke-linecap="round" stroke-linejoin="round" stroke-width="2.622"/>
          <line id="Línea_3519" data-name="Línea 3519" x1="7.241" transform="translate(325.229 96.047)" fill="none" stroke="#000" stroke-linecap="round" stroke-linejoin="round" stroke-width="2.622"/>
          <path id="Trazado_773386" data-name="Trazado 773386" d="M345.83,118.5a12.072,12.072,0,0,1-14.7,1.841" fill="none" stroke="#000" stroke-linecap="round" stroke-linejoin="round" stroke-width="2.622"/>
          <path id="Trazado_773387" data-name="Trazado 773387" d="M334.69,151.48c-4.25,1.613-7.476,7.078-7.932,13.774a.206.206,0,0,0,.348.164,15.476,15.476,0,0,1,20.382,0,.206.206,0,0,0,.348-.164c-.455-6.7-3.682-12.161-7.932-13.774" fill="none" stroke="#000" stroke-linecap="round" stroke-linejoin="round" stroke-width="2.622"/>
          <path id="Trazado_773388" data-name="Trazado 773388" d="M350.423,122.805a43.166,43.166,0,0,0-8.6-23.115.18.18,0,0,0-.314.053l-4.041,12.121a.18.18,0,0,1-.342,0l-4.041-12.121a.18.18,0,0,0-.314-.053,44.523,44.523,0,0,0-6.334,11.858" fill="none" stroke="#000" stroke-linecap="round" stroke-linejoin="round" stroke-width="2.622"/>
          <path id="Trazado_773389" data-name="Trazado 773389" d="M326.437,137.344c3.367,9.522,9.391,16.064,10.86,16.064,1.867,0,11.086-10.561,12.867-24.377" fill="none" stroke="#000" stroke-linecap="round" stroke-linejoin="round" stroke-width="2.622"/>
          <path id="Trazado_773390" data-name="Trazado 773390" d="M291.878,152.372a16.163,16.163,0,0,0-2.024,5.53" fill="none" stroke="#000" stroke-linecap="round" stroke-linejoin="round" stroke-width="2.622"/>
          <path id="Trazado_773391" data-name="Trazado 773391" d="M297.956,158.376a16.935,16.935,0,0,0-2.12-6.005" fill="none" stroke="#000" stroke-linecap="round" stroke-linejoin="round" stroke-width="2.622"/>
          <path id="Trazado_773392" data-name="Trazado 773392" d="M282.836,112.012a38.641,38.641,0,0,0-2.143,12.433c0,16,11.1,28.963,13.164,28.963s13.165-12.967,13.165-28.963c0-10.488-4.77-19.673-8.639-24.756a.18.18,0,0,0-.314.054l-4.04,12.121a.181.181,0,0,1-.343,0l-4.04-12.121a.181.181,0,0,0-.315-.054,42.8,42.8,0,0,0-4.007,6.442" fill="none" stroke="#000" stroke-linecap="round" stroke-linejoin="round" stroke-width="2.622"/>
          <path id="Trazado_773393" data-name="Trazado 773393" d="M297.477,82.209a3.62,3.62,0,1,1-3.62-3.62A3.62,3.62,0,0,1,297.477,82.209Z" fill="none" stroke="#000" stroke-linecap="round" stroke-linejoin="round" stroke-width="2.622"/>
          <path id="Trazado_773394" data-name="Trazado 773394" d="M287.116,104.759a8.413,8.413,0,0,1-1.707-5.092,8.593,8.593,0,0,1,.794-3.621" fill="none" stroke="#000" stroke-linecap="round" stroke-linejoin="round" stroke-width="2.622"/>
          <path id="Trazado_773395" data-name="Trazado 773395" d="M293.857,85.829v2.414a3.48,3.48,0,0,0,2.452,3.338,8.432,8.432,0,0,1,4.28,13.171" fill="none" stroke="#000" stroke-linecap="round" stroke-linejoin="round" stroke-width="2.622"/>
          <line id="Línea_3520" data-name="Línea 3520" x1="7.241" transform="translate(281.789 96.047)" fill="none" stroke="#000" stroke-linecap="round" stroke-linejoin="round" stroke-width="2.622"/>
          <path id="Trazado_773396" data-name="Trazado 773396" d="M302.39,118.5a12.066,12.066,0,0,1-17.066,0" fill="none" stroke="#000" stroke-linecap="round" stroke-linejoin="round" stroke-width="2.622"/>
          <path id="Trazado_773397" data-name="Trazado 773397" d="M281.372,117.491a16.26,16.26,0,0,0-6.825,13.243v3.143a.222.222,0,0,0,.222.222h7.223" fill="none" stroke="#000" stroke-linecap="round" stroke-linejoin="round" stroke-width="2.622"/>
          <path id="Trazado_773398" data-name="Trazado 773398" d="M305.721,134.1h7.221a.222.222,0,0,0,.223-.222v-3.144a16.26,16.26,0,0,0-6.824-13.241" fill="none" stroke="#000" stroke-linecap="round" stroke-linejoin="round" stroke-width="2.622"/>
          <path id="Trazado_773399" data-name="Trazado 773399" d="M291.25,151.48c-4.25,1.613-7.476,7.078-7.932,13.774a.206.206,0,0,0,.348.164,15.476,15.476,0,0,1,20.382,0,.206.206,0,0,0,.348-.164c-.455-6.7-3.682-12.161-7.932-13.774" fill="none" stroke="#000" stroke-linecap="round" stroke-linejoin="round" stroke-width="2.622"/>
          <path id="Trazado_773400" data-name="Trazado 773400" d="M311.353,134.1l-.345,2.762a.883.883,0,0,0,1.406.816l4.288-3.215a7.342,7.342,0,0,0,2.794-7.314l-1.09-5.45" fill="none" stroke="#000" stroke-linecap="round" stroke-linejoin="round" stroke-width="2.622"/>
          <line id="Línea_3521" data-name="Línea 3521" x1="0.506" y2="4.048" transform="translate(312.393 121.734)" fill="none" stroke="#000" stroke-linecap="round" stroke-linejoin="round" stroke-width="2.622"/>
          <path id="Trazado_773401" data-name="Trazado 773401" d="M291.179,121.734l-1.891,15.128a.883.883,0,0,0,1.407.816l4.287-3.215a7.344,7.344,0,0,0,2.8-7.314l-1.091-5.45" fill="none" stroke="#000" stroke-linecap="round" stroke-linejoin="round" stroke-width="2.622"/>
          <path id="Trazado_773402" data-name="Trazado 773402" d="M333.073,134.1l-.345,2.762a.883.883,0,0,0,1.406.816l4.288-3.215a7.342,7.342,0,0,0,2.794-7.314l-1.09-5.45" fill="none" stroke="#000" stroke-linecap="round" stroke-linejoin="round" stroke-width="2.622"/>
          <line id="Línea_3522" data-name="Línea 3522" x1="0.506" y2="4.048" transform="translate(334.113 121.734)" fill="none" stroke="#000" stroke-linecap="round" stroke-linejoin="round" stroke-width="2.622"/>
          <path id="Trazado_773403" data-name="Trazado 773403" d="M349.161,134.1h7.221a.222.222,0,0,0,.223-.222v-3.144a16.26,16.26,0,0,0-6.824-13.241" fill="none" stroke="#000" stroke-linecap="round" stroke-linejoin="round" stroke-width="2.622"/>
        </g>
      </g>
      <g id="Grupo_1027994" data-name="Grupo 1027994">
        <g id="Grupo_1027993" data-name="Grupo 1027993" clip-path="url(#clip-path-2)">
          <path id="Trazado_773404" data-name="Trazado 773404" d="M84.779,14.385c.369,1.349,1.846,2.613,1.846,4.076s-1.477,2.726-1.846,4.075c-.369,1.392.27,3.224-.44,4.445-.71,1.25-2.627,1.591-3.636,2.6s-1.349,2.925-2.6,3.635c-1.222.71-3.054.071-4.445.441-1.349.369-2.613,1.846-4.076,1.846s-2.727-1.477-4.076-1.846c-1.391-.37-3.223.269-4.444-.441-1.25-.71-1.591-2.627-2.6-3.635s-2.926-1.349-3.636-2.6c-.71-1.221-.071-3.053-.44-4.445-.369-1.349-1.846-2.613-1.846-4.075s1.477-2.727,1.846-4.076c.369-1.392-.27-3.224.44-4.445.71-1.25,2.627-1.59,3.636-2.6s1.349-2.925,2.6-3.635c1.221-.71,3.053-.071,4.444-.44,1.349-.37,2.613-1.846,4.076-1.846S72.311,2.9,73.66,3.266c1.391.369,3.223-.27,4.445.44,1.249.71,1.59,2.627,2.6,3.635s2.926,1.349,3.636,2.6c.71,1.221.071,3.053.44,4.445" fill="#ffc729"/>
          <path id="Trazado_773405" data-name="Trazado 773405" d="M69.584,8.52a9.94,9.94,0,1,1-9.941,9.941A9.941,9.941,0,0,1,69.584,8.52" fill="#fcd770"/>
          <path id="Trazado_773406" data-name="Trazado 773406" d="M21.145,38.342l-1.122,20.25a9.761,9.761,0,0,1-4.4,1.051A9.933,9.933,0,0,1,5.68,49.7a9.533,9.533,0,0,1,.327-2.485,6.932,6.932,0,0,1-1.264-7.143,9.938,9.938,0,0,1,6.618-17.354,10.585,10.585,0,0,1,1.505.128,11.348,11.348,0,0,1,22.551,0,10.585,10.585,0,0,1,1.505-.128A9.938,9.938,0,0,1,43.54,40.075a6.932,6.932,0,0,1-1.264,7.143A9.534,9.534,0,0,1,42.6,49.7a9.933,9.933,0,0,1-9.941,9.94,9.758,9.758,0,0,1-4.4-1.051l-.98-17.651-.142-2.6a3,3,0,0,0-5.993,0Z" fill="#b4dd7f"/>
          <path id="Trazado_773407" data-name="Trazado 773407" d="M27.28,40.941l.98,17.652,1.562,28.032H18.461l1.562-28.032,1.122-20.251a3,3,0,0,1,5.993,0Z" fill="#cf9e76"/>
          <path id="Trazado_773408" data-name="Trazado 773408" d="M44.648,72.424l.795,14.2H34.083l.8-14.2Z" fill="#cf9e76"/>
          <path id="Trazado_773409" data-name="Trazado 773409" d="M75.89,72.424l.795,14.2H65.325l.795-14.2Z" fill="#cf9e76"/>
          <path id="Trazado_773410" data-name="Trazado 773410" d="M60.269,72.424l.795,14.2H49.7l.8-14.2Z" fill="#cf9e76"/>
          <path id="Trazado_773411" data-name="Trazado 773411" d="M85.205,61.064v1.42a4.255,4.255,0,0,1-4.26,4.26H76.684v-1.42a4.255,4.255,0,0,1,4.261-4.26Z" fill="#a0d468"/>
          <path id="Trazado_773412" data-name="Trazado 773412" d="M69.584,29.821a11.36,11.36,0,1,0-11.361-11.36,11.374,11.374,0,0,0,11.361,11.36m0-19.881a8.521,8.521,0,1,1-8.521,8.521A8.529,8.529,0,0,1,69.584,9.94"/>
          <rect id="Rectángulo_360886" data-name="Rectángulo 360886" width="2.84" height="2.84" transform="translate(0 85.205)"/>
          <rect id="Rectángulo_360887" data-name="Rectángulo 360887" width="2.84" height="2.84" transform="translate(85.205 85.205)"/>
          <path id="Trazado_773413" data-name="Trazado 773413" d="M53.015,22.9a5.788,5.788,0,0,1,.059,1.535,5.782,5.782,0,0,0,.521,3.258,5.825,5.825,0,0,0,2.588,2.1,5.636,5.636,0,0,1,1.275.8,5.672,5.672,0,0,1,.8,1.275,5.826,5.826,0,0,0,2.1,2.588,5.791,5.791,0,0,0,3.259.521,5.738,5.738,0,0,1,1.535.06,5.533,5.533,0,0,1,1.288.687,5.844,5.844,0,0,0,3.15,1.2,5.851,5.851,0,0,0,3.151-1.2,5.5,5.5,0,0,1,1.288-.687,5.925,5.925,0,0,1,1.536-.06,5.789,5.789,0,0,0,3.257-.521,5.813,5.813,0,0,0,2.1-2.588,5.636,5.636,0,0,1,.8-1.275,5.658,5.658,0,0,1,1.276-.8,5.817,5.817,0,0,0,2.587-2.1,5.79,5.79,0,0,0,.521-3.259,5.741,5.741,0,0,1,.06-1.535,5.571,5.571,0,0,1,.687-1.288,5.844,5.844,0,0,0,1.2-3.15,5.851,5.851,0,0,0-1.2-3.151,5.477,5.477,0,0,1-.687-1.288,5.783,5.783,0,0,1-.06-1.535,5.765,5.765,0,0,0-.521-3.258,5.817,5.817,0,0,0-2.587-2.1,5.623,5.623,0,0,1-1.276-.8,5.708,5.708,0,0,1-.8-1.275,5.813,5.813,0,0,0-2.1-2.588,5.8,5.8,0,0,0-3.259-.521,5.78,5.78,0,0,1-1.535-.06A5.552,5.552,0,0,1,72.734,1.2,5.844,5.844,0,0,0,69.584,0a5.851,5.851,0,0,0-3.151,1.2,5.477,5.477,0,0,1-1.288.687,5.738,5.738,0,0,1-1.535.06,5.765,5.765,0,0,0-3.258.521,5.826,5.826,0,0,0-2.1,2.588,5.636,5.636,0,0,1-.8,1.275,5.672,5.672,0,0,1-1.275.8,5.825,5.825,0,0,0-2.588,2.1,5.8,5.8,0,0,0-.521,3.259,5.746,5.746,0,0,1-.059,1.535,5.58,5.58,0,0,1-.688,1.288,5.844,5.844,0,0,0-1.2,3.15,5.851,5.851,0,0,0,1.2,3.151A5.6,5.6,0,0,1,53.015,22.9Zm1.708-6.065a7.664,7.664,0,0,0,1.035-2.08,7.9,7.9,0,0,0,.154-2.383,3.911,3.911,0,0,1,.143-1.723,3.941,3.941,0,0,1,1.441-1,7.813,7.813,0,0,0,1.972-1.308,7.754,7.754,0,0,0,1.306-1.969,3.93,3.93,0,0,1,1-1.443,3.953,3.953,0,0,1,1.721-.142,7.867,7.867,0,0,0,2.383-.153A7.637,7.637,0,0,0,67.958,3.6a3.929,3.929,0,0,1,1.626-.758,3.9,3.9,0,0,1,1.626.76,7.656,7.656,0,0,0,2.081,1.035,7.808,7.808,0,0,0,2.383.153,3.88,3.88,0,0,1,1.722.144,3.932,3.932,0,0,1,1,1.441A7.818,7.818,0,0,0,79.7,8.344a7.759,7.759,0,0,0,1.969,1.307,3.907,3.907,0,0,1,1.443,1,3.921,3.921,0,0,1,.142,1.721,7.871,7.871,0,0,0,.154,2.383,7.635,7.635,0,0,0,1.035,2.08,3.918,3.918,0,0,1,.758,1.626,3.906,3.906,0,0,1-.76,1.626,7.664,7.664,0,0,0-1.035,2.08,7.9,7.9,0,0,0-.153,2.383,3.909,3.909,0,0,1-.144,1.723,3.932,3.932,0,0,1-1.441,1A7.791,7.791,0,0,0,79.7,28.581a7.759,7.759,0,0,0-1.307,1.969,3.918,3.918,0,0,1-1,1.443,3.889,3.889,0,0,1-1.721.142,7.905,7.905,0,0,0-2.383.153,7.63,7.63,0,0,0-2.081,1.036,3.918,3.918,0,0,1-1.626.758,3.911,3.911,0,0,1-1.626-.76,7.664,7.664,0,0,0-2.08-1.035,6.023,6.023,0,0,0-1.559-.176c-.284,0-.561.011-.824.023a3.88,3.88,0,0,1-1.723-.144,3.931,3.931,0,0,1-1-1.441,7.845,7.845,0,0,0-1.308-1.971,7.764,7.764,0,0,0-1.97-1.307,3.907,3.907,0,0,1-1.443-1,3.936,3.936,0,0,1-.142-1.721,7.9,7.9,0,0,0-.153-2.383,7.664,7.664,0,0,0-1.035-2.08,3.927,3.927,0,0,1-.759-1.626,3.913,3.913,0,0,1,.76-1.626"/>
          <path id="Trazado_773414" data-name="Trazado 773414" d="M77.922,68.164h3.023a5.686,5.686,0,0,0,5.68-5.68V59.643h-5.68a5.686,5.686,0,0,0-5.68,5.681v1.319L74.658,71H64.77l-.789,14.2H62.407L61.618,71H49.149l-.789,14.2H46.786L46,71H33.528l-.789,14.2H31.165L29.8,60.674a11.036,11.036,0,0,0,2.86.389A11.374,11.374,0,0,0,44.023,49.7a11.088,11.088,0,0,0-.212-2.136A8.467,8.467,0,0,0,45.443,42.6a8.151,8.151,0,0,0-.286-2.13A11.349,11.349,0,0,0,36.922,21.3c-.106,0-.213,0-.321.006a12.777,12.777,0,0,0-24.919,0A11.348,11.348,0,0,0,3.126,40.471,8.164,8.164,0,0,0,2.84,42.6a8.467,8.467,0,0,0,1.632,4.965A11.087,11.087,0,0,0,4.26,49.7a11.374,11.374,0,0,0,11.361,11.36,11.036,11.036,0,0,0,2.86-.389L17.118,85.205H5.68v2.84H82.365v-2.84H78.028l-.707-12.718Zm3.023-5.68h2.84a2.843,2.843,0,0,1-2.84,2.84h-2.84a2.843,2.843,0,0,1,2.84-2.84m-29.11,11.36h7.1l.63,11.361H51.2Zm-15.621,0h7.1l.63,11.361H35.582ZM15.621,58.223a8.481,8.481,0,0,1-8.239-10.65l.186-.72-.486-.563A5.606,5.606,0,0,1,5.68,42.6a5.663,5.663,0,0,1,.392-2.025l.351-.916-.73-.651a8.511,8.511,0,0,1,5.668-14.869,8.284,8.284,0,0,1,1.286.11l1.457.22.166-1.464a9.935,9.935,0,0,1,19.742,0l.167,1.464,1.457-.22a8.284,8.284,0,0,1,1.286-.11A8.511,8.511,0,0,1,42.59,39.01l-.732.653.353.914A5.676,5.676,0,0,1,42.6,42.6a5.606,5.606,0,0,1-1.4,3.688l-.486.563.186.72a8.484,8.484,0,0,1-8.239,10.65,8.29,8.29,0,0,1-3.028-.583l-.892-16.047,5.837-4.671h5.183v-2.84H35.5V28.4h-2.84V34.82l-4.127,3.3A4.4,4.4,0,0,0,20.656,35.8l-3.413-3.509,1.147-3.439-2.694-.9-1.1,3.289H9.941v2.84h5.081l4.67,4.8-.4,7.184-3.672-2.754v-3.55h-2.84V42.6H9.941v2.841h3.787l5.3,3.976.082-.111-.463,8.332A8.281,8.281,0,0,1,15.621,58.223Zm6.941-19.807a1.582,1.582,0,0,1,3.159,0l2.6,46.788H19.962ZM66.825,85.205l.631-11.361h7.1l.63,11.361Z"/>
          <path id="Trazado_773415" data-name="Trazado 773415" d="M404.228,41.737l1.806,31.819a2.58,2.58,0,0,0,2.579,2.58l77.976.687a2.579,2.579,0,0,0,2.58-2.579l.525-.706v-31.8l-43.835-3.624Z" fill="#aa6a51"/>
          <path id="Trazado_773416" data-name="Trazado 773416" d="M405,32.8a.86.86,0,0,1,.891-.86,9.3,9.3,0,0,0,2.466-.26c3.413.861,4.721,2.637,10.117,2.637,7.122,0,7.122-3.1,14.244-3.1s7.122,3.1,14.244,3.1,7.122-3.1,14.244-3.1,7.122,3.1,14.245,3.1c6.812,0,7.109-2.831,13.354-3.078a.86.86,0,0,1,.891.86v9.637h-84.3Z" fill="#bc7c63"/>
          <path id="Trazado_773417" data-name="Trazado 773417" d="M489.693,73.538v1.548a2.579,2.579,0,0,1-2.579,2.579H406.807a2.58,2.58,0,0,1-2.58-2.579V41.737l2.064-.96,2.063.96V71.818a1.72,1.72,0,0,0,1.72,1.72Z" fill="#935b44"/>
          <path id="Trazado_773418" data-name="Trazado 773418" d="M408.355,31.681V41.737h-4.127V32.1a.86.86,0,0,1,.891-.86,15.483,15.483,0,0,1,3.236.44" fill="#aa6a51"/>
          <path id="Trazado_773419" data-name="Trazado 773419" d="M449.172,20.277c2.431-5.207,5.849-8.754,7.633-7.921s1.259,5.73-1.172,10.938-5.849,8.753-7.633,7.92-1.259-5.73,1.172-10.937" fill="#afcc56"/>
          <path id="Trazado_773420" data-name="Trazado 773420" d="M439.105,23.383c2.429,5.209,5.039,8.642,6.824,7.81s1.262-5.73-1.167-10.939a20.925,20.925,0,0,0-4.95-7.058s-1.927-.99-2.624-.665c-1.785.832-.512,5.643,1.917,10.852" fill="#afcc56"/>
          <path id="Trazado_773421" data-name="Trazado 773421" d="M446.689,30.326a1.576,1.576,0,0,1-.76.867c-1.785.832-5.2-2.716-7.63-7.924s-2.951-10.107-1.166-10.939c.7-.325,1.643.017,2.68.866-.764,1.8-.051,5.835,1.925,10.073a20.923,20.923,0,0,0,4.951,7.057" fill="#a7c44d"/>
          <path id="Trazado_773422" data-name="Trazado 773422" d="M446.961,10.379c1.969,0,3.565,4.659,3.565,10.407s-1.6,10.407-3.565,10.407-3.566-4.659-3.566-10.407,1.6-10.407,3.566-10.407" fill="#c5d762"/>
          <path id="Trazado_773423" data-name="Trazado 773423" d="M446.961,65.072a3.335,3.335,0,0,1-3.289-3.018l-4.764-24.789c-.654-3.273.317-6.525,2.994-8.031.373-.209,1.08-.614,1.08-.614a7.4,7.4,0,0,1,2.436-.409H448.5a7.387,7.387,0,0,1,7.243,8.834l-1.26,6.321-1.133,1.29.616,1.29-3.3,16.522a3.76,3.76,0,0,1-.524,1.3A5.394,5.394,0,0,1,446.961,65.072Z" fill="#ffd15b"/>
          <path id="Trazado_773424" data-name="Trazado 773424" d="M450.147,63.764a3.782,3.782,0,0,1-6.9-1.3l-.488-2.444.637-1.42-1.152-1.159L439.294,41.91l.634-1.195-1.3-1.384-.457-2.287a7.4,7.4,0,0,1,4.808-8.425,7.367,7.367,0,0,0-2.057,6.705L446,60.747a3.781,3.781,0,0,0,3.709,3.042,3.7,3.7,0,0,0,.436-.025" fill="#fec165"/>
          <path id="Trazado_773425" data-name="Trazado 773425" d="M477.36,20.285c2.431-5.207,5.849-8.754,7.633-7.921s1.259,5.73-1.172,10.938-5.849,8.753-7.633,7.92-1.259-5.73,1.172-10.937" fill="#afcc56"/>
          <path id="Trazado_773426" data-name="Trazado 773426" d="M467.282,23.383c2.429,5.209,5.039,8.642,6.824,7.81s1.262-5.73-1.167-10.939a20.925,20.925,0,0,0-4.95-7.058s-1.927-.99-2.624-.665c-1.785.832-.512,5.643,1.917,10.852" fill="#afcc56"/>
          <path id="Trazado_773427" data-name="Trazado 773427" d="M474.866,30.326a1.581,1.581,0,0,1-.761.867c-1.785.832-5.2-2.716-7.63-7.924s-2.95-10.107-1.165-10.939c.7-.325,1.642.017,2.68.866-.765,1.8-.051,5.835,1.924,10.073a20.91,20.91,0,0,0,4.952,7.057" fill="#a7c44d"/>
          <path id="Trazado_773428" data-name="Trazado 773428" d="M475.137,10.379c1.969,0,3.566,4.659,3.566,10.407s-1.6,10.407-3.566,10.407-3.566-4.659-3.566-10.407,1.6-10.407,3.566-10.407" fill="#c5d762"/>
          <path id="Trazado_773429" data-name="Trazado 773429" d="M475.137,65.072a3.336,3.336,0,0,1-3.289-3.018l-4.764-24.789c-.654-3.273.318-6.525,2.995-8.031.373-.209,1.079-.614,1.079-.614a7.4,7.4,0,0,1,2.437-.409h3.084a7.387,7.387,0,0,1,7.244,8.834l-.456,2.287-1.379,1.109.864,1.47-3.1,15.534-.835,1.341.32,1.238-.488,2.444a3.785,3.785,0,0,1-.523,1.3,5.4,5.4,0,0,1-3.187,1.307" fill="#ffd15b"/>
          <path id="Trazado_773430" data-name="Trazado 773430" d="M478.324,63.764a3.782,3.782,0,0,1-6.9-1.3l-3.3-16.522.708-1.377-1.224-1.2-1.262-6.321a7.394,7.394,0,0,1,4.808-8.424,7.367,7.367,0,0,0-2.057,6.7l5.078,25.423a3.782,3.782,0,0,0,3.709,3.042,3.926,3.926,0,0,0,.436-.026" fill="#fec165"/>
          <path id="Trazado_773431" data-name="Trazado 773431" d="M420.816,20.268c2.431-5.207,5.849-8.754,7.633-7.921s1.259,5.73-1.172,10.938-5.849,8.753-7.633,7.92-1.259-5.73,1.172-10.937" fill="#afcc56"/>
          <path id="Trazado_773432" data-name="Trazado 773432" d="M410.76,23.383c2.429,5.209,5.039,8.642,6.824,7.81s1.262-5.73-1.167-10.939a20.925,20.925,0,0,0-4.95-7.058s-1.927-.99-2.624-.665c-1.785.832-.512,5.643,1.917,10.852" fill="#afcc56"/>
          <path id="Trazado_773433" data-name="Trazado 773433" d="M418.344,30.326a1.576,1.576,0,0,1-.76.867c-1.785.832-5.2-2.716-7.63-7.924S407,13.162,408.788,12.33c.7-.325,1.643.017,2.68.866-.764,1.8-.051,5.835,1.925,10.073a20.937,20.937,0,0,0,4.951,7.057" fill="#a7c44d"/>
          <path id="Trazado_773434" data-name="Trazado 773434" d="M418.615,10.379c1.969,0,3.566,4.659,3.566,10.407s-1.6,10.407-3.566,10.407-3.566-4.659-3.566-10.407,1.6-10.407,3.566-10.407" fill="#c5d762"/>
          <path id="Trazado_773435" data-name="Trazado 773435" d="M418.615,65.072a3.336,3.336,0,0,1-3.289-3.018l-4.764-24.789c-.654-3.273.318-6.525,2.995-8.031.373-.209,1.079-.614,1.079-.614a7.4,7.4,0,0,1,2.437-.409h3.084a7.387,7.387,0,0,1,7.244,8.834l-1.463,7.331-.971,1.289.456,1.29-2.1,10.49-1.039,1.289.524,1.29-.488,2.444a3.778,3.778,0,0,1-.523,1.3,5.4,5.4,0,0,1-3.187,1.307" fill="#ffd15b"/>
          <path id="Trazado_773436" data-name="Trazado 773436" d="M421.8,63.764a3.782,3.782,0,0,1-6.9-1.3l-3.883-19.44.772-1.335-1.288-1.245-.679-3.4a7.394,7.394,0,0,1,4.808-8.424,7.362,7.362,0,0,0-2.057,6.7l5.078,25.423a3.78,3.78,0,0,0,3.709,3.042A3.7,3.7,0,0,0,421.8,63.764Z" fill="#fec165"/>
          <path id="Trazado_773437" data-name="Trazado 773437" d="M432.616,53.231a2.149,2.149,0,1,1-2.15,2.15,2.15,2.15,0,0,1,2.15-2.15" fill="#bc7c63"/>
          <path id="Trazado_773438" data-name="Trazado 773438" d="M427.716,67.475a2.15,2.15,0,1,1-2.15,2.15,2.15,2.15,0,0,1,2.15-2.15" fill="#bc7c63"/>
          <path id="Trazado_773439" data-name="Trazado 773439" d="M482.717,67.725a2.15,2.15,0,1,1-2.15,2.15,2.15,2.15,0,0,1,2.15-2.15" fill="#bc7c63"/>
          <path id="Trazado_773440" data-name="Trazado 773440" d="M462.177,53.921a2.149,2.149,0,1,1-2.15,2.15,2.15,2.15,0,0,1,2.15-2.15" fill="#bc7c63"/>
          <path id="Trazado_773441" data-name="Trazado 773441" d="M489.693,29.934a16.619,16.619,0,0,0-5.765.9,8.439,8.439,0,0,0-1.182-1.436,26.807,26.807,0,0,0,3.052-5.92,24.935,24.935,0,0,0,1.7-7.67c.1-3.423-1.1-4.6-2.119-4.988-2.065-.779-4.243,1.163-6.021,3.9-.732-3.2-2.114-5.626-4.222-5.626s-3.489,2.421-4.222,5.624c-1.778-2.739-3.953-4.676-6.021-3.9-3.122,1.177-2.4,7.386-.418,12.658a26.852,26.852,0,0,0,3.052,5.92,8.509,8.509,0,0,0-1.066,1.267,19.241,19.241,0,0,0-10.77.083,8.363,8.363,0,0,0-1.123-1.35,26.838,26.838,0,0,0,3.052-5.921c1.987-5.271,2.7-11.481-.418-12.657-2.065-.779-4.243,1.163-6.021,3.9-.732-3.2-2.114-5.626-4.222-5.626s-3.489,2.422-4.222,5.625c-1.778-2.74-3.953-4.677-6.021-3.9-3.122,1.177-2.4,7.386-.418,12.658a26.852,26.852,0,0,0,3.052,5.92,8.339,8.339,0,0,0-1.123,1.351,19.257,19.257,0,0,0-10.771-.084,8.25,8.25,0,0,0-1.054-1.256,26.843,26.843,0,0,0,3.06-5.931c1.987-5.272,2.7-11.481-.418-12.658-2.066-.779-4.244,1.163-6.022,3.9-.732-3.2-2.114-5.625-4.222-5.625s-3.489,2.421-4.221,5.624c-1.779-2.74-3.954-4.677-6.022-3.9-1.916.722-2.569,3.414-1.838,7.577a1.29,1.29,0,1,0,2.541-.446c-.557-3.166-.039-4.568.2-4.716.5-.088,2.556,1.51,4.535,5.782a29.214,29.214,0,0,0,.691,8.292,8.544,8.544,0,0,0-1.409.573,23.291,23.291,0,0,1-2.32-4.3,1.29,1.29,0,1,0-2.378,1,25.558,25.558,0,0,0,2.6,4.8,8.472,8.472,0,0,0-1.192,1.447,16.624,16.624,0,0,0-5.765-.9,1.29,1.29,0,0,0-1.29,1.289V75.087a3.874,3.874,0,0,0,3.869,3.869h22.8a1.29,1.29,0,1,0,0-2.58h-22.8a1.29,1.29,0,0,1-1.29-1.289V43.027h4.359l3.933,19.693a5.073,5.073,0,0,0,9.949,0l3.932-19.693h10.363l3.933,19.693a5.073,5.073,0,0,0,9.949,0l1.372-6.873a1.289,1.289,0,1,0-2.529-.505L449.4,62.215a2.493,2.493,0,0,1-4.89,0l-.437-2.192h1.962a1.289,1.289,0,1,0,0-2.579h-2.478l-3.1-15.533h2.161a1.289,1.289,0,1,0,0-2.579h-2.677l-.507-2.54a6.1,6.1,0,0,1,5.98-7.292H448.5a6.1,6.1,0,0,1,5.98,7.292l-1.313,6.573H450.68a1.289,1.289,0,1,0,0,2.579h1.974l-.7,3.495a1.29,1.29,0,1,0,2.53.505l1.381-6.917H466.23l3.933,19.693a5.073,5.073,0,0,0,9.949,0l3.932-19.693H488.4v8.307a1.29,1.29,0,0,0,2.58,0V31.223a1.29,1.29,0,0,0-1.29-1.289m-5.228-16.707c.112.068.541.762.447,2.713a22.818,22.818,0,0,1-1.528,6.624,24.153,24.153,0,0,1-2.729,5.321,8.6,8.6,0,0,0-1.406-.574,28.833,28.833,0,0,0,.692-8.3c1.98-4.272,4.035-5.868,4.524-5.786m-10.7.822c.6-1.858,1.247-2.357,1.363-2.381.128.024.775.523,1.375,2.38a22.82,22.82,0,0,1,.907,6.738,24.235,24.235,0,0,1-.73,6.135h-3.092a24.216,24.216,0,0,1-.73-6.135,22.812,22.812,0,0,1,.907-6.737m-8.406,1.89c-.094-1.95.335-2.644.436-2.708.5-.09,2.556,1.511,4.535,5.782a29.174,29.174,0,0,0,.692,8.3,8.736,8.736,0,0,0-1.406.575,24.243,24.243,0,0,1-2.73-5.321,22.813,22.813,0,0,1-1.527-6.625m-9.074-2.712c.112.068.541.763.447,2.713a22.813,22.813,0,0,1-1.527,6.624,24.219,24.219,0,0,1-2.73,5.321,8.6,8.6,0,0,0-1.406-.574,28.865,28.865,0,0,0,.692-8.3c1.98-4.273,4.036-5.872,4.524-5.787m-10.7.822c.6-1.858,1.247-2.357,1.363-2.381.128.024.775.523,1.375,2.381a22.812,22.812,0,0,1,.907,6.737,24.235,24.235,0,0,1-.73,6.135h-3.092a24.216,24.216,0,0,1-.73-6.135,22.812,22.812,0,0,1,.907-6.737m-8.406,1.891c-.094-1.951.335-2.645.436-2.709.5-.089,2.556,1.511,4.535,5.782a29.171,29.171,0,0,0,.692,8.3,8.774,8.774,0,0,0-1.406.575,24.2,24.2,0,0,1-2.729-5.321,22.819,22.819,0,0,1-1.528-6.624m-9.055-2.713c.111.068.541.763.446,2.713a22.814,22.814,0,0,1-1.527,6.624,24.2,24.2,0,0,1-2.734,5.328,8.617,8.617,0,0,0-1.4-.576,28.861,28.861,0,0,0,.694-8.3c1.98-4.272,4.038-5.87,4.524-5.786m-10.7.822c.6-1.858,1.246-2.357,1.363-2.381.128.024.775.523,1.374,2.381a22.812,22.812,0,0,1,.907,6.737,24.233,24.233,0,0,1-.73,6.135h-3.092a24.219,24.219,0,0,1-.729-6.135,22.811,22.811,0,0,1,.907-6.737m-11.916,26.4V32.554a13.137,13.137,0,0,1,3.389.63,8.666,8.666,0,0,0-.174,4.113l.629,3.15h-3.844ZM418.783,64.22a2.5,2.5,0,0,1-2.445-2.005l-5.076-25.423a6.1,6.1,0,0,1,5.98-7.292h3.083a6.1,6.1,0,0,1,5.98,7.292l-1.514,7.583h-2.9a1.289,1.289,0,1,0,0,2.579h2.384l-2.1,10.49H419.7a1.289,1.289,0,1,0,0,2.579h1.963l-.438,2.192a2.5,2.5,0,0,1-2.445,2.005m9.423-23.772.629-3.15a8.668,8.668,0,0,0-.225-4.288,14.989,14.989,0,0,1,4.105-.5,14.556,14.556,0,0,1,4.393.582,8.648,8.648,0,0,0-.2,4.2l.629,3.15Zm28.176,0,.629-3.15a8.652,8.652,0,0,0-.2-4.2,14.539,14.539,0,0,1,4.391-.581,14.99,14.99,0,0,1,4.107.5,8.656,8.656,0,0,0-.224,4.288l.629,3.15ZM475.137,64.22a2.5,2.5,0,0,1-2.445-2.005l-3.249-16.271h1.974a1.289,1.289,0,1,0,0-2.579h-2.489l-1.313-6.573A6.1,6.1,0,0,1,473.6,29.5h3.084a6.1,6.1,0,0,1,5.98,7.292l-.507,2.54h-2.677a1.289,1.289,0,1,0,0,2.579h2.161l-3.1,15.533h-2.478a1.289,1.289,0,1,0,0,2.579h1.963l-.438,2.192A2.5,2.5,0,0,1,475.137,64.22Zm9.877-31.036a13.081,13.081,0,0,1,3.389-.631v7.9h-3.844l.629-3.15a8.67,8.67,0,0,0-.174-4.114"/>
          <path id="Trazado_773442" data-name="Trazado 773442" d="M489.693,56.063a1.29,1.29,0,0,0-1.29,1.29V75.087a1.29,1.29,0,0,1-1.289,1.289H435.625a1.29,1.29,0,1,0,0,2.58h51.489a3.874,3.874,0,0,0,3.869-3.869V57.353a1.29,1.29,0,0,0-1.29-1.29"/>
          <path id="Trazado_773443" data-name="Trazado 773443" d="M445.469,48a1.289,1.289,0,1,0,0,2.579h2.176a1.289,1.289,0,0,0,0-2.579Z"/>
          <path id="Trazado_773444" data-name="Trazado 773444" d="M451.654,34.933a1.29,1.29,0,0,0-1.29-1.29H448.3a1.29,1.29,0,1,0,0,2.58h2.067a1.29,1.29,0,0,0,1.29-1.29"/>
          <path id="Trazado_773445" data-name="Trazado 773445" d="M477.918,49.294a1.29,1.29,0,0,0-1.29-1.29h-2.175a1.29,1.29,0,1,0,0,2.58h2.175a1.29,1.29,0,0,0,1.29-1.29"/>
          <path id="Trazado_773446" data-name="Trazado 773446" d="M475.09,34.933a1.29,1.29,0,0,0-1.29-1.29h-2.067a1.29,1.29,0,1,0,0,2.58H473.8a1.29,1.29,0,0,0,1.29-1.29"/>
          <path id="Trazado_773447" data-name="Trazado 773447" d="M420.993,50.319a1.29,1.29,0,0,0-1.29-1.29h-2.175a1.29,1.29,0,1,0,0,2.58H419.7a1.29,1.29,0,0,0,1.29-1.29"/>
          <path id="Trazado_773448" data-name="Trazado 773448" d="M418.67,37.607h2.067a1.289,1.289,0,1,0,0-2.579H418.67a1.289,1.289,0,1,0,0,2.579"/>
          <path id="Trazado_773449" data-name="Trazado 773449" d="M436.055,55.38a3.439,3.439,0,1,0-3.439,3.439,3.443,3.443,0,0,0,3.439-3.439m-3.439.86a.86.86,0,1,1,.86-.86.861.861,0,0,1-.86.86"/>
          <path id="Trazado_773450" data-name="Trazado 773450" d="M427.716,66.185a3.439,3.439,0,1,0,3.439,3.439,3.443,3.443,0,0,0-3.439-3.439m0,4.3a.86.86,0,1,1,.86-.86.861.861,0,0,1-.86.86"/>
          <path id="Trazado_773451" data-name="Trazado 773451" d="M479.012,70.83a3.439,3.439,0,1,0,3.439-3.439,3.443,3.443,0,0,0-3.439,3.439m4.3,0a.86.86,0,1,1-.86-.86.861.861,0,0,1,.86.86"/>
          <path id="Trazado_773452" data-name="Trazado 773452" d="M462.177,52.631a3.439,3.439,0,1,0,3.439,3.439,3.443,3.443,0,0,0-3.439-3.439m0,4.3a.86.86,0,1,1,.86-.86.861.861,0,0,1-.86.86"/>
          <path id="Trazado_773453" data-name="Trazado 773453" d="M458.315,66.185a1.29,1.29,0,1,0,1.291,1.29,1.289,1.289,0,0,0-1.291-1.29Z"/>
          <path id="Trazado_773454" data-name="Trazado 773454" d="M486.649,55.466a1.29,1.29,0,0,0-1.29-1.29h0a1.29,1.29,0,1,0,1.291,1.29"/>
          <path id="Trazado_773455" data-name="Trazado 773455" d="M466.209,72.024a1.29,1.29,0,1,0,0-2.579h0a1.29,1.29,0,1,0,0,2.579"/>
          <path id="Trazado_773456" data-name="Trazado 773456" d="M445.648,70.3a1.29,1.29,0,0,0-1.29-1.29h0a1.29,1.29,0,1,0,1.291,1.29"/>
          <path id="Trazado_773457" data-name="Trazado 773457" d="M412.478,69.445a1.29,1.29,0,1,0,1.291,1.29,1.289,1.289,0,0,0-1.291-1.29Z"/>
          <path id="Trazado_773458" data-name="Trazado 773458" d="M409.05,60.214a1.289,1.289,0,1,0,1.291,1.29,1.289,1.289,0,0,0-1.291-1.29Z"/>
          <rect id="Rectángulo_360888" data-name="Rectángulo 360888" width="7.163" height="4.775" transform="matrix(0.707, -0.707, 0.707, 0.707, 407.646, 241.778)" fill="#004281"/>
          <path id="Trazado_773459" data-name="Trazado 773459" d="M417.488,229.134l-1.4,4.2v3.376h3.376l4.2-1.4a3.8,3.8,0,0,0,.784-.364l-1.611-4.987-4.988-1.612a3.853,3.853,0,0,0-.364.784" fill="#004281"/>
          <path id="Trazado_773460" data-name="Trazado 773460" d="M464.992,201.315l-26.443,26.443v3.376h3.377l26.442-26.443Z" fill="#0055a3"/>
          <path id="Trazado_773461" data-name="Trazado 773461" d="M399.147,270.42l6.619,6.619a2.306,2.306,0,0,0,3.475-.247l1.3-1.732-2.894-6.271-6.753-3.376-1.746,1.746a2.307,2.307,0,0,0,0,3.261" fill="#82aee3"/>
          <path id="Trazado_773462" data-name="Trazado 773462" d="M417.851,248.456a15.374,15.374,0,0,0-2.88,4l-1.264,2.528a5.376,5.376,0,0,1-3.111,2.7l-1.229.41a7.692,7.692,0,0,0-3,1.857l-5.47,5.47,9.647,9.647,5.795-7.726a7.682,7.682,0,0,1,3.718-2.68l.265-.089a2.305,2.305,0,0,0,1.333-3.218l-.453-.907a5.378,5.378,0,0,1,1.008-6.21l19.777-19.778a2.3,2.3,0,0,0,0-3.261l-3.434-3.434Z" fill="#d6694b"/>
          <path id="Trazado_773463" data-name="Trazado 773463" d="M405.011,276.284l.755.755a2.3,2.3,0,0,0,3.475-.247l1.3-1.732-1.757-3.806Z" fill="#528fd8"/>
          <path id="Trazado_773464" data-name="Trazado 773464" d="M441.983,231.192l-3.434-3.434-2.306,2.306.041.041a3.843,3.843,0,0,1,0,5.435l-18.69,18.69a5.38,5.38,0,0,0-1.008,6.211l.453.906a2.306,2.306,0,0,1-1.333,3.219l-.265.088a7.694,7.694,0,0,0-3.718,2.68l-3.818,5.091,2.635,2.635,5.795-7.726a7.694,7.694,0,0,1,3.718-2.68l.265-.088a2.307,2.307,0,0,0,1.333-3.219l-.453-.906a5.381,5.381,0,0,1,1.007-6.211l19.778-19.777a2.307,2.307,0,0,0,0-3.261" fill="#c4573a"/>
          <rect id="Rectángulo_360889" data-name="Rectángulo 360889" width="4.775" height="7.163" transform="translate(411.022 235.026) rotate(-45)" fill="#0055a3"/>
          <path id="Trazado_773465" data-name="Trazado 773465" d="M418.417,227.631a3.87,3.87,0,0,0-.565.718l6.6,6.6a3.8,3.8,0,0,0,.719-.564l4.423-4.423-6.753-6.753Z" fill="#0055a3"/>
          <path id="Trazado_773466" data-name="Trazado 773466" d="M455.772,251.452a2.387,2.387,0,1,1-2.387,2.387,2.387,2.387,0,0,1,2.387-2.387" fill="#fd4755"/>
          <path id="Trazado_773467" data-name="Trazado 773467" d="M474.871,251.452H469.9a14.336,14.336,0,0,0-11.739-11.739V234.74h-4.775v4.973a14.338,14.338,0,0,0-11.739,11.739h-4.973v4.775h4.973a14.337,14.337,0,0,0,11.739,11.74v4.973h4.775v-4.973a14.338,14.338,0,0,0,11.739-11.74h4.973Zm-16.712,11.637V261h-4.775v2.087a9.568,9.568,0,0,1-6.862-6.862h2.087v-4.775h-2.087a9.568,9.568,0,0,1,6.862-6.861v2.086h4.775v-2.086a9.568,9.568,0,0,1,6.862,6.862h-2.087v4.774h2.087a9.568,9.568,0,0,1-6.862,6.862" fill="#fd4755"/>
          <path id="Trazado_773468" data-name="Trazado 773468" d="M400.893,265.414l-1.746,1.746a2.307,2.307,0,0,0,0,3.261l6.619,6.619a2.306,2.306,0,0,0,3.475-.247l1.3-1.732" fill="none" stroke="#000" stroke-linecap="round" stroke-linejoin="round" stroke-width="2.306"/>
          <path id="Trazado_773469" data-name="Trazado 773469" d="M427.9,248.531l1.687,1.688a2.387,2.387,0,0,1,0,3.377l-1.687,1.688a2.388,2.388,0,1,1-3.376-3.377" fill="none" stroke="#000" stroke-linecap="round" stroke-linejoin="round" stroke-width="2.306"/>
          <path id="Trazado_773470" data-name="Trazado 773470" d="M408.456,272.976l2.084,2.084,5.795-7.726a7.688,7.688,0,0,1,3.718-2.68l.265-.088a2.306,2.306,0,0,0,1.333-3.219l-.453-.906a5.38,5.38,0,0,1,1.008-6.211l19.777-19.777a2.3,2.3,0,0,0,0-3.261l-3.434-3.434-20.7,20.7a15.371,15.371,0,0,0-2.879,4l-1.265,2.528a5.38,5.38,0,0,1-3.11,2.7l-1.229.41a7.693,7.693,0,0,0-3.005,1.856l-5.47,5.47,3.755,3.755" fill="none" stroke="#000" stroke-linecap="round" stroke-linejoin="round" stroke-width="2.306"/>
          <rect id="Rectángulo_360890" data-name="Rectángulo 360890" width="7.163" height="4.775" transform="matrix(0.707, -0.707, 0.707, 0.707, 407.646, 241.778)" fill="none" stroke="#000" stroke-linecap="round" stroke-linejoin="round" stroke-width="2.306"/>
          <line id="Línea_3523" data-name="Línea 3523" x1="6.753" y1="6.753" transform="translate(405.958 240.09)" fill="none" stroke="#000" stroke-linecap="round" stroke-linejoin="round" stroke-width="2.306"/>
          <rect id="Rectángulo_360891" data-name="Rectángulo 360891" width="4.775" height="7.163" transform="translate(411.022 235.026) rotate(-45)" fill="none" stroke="#000" stroke-linecap="round" stroke-linejoin="round" stroke-width="2.306"/>
          <line id="Línea_3524" data-name="Línea 3524" x2="5.065" y2="5.065" transform="translate(419.464 236.714)" fill="none" stroke="#000" stroke-linecap="round" stroke-linejoin="round" stroke-width="2.306"/>
          <line id="Línea_3525" data-name="Línea 3525" x2="5.065" y2="5.065" transform="translate(416.087 240.09)" fill="none" stroke="#000" stroke-linecap="round" stroke-linejoin="round" stroke-width="2.306"/>
          <path id="Trazado_773471" data-name="Trazado 773471" d="M417.852,228.35a3.853,3.853,0,0,0-.364.784l-1.4,4.2" fill="none" stroke="#000" stroke-linecap="round" stroke-linejoin="round" stroke-width="2.306"/>
          <path id="Trazado_773472" data-name="Trazado 773472" d="M419.464,236.714l4.2-1.4a3.855,3.855,0,0,0,.784-.364" fill="none" stroke="#000" stroke-linecap="round" stroke-linejoin="round" stroke-width="2.306"/>
          <path id="Trazado_773473" data-name="Trazado 773473" d="M418.417,227.631a3.87,3.87,0,0,0-.565.718l6.6,6.6a3.8,3.8,0,0,0,.719-.564l4.423-4.423-6.753-6.753Z" fill="none" stroke="#000" stroke-linecap="round" stroke-linejoin="round" stroke-width="2.306"/>
          <path id="Trazado_773474" data-name="Trazado 773474" d="M455.772,251.452a2.387,2.387,0,1,1-2.387,2.387A2.387,2.387,0,0,1,455.772,251.452Z" fill="none" stroke="#000" stroke-linecap="round" stroke-linejoin="round" stroke-width="2.306"/>
          <path id="Trazado_773475" data-name="Trazado 773475" d="M466.338,244.168a14.3,14.3,0,0,0-8.179-4.455V234.74h-4.775v4.973a14.338,14.338,0,0,0-11.739,11.739h-4.973v4.775h4.973a14.337,14.337,0,0,0,11.739,11.74v4.973h4.775v-4.973a14.338,14.338,0,0,0,11.739-11.74h4.973v-4.775H469.9a14.223,14.223,0,0,0-.691-2.593m-11.048,14.23V261h-4.775v2.087a9.568,9.568,0,0,1-6.862-6.862h2.087v-4.775h-2.087a9.568,9.568,0,0,1,6.862-6.861v2.086h4.775v-2.086a9.568,9.568,0,0,1,6.862,6.862h-2.087v4.774h2.087A9.568,9.568,0,0,1,458.159,263.089Z" fill="none" stroke="#000" stroke-linecap="round" stroke-linejoin="round" stroke-width="2.306"/>
          <path id="Trazado_773476" data-name="Trazado 773476" d="M465.212,207.848l3.156-3.157-3.376-3.376-26.443,26.443" fill="none" stroke="#000" stroke-linecap="round" stroke-linejoin="round" stroke-width="2.306"/>
          <line id="Línea_3526" data-name="Línea 3526" y1="19.429" x2="19.429" transform="translate(441.925 211.705)" fill="none" stroke="#000" stroke-linecap="round" stroke-linejoin="round" stroke-width="2.306"/>
          <line id="Línea_3527" data-name="Línea 3527" x1="2.648" y1="2.648" transform="translate(459.696 201.315)" fill="none" stroke="#000" stroke-linecap="round" stroke-linejoin="round" stroke-width="2.306"/>
          <line id="Línea_3528" data-name="Línea 3528" x1="2.377" y1="2.377" transform="translate(407.646 265.414)" fill="none" stroke="#000" stroke-linecap="round" stroke-linejoin="round" stroke-width="2.306"/>
          <path id="Trazado_773477" data-name="Trazado 773477" d="M80.012,228.563l.381,5.36c4.973-.677,8.886,4.4,13.449,4.174a12.008,12.008,0,0,0,10.188-6.452,1.171,1.171,0,0,0-.247-1.387c-5.766-5.4-17.26-5.869-23.771-1.695" fill="#e8ad8c"/>
          <path id="Trazado_773478" data-name="Trazado 773478" d="M40.257,228.563l-.382,5.36c-4.972-.677-8.885,4.4-13.448,4.174a12.008,12.008,0,0,1-10.188-6.452,1.171,1.171,0,0,1,.247-1.387c5.766-5.4,17.259-5.869,23.771-1.695" fill="#e8ad8c"/>
          <path id="Trazado_773479" data-name="Trazado 773479" d="M75.321,214.284q-.744-.579-1.526-1.1a14.407,14.407,0,0,1-3.1-2.748,14.362,14.362,0,0,0-21.128,0,14.517,14.517,0,0,1-3.1,2.753q-.766.507-1.5,1.076A20.491,20.491,0,0,0,40.539,241.7l1.073,1.628a21.46,21.46,0,0,1,3.4,9.433l1.2,10.851H74.048l1.2-10.851a21.46,21.46,0,0,1,3.4-9.433l1.075-1.631a20.486,20.486,0,0,0-4.41-27.416" fill="#e8ad8c"/>
          <path id="Trazado_773480" data-name="Trazado 773480" d="M75.321,214.284q-.744-.579-1.526-1.1a14.407,14.407,0,0,1-3.1-2.748,13.76,13.76,0,0,0-10.564-4.632,14.954,14.954,0,0,0-4.712.752c20.72,6.076,23.692,27.418,18.462,35.142l-1.074,1.63a21.46,21.46,0,0,0-3.4,9.433l-1.2,10.851h5.846l1.2-10.851a21.46,21.46,0,0,1,3.4-9.433l1.075-1.63a20.487,20.487,0,0,0-4.41-27.417" fill="#e19974"/>
          <path id="Trazado_773481" data-name="Trazado 773481" d="M76.789,215.545c-.492-.464-1.01-.909-1.556-1.33q-.7-.538-1.429-1.023a14.478,14.478,0,0,1-3.106-2.754,14.362,14.362,0,0,0-21.128,0,14.449,14.449,0,0,1-3.1,2.754q-.73.484-1.429,1.023a20.426,20.426,0,0,0-1.556,1.33c.981,4.425,4.721,6.716,8.312,9.662a11.337,11.337,0,0,1,4.156,8.764v12.843a21.817,21.817,0,0,1-5.79,14.8l-.665.72H70.775l-.665-.72a21.823,21.823,0,0,1-5.79-14.8V233.971a11.34,11.34,0,0,1,4.156-8.764c3.592-2.946,7.332-5.237,8.313-9.662" fill="#efedef"/>
          <path id="Trazado_773482" data-name="Trazado 773482" d="M73.8,213.193a14.5,14.5,0,0,1-3.106-2.754,13.758,13.758,0,0,0-10.564-4.632,14.943,14.943,0,0,0-4.711.752c9.207,2.7,14.908,8.416,17.943,14.611a10.969,10.969,0,0,0,3.423-5.624q-.738-.7-1.556-1.331-.7-.538-1.429-1.022" fill="#e5e1e5"/>
          <path id="Trazado_773483" data-name="Trazado 773483" d="M60.134,260.072c6.167,0,11.167,4.106,11.167,9.172s-5,9.172-11.167,9.172-11.167-4.107-11.167-9.172,5-9.172,11.167-9.172" fill="#e8ad8c"/>
          <path id="Trazado_773484" data-name="Trazado 773484" d="M60.134,260.072a13.684,13.684,0,0,0-1.959.143,9.254,9.254,0,0,1,0,18.057,13.543,13.543,0,0,0,1.959.144c6.167,0,11.167-4.107,11.167-9.172s-5-9.172-11.167-9.172" fill="#e19974"/>
          <path id="Trazado_773485" data-name="Trazado 773485" d="M60.134,268.96c-3.481,0-11.991,6.514-15.033,2.1-3.5-5.076-1.109-14.48,4.972-14.48,4.554,0,7.794,1.165,10.061,1.165s5.508-1.165,10.061-1.165c6.081,0,8.47,9.4,4.973,14.48-3.043,4.417-11.553-2.1-15.034-2.1" fill="#ffd3d6"/>
          <path id="Trazado_773486" data-name="Trazado 773486" d="M98.552,227.127a15.51,15.51,0,0,1,5.231,3.13,1.172,1.172,0,0,1,.247,1.387A12,12,0,0,1,93.841,238.1c-3.8.186-7.148-3.3-11.035-4.081" fill="none" stroke="#000" stroke-linecap="round" stroke-linejoin="round" stroke-width="2.657"/>
          <path id="Trazado_773487" data-name="Trazado 773487" d="M82.881,227.133a22.667,22.667,0,0,1,9.591-1.293" fill="none" stroke="#000" stroke-linecap="round" stroke-linejoin="round" stroke-width="2.657"/>
          <path id="Trazado_773488" data-name="Trazado 773488" d="M37.462,234.015c-3.887.779-7.237,4.268-11.035,4.082a12.005,12.005,0,0,1-10.188-6.452,1.17,1.17,0,0,1,.246-1.387c4.992-4.675,14.277-5.655,20.9-3.125" fill="none" stroke="#000" stroke-linecap="round" stroke-linejoin="round" stroke-width="2.657"/>
          <path id="Trazado_773489" data-name="Trazado 773489" d="M41.276,242.822l-.737-1.118a20.492,20.492,0,0,1,4.429-27.436q.731-.568,1.5-1.077a14.482,14.482,0,0,0,3.1-2.753,14.365,14.365,0,0,1,21.128,0,14.432,14.432,0,0,0,3.1,2.749q.783.516,1.527,1.1A20.487,20.487,0,0,1,79.731,241.7l-1.074,1.631a21.44,21.44,0,0,0-3.406,9.432l-.661,5.958" fill="none" stroke="#000" stroke-linecap="round" stroke-linejoin="round" stroke-width="2.657"/>
          <path id="Trazado_773490" data-name="Trazado 773490" d="M44.05,248.354a21.54,21.54,0,0,1,.967,4.409l.661,5.958" fill="none" stroke="#000" stroke-linecap="round" stroke-linejoin="round" stroke-width="2.657"/>
          <path id="Trazado_773491" data-name="Trazado 773491" d="M66.737,256.792a21.808,21.808,0,0,1-2.416-9.977V233.971a11.334,11.334,0,0,1,4.156-8.764c3.591-2.946,7.33-5.237,8.312-9.662" fill="none" stroke="#000" stroke-linecap="round" stroke-linejoin="round" stroke-width="2.657"/>
          <path id="Trazado_773492" data-name="Trazado 773492" d="M43.48,215.545c.981,4.425,4.721,6.716,8.312,9.662a11.337,11.337,0,0,1,4.156,8.764v12.844a21.8,21.8,0,0,1-2.416,9.977" fill="none" stroke="#000" stroke-linecap="round" stroke-linejoin="round" stroke-width="2.657"/>
          <path id="Trazado_773493" data-name="Trazado 773493" d="M49.673,272.46c1.586,3.479,5.671,5.956,10.461,5.956s8.876-2.477,10.461-5.956" fill="none" stroke="#000" stroke-linecap="round" stroke-linejoin="round" stroke-width="2.657"/>
          <path id="Trazado_773494" data-name="Trazado 773494" d="M60.134,268.96c-3.481,0-11.991,6.514-15.034,2.1-3.5-5.076-1.108-14.48,4.973-14.48,4.553,0,7.794,1.165,10.061,1.165s5.508-1.165,10.061-1.165c6.081,0,8.47,9.4,4.973,14.48C72.125,275.474,63.615,268.96,60.134,268.96Z" fill="none" stroke="#000" stroke-linecap="round" stroke-linejoin="round" stroke-width="2.657"/>
          <path id="Trazado_773495" data-name="Trazado 773495" d="M69.108,266.8a2.678,2.678,0,0,0,1.945-2.274l.248-2.146" fill="none" stroke="#000" stroke-linecap="round" stroke-linejoin="round" stroke-width="2.657"/>
          <path id="Trazado_773496" data-name="Trazado 773496" d="M51.161,266.8a2.678,2.678,0,0,1-1.945-2.274l-.248-2.146" fill="none" stroke="#000" stroke-linecap="round" stroke-linejoin="round" stroke-width="2.657"/>
          <line id="Línea_3529" data-name="Línea 3529" y2="2.635" transform="translate(74.124 231.75)" fill="none" stroke="#000" stroke-linecap="round" stroke-linejoin="round" stroke-width="2.657"/>
          <line id="Línea_3530" data-name="Línea 3530" y2="2.635" transform="translate(46.145 231.75)" fill="none" stroke="#000" stroke-linecap="round" stroke-linejoin="round" stroke-width="2.657"/>
        </g>
      </g>
    </g>
    <path id="Trazado_773900" data-name="Trazado 773900" d="M13.051,12.016A1.2,1.2,0,0,0,12.582,11a6.148,6.148,0,0,0-1.687-.75,11.963,11.963,0,0,1-1.93-.777,3.153,3.153,0,0,1-1.937-2.82A2.747,2.747,0,0,1,7.547,5,3.389,3.389,0,0,1,9.039,3.875a5.616,5.616,0,0,1,2.184-.406,5.112,5.112,0,0,1,2.172.441,3.458,3.458,0,0,1,1.48,1.246A3.261,3.261,0,0,1,15.4,6.984H13.059a1.534,1.534,0,0,0-.492-1.215,2.023,2.023,0,0,0-1.383-.434A2.162,2.162,0,0,0,9.848,5.7a1.146,1.146,0,0,0-.477.957,1.1,1.1,0,0,0,.559.93,6.311,6.311,0,0,0,1.645.7,7.106,7.106,0,0,1,2.914,1.492A2.972,2.972,0,0,1,15.4,12a2.737,2.737,0,0,1-1.117,2.316,4.891,4.891,0,0,1-3.008.84,5.808,5.808,0,0,1-2.391-.48,3.783,3.783,0,0,1-1.645-1.316,3.371,3.371,0,0,1-.566-1.937H9.027q0,1.883,2.25,1.883a2.189,2.189,0,0,0,1.3-.34A1.106,1.106,0,0,0,13.051,12.016ZM19.223,15H16.957V6.547h2.266Zm-2.4-10.641a1.112,1.112,0,0,1,.34-.836,1.465,1.465,0,0,1,1.848,0,1.105,1.105,0,0,1,.344.836,1.108,1.108,0,0,1-.348.844,1.448,1.448,0,0,1-1.836,0A1.108,1.108,0,0,1,16.824,4.359ZM23.465,15H21.2V3h2.266Zm5.023-2.758,1.57-5.7h2.359L29.566,15H27.41L24.559,6.547h2.359ZM35.793,15H33.527V6.547h2.266Zm-2.4-10.641a1.112,1.112,0,0,1,.34-.836,1.465,1.465,0,0,1,1.848,0,1.105,1.105,0,0,1,.344.836,1.108,1.108,0,0,1-.348.844,1.448,1.448,0,0,1-1.836,0A1.108,1.108,0,0,1,33.395,4.359Zm7.773,8.977a1.481,1.481,0,0,0,1.016-.344,1.2,1.2,0,0,0,.406-.914h2.117a2.9,2.9,0,0,1-.469,1.574,3.093,3.093,0,0,1-1.262,1.109,3.949,3.949,0,0,1-1.77.395A3.67,3.67,0,0,1,38.348,14,4.56,4.56,0,0,1,37.3,10.82v-.148A4.508,4.508,0,0,1,38.34,7.555a3.627,3.627,0,0,1,2.852-1.164,3.555,3.555,0,0,1,2.543.9,3.2,3.2,0,0,1,.973,2.4H42.59a1.551,1.551,0,0,0-.406-1.072,1.51,1.51,0,0,0-2.223.163,3.333,3.333,0,0,0-.4,1.866v.235a3.375,3.375,0,0,0,.4,1.878A1.377,1.377,0,0,0,41.168,13.336Zm9.891.8a2.831,2.831,0,0,1-2.312,1.016,2.67,2.67,0,0,1-2.074-.781,3.335,3.335,0,0,1-.73-2.289V6.547H48.2v5.467q0,1.322,1.2,1.322a1.63,1.63,0,0,0,1.578-.8V6.547h2.266V15H51.121ZM57.332,15H55.066V3h2.266ZM61.895,4.469V6.547H63.34V8.2H61.895v4.219a1.007,1.007,0,0,0,.18.672.9.9,0,0,0,.688.2,3.6,3.6,0,0,0,.664-.055v1.711a4.648,4.648,0,0,1-1.367.2,2.156,2.156,0,0,1-2.422-2.4V8.2H58.4V6.547h1.234V4.469Zm7.766,9.672a2.831,2.831,0,0,1-2.312,1.016,2.67,2.67,0,0,1-2.074-.781,3.335,3.335,0,0,1-.73-2.289V6.547H66.8v5.467q0,1.322,1.2,1.322a1.63,1.63,0,0,0,1.578-.8V6.547h2.266V15H69.723ZM78.3,8.664a6.134,6.134,0,0,0-.812-.062,1.654,1.654,0,0,0-1.68.867V15H73.551V6.547h2.133l.063,1.008a2.092,2.092,0,0,1,1.883-1.164,2.366,2.366,0,0,1,.7.1ZM84.051,15a2.507,2.507,0,0,1-.227-.758,2.732,2.732,0,0,1-2.133.914,3,3,0,0,1-2.059-.719,2.312,2.312,0,0,1-.816-1.812,2.389,2.389,0,0,1,1-2.062,4.915,4.915,0,0,1,2.879-.727H83.73V9.352a1.393,1.393,0,0,0-.3-.937,1.183,1.183,0,0,0-.949-.352,1.345,1.345,0,0,0-.895.273.929.929,0,0,0-.324.75H79a2.268,2.268,0,0,1,.453-1.359,3,3,0,0,1,1.281-.98A4.669,4.669,0,0,1,82.6,6.391a3.689,3.689,0,0,1,2.48.785A2.747,2.747,0,0,1,86,9.383v3.664a4.041,4.041,0,0,0,.336,1.82V15Zm-1.867-1.57a1.945,1.945,0,0,0,.922-.223,1.462,1.462,0,0,0,.625-.6V11.156h-.844q-1.7,0-1.8,1.172l-.008.133a.9.9,0,0,0,.3.7A1.153,1.153,0,0,0,82.184,13.43Z" transform="translate(823 1304)" fill="#12263f"/>
    <path id="Trazado_773901" data-name="Trazado 773901" d="M17.078,12.656H12.969L12.188,15H9.7L13.93,3.625H16.1L20.359,15H17.867Zm-3.477-1.9h2.844L15.016,6.5Zm14.906.094a5.07,5.07,0,0,1-.887,3.129,2.843,2.843,0,0,1-2.395,1.176,2.633,2.633,0,0,1-2.07-.891V18.25H20.9V6.547h2.094l.078.828a2.654,2.654,0,0,1,2.141-.984,2.862,2.862,0,0,1,2.43,1.156,5.207,5.207,0,0,1,.867,3.188Zm-2.258-.164a3.327,3.327,0,0,0-.418-1.82,1.361,1.361,0,0,0-1.215-.641,1.478,1.478,0,0,0-1.461.813V12.5a1.5,1.5,0,0,0,1.477.836Q26.25,13.336,26.25,10.688ZM32.289,15H30.023V6.547h2.266Zm-2.4-10.641a1.112,1.112,0,0,1,.34-.836,1.465,1.465,0,0,1,1.848,0,1.105,1.105,0,0,1,.344.836,1.108,1.108,0,0,1-.348.844,1.448,1.448,0,0,1-1.836,0A1.108,1.108,0,0,1,29.891,4.359Zm7.773,8.977a1.481,1.481,0,0,0,1.016-.344,1.2,1.2,0,0,0,.406-.914H41.2a2.9,2.9,0,0,1-.469,1.574,3.093,3.093,0,0,1-1.262,1.109,3.949,3.949,0,0,1-1.77.395A3.67,3.67,0,0,1,34.844,14,4.56,4.56,0,0,1,33.8,10.82v-.148a4.508,4.508,0,0,1,1.039-3.117,3.627,3.627,0,0,1,2.852-1.164,3.555,3.555,0,0,1,2.543.9A3.2,3.2,0,0,1,41.2,9.7H39.086a1.551,1.551,0,0,0-.406-1.072,1.51,1.51,0,0,0-2.223.163,3.333,3.333,0,0,0-.4,1.866v.235a3.375,3.375,0,0,0,.4,1.878A1.377,1.377,0,0,0,37.664,13.336Zm9.891.8a2.831,2.831,0,0,1-2.312,1.016,2.67,2.67,0,0,1-2.074-.781,3.335,3.335,0,0,1-.73-2.289V6.547H44.7v5.467q0,1.322,1.2,1.322a1.63,1.63,0,0,0,1.578-.8V6.547h2.266V15H47.617ZM53.828,15H51.563V3h2.266ZM58.391,4.469V6.547h1.445V8.2H58.391v4.219a1.007,1.007,0,0,0,.18.672.9.9,0,0,0,.688.2,3.6,3.6,0,0,0,.664-.055v1.711a4.648,4.648,0,0,1-1.367.2,2.156,2.156,0,0,1-2.422-2.4V8.2H54.9V6.547h1.234V4.469Zm7.766,9.672a2.831,2.831,0,0,1-2.312,1.016,2.67,2.67,0,0,1-2.074-.781,3.335,3.335,0,0,1-.73-2.289V6.547H63.3v5.467q0,1.322,1.2,1.322a1.63,1.63,0,0,0,1.578-.8V6.547h2.266V15H66.219ZM74.8,8.664a6.134,6.134,0,0,0-.812-.062,1.654,1.654,0,0,0-1.68.867V15H70.047V6.547H72.18l.063,1.008a2.092,2.092,0,0,1,1.883-1.164,2.366,2.366,0,0,1,.7.1ZM80.547,15a2.507,2.507,0,0,1-.227-.758,2.732,2.732,0,0,1-2.133.914,3,3,0,0,1-2.059-.719,2.312,2.312,0,0,1-.816-1.812,2.389,2.389,0,0,1,1-2.062,4.915,4.915,0,0,1,2.879-.727h1.039V9.352a1.393,1.393,0,0,0-.3-.937,1.183,1.183,0,0,0-.949-.352,1.345,1.345,0,0,0-.895.273.929.929,0,0,0-.324.75H75.5a2.268,2.268,0,0,1,.453-1.359,3,3,0,0,1,1.281-.98,4.669,4.669,0,0,1,1.859-.355,3.689,3.689,0,0,1,2.48.785,2.747,2.747,0,0,1,.918,2.207v3.664a4.041,4.041,0,0,0,.336,1.82V15ZM78.68,13.43a1.945,1.945,0,0,0,.922-.223,1.462,1.462,0,0,0,.625-.6V11.156h-.844q-1.7,0-1.8,1.172l-.008.133a.9.9,0,0,0,.3.7A1.153,1.153,0,0,0,78.68,13.43Z" transform="translate(947 1390)" fill="#12263f"/>
    <path id="Trazado_773902" data-name="Trazado 773902" d="M19.777,13.563a4.068,4.068,0,0,1-1.789,1.176,7.492,7.492,0,0,1-2.562.418,5.076,5.076,0,0,1-2.59-.645,4.3,4.3,0,0,1-1.719-1.871A6.585,6.585,0,0,1,10.5,9.758V8.984a6.994,6.994,0,0,1,.574-2.949,4.248,4.248,0,0,1,1.656-1.906,4.771,4.771,0,0,1,2.535-.66,4.751,4.751,0,0,1,3.164.965,4.123,4.123,0,0,1,1.352,2.809H17.5a2.268,2.268,0,0,0-.691-1.43,2.208,2.208,0,0,0-1.473-.453,2.078,2.078,0,0,0-1.82.9,4.724,4.724,0,0,0-.633,2.672v.727a4.5,4.5,0,0,0,.68,2.7,2.327,2.327,0,0,0,1.992.914,2.6,2.6,0,0,0,1.883-.562V10.75H15.3V9.023h4.477ZM26.426,15a2.507,2.507,0,0,1-.227-.758,2.732,2.732,0,0,1-2.133.914,3,3,0,0,1-2.059-.719,2.312,2.312,0,0,1-.816-1.812,2.389,2.389,0,0,1,1-2.062,4.915,4.915,0,0,1,2.879-.727h1.039V9.352a1.393,1.393,0,0,0-.3-.937,1.183,1.183,0,0,0-.949-.352,1.345,1.345,0,0,0-.895.273.929.929,0,0,0-.324.75H21.379a2.268,2.268,0,0,1,.453-1.359,3,3,0,0,1,1.281-.98,4.669,4.669,0,0,1,1.859-.355,3.689,3.689,0,0,1,2.48.785,2.747,2.747,0,0,1,.918,2.207v3.664a4.041,4.041,0,0,0,.336,1.82V15Zm-1.867-1.57a1.945,1.945,0,0,0,.922-.223,1.462,1.462,0,0,0,.625-.6V11.156h-.844q-1.7,0-1.8,1.172l-.008.133a.9.9,0,0,0,.3.7A1.153,1.153,0,0,0,24.559,13.43Zm7.625-6.883.07.977a2.951,2.951,0,0,1,2.43-1.133,2.453,2.453,0,0,1,2,.789,3.682,3.682,0,0,1,.672,2.359V15H35.1V9.594a1.465,1.465,0,0,0-.312-1.043,1.4,1.4,0,0,0-1.039-.324,1.553,1.553,0,0,0-1.43.813V15H30.059V6.547ZM43.965,15a2.507,2.507,0,0,1-.227-.758,2.732,2.732,0,0,1-2.133.914,3,3,0,0,1-2.059-.719,2.312,2.312,0,0,1-.816-1.812,2.389,2.389,0,0,1,1-2.062,4.915,4.915,0,0,1,2.879-.727h1.039V9.352a1.393,1.393,0,0,0-.3-.937,1.183,1.183,0,0,0-.949-.352,1.345,1.345,0,0,0-.895.273.929.929,0,0,0-.324.75H38.918a2.268,2.268,0,0,1,.453-1.359,3,3,0,0,1,1.281-.98,4.669,4.669,0,0,1,1.859-.355,3.689,3.689,0,0,1,2.48.785,2.747,2.747,0,0,1,.918,2.207v3.664a4.041,4.041,0,0,0,.336,1.82V15ZM42.1,13.43a1.945,1.945,0,0,0,.922-.223,1.462,1.462,0,0,0,.625-.6V11.156H42.8q-1.7,0-1.8,1.172l-.008.133a.9.9,0,0,0,.3.7A1.153,1.153,0,0,0,42.1,13.43Zm5.2-2.719a5.094,5.094,0,0,1,.887-3.148,2.877,2.877,0,0,1,2.426-1.172,2.589,2.589,0,0,1,2.039.922V3H54.91V15H52.871l-.109-.9a2.657,2.657,0,0,1-2.172,1.055A2.869,2.869,0,0,1,48.2,13.98,5.258,5.258,0,0,1,47.293,10.711Zm2.258.168a3.337,3.337,0,0,0,.414,1.823,1.349,1.349,0,0,0,1.2.634,1.511,1.511,0,0,0,1.477-.884V9.111a1.489,1.489,0,0,0-1.461-.884Q49.551,8.227,49.551,10.879Zm11,4.277a4.15,4.15,0,0,1-3.027-1.141,4.054,4.054,0,0,1-1.168-3.039v-.219a5.106,5.106,0,0,1,.492-2.277,3.612,3.612,0,0,1,1.395-1.547A3.914,3.914,0,0,1,60.3,6.391a3.508,3.508,0,0,1,2.73,1.094,4.444,4.444,0,0,1,1,3.1v.922H58.645a2.1,2.1,0,0,0,.66,1.328,2,2,0,0,0,1.395.5,2.437,2.437,0,0,0,2.039-.945l1.109,1.242a3.389,3.389,0,0,1-1.375,1.121A4.511,4.511,0,0,1,60.551,15.156Zm-.258-6.945a1.411,1.411,0,0,0-1.09.455,2.357,2.357,0,0,0-.535,1.3h3.141V9.788A1.681,1.681,0,0,0,61.4,8.623,1.456,1.456,0,0,0,60.293,8.211Zm9.766.453a6.134,6.134,0,0,0-.812-.062,1.654,1.654,0,0,0-1.68.867V15H65.309V6.547h2.133L67.5,7.555a2.092,2.092,0,0,1,1.883-1.164,2.366,2.366,0,0,1,.7.1ZM73.582,15H71.324V6.547h2.258ZM72.918,3.117h2.461L73.215,5.539H71.379ZM80.426,15a2.507,2.507,0,0,1-.227-.758,2.732,2.732,0,0,1-2.133.914,3,3,0,0,1-2.059-.719,2.312,2.312,0,0,1-.816-1.812,2.389,2.389,0,0,1,1-2.062,4.915,4.915,0,0,1,2.879-.727h1.039V9.352a1.393,1.393,0,0,0-.3-.937,1.183,1.183,0,0,0-.949-.352,1.345,1.345,0,0,0-.895.273.929.929,0,0,0-.324.75H75.379a2.268,2.268,0,0,1,.453-1.359,3,3,0,0,1,1.281-.98,4.669,4.669,0,0,1,1.859-.355,3.689,3.689,0,0,1,2.48.785,2.747,2.747,0,0,1,.918,2.207v3.664a4.041,4.041,0,0,0,.336,1.82V15Zm-1.867-1.57a1.945,1.945,0,0,0,.922-.223,1.462,1.462,0,0,0,.625-.6V11.156h-.844q-1.7,0-1.8,1.172l-.008.133a.9.9,0,0,0,.3.7A1.153,1.153,0,0,0,78.559,13.43Z" transform="translate(838 1497)" fill="#12263f"/>
    <path id="Trazado_773903" data-name="Trazado 773903" d="M23.246,3.625l2.922,8.25,2.906-8.25h3.078V15H29.8V11.891l.234-5.367L26.965,15H25.355L22.293,6.531l.234,5.359V15H20.184V3.625ZM36.434,15H34.168V6.547h2.266Zm-2.4-10.641a1.112,1.112,0,0,1,.34-.836,1.465,1.465,0,0,1,1.848,0,1.105,1.105,0,0,1,.344.836,1.108,1.108,0,0,1-.348.844,1.448,1.448,0,0,1-1.836,0A1.108,1.108,0,0,1,34.035,4.359Zm6.336,2.188.07.977a2.951,2.951,0,0,1,2.43-1.133,2.453,2.453,0,0,1,2,.789,3.682,3.682,0,0,1,.672,2.359V15H43.285V9.594a1.465,1.465,0,0,0-.312-1.043,1.4,1.4,0,0,0-1.039-.324,1.553,1.553,0,0,0-1.43.813V15H38.246V6.547Zm10.773,8.609a4.15,4.15,0,0,1-3.027-1.141,4.054,4.054,0,0,1-1.168-3.039v-.219a5.106,5.106,0,0,1,.492-2.277,3.612,3.612,0,0,1,1.395-1.547,3.914,3.914,0,0,1,2.059-.543,3.508,3.508,0,0,1,2.73,1.094,4.444,4.444,0,0,1,1,3.1v.922H49.238a2.1,2.1,0,0,0,.66,1.328,2,2,0,0,0,1.395.5,2.437,2.437,0,0,0,2.039-.945l1.109,1.242a3.389,3.389,0,0,1-1.375,1.121A4.511,4.511,0,0,1,51.145,15.156Zm-.258-6.945a1.411,1.411,0,0,0-1.09.455,2.357,2.357,0,0,0-.535,1.3H52.4V9.788A1.681,1.681,0,0,0,52,8.623,1.456,1.456,0,0,0,50.887,8.211Zm9.766.453A6.134,6.134,0,0,0,59.84,8.6a1.654,1.654,0,0,0-1.68.867V15H55.9V6.547h2.133L58.1,7.555A2.092,2.092,0,0,1,59.98,6.391a2.366,2.366,0,0,1,.7.1ZM64.176,15H61.918V6.547h2.258ZM63.512,3.117h2.461L63.809,5.539H61.973ZM71.02,15a2.507,2.507,0,0,1-.227-.758,2.732,2.732,0,0,1-2.133.914,3,3,0,0,1-2.059-.719,2.312,2.312,0,0,1-.816-1.812,2.389,2.389,0,0,1,1-2.062,4.915,4.915,0,0,1,2.879-.727H70.7V9.352a1.393,1.393,0,0,0-.3-.937,1.183,1.183,0,0,0-.949-.352,1.345,1.345,0,0,0-.895.273.929.929,0,0,0-.324.75H65.973a2.268,2.268,0,0,1,.453-1.359,3,3,0,0,1,1.281-.98,4.669,4.669,0,0,1,1.859-.355,3.689,3.689,0,0,1,2.48.785,2.747,2.747,0,0,1,.918,2.207v3.664a4.041,4.041,0,0,0,.336,1.82V15Zm-1.867-1.57a1.945,1.945,0,0,0,.922-.223,1.462,1.462,0,0,0,.625-.6V11.156h-.844q-1.7,0-1.8,1.172l-.008.133a.9.9,0,0,0,.3.7A1.153,1.153,0,0,0,69.152,13.43Z" transform="translate(1027 1509)" fill="#12263f"/>
    <path id="Trazado_773904" data-name="Trazado 773904" d="M27.852,10.992V15H25.508V3.625h4.438a5.134,5.134,0,0,1,2.254.469,3.454,3.454,0,0,1,1.5,1.332,3.714,3.714,0,0,1,.523,1.965,3.266,3.266,0,0,1-1.145,2.637,4.767,4.767,0,0,1-3.168.965Zm0-1.9h2.094a2.059,2.059,0,0,0,1.418-.437,1.591,1.591,0,0,0,.488-1.25,1.876,1.876,0,0,0-.492-1.352A1.839,1.839,0,0,0,30,5.523H27.852Zm11.617,6.063a4.15,4.15,0,0,1-3.027-1.141,4.054,4.054,0,0,1-1.168-3.039v-.219a5.106,5.106,0,0,1,.492-2.277A3.612,3.612,0,0,1,37.16,6.934a3.914,3.914,0,0,1,2.059-.543,3.508,3.508,0,0,1,2.73,1.094,4.444,4.444,0,0,1,1,3.1v.922H37.563a2.1,2.1,0,0,0,.66,1.328,2,2,0,0,0,1.395.5,2.437,2.437,0,0,0,2.039-.945l1.109,1.242a3.389,3.389,0,0,1-1.375,1.121A4.511,4.511,0,0,1,39.469,15.156Zm-.258-6.945a1.411,1.411,0,0,0-1.09.455,2.357,2.357,0,0,0-.535,1.3h3.141V9.788a1.681,1.681,0,0,0-.406-1.165A1.456,1.456,0,0,0,39.211,8.211ZM48.8,12.664a.727.727,0,0,0-.41-.652,4.659,4.659,0,0,0-1.316-.426q-3.016-.633-3.016-2.562A2.323,2.323,0,0,1,45,7.145a3.766,3.766,0,0,1,2.441-.754,4.053,4.053,0,0,1,2.574.758,2.388,2.388,0,0,1,.965,1.969H48.719a1.092,1.092,0,0,0-.312-.8A1.322,1.322,0,0,0,47.43,8a1.351,1.351,0,0,0-.883.258.814.814,0,0,0-.312.656.7.7,0,0,0,.355.605,3.657,3.657,0,0,0,1.2.4,9.8,9.8,0,0,1,1.422.379A2.336,2.336,0,0,1,51,12.57a2.2,2.2,0,0,1-.992,1.871,4.28,4.28,0,0,1-2.562.715,4.47,4.47,0,0,1-1.887-.379,3.166,3.166,0,0,1-1.293-1.039,2.414,2.414,0,0,1-.469-1.426h2.141a1.179,1.179,0,0,0,.445.922,1.766,1.766,0,0,0,1.109.32,1.635,1.635,0,0,0,.98-.246A.766.766,0,0,0,48.8,12.664Zm7.164.672a1.481,1.481,0,0,0,1.016-.344,1.2,1.2,0,0,0,.406-.914h2.117a2.9,2.9,0,0,1-.469,1.574,3.093,3.093,0,0,1-1.262,1.109,3.949,3.949,0,0,1-1.77.395A3.67,3.67,0,0,1,53.148,14,4.56,4.56,0,0,1,52.1,10.82v-.148a4.508,4.508,0,0,1,1.039-3.117,3.627,3.627,0,0,1,2.852-1.164,3.555,3.555,0,0,1,2.543.9,3.2,3.2,0,0,1,.973,2.4H57.391a1.551,1.551,0,0,0-.406-1.072,1.51,1.51,0,0,0-2.223.163,3.333,3.333,0,0,0-.4,1.866v.235a3.375,3.375,0,0,0,.4,1.878A1.377,1.377,0,0,0,55.969,13.336ZM65.7,15a2.507,2.507,0,0,1-.227-.758,2.732,2.732,0,0,1-2.133.914,3,3,0,0,1-2.059-.719,2.312,2.312,0,0,1-.816-1.812,2.389,2.389,0,0,1,1-2.062,4.915,4.915,0,0,1,2.879-.727h1.039V9.352a1.393,1.393,0,0,0-.3-.937,1.183,1.183,0,0,0-.949-.352,1.345,1.345,0,0,0-.895.273.929.929,0,0,0-.324.75H60.648A2.268,2.268,0,0,1,61.1,7.727a3,3,0,0,1,1.281-.98,4.669,4.669,0,0,1,1.859-.355,3.689,3.689,0,0,1,2.48.785,2.747,2.747,0,0,1,.918,2.207v3.664a4.041,4.041,0,0,0,.336,1.82V15Zm-1.867-1.57a1.945,1.945,0,0,0,.922-.223,1.462,1.462,0,0,0,.625-.6V11.156h-.844q-1.7,0-1.8,1.172l-.008.133a.9.9,0,0,0,.3.7A1.153,1.153,0,0,0,63.828,13.43Z" transform="translate(1098 1390)" fill="#12263f"/>
    <path id="Trazado_773905" data-name="Trazado 773905" d="M13.91,12.656H9.8L9.02,15H6.527L10.762,3.625h2.172L17.191,15H14.7Zm-3.477-1.9h2.844L11.848,6.5Zm7.344-.047A4.954,4.954,0,0,1,18.7,7.578a3,3,0,0,1,2.5-1.187,2.631,2.631,0,0,1,2.164.953l.094-.8H25.5v8.172a3.613,3.613,0,0,1-.5,1.93,3.236,3.236,0,0,1-1.418,1.25,4.985,4.985,0,0,1-2.141.43,4.635,4.635,0,0,1-1.812-.371A3.217,3.217,0,0,1,18.293,17l1-1.375a2.645,2.645,0,0,0,2.047.945,1.936,1.936,0,0,0,1.4-.48,1.8,1.8,0,0,0,.5-1.363v-.453a2.612,2.612,0,0,1-2.055.883,2.992,2.992,0,0,1-2.465-1.191,4.953,4.953,0,0,1-.941-3.16Zm2.258.168a3.085,3.085,0,0,0,.461,1.8,1.466,1.466,0,0,0,1.266.653,1.568,1.568,0,0,0,1.477-.775V9a1.564,1.564,0,0,0-1.461-.775,1.476,1.476,0,0,0-1.277.665A3.477,3.477,0,0,0,20.035,10.879ZM31.988,8.664a6.134,6.134,0,0,0-.812-.062,1.654,1.654,0,0,0-1.68.867V15H27.238V6.547h2.133l.063,1.008a2.092,2.092,0,0,1,1.883-1.164,2.366,2.366,0,0,1,.7.1ZM35.457,15H33.191V6.547h2.266Zm-2.4-10.641a1.112,1.112,0,0,1,.34-.836,1.465,1.465,0,0,1,1.848,0,1.105,1.105,0,0,1,.344.836,1.108,1.108,0,0,1-.348.844,1.448,1.448,0,0,1-1.836,0A1.108,1.108,0,0,1,33.059,4.359Zm7.773,8.977a1.481,1.481,0,0,0,1.016-.344,1.2,1.2,0,0,0,.406-.914h2.117a2.9,2.9,0,0,1-.469,1.574,3.093,3.093,0,0,1-1.262,1.109,3.949,3.949,0,0,1-1.77.395A3.67,3.67,0,0,1,38.012,14a4.56,4.56,0,0,1-1.047-3.184v-.148A4.508,4.508,0,0,1,38,7.555a3.627,3.627,0,0,1,2.852-1.164,3.555,3.555,0,0,1,2.543.9,3.2,3.2,0,0,1,.973,2.4H42.254a1.551,1.551,0,0,0-.406-1.072,1.51,1.51,0,0,0-2.223.163,3.333,3.333,0,0,0-.4,1.866v.235a3.375,3.375,0,0,0,.4,1.878A1.377,1.377,0,0,0,40.832,13.336Zm9.891.8a2.831,2.831,0,0,1-2.312,1.016,2.67,2.67,0,0,1-2.074-.781,3.335,3.335,0,0,1-.73-2.289V6.547h2.258v5.467q0,1.322,1.2,1.322a1.63,1.63,0,0,0,1.578-.8V6.547H52.91V15H50.785ZM57,15H54.73V3H57ZM61.559,4.469V6.547H63V8.2H61.559v4.219a1.007,1.007,0,0,0,.18.672.9.9,0,0,0,.688.2,3.6,3.6,0,0,0,.664-.055v1.711a4.648,4.648,0,0,1-1.367.2,2.156,2.156,0,0,1-2.422-2.4V8.2H58.066V6.547H59.3V4.469Zm7.766,9.672a2.831,2.831,0,0,1-2.312,1.016,2.67,2.67,0,0,1-2.074-.781,3.335,3.335,0,0,1-.73-2.289V6.547h2.258v5.467q0,1.322,1.2,1.322a1.63,1.63,0,0,0,1.578-.8V6.547h2.266V15H69.387Zm8.641-5.477a6.134,6.134,0,0,0-.812-.062,1.654,1.654,0,0,0-1.68.867V15H73.215V6.547h2.133l.063,1.008a2.092,2.092,0,0,1,1.883-1.164,2.366,2.366,0,0,1,.7.1ZM83.715,15a2.507,2.507,0,0,1-.227-.758,2.732,2.732,0,0,1-2.133.914,3,3,0,0,1-2.059-.719,2.312,2.312,0,0,1-.816-1.812,2.389,2.389,0,0,1,1-2.062,4.915,4.915,0,0,1,2.879-.727h1.039V9.352a1.393,1.393,0,0,0-.3-.937,1.183,1.183,0,0,0-.949-.352,1.345,1.345,0,0,0-.895.273.929.929,0,0,0-.324.75H78.668a2.268,2.268,0,0,1,.453-1.359,3,3,0,0,1,1.281-.98,4.669,4.669,0,0,1,1.859-.355,3.689,3.689,0,0,1,2.48.785,2.747,2.747,0,0,1,.918,2.207v3.664A4.041,4.041,0,0,0,86,14.867V15Zm-1.867-1.57a1.945,1.945,0,0,0,.922-.223,1.462,1.462,0,0,0,.625-.6V11.156h-.844q-1.7,0-1.8,1.172l-.008.133a.9.9,0,0,0,.3.7A1.153,1.153,0,0,0,81.848,13.43Z" transform="translate(1226 1304)" fill="#12263f"/>
  </g>
</svg>
