<svg xmlns="http://www.w3.org/2000/svg" xmlns:xlink="http://www.w3.org/1999/xlink" width="525" height="325" viewBox="0 0 525 325">
  <defs>
    <clipPath id="clip-path">
      <rect id="Rectángulo_360936" data-name="Rectángulo 360936" width="85.58" height="85.58" transform="translate(0 112.626)" fill="none"/>
    </clipPath>
    <clipPath id="clip-path-2">
      <rect id="Rectángulo_360951" data-name="Rectángulo 360951" width="402.99" height="297.839" fill="none"/>
    </clipPath>
    <clipPath id="clip-path-3">
      <rect id="Rectángulo_360963" data-name="Rectángulo 360963" width="85.58" height="85.581" transform="translate(158.705)" fill="none"/>
    </clipPath>
    <clipPath id="clip-path-4">
      <rect id="Rectángulo_360964" data-name="Rectángulo 360964" width="85.58" height="85.58" transform="translate(158.705 212.259)" fill="none"/>
    </clipPath>
  </defs>
  <g id="Grupo_1028062" data-name="Grupo 1028062" transform="translate(195 10509)">
    <path id="Trazado_773911" data-name="Trazado 773911" d="M0,0H525V325H0Z" transform="translate(-195 -10509)" fill="none"/>
    <g id="Grupo_1028014" data-name="Grupo 1028014" transform="translate(-134 -10509)">
      <path id="Trazado_773625" data-name="Trazado 773625" d="M7.071,138.482v20.341h71.8V138.482l-35.9-20.729Z" fill="#eceaec" fill-rule="evenodd"/>
      <g id="Grupo_1028007" data-name="Grupo 1028007">
        <g id="Grupo_1028006" data-name="Grupo 1028006" clip-path="url(#clip-path)">
          <path id="Trazado_773626" data-name="Trazado 773626" d="M1.691,141.026a3.3,3.3,0,0,0,4.492,1.2l.706-.407,35.9-20.729,35.905,20.729.706.407a3.286,3.286,0,0,0,3.283-5.694L44.594,114.546a3.832,3.832,0,0,0-3.611,0L2.894,136.535a3.3,3.3,0,0,0-1.2,4.491" fill="#9fd4fe" fill-rule="evenodd"/>
          <path id="Trazado_773627" data-name="Trazado 773627" d="M5.9,164.945H83.559a.771.771,0,0,0,.767-.768v-4.586a.771.771,0,0,0-.767-.768H2.023a.771.771,0,0,0-.768.768v4.586a.771.771,0,0,0,.768.768Z" fill="#9fd4fe" fill-rule="evenodd"/>
          <path id="Trazado_773628" data-name="Trazado 773628" d="M9.41,170.412h13.8a.748.748,0,0,0,.744-.744v-4.724H5.9v4.724a.748.748,0,0,0,.744.744Z" fill="#eceaec" fill-rule="evenodd"/>
          <path id="Trazado_773629" data-name="Trazado 773629" d="M37.274,170.412H51.066a.749.749,0,0,0,.749-.744v-4.724H33.763v4.724a.749.749,0,0,0,.749.744Z" fill="#eceaec" fill-rule="evenodd"/>
          <path id="Trazado_773630" data-name="Trazado 773630" d="M62.376,170.412H78.93a.749.749,0,0,0,.749-.744v-4.724H61.627v4.724a.749.749,0,0,0,.749.744" fill="#eceaec" fill-rule="evenodd"/>
          <rect id="Rectángulo_360924" data-name="Rectángulo 360924" width="11.03" height="14.736" transform="translate(65.138 170.412)" fill="#ffe07d"/>
          <rect id="Rectángulo_360925" data-name="Rectángulo 360925" width="11.03" height="14.736" transform="translate(37.274 170.412)" fill="#ffe07d"/>
          <rect id="Rectángulo_360926" data-name="Rectángulo 360926" width="11.035" height="14.736" transform="translate(9.41 170.412)" fill="#ffe07d"/>
          <path id="Trazado_773631" data-name="Trazado 773631" d="M5.9,190.616H23.95V185.9a.749.749,0,0,0-.744-.749H6.647a.749.749,0,0,0-.744.749Z" fill="#eceaec" fill-rule="evenodd"/>
          <path id="Trazado_773632" data-name="Trazado 773632" d="M61.627,190.616H79.679V185.9a.751.751,0,0,0-.749-.749H62.376a.75.75,0,0,0-.749.749Z" fill="#eceaec" fill-rule="evenodd"/>
          <path id="Trazado_773633" data-name="Trazado 773633" d="M33.763,190.616H51.815V185.9a.751.751,0,0,0-.749-.749H34.512a.75.75,0,0,0-.749.749Z" fill="#eceaec" fill-rule="evenodd"/>
          <path id="Trazado_773634" data-name="Trazado 773634" d="M2.023,196.737H83.559a.771.771,0,0,0,.768-.768v-4.586a.771.771,0,0,0-.768-.768H2.023a.771.771,0,0,0-.768.768v4.586a.771.771,0,0,0,.768.768" fill="#9fd4fe" fill-rule="evenodd"/>
          <path id="Trazado_773635" data-name="Trazado 773635" d="M38.96,132.517a4.013,4.013,0,1,0,4.013-4.013,4.012,4.012,0,0,0-4.013,4.013" fill="#ffe07d" fill-rule="evenodd"/>
          <path id="Trazado_773636" data-name="Trazado 773636" d="M20.444,170.412v14.736h2.762a.749.749,0,0,1,.744.748v4.719h9.812V185.9a.75.75,0,0,1,.749-.748h2.762V170.412H34.511a.749.749,0,0,1-.749-.744v-4.724H23.95v4.724a.748.748,0,0,1-.744.744Z" fill="#b6b1b7" fill-rule="evenodd"/>
          <path id="Trazado_773637" data-name="Trazado 773637" d="M48.3,170.412v14.736h2.762a.75.75,0,0,1,.749.748v4.719h9.812V185.9a.75.75,0,0,1,.749-.748h2.762V170.412H62.376a.749.749,0,0,1-.749-.744v-4.724H51.815v4.724a.749.749,0,0,1-.749.744Z" fill="#b6b1b7" fill-rule="evenodd"/>
          <path id="Trazado_773638" data-name="Trazado 773638" d="M42.789,121.093l-35.9,20.729v4.663l35.9-20.73,35.9,20.73v-4.663Z" fill="#dad8db" fill-rule="evenodd"/>
          <path id="Trazado_773639" data-name="Trazado 773639" d="M42.973,128.5a4.016,4.016,0,0,0-3.795,5.321,4.012,4.012,0,0,1,7.514.194,3.954,3.954,0,0,0,.294-1.5,4.015,4.015,0,0,0-4.013-4.013" fill="#ffc269" fill-rule="evenodd"/>
          <rect id="Rectángulo_360927" data-name="Rectángulo 360927" width="11.035" height="4.008" transform="translate(9.41 170.413)" fill="#ffc269"/>
          <rect id="Rectángulo_360928" data-name="Rectángulo 360928" width="11.03" height="4.008" transform="translate(37.274 170.413)" fill="#ffc269"/>
          <rect id="Rectángulo_360929" data-name="Rectángulo 360929" width="11.03" height="4.008" transform="translate(65.138 170.413)" fill="#ffc269"/>
          <rect id="Rectángulo_360930" data-name="Rectángulo 360930" width="18.047" height="2.933" transform="translate(5.903 164.944)" fill="#dad8db"/>
          <rect id="Rectángulo_360931" data-name="Rectángulo 360931" width="18.052" height="2.933" transform="translate(33.763 164.944)" fill="#dad8db"/>
          <rect id="Rectángulo_360932" data-name="Rectángulo 360932" width="18.052" height="2.933" transform="translate(61.627 164.944)" fill="#dad8db"/>
          <path id="Trazado_773640" data-name="Trazado 773640" d="M6.889,158.822v-17m71.8,0v17" fill="none" stroke="#000" stroke-linecap="round" stroke-linejoin="round" stroke-width="2.507"/>
          <path id="Trazado_773641" data-name="Trazado 773641" d="M1.691,141.026a3.3,3.3,0,0,1,1.2-4.491l38.089-21.989a3.832,3.832,0,0,1,3.611,0l38.088,21.989a3.286,3.286,0,0,1-3.283,5.694L42.788,121.093l-36.6,21.136A3.3,3.3,0,0,1,1.691,141.026Z" fill="none" stroke="#000" stroke-linecap="round" stroke-linejoin="round" stroke-width="2.507"/>
          <path id="Trazado_773642" data-name="Trazado 773642" d="M40.173,196.737H2.023a.771.771,0,0,1-.768-.768v-4.586a.771.771,0,0,1,.768-.768H83.559a.771.771,0,0,1,.767.768v4.586a.771.771,0,0,1-.767.768h-37.6" fill="none" stroke="#000" stroke-linecap="round" stroke-linejoin="round" stroke-width="2.507"/>
          <path id="Trazado_773643" data-name="Trazado 773643" d="M45.75,158.823H83.559a.771.771,0,0,1,.768.768v4.586a.771.771,0,0,1-.768.768H2.023a.771.771,0,0,1-.768-.768v-4.586a.771.771,0,0,1,.768-.768h38.15" fill="none" stroke="#000" stroke-linecap="round" stroke-linejoin="round" stroke-width="2.507"/>
          <path id="Trazado_773644" data-name="Trazado 773644" d="M5.9,164.945H23.95v4.724a.748.748,0,0,1-.744.744H6.647a.748.748,0,0,1-.744-.744Z" fill="none" stroke="#000" stroke-linecap="round" stroke-linejoin="round" stroke-width="2.507"/>
          <path id="Trazado_773645" data-name="Trazado 773645" d="M5.9,190.616H23.95V185.9a.749.749,0,0,0-.744-.749H6.647a.749.749,0,0,0-.744.749Z" fill="none" stroke="#000" stroke-linecap="round" stroke-linejoin="round" stroke-width="2.507"/>
          <rect id="Rectángulo_360933" data-name="Rectángulo 360933" width="11.035" height="14.736" transform="translate(9.41 170.412)" fill="none" stroke="#000" stroke-linecap="round" stroke-linejoin="round" stroke-width="2.507"/>
          <path id="Trazado_773646" data-name="Trazado 773646" d="M33.763,164.945H51.815v4.724a.75.75,0,0,1-.749.744H34.512a.749.749,0,0,1-.749-.744Z" fill="none" stroke="#000" stroke-linecap="round" stroke-linejoin="round" stroke-width="2.507"/>
          <path id="Trazado_773647" data-name="Trazado 773647" d="M33.763,190.616H51.815V185.9a.751.751,0,0,0-.749-.749H34.512a.75.75,0,0,0-.749.749Z" fill="none" stroke="#000" stroke-linecap="round" stroke-linejoin="round" stroke-width="2.507"/>
          <rect id="Rectángulo_360934" data-name="Rectángulo 360934" width="11.03" height="14.736" transform="translate(37.274 170.412)" fill="none" stroke="#000" stroke-linecap="round" stroke-linejoin="round" stroke-width="2.507"/>
          <path id="Trazado_773648" data-name="Trazado 773648" d="M61.627,164.945H79.679v4.724a.75.75,0,0,1-.749.744H62.376a.749.749,0,0,1-.749-.744Z" fill="none" stroke="#000" stroke-linecap="round" stroke-linejoin="round" stroke-width="2.507"/>
          <path id="Trazado_773649" data-name="Trazado 773649" d="M61.627,190.616H79.679V185.9a.751.751,0,0,0-.749-.749H62.376a.75.75,0,0,0-.749.749Z" fill="none" stroke="#000" stroke-linecap="round" stroke-linejoin="round" stroke-width="2.507"/>
          <rect id="Rectángulo_360935" data-name="Rectángulo 360935" width="11.03" height="14.736" transform="translate(65.138 170.412)" fill="none" stroke="#000" stroke-linecap="round" stroke-linejoin="round" stroke-width="2.507"/>
          <path id="Trazado_773650" data-name="Trazado 773650" d="M42.973,136.53a4.013,4.013,0,1,0-4.013-4.013A4.024,4.024,0,0,0,42.973,136.53Z" fill="none" stroke="#000" stroke-linecap="round" stroke-linejoin="round" stroke-width="2.507"/>
          <path id="Trazado_773651" data-name="Trazado 773651" d="M26.961,145.066a2.24,2.24,0,0,1-2.241,2.24c-.613,0-2.828.01-2.828.01v-4.49H24.72A2.24,2.24,0,0,1,26.961,145.066Z" fill="none" stroke="#000" stroke-linecap="round" stroke-linejoin="round" stroke-width="2.507"/>
          <path id="Trazado_773652" data-name="Trazado 773652" d="M27.835,149.93a2.62,2.62,0,0,1-2.62,2.62c-.718,0-3.322.012-3.322.012v-5.253h3.322A2.621,2.621,0,0,1,27.835,149.93Z" fill="none" stroke="#000" stroke-linecap="round" stroke-linejoin="round" stroke-width="2.507"/>
          <path id="Trazado_773653" data-name="Trazado 773653" d="M32.551,152.562l3.656-9.6a.22.22,0,0,1,.408,0l3.622,9.6" fill="none" stroke="#000" stroke-linecap="round" stroke-linejoin="round" stroke-width="2.507"/>
          <line id="Línea_3576" data-name="Línea 3576" x2="5.424" transform="translate(33.691 150.171)" fill="none" stroke="#000" stroke-linecap="round" stroke-linejoin="round" stroke-width="2.507"/>
          <path id="Trazado_773654" data-name="Trazado 773654" d="M45.352,152.562v-9.717l6.57,9.513c.121.176.252.09.252-.124l-.091-9.407" fill="none" stroke="#000" stroke-linecap="round" stroke-linejoin="round" stroke-width="2.507"/>
          <line id="Línea_3577" data-name="Línea 3577" y2="9.857" transform="translate(58.323 142.704)" fill="none" stroke="#000" stroke-linecap="round" stroke-linejoin="round" stroke-width="2.507"/>
          <path id="Trazado_773655" data-name="Trazado 773655" d="M63.625,142.829l-4.987,4.584,5.337,5.149" fill="none" stroke="#000" stroke-linecap="round" stroke-linejoin="round" stroke-width="2.507"/>
        </g>
      </g>
      <rect id="Rectángulo_360937" data-name="Rectángulo 360937" width="10.534" height="7.524" transform="translate(354.933 114.034)" fill="#ff8086"/>
      <rect id="Rectángulo_360938" data-name="Rectángulo 360938" width="4.514" height="7.524" transform="translate(354.933 114.034)" fill="#e5646e"/>
      <path id="Trazado_773656" data-name="Trazado 773656" d="M395.563,141.12H314.3l-6.019,13.543h93.3Z" fill="#ff8086"/>
      <path id="Trazado_773657" data-name="Trazado 773657" d="M310.29,150.149l-2.006,4.514h93.3l-2.007-4.514Z" fill="#e5646e"/>
      <path id="Trazado_773658" data-name="Trazado 773658" d="M398.573,196.8H311.293V154.663h19.563l24.076-24.077,24.078,24.077h19.562Z" fill="#ffc269"/>
      <rect id="Rectángulo_360939" data-name="Rectángulo 360939" width="18.058" height="16.553" transform="translate(345.904 177.236)" fill="#c38c66"/>
      <g id="Grupo_1028009" data-name="Grupo 1028009">
        <g id="Grupo_1028008" data-name="Grupo 1028008" clip-path="url(#clip-path-2)">
          <path id="Trazado_773659" data-name="Trazado 773659" d="M354.933,148.644a9.029,9.029,0,1,1-9.029,9.029,9.028,9.028,0,0,1,9.029-9.029" fill="#fff0af"/>
          <path id="Trazado_773660" data-name="Trazado 773660" d="M354.933,153.159a4.515,4.515,0,1,1-4.514,4.514,4.514,4.514,0,0,1,4.514-4.514" fill="#fff"/>
          <rect id="Rectángulo_360940" data-name="Rectángulo 360940" width="24.077" height="6.019" transform="translate(342.895 190.779)" fill="#c8c5c9"/>
          <path id="Trazado_773661" data-name="Trazado 773661" d="M379.01,154.664l-24.077-24.077-24.077,24.077H311.293V196.8h4.514V162.188a3.01,3.01,0,0,1,3.01-3.009h11.638a6.022,6.022,0,0,0,4.28-1.787l20.2-20.421,20.2,20.421a6.021,6.021,0,0,0,4.28,1.786h19.162v-4.514Z" fill="#ffa95f"/>
          <rect id="Rectángulo_360941" data-name="Rectángulo 360941" width="21.067" height="9.029" transform="translate(371.486 162.188)" fill="#edf4ff"/>
          <path id="Trazado_773662" data-name="Trazado 773662" d="M376,163.693v-1.5h-4.514v9.029h21.067V166.7H379.01a3.01,3.01,0,0,1-3.01-3.01" fill="#dbeaff"/>
          <rect id="Rectángulo_360942" data-name="Rectángulo 360942" width="21.067" height="9.029" transform="translate(371.486 177.236)" fill="#edf4ff"/>
          <path id="Trazado_773663" data-name="Trazado 773663" d="M376,178.741v-1.505h-4.514v9.029h21.067v-4.514H379.01a3.01,3.01,0,0,1-3.01-3.01" fill="#dbeaff"/>
          <rect id="Rectángulo_360943" data-name="Rectángulo 360943" width="21.067" height="9.029" transform="translate(317.313 162.188)" fill="#edf4ff"/>
          <path id="Trazado_773664" data-name="Trazado 773664" d="M321.827,163.693v-1.5h-4.514v9.029H338.38V166.7H324.837a3.01,3.01,0,0,1-3.01-3.01" fill="#dbeaff"/>
          <rect id="Rectángulo_360944" data-name="Rectángulo 360944" width="21.067" height="6.401" transform="translate(317.313 177.236)" fill="#edf4ff"/>
          <path id="Trazado_773665" data-name="Trazado 773665" d="M321.827,178.741v-1.505h-4.514v9.029H338.38v-4.514H324.837a3.01,3.01,0,0,1-3.01-3.01" fill="#dbeaff"/>
          <path id="Trazado_773666" data-name="Trazado 773666" d="M401.582,195.39h-1.6V156.072h1.6a1.408,1.408,0,0,0,1.287-1.98l-6.019-13.543a1.408,1.408,0,0,0-1.287-.836H366.05L356.341,130v-7.038h9.126a1.409,1.409,0,0,0,1.408-1.408v-7.524a1.408,1.408,0,0,0-1.408-1.408H354.933a1.408,1.408,0,0,0-1.408,1.408V130l-9.709,9.709H314.3a1.408,1.408,0,0,0-1.287.836L307,154.092a1.408,1.408,0,0,0,1.287,1.98h1.6v39.319h-1.6a1.407,1.407,0,1,0,0,2.815h93.3a1.408,1.408,0,0,0,0-2.816m-37.523-75.24h-7.718v-4.708h7.718Zm-48.841,22.378H341l-10.727,10.728H310.45ZM312.7,156.072h18.155a1.408,1.408,0,0,0,1-.413l23.082-23.081,23.081,23.081a1.41,1.41,0,0,0,1,.413h10.534a1.408,1.408,0,0,0,0-2.816h-9.951l-10.727-10.728h25.782l4.768,10.728h-3.853a1.408,1.408,0,0,0,0,2.816h1.6v39.319H368.379v-4.612a1.408,1.408,0,0,0-1.408-1.408h-1.6V177.236a1.409,1.409,0,0,0-1.408-1.408H345.9a1.409,1.409,0,0,0-1.408,1.408v12.135h-1.6a1.408,1.408,0,0,0-1.408,1.408v4.612H312.7Zm49.853,33.3h-6.213V178.644h6.213Zm-9.029,0h-6.213V178.644h6.213Zm12.039,6.019H344.3v-3.2h21.261Z"/>
          <path id="Trazado_773667" data-name="Trazado 773667" d="M354.933,168.11A10.437,10.437,0,1,0,344.5,157.673a10.449,10.449,0,0,0,10.437,10.437m0-18.058a7.621,7.621,0,1,1-7.621,7.621A7.63,7.63,0,0,1,354.933,150.052Z"/>
          <path id="Trazado_773668" data-name="Trazado 773668" d="M354.933,162.091a1.408,1.408,0,0,0,1.408-1.408v-2.139l2.231-1.116a1.408,1.408,0,1,0-1.259-2.519l-3.01,1.505a1.408,1.408,0,0,0-.778,1.26v3.009a1.408,1.408,0,0,0,1.408,1.408"/>
          <path id="Trazado_773669" data-name="Trazado 773669" d="M338.38,175.828H317.313a1.408,1.408,0,0,0-1.408,1.408v9.029a1.408,1.408,0,0,0,1.408,1.408h3.01a1.408,1.408,0,0,0,0-2.816h-1.6v-6.213h7.718v6.213h-.1a1.408,1.408,0,1,0,0,2.816H338.38a1.408,1.408,0,0,0,1.408-1.408v-9.029a1.408,1.408,0,0,0-1.408-1.408m-1.408,9.029h-7.718v-6.213h7.718Z"/>
          <path id="Trazado_773670" data-name="Trazado 773670" d="M338.38,160.78H317.313a1.408,1.408,0,0,0-1.408,1.408v9.029a1.408,1.408,0,0,0,1.408,1.408H338.38a1.408,1.408,0,0,0,1.408-1.408v-9.029a1.408,1.408,0,0,0-1.408-1.408M318.721,163.6h7.718v6.213h-7.718Zm18.251,6.213h-7.718V163.6h7.718Z"/>
          <path id="Trazado_773671" data-name="Trazado 773671" d="M371.486,187.673h21.067a1.408,1.408,0,0,0,1.408-1.408v-9.029a1.408,1.408,0,0,0-1.408-1.408H371.486a1.408,1.408,0,0,0-1.408,1.408v9.029a1.408,1.408,0,0,0,1.408,1.408m19.659-2.816h-7.718v-6.213h7.718Zm-18.251-6.213h7.718v6.213h-7.718Z"/>
          <path id="Trazado_773672" data-name="Trazado 773672" d="M371.486,172.624h21.067a1.407,1.407,0,0,0,1.408-1.407v-9.029a1.408,1.408,0,0,0-1.408-1.408H371.486a1.408,1.408,0,0,0-1.408,1.408v9.029a1.407,1.407,0,0,0,1.408,1.407m19.659-2.815h-7.718V163.6h7.718ZM372.894,163.6h7.718v6.213h-7.718Z"/>
          <rect id="Rectángulo_360945" data-name="Rectángulo 360945" width="17.822" height="33.769" transform="translate(168.428 25.775)" fill="#68dbf9"/>
          <rect id="Rectángulo_360946" data-name="Rectángulo 360946" width="17.822" height="8.158" transform="translate(168.427 25.775)" fill="#21c1f8"/>
          <line id="Línea_3578" data-name="Línea 3578" y2="33.769" transform="translate(168.428 25.775)" fill="none" stroke="#000" stroke-linecap="round" stroke-linejoin="round" stroke-width="2.507"/>
          <rect id="Rectángulo_360947" data-name="Rectángulo 360947" width="17.822" height="33.769" transform="translate(216.74 25.775)" fill="#68dbf9"/>
          <rect id="Rectángulo_360948" data-name="Rectángulo 360948" width="17.821" height="8.158" transform="translate(216.741 25.775)" fill="#21c1f8"/>
          <rect id="Rectángulo_360949" data-name="Rectángulo 360949" width="17.821" height="8.158" transform="translate(216.741 25.775)" fill="#21c1f8"/>
          <rect id="Rectángulo_360950" data-name="Rectángulo 360950" width="4.898" height="33.769" transform="translate(229.664 25.775)" fill="#21c1f8"/>
          <line id="Línea_3579" data-name="Línea 3579" y2="33.769" transform="translate(234.562 25.775)" fill="none" stroke="#000" stroke-linecap="round" stroke-linejoin="round" stroke-width="2.507"/>
        </g>
      </g>
      <g id="Grupo_1028011" data-name="Grupo 1028011">
        <g id="Grupo_1028010" data-name="Grupo 1028010" clip-path="url(#clip-path-3)">
          <path id="Trazado_773673" data-name="Trazado 773673" d="M234.147,30.089h-65.3a1.615,1.615,0,0,1-1.615-1.615V25.835a1.615,1.615,0,0,1,1.615-1.616h65.3a1.615,1.615,0,0,1,1.615,1.616v2.639a1.615,1.615,0,0,1-1.615,1.615" fill="#8d9da7"/>
          <path id="Trazado_773674" data-name="Trazado 773674" d="M224.5,24.219H168.843a1.615,1.615,0,0,0-1.615,1.615v2.639a1.615,1.615,0,0,0,1.615,1.616h65.3a1.615,1.615,0,0,0,1.615-1.616V25.834a1.615,1.615,0,0,0-1.615-1.615H230.69" fill="none" stroke="#000" stroke-linecap="round" stroke-linejoin="round" stroke-width="2.507"/>
          <rect id="Rectángulo_360952" data-name="Rectángulo 360952" width="24.089" height="33.769" transform="translate(216.74 50.558)" fill="#64b9fc"/>
          <rect id="Rectángulo_360953" data-name="Rectángulo 360953" width="24.089" height="7.242" transform="translate(216.74 50.558)" fill="#31a7fb"/>
          <rect id="Rectángulo_360954" data-name="Rectángulo 360954" width="5.229" height="33.769" transform="translate(235.6 50.558)" fill="#31a7fb"/>
          <rect id="Rectángulo_360955" data-name="Rectángulo 360955" width="24.089" height="33.769" transform="translate(162.161 50.558)" fill="#64b9fc"/>
          <rect id="Rectángulo_360956" data-name="Rectángulo 360956" width="24.089" height="7.242" transform="translate(162.16 50.558)" fill="#31a7fb"/>
          <path id="Trazado_773675" data-name="Trazado 773675" d="M240.829,50.558V84.327H216.74" fill="none" stroke="#000" stroke-linecap="round" stroke-linejoin="round" stroke-width="2.507"/>
          <path id="Trazado_773676" data-name="Trazado 773676" d="M162.161,50.558V84.327H186.25" fill="none" stroke="#000" stroke-linecap="round" stroke-linejoin="round" stroke-width="2.507"/>
          <path id="Trazado_773677" data-name="Trazado 773677" d="M241.416,53.493H161.574a1.615,1.615,0,0,1-1.616-1.615V49.239a1.615,1.615,0,0,1,1.616-1.616h79.842a1.615,1.615,0,0,1,1.615,1.616v2.639a1.615,1.615,0,0,1-1.615,1.615" fill="#8d9da7"/>
          <path id="Trazado_773678" data-name="Trazado 773678" d="M175.686,53.493h65.731a1.615,1.615,0,0,0,1.615-1.615V49.239a1.615,1.615,0,0,0-1.615-1.616H161.574a1.615,1.615,0,0,0-1.615,1.616v2.639a1.615,1.615,0,0,0,1.615,1.615H169.5" fill="none" stroke="#000" stroke-linecap="round" stroke-linejoin="round" stroke-width="2.507"/>
          <line id="Línea_3580" data-name="Línea 3580" y2="1.132" transform="translate(224.684 35.069)" fill="none" stroke="#000" stroke-linecap="round" stroke-linejoin="round" stroke-width="2.507"/>
          <line id="Línea_3581" data-name="Línea 3581" y2="1.132" transform="translate(228.692 35.069)" fill="none" stroke="#000" stroke-linecap="round" stroke-linejoin="round" stroke-width="2.507"/>
          <line id="Línea_3582" data-name="Línea 3582" y2="1.132" transform="translate(224.684 40.127)" fill="none" stroke="#000" stroke-linecap="round" stroke-linejoin="round" stroke-width="2.507"/>
          <line id="Línea_3583" data-name="Línea 3583" y2="1.132" transform="translate(228.692 40.127)" fill="none" stroke="#000" stroke-linecap="round" stroke-linejoin="round" stroke-width="2.507"/>
          <line id="Línea_3584" data-name="Línea 3584" y2="1.132" transform="translate(174.298 35.069)" fill="none" stroke="#000" stroke-linecap="round" stroke-linejoin="round" stroke-width="2.507"/>
          <line id="Línea_3585" data-name="Línea 3585" y2="1.132" transform="translate(178.306 35.069)" fill="none" stroke="#000" stroke-linecap="round" stroke-linejoin="round" stroke-width="2.507"/>
          <line id="Línea_3586" data-name="Línea 3586" y2="1.132" transform="translate(174.298 40.127)" fill="none" stroke="#000" stroke-linecap="round" stroke-linejoin="round" stroke-width="2.507"/>
          <line id="Línea_3587" data-name="Línea 3587" y2="1.132" transform="translate(178.306 40.127)" fill="none" stroke="#000" stroke-linecap="round" stroke-linejoin="round" stroke-width="2.507"/>
          <path id="Trazado_773679" data-name="Trazado 773679" d="M168.181,58.3h9.289a.836.836,0,0,1,.836.836v2.986a.835.835,0,0,1-.836.835h-9.289a.835.835,0,0,1-.836-.835V59.138a.836.836,0,0,1,.836-.836" fill="#c9f0fd"/>
          <path id="Trazado_773680" data-name="Trazado 773680" d="M178.307,59.137v2.987a.837.837,0,0,1-.837.836h-3.532a.835.835,0,0,0,.834-.836V59.137a.835.835,0,0,0-.834-.836h3.532a.837.837,0,0,1,.837.836" fill="#9ce6fb"/>
          <path id="Rectángulo_360957" data-name="Rectángulo 360957" d="M.836,0h9.289a.836.836,0,0,1,.836.836V3.822a.835.835,0,0,1-.835.835H.836A.836.836,0,0,1,0,3.821V.836A.836.836,0,0,1,.836,0Z" transform="translate(167.345 58.302)" fill="none" stroke="#000" stroke-linecap="round" stroke-linejoin="round" stroke-width="2.507"/>
          <path id="Trazado_773681" data-name="Trazado 773681" d="M168.181,67.187h9.289a.836.836,0,0,1,.836.836v2.986a.835.835,0,0,1-.836.835h-9.289a.835.835,0,0,1-.836-.835V68.023a.836.836,0,0,1,.836-.836" fill="#c9f0fd"/>
          <path id="Trazado_773682" data-name="Trazado 773682" d="M178.307,68.023v2.985a.836.836,0,0,1-.837.836h-3.532a.834.834,0,0,0,.834-.836V68.023a.833.833,0,0,0-.834-.836h3.532a.836.836,0,0,1,.837.836" fill="#9ce6fb"/>
          <path id="Rectángulo_360958" data-name="Rectángulo 360958" d="M.836,0h9.289a.836.836,0,0,1,.836.836V3.822a.835.835,0,0,1-.835.835H.836A.836.836,0,0,1,0,3.821V.836A.836.836,0,0,1,.836,0Z" transform="translate(167.345 67.187)" fill="none" stroke="#000" stroke-linecap="round" stroke-linejoin="round" stroke-width="2.507"/>
          <path id="Trazado_773683" data-name="Trazado 773683" d="M225.52,58.3h9.289a.836.836,0,0,1,.836.836v2.986a.835.835,0,0,1-.836.835H225.52a.835.835,0,0,1-.836-.835V59.138a.836.836,0,0,1,.836-.836" fill="#c9f0fd"/>
          <path id="Trazado_773684" data-name="Trazado 773684" d="M235.645,59.137v2.987a.836.836,0,0,1-.836.836h-3.532a.836.836,0,0,0,.836-.836V59.137a.836.836,0,0,0-.836-.836h3.532a.836.836,0,0,1,.836.836" fill="#9ce6fb"/>
          <path id="Rectángulo_360959" data-name="Rectángulo 360959" d="M.836,0h9.289a.836.836,0,0,1,.836.836V3.822a.835.835,0,0,1-.835.835H.836A.836.836,0,0,1,0,3.821V.836A.836.836,0,0,1,.836,0Z" transform="translate(224.684 58.302)" fill="none" stroke="#000" stroke-linecap="round" stroke-linejoin="round" stroke-width="2.507"/>
          <path id="Trazado_773685" data-name="Trazado 773685" d="M225.52,67.187h9.289a.836.836,0,0,1,.836.836v2.986a.835.835,0,0,1-.836.835H225.52a.835.835,0,0,1-.836-.835V68.023a.836.836,0,0,1,.836-.836" fill="#c9f0fd"/>
          <path id="Trazado_773686" data-name="Trazado 773686" d="M235.645,68.023v2.985a.836.836,0,0,1-.836.836h-3.532a.836.836,0,0,0,.836-.836V68.023a.835.835,0,0,0-.836-.836h3.532a.835.835,0,0,1,.836.836" fill="#9ce6fb"/>
          <path id="Rectángulo_360960" data-name="Rectángulo 360960" d="M.836,0h9.289a.836.836,0,0,1,.836.836V3.822a.835.835,0,0,1-.835.835H.836A.836.836,0,0,1,0,3.821V.836A.836.836,0,0,1,.836,0Z" transform="translate(224.684 67.187)" fill="none" stroke="#000" stroke-linecap="round" stroke-linejoin="round" stroke-width="2.507"/>
          <path id="Trazado_773687" data-name="Trazado 773687" d="M220.012,16.762V84.327H182.978V16.762a1.671,1.671,0,0,1,1.672-1.671h33.691a1.671,1.671,0,0,1,1.671,1.671" fill="#d9e7eb"/>
          <path id="Trazado_773688" data-name="Trazado 773688" d="M215.332,19.209a13.837,13.837,0,1,1-27.05-4.119h26.427a13.807,13.807,0,0,1,.623,4.119" fill="#c5d3dd"/>
          <path id="Trazado_773689" data-name="Trazado 773689" d="M211.439,84.327H191.55V61.968a.836.836,0,0,1,.836-.836H210.6a.836.836,0,0,1,.836.836Z" fill="#9ce6fb"/>
          <path id="Trazado_773690" data-name="Trazado 773690" d="M211.439,61.968v22.36h-4.724V61.968a.836.836,0,0,0-.836-.836H210.6a.836.836,0,0,1,.836.836" fill="#68dbf9"/>
          <path id="Trazado_773691" data-name="Trazado 773691" d="M191.551,84.327V61.968a.836.836,0,0,1,.836-.836H210.6a.836.836,0,0,1,.836.836V84.327" fill="none" stroke="#000" stroke-linecap="round" stroke-linejoin="round" stroke-width="2.507"/>
          <path id="Trazado_773692" data-name="Trazado 773692" d="M220.012,16.762V84.327h-5.138V16.762a1.671,1.671,0,0,0-1.672-1.671h5.139a1.671,1.671,0,0,1,1.671,1.671" fill="#c5d3dd"/>
          <path id="Trazado_773693" data-name="Trazado 773693" d="M220.012,62.766v-46a1.671,1.671,0,0,0-1.671-1.671H184.65a1.671,1.671,0,0,0-1.671,1.671V84.328h37.033V68.955" fill="none" stroke="#000" stroke-linecap="round" stroke-linejoin="round" stroke-width="2.507"/>
          <path id="Trazado_773694" data-name="Trazado 773694" d="M215.331,15.09A13.836,13.836,0,1,1,201.495,1.254,13.837,13.837,0,0,1,215.331,15.09" fill="#f5f7f8"/>
          <path id="Trazado_773695" data-name="Trazado 773695" d="M207.933,11.766H204.82V8.653a1.12,1.12,0,0,0-1.12-1.12h-4.41a1.12,1.12,0,0,0-1.12,1.12v3.113h-3.113a1.119,1.119,0,0,0-1.12,1.12V17.3a1.12,1.12,0,0,0,1.12,1.121h3.113v3.113a1.121,1.121,0,0,0,1.12,1.12h4.41a1.121,1.121,0,0,0,1.12-1.12V18.416h3.113a1.12,1.12,0,0,0,1.12-1.121V12.886a1.119,1.119,0,0,0-1.12-1.12" fill="#fb4a59"/>
          <path id="Trazado_773696" data-name="Trazado 773696" d="M209.052,12.886V17.3a1.119,1.119,0,0,1-1.12,1.12H204.82v3.112a1.121,1.121,0,0,1-1.12,1.12h-3.609a1.121,1.121,0,0,0,1.121-1.12V19.536a1.119,1.119,0,0,1,1.12-1.12h1.992a1.12,1.12,0,0,0,1.12-1.12v-4.41a1.12,1.12,0,0,0-1.12-1.12h-1.992a1.12,1.12,0,0,1-1.12-1.12V8.652a1.122,1.122,0,0,0-1.121-1.12H203.7a1.12,1.12,0,0,1,1.12,1.12v3.114h3.112a1.119,1.119,0,0,1,1.12,1.12" fill="#f82f41"/>
          <path id="Trazado_773697" data-name="Trazado 773697" d="M207.933,11.766H204.82V8.653a1.12,1.12,0,0,0-1.12-1.12h-4.41a1.12,1.12,0,0,0-1.12,1.12v3.113h-3.113a1.119,1.119,0,0,0-1.12,1.12V17.3a1.12,1.12,0,0,0,1.12,1.121h3.113v3.113a1.121,1.121,0,0,0,1.12,1.12h4.41a1.121,1.121,0,0,0,1.12-1.12V18.416h3.113a1.12,1.12,0,0,0,1.12-1.121V12.886A1.119,1.119,0,0,0,207.933,11.766Z" fill="none" stroke="#000" stroke-linecap="round" stroke-linejoin="round" stroke-width="2.507"/>
          <circle id="Elipse_8691" data-name="Elipse 8691" cx="13.836" cy="13.836" r="13.836" transform="matrix(0.189, -0.982, 0.982, 0.189, 185.292, 26.06)" fill="none" stroke="#000" stroke-linecap="round" stroke-linejoin="round" stroke-width="2.507"/>
          <line id="Línea_3588" data-name="Línea 3588" y2="23.195" transform="translate(201.495 61.132)" fill="none" stroke="#000" stroke-linecap="round" stroke-linejoin="round" stroke-width="2.507"/>
          <path id="Trazado_773698" data-name="Trazado 773698" d="M210.6,54.179H192.387a.836.836,0,0,1-.836-.836V49.719a.836.836,0,0,1,.836-.836H210.6a.836.836,0,0,1,.836.836v3.624a.836.836,0,0,1-.836.836" fill="#9ce6fb"/>
          <path id="Trazado_773699" data-name="Trazado 773699" d="M211.439,49.719v3.624a.834.834,0,0,1-.836.836h-4.724a.835.835,0,0,0,.836-.836V49.719a.836.836,0,0,0-.836-.836H210.6a.836.836,0,0,1,.836.836" fill="#68dbf9"/>
          <rect id="Rectángulo_360961" data-name="Rectángulo 360961" width="19.889" height="5.296" rx="0.836" transform="translate(191.551 48.883)" fill="none" stroke="#000" stroke-linecap="round" stroke-linejoin="round" stroke-width="2.507"/>
          <path id="Trazado_773700" data-name="Trazado 773700" d="M210.6,43.908H192.387a.836.836,0,0,1-.836-.836V35.436a.836.836,0,0,1,.836-.836H210.6a.836.836,0,0,1,.836.836v7.636a.836.836,0,0,1-.836.836" fill="#9ce6fb"/>
          <path id="Trazado_773701" data-name="Trazado 773701" d="M211.439,35.436v7.635a.835.835,0,0,1-.836.836h-4.724a.836.836,0,0,0,.836-.836V35.436a.836.836,0,0,0-.836-.836H210.6a.836.836,0,0,1,.836.836" fill="#68dbf9"/>
          <rect id="Rectángulo_360962" data-name="Rectángulo 360962" width="19.889" height="9.308" rx="0.836" transform="translate(191.551 34.6)" fill="none" stroke="#000" stroke-linecap="round" stroke-linejoin="round" stroke-width="2.507"/>
        </g>
      </g>
      <g id="Grupo_1028013" data-name="Grupo 1028013">
        <g id="Grupo_1028012" data-name="Grupo 1028012" clip-path="url(#clip-path-4)">
          <path id="Trazado_773702" data-name="Trazado 773702" d="M242.946,263.511a35.345,35.345,0,0,1-70.6-2.642l21.328-29.685,16.145-5.528a35.334,35.334,0,0,1,33.21,35.3q0,1.291-.086,2.552" fill="#a6e7f0" fill-rule="evenodd"/>
          <path id="Trazado_773703" data-name="Trazado 773703" d="M224.968,230.1a35.361,35.361,0,0,1,18.063,30.86q0,1.29-.085,2.551c-.807,5.39-10.121,4.874-10.612.177-.454-4.324-4.44-4.434-6.273-4.615-4.516-.459-6.564-3.689-.8-11.266,4.8-6.312-12.808-12.719-3.642-19.36a35.7,35.7,0,0,1,3.346,1.653" fill="#80d261" fill-rule="evenodd"/>
          <path id="Trazado_773704" data-name="Trazado 773704" d="M210.857,237.916l2.215,1.968a2.761,2.761,0,0,1,.229,3.88l-5.452,6.14-4.162-3.054.263-5.288,3.035-3.417a2.746,2.746,0,0,1,3.872-.229" fill="#838383" fill-rule="evenodd"/>
          <path id="Trazado_773705" data-name="Trazado 773705" d="M203.95,241.562l3.9,8.342,1.7,3.655a6.351,6.351,0,0,1-.659,6.579l-1.966,2.212c-1.485,1.677-2.716,1.176-3.91-.635l-11.48-16.99,1.613-7.659,8.144-1.19Z" fill="#acacac" fill-rule="evenodd"/>
          <path id="Trazado_773706" data-name="Trazado 773706" d="M182.994,252.474l4.225,8.505a4.878,4.878,0,0,1-.516,5.141l-1.079,1.213c-1.16,1.309-2.124.922-3.055-.5l-6.736-7.869,1.6-4.6Z" fill="#acacac" fill-rule="evenodd"/>
          <path id="Trazado_773707" data-name="Trazado 773707" d="M166.715,242.746l8.8,3.1-.038,6.03-5.5,1.758-8.53-5.576c-1.514-.759-2.015-1.672-.85-2.976l1.079-1.219a4.886,4.886,0,0,1,5.036-1.113" fill="#acacac" fill-rule="evenodd"/>
          <path id="Trazado_773708" data-name="Trazado 773708" d="M217.641,279.407c3.146-5.232,12.836-6.426,19.634.912a35.28,35.28,0,0,1-50.166,9.37c-.32-9.694,7.5-12.208,13.81-6.995,2.716,2.241,12.755,3.326,16.722-3.287" fill="#80d261" fill-rule="evenodd"/>
          <path id="Trazado_773709" data-name="Trazado 773709" d="M182.664,213.764a2.7,2.7,0,0,1,1.814.688l2.215,1.969a2.755,2.755,0,0,1,.229,3.879l-3.031,3.416h-6.464l-2.272-2.9,5.452-6.14a2.736,2.736,0,0,1,2.047-.917Z" fill="#838383" fill-rule="evenodd"/>
          <path id="Trazado_773710" data-name="Trazado 773710" d="M175.155,220.821l8.736,2.9,5.948,1.969-1.05,7.692-6.579,3.048L164,227.008c-1.938-.974-2.578-2.135-1.088-3.812l1.966-2.213a6.349,6.349,0,0,1,6.45-1.428Z" fill="#acacac" fill-rule="evenodd"/>
          <path id="Trazado_773711" data-name="Trazado 773711" d="M200.3,215.513c2.926-.87,6.8-1.448,8.64.21,1.862,1.634,1.738,5.547,1.218,8.557a9.814,9.814,0,0,1-.339,1.376,15.679,15.679,0,0,1-4.6,6.66l-3.929,3.56-9.757,8.849-15.72,14.228-.668.631a5.285,5.285,0,0,1-2.8,1.285c-2.979.306-5.056-2.919-2.96-6.407l.592-.831,12.23-17.205,7.628-10.741,3.075-4.319c2.362-3.306,4.95-5.127,7.389-5.853" fill="#ececec" fill-rule="evenodd"/>
          <path id="Trazado_773712" data-name="Trazado 773712" d="M198.031,232.641l-9.758,8.849-15.72,14.228-.668.631a5.3,5.3,0,0,1-2.8,1.285,3.974,3.974,0,0,1-.53.019,3.4,3.4,0,0,0,3.8,3.215,5.277,5.277,0,0,0,2.8-1.285l.668-.631,15.72-14.228,9.758-8.848,3.928-3.56a15.683,15.683,0,0,0,4.6-6.66,9.7,9.7,0,0,0,.338-1.376c.52-3.01.644-6.923-1.218-8.557a4.1,4.1,0,0,0-2-.918,16.277,16.277,0,0,1-.047,6.245,9.617,9.617,0,0,1-.339,1.371,15.67,15.67,0,0,1-4.6,6.66Z" fill="#cecece" fill-rule="evenodd"/>
          <path id="Trazado_773713" data-name="Trazado 773713" d="M205.411,259.55l-11.485-16.99-2.387,2.164,11.48,16.99c1.194,1.811,2.425,2.313,3.91.636L208,261.141c-.931.287-1.771-.339-2.592-1.591" fill="#838383" fill-rule="evenodd"/>
          <path id="Trazado_773714" data-name="Trazado 773714" d="M211.344,242.02l-4.7,5.3,1.208,2.584,5.451-6.139a2.76,2.76,0,0,0-.229-3.88l-1.947-1.734v.005a2.756,2.756,0,0,1,.219,3.865" fill="#595959" fill-rule="evenodd"/>
          <path id="Trazado_773715" data-name="Trazado 773715" d="M180.926,222.8l2.965.917,3.031-3.416a2.756,2.756,0,0,0-.229-3.88l-1.518-1.352c1.122,1.008.491,2.576-.53,3.689Z" fill="#595959" fill-rule="evenodd"/>
          <path id="Trazado_773716" data-name="Trazado 773716" d="M183.958,233.96l-18.207-9.417c-1.355-.678-2.076-1.452-1.876-2.432l-.964,1.085c-1.489,1.677-.85,2.838,1.088,3.812l18.212,9.417Z" fill="#838383" fill-rule="evenodd"/>
          <path id="Trazado_773717" data-name="Trazado 773717" d="M184.617,264.978l-6.736-7.869-2.048,1.858,6.736,7.87c.931,1.418,1.9,1.806,3.055.5l.974-1.094c-.706.187-1.351-.305-1.981-1.261" fill="#838383" fill-rule="evenodd"/>
          <path id="Trazado_773718" data-name="Trazado 773718" d="M171.589,251.366l-8.526-5.576c-1.021-.516-1.58-1.094-1.48-1.82l-.983,1.108c-1.165,1.3-.663,2.217.85,2.977l8.53,5.576Z" fill="#838383" fill-rule="evenodd"/>
          <path id="Trazado_773719" data-name="Trazado 773719" d="M243.032,260.96a35.363,35.363,0,0,0-18.063-30.86c-.578-.325-1.17-.635-1.771-.932,5.78,7.654,9.361,18.271,9.361,30.005q0,2.4-.2,4.725c.74,4.5,9.791,4.922,10.583-.386q.086-1.263.086-2.552" fill="#4fc122" fill-rule="evenodd"/>
          <path id="Trazado_773720" data-name="Trazado 773720" d="M242.946,263.511c-.792,5.308-9.843,4.888-10.583.387a53.64,53.64,0,0,1-2.32,11.811,16.057,16.057,0,0,1,7.232,4.61,35.143,35.143,0,0,0,5.671-16.808" fill="#6bd9e7" fill-rule="evenodd"/>
          <path id="Trazado_773721" data-name="Trazado 773721" d="M230.043,275.709a41.546,41.546,0,0,1-12.144,19.13,35.434,35.434,0,0,0,19.376-14.52,16.066,16.066,0,0,0-7.232-4.61" fill="#4fc122" fill-rule="evenodd"/>
          <path id="Trazado_773722" data-name="Trazado 773722" d="M178,280.09a35.341,35.341,0,1,0,31.821-54.433m-37.473,35.212a35.391,35.391,0,0,0,2.606,13.368" fill="none" stroke="#000" stroke-linecap="round" stroke-linejoin="round" stroke-width="2.527"/>
          <path id="Trazado_773723" data-name="Trazado 773723" d="M237.275,280.319c-6.8-7.339-16.488-6.144-19.634-.912-3.967,6.612-14.006,5.527-16.722,3.287-6.306-5.213-14.13-2.7-13.81,6.994" fill="none" stroke="#000" stroke-linecap="round" stroke-linejoin="round" stroke-width="2.527"/>
          <path id="Trazado_773724" data-name="Trazado 773724" d="M242.946,263.511c-.807,5.389-10.12,4.873-10.612.177-.453-4.324-4.439-4.434-6.272-4.616-4.516-.458-6.564-3.688-.8-11.266,4.8-6.311-12.807-12.718-3.642-19.359" fill="none" stroke="#000" stroke-linecap="round" stroke-linejoin="round" stroke-width="2.527"/>
          <path id="Trazado_773725" data-name="Trazado 773725" d="M183.891,223.716l3.031-3.416a2.756,2.756,0,0,0-.229-3.88l-2.215-1.968a2.747,2.747,0,0,0-3.871.229l-5.452,6.14" fill="none" stroke="#000" stroke-linecap="round" stroke-linejoin="round" stroke-width="2.527"/>
          <path id="Trazado_773726" data-name="Trazado 773726" d="M182.994,252.474l4.225,8.505a4.878,4.878,0,0,1-.516,5.141l-1.079,1.213c-1.16,1.309-2.124.922-3.055-.5l-6.736-7.869" fill="none" stroke="#000" stroke-linecap="round" stroke-linejoin="round" stroke-width="2.527"/>
          <path id="Trazado_773727" data-name="Trazado 773727" d="M175.513,245.843l-8.8-3.1a4.886,4.886,0,0,0-5.036,1.113l-1.079,1.219c-1.165,1.3-.663,2.217.85,2.976l8.53,5.576" fill="none" stroke="#000" stroke-linecap="round" stroke-linejoin="round" stroke-width="2.527"/>
          <path id="Trazado_773728" data-name="Trazado 773728" d="M189.839,225.685l-18.512-6.13a6.347,6.347,0,0,0-6.449,1.429l-1.967,2.212c-1.489,1.677-.85,2.838,1.088,3.812l18.212,9.418" fill="none" stroke="#000" stroke-linecap="round" stroke-linejoin="round" stroke-width="2.527"/>
          <path id="Trazado_773729" data-name="Trazado 773729" d="M205.224,232.316c3-2.738,4.506-5.528,4.936-8.036.52-3.01.644-6.923-1.217-8.557-1.843-1.658-5.714-1.08-8.641-.211-2.439.727-5.026,2.547-7.389,5.853l-23.525,33.1c-2.716,4.52,1.576,8.6,5.762,5.122Z" fill="none" stroke="#000" stroke-linecap="round" stroke-linejoin="round" stroke-width="2.527"/>
          <path id="Trazado_773730" data-name="Trazado 773730" d="M196.475,252.03l-4.936-7.3m9.757-8.849,8.258,17.683a6.354,6.354,0,0,1-.658,6.579l-1.967,2.212c-1.485,1.677-2.716,1.175-3.91-.636l-3.485-5.155" fill="none" stroke="#000" stroke-linecap="round" stroke-linejoin="round" stroke-width="2.527"/>
          <path id="Trazado_773731" data-name="Trazado 773731" d="M203.95,241.562l3.036-3.416a2.745,2.745,0,0,1,3.871-.23l2.215,1.969a2.761,2.761,0,0,1,.23,3.88L207.85,249.9" fill="none" stroke="#000" stroke-linecap="round" stroke-linejoin="round" stroke-width="2.527"/>
          <path id="Trazado_773732" data-name="Trazado 773732" d="M204.771,224.758c-.229-2.093-2.525-4.133-4.463-3.97" fill="none" stroke="#000" stroke-linecap="round" stroke-linejoin="round" stroke-width="2.527"/>
        </g>
      </g>
    </g>
    <path id="Trazado_773912" data-name="Trazado 773912" d="M24.3,12.016A1.2,1.2,0,0,0,23.832,11a6.148,6.148,0,0,0-1.687-.75,11.963,11.963,0,0,1-1.93-.777,3.153,3.153,0,0,1-1.937-2.82A2.747,2.747,0,0,1,18.8,5a3.389,3.389,0,0,1,1.492-1.129,5.616,5.616,0,0,1,2.184-.406,5.112,5.112,0,0,1,2.172.441,3.458,3.458,0,0,1,1.48,1.246,3.261,3.261,0,0,1,.527,1.828H24.309a1.534,1.534,0,0,0-.492-1.215,2.023,2.023,0,0,0-1.383-.434A2.162,2.162,0,0,0,21.1,5.7a1.146,1.146,0,0,0-.477.957,1.1,1.1,0,0,0,.559.93,6.311,6.311,0,0,0,1.645.7,7.106,7.106,0,0,1,2.914,1.492A2.972,2.972,0,0,1,26.652,12a2.737,2.737,0,0,1-1.117,2.316,4.891,4.891,0,0,1-3.008.84,5.808,5.808,0,0,1-2.391-.48,3.783,3.783,0,0,1-1.645-1.316,3.371,3.371,0,0,1-.566-1.937h2.352q0,1.883,2.25,1.883a2.189,2.189,0,0,0,1.3-.34A1.106,1.106,0,0,0,24.3,12.016ZM32.988,15a2.507,2.507,0,0,1-.227-.758,2.732,2.732,0,0,1-2.133.914,3,3,0,0,1-2.059-.719,2.312,2.312,0,0,1-.816-1.812,2.389,2.389,0,0,1,1-2.062,4.915,4.915,0,0,1,2.879-.727h1.039V9.352a1.393,1.393,0,0,0-.3-.937,1.183,1.183,0,0,0-.949-.352,1.345,1.345,0,0,0-.895.273.929.929,0,0,0-.324.75H27.941a2.268,2.268,0,0,1,.453-1.359,3,3,0,0,1,1.281-.98,4.669,4.669,0,0,1,1.859-.355,3.689,3.689,0,0,1,2.48.785,2.747,2.747,0,0,1,.918,2.207v3.664a4.041,4.041,0,0,0,.336,1.82V15Zm-1.867-1.57a1.945,1.945,0,0,0,.922-.223,1.462,1.462,0,0,0,.625-.6V11.156h-.844q-1.7,0-1.8,1.172l-.008.133a.9.9,0,0,0,.3.7A1.153,1.153,0,0,0,31.121,13.43Zm7.625-6.883.07.977a2.951,2.951,0,0,1,2.43-1.133,2.453,2.453,0,0,1,2,.789,3.682,3.682,0,0,1,.672,2.359V15H41.66V9.594a1.465,1.465,0,0,0-.312-1.043,1.4,1.4,0,0,0-1.039-.324,1.553,1.553,0,0,0-1.43.813V15H36.621V6.547ZM48.012,15H45.746V6.547h2.266Zm-2.4-10.641a1.112,1.112,0,0,1,.34-.836,1.465,1.465,0,0,1,1.848,0,1.105,1.105,0,0,1,.344.836A1.108,1.108,0,0,1,47.8,5.2a1.448,1.448,0,0,1-1.836,0A1.108,1.108,0,0,1,45.613,4.359Zm3.906,6.352a5.094,5.094,0,0,1,.887-3.148,2.877,2.877,0,0,1,2.426-1.172,2.589,2.589,0,0,1,2.039.922V3h2.266V15H55.1l-.109-.9a2.657,2.657,0,0,1-2.172,1.055,2.869,2.869,0,0,1-2.395-1.176A5.258,5.258,0,0,1,49.52,10.711Zm2.258.168a3.337,3.337,0,0,0,.414,1.823,1.349,1.349,0,0,0,1.2.634,1.511,1.511,0,0,0,1.477-.884V9.111a1.489,1.489,0,0,0-1.461-.884Q51.777,8.227,51.777,10.879ZM63.785,15a2.507,2.507,0,0,1-.227-.758,2.732,2.732,0,0,1-2.133.914,3,3,0,0,1-2.059-.719,2.312,2.312,0,0,1-.816-1.812,2.389,2.389,0,0,1,1-2.062,4.915,4.915,0,0,1,2.879-.727h1.039V9.352a1.393,1.393,0,0,0-.3-.937,1.183,1.183,0,0,0-.949-.352,1.345,1.345,0,0,0-.895.273.929.929,0,0,0-.324.75H58.738a2.268,2.268,0,0,1,.453-1.359,3,3,0,0,1,1.281-.98,4.669,4.669,0,0,1,1.859-.355,3.689,3.689,0,0,1,2.48.785,2.747,2.747,0,0,1,.918,2.207v3.664a4.041,4.041,0,0,0,.336,1.82V15Zm-1.867-1.57a1.945,1.945,0,0,0,.922-.223,1.462,1.462,0,0,0,.625-.6V11.156h-.844q-1.7,0-1.8,1.172l-.008.133a.9.9,0,0,0,.3.7A1.153,1.153,0,0,0,61.918,13.43Zm5.2-2.719A5.094,5.094,0,0,1,68,7.563a2.877,2.877,0,0,1,2.426-1.172,2.589,2.589,0,0,1,2.039.922V3H74.73V15H72.691l-.109-.9a2.657,2.657,0,0,1-2.172,1.055,2.869,2.869,0,0,1-2.395-1.176A5.258,5.258,0,0,1,67.113,10.711Zm2.258.168a3.337,3.337,0,0,0,.414,1.823,1.349,1.349,0,0,0,1.2.634,1.511,1.511,0,0,0,1.477-.884V9.111A1.489,1.489,0,0,0,71,8.227Q69.371,8.227,69.371,10.879Z" transform="translate(21 -10417)" fill="#12263f"/>
    <path id="Trazado_773913" data-name="Trazado 773913" d="M16.531,5.523H13.047V15H10.7V5.523H7.266v-1.9h9.266Zm5.43,3.141a6.134,6.134,0,0,0-.812-.062,1.654,1.654,0,0,0-1.68.867V15H17.211V6.547h2.133l.063,1.008a2.092,2.092,0,0,1,1.883-1.164,2.366,2.366,0,0,1,.7.1ZM27.711,15a2.507,2.507,0,0,1-.227-.758,2.732,2.732,0,0,1-2.133.914,3,3,0,0,1-2.059-.719,2.312,2.312,0,0,1-.816-1.812,2.389,2.389,0,0,1,1-2.062,4.915,4.915,0,0,1,2.879-.727h1.039V9.352a1.393,1.393,0,0,0-.3-.937,1.183,1.183,0,0,0-.949-.352,1.345,1.345,0,0,0-.895.273.929.929,0,0,0-.324.75H22.664a2.268,2.268,0,0,1,.453-1.359,3,3,0,0,1,1.281-.98,4.669,4.669,0,0,1,1.859-.355,3.689,3.689,0,0,1,2.48.785,2.747,2.747,0,0,1,.918,2.207v3.664a4.041,4.041,0,0,0,.336,1.82V15Zm-1.867-1.57a1.945,1.945,0,0,0,.922-.223,1.462,1.462,0,0,0,.625-.6V11.156h-.844q-1.7,0-1.8,1.172l-.008.133a.9.9,0,0,0,.3.7A1.153,1.153,0,0,0,25.844,13.43Zm7.625-6.883.07.977a2.951,2.951,0,0,1,2.43-1.133,2.453,2.453,0,0,1,2,.789,3.682,3.682,0,0,1,.672,2.359V15H36.383V9.594a1.465,1.465,0,0,0-.312-1.043,1.4,1.4,0,0,0-1.039-.324,1.553,1.553,0,0,0-1.43.813V15H31.344V6.547ZM44.93,12.664a.727.727,0,0,0-.41-.652,4.659,4.659,0,0,0-1.316-.426q-3.016-.633-3.016-2.562a2.323,2.323,0,0,1,.934-1.879,3.766,3.766,0,0,1,2.441-.754,4.053,4.053,0,0,1,2.574.758A2.388,2.388,0,0,1,47.1,9.117H44.844a1.092,1.092,0,0,0-.312-.8A1.322,1.322,0,0,0,43.555,8a1.351,1.351,0,0,0-.883.258.814.814,0,0,0-.312.656.7.7,0,0,0,.355.605,3.657,3.657,0,0,0,1.2.4,9.8,9.8,0,0,1,1.422.379,2.336,2.336,0,0,1,1.789,2.273,2.2,2.2,0,0,1-.992,1.871,4.28,4.28,0,0,1-2.562.715,4.47,4.47,0,0,1-1.887-.379,3.166,3.166,0,0,1-1.293-1.039,2.414,2.414,0,0,1-.469-1.426h2.141a1.179,1.179,0,0,0,.445.922,1.766,1.766,0,0,0,1.109.32,1.635,1.635,0,0,0,.98-.246A.766.766,0,0,0,44.93,12.664Zm11.258-1.812A5.07,5.07,0,0,1,55.3,13.98a2.843,2.843,0,0,1-2.395,1.176,2.633,2.633,0,0,1-2.07-.891V18.25H48.578V6.547h2.094l.078.828a2.654,2.654,0,0,1,2.141-.984,2.862,2.862,0,0,1,2.43,1.156,5.207,5.207,0,0,1,.867,3.188Zm-2.258-.164a3.327,3.327,0,0,0-.418-1.82A1.361,1.361,0,0,0,52.3,8.227a1.479,1.479,0,0,0-1.461.813V12.5a1.5,1.5,0,0,0,1.477.836Q53.93,13.336,53.93,10.688Zm3.3.008a5.013,5.013,0,0,1,.484-2.242A3.546,3.546,0,0,1,59.113,6.93a4.069,4.069,0,0,1,2.113-.539A3.849,3.849,0,0,1,64.02,7.438a4.2,4.2,0,0,1,1.207,2.844l.016.578a4.418,4.418,0,0,1-1.086,3.121,4.209,4.209,0,0,1-5.832,0,4.5,4.5,0,0,1-1.09-3.187Zm2.258.16a3.16,3.16,0,0,0,.453,1.843,1.628,1.628,0,0,0,2.578.008,3.457,3.457,0,0,0,.461-2.015,3.128,3.128,0,0,0-.461-1.831,1.5,1.5,0,0,0-1.3-.649,1.474,1.474,0,0,0-1.281.646A3.516,3.516,0,0,0,59.492,10.856ZM71.383,8.664A6.134,6.134,0,0,0,70.57,8.6a1.654,1.654,0,0,0-1.68.867V15H66.633V6.547h2.133l.063,1.008a2.092,2.092,0,0,1,1.883-1.164,2.366,2.366,0,0,1,.7.1Zm4.18-4.2V6.547h1.445V8.2H75.563v4.219a1.007,1.007,0,0,0,.18.672.9.9,0,0,0,.688.2,3.6,3.6,0,0,0,.664-.055v1.711a4.648,4.648,0,0,1-1.367.2,2.156,2.156,0,0,1-2.422-2.4V8.2H72.07V6.547H73.3V4.469Zm6.594,10.688a4.15,4.15,0,0,1-3.027-1.141,4.054,4.054,0,0,1-1.168-3.039v-.219a5.106,5.106,0,0,1,.492-2.277,3.612,3.612,0,0,1,1.395-1.547,3.914,3.914,0,0,1,2.059-.543,3.508,3.508,0,0,1,2.73,1.094,4.444,4.444,0,0,1,1,3.1v.922H80.25a2.1,2.1,0,0,0,.66,1.328,2,2,0,0,0,1.395.5,2.437,2.437,0,0,0,2.039-.945l1.109,1.242a3.389,3.389,0,0,1-1.375,1.121A4.511,4.511,0,0,1,82.156,15.156ZM81.9,8.211a1.411,1.411,0,0,0-1.09.455,2.357,2.357,0,0,0-.535,1.3h3.141V9.788a1.681,1.681,0,0,0-.406-1.165A1.456,1.456,0,0,0,81.9,8.211Z" transform="translate(21 -10203)" fill="#12263f"/>
    <path id="Trazado_773914" data-name="Trazado 773914" d="M17.191,10.07h-4.5v3.047h5.281V15H10.348V3.625h7.609v1.9H12.691V8.234h4.5Zm1.508.641a5.094,5.094,0,0,1,.887-3.148,2.877,2.877,0,0,1,2.426-1.172,2.589,2.589,0,0,1,2.039.922V3h2.266V15H24.277l-.109-.9A2.657,2.657,0,0,1,22,15.156,2.869,2.869,0,0,1,19.6,13.98,5.258,5.258,0,0,1,18.7,10.711Zm2.258.168a3.337,3.337,0,0,0,.414,1.823,1.349,1.349,0,0,0,1.2.634,1.511,1.511,0,0,0,1.477-.884V9.111a1.489,1.489,0,0,0-1.461-.884Q20.957,8.227,20.957,10.879Zm12.172,3.262a2.831,2.831,0,0,1-2.312,1.016,2.67,2.67,0,0,1-2.074-.781,3.335,3.335,0,0,1-.73-2.289V6.547H30.27v5.467q0,1.322,1.2,1.322a1.63,1.63,0,0,0,1.578-.8V6.547h2.266V15H33.191Zm7.406-.8a1.481,1.481,0,0,0,1.016-.344,1.2,1.2,0,0,0,.406-.914h2.117a2.9,2.9,0,0,1-.469,1.574,3.093,3.093,0,0,1-1.262,1.109,3.949,3.949,0,0,1-1.77.395A3.67,3.67,0,0,1,37.715,14a4.56,4.56,0,0,1-1.047-3.184v-.148a4.508,4.508,0,0,1,1.039-3.117,3.627,3.627,0,0,1,2.852-1.164,3.555,3.555,0,0,1,2.543.9,3.2,3.2,0,0,1,.973,2.4H41.957a1.551,1.551,0,0,0-.406-1.072,1.51,1.51,0,0,0-2.223.163,3.333,3.333,0,0,0-.4,1.866v.235a3.375,3.375,0,0,0,.4,1.878A1.377,1.377,0,0,0,40.535,13.336ZM50.262,15a2.507,2.507,0,0,1-.227-.758,2.732,2.732,0,0,1-2.133.914,3,3,0,0,1-2.059-.719,2.312,2.312,0,0,1-.816-1.812,2.389,2.389,0,0,1,1-2.062A4.915,4.915,0,0,1,48.9,9.836h1.039V9.352a1.393,1.393,0,0,0-.3-.937,1.183,1.183,0,0,0-.949-.352,1.345,1.345,0,0,0-.895.273.929.929,0,0,0-.324.75H45.215a2.268,2.268,0,0,1,.453-1.359,3,3,0,0,1,1.281-.98,4.669,4.669,0,0,1,1.859-.355,3.689,3.689,0,0,1,2.48.785,2.747,2.747,0,0,1,.918,2.207v3.664a4.041,4.041,0,0,0,.336,1.82V15Zm-1.867-1.57a1.945,1.945,0,0,0,.922-.223,1.462,1.462,0,0,0,.625-.6V11.156H49.1q-1.7,0-1.8,1.172l-.008.133a.9.9,0,0,0,.3.7A1.153,1.153,0,0,0,48.395,13.43Zm9.063-.094a1.481,1.481,0,0,0,1.016-.344,1.2,1.2,0,0,0,.406-.914H61a2.9,2.9,0,0,1-.469,1.574,3.093,3.093,0,0,1-1.262,1.109,3.949,3.949,0,0,1-1.77.395A3.67,3.67,0,0,1,54.637,14,4.56,4.56,0,0,1,53.59,10.82v-.148a4.508,4.508,0,0,1,1.039-3.117A3.627,3.627,0,0,1,57.48,6.391a3.555,3.555,0,0,1,2.543.9A3.2,3.2,0,0,1,61,9.7H58.879a1.551,1.551,0,0,0-.406-1.072,1.51,1.51,0,0,0-2.223.163,3.333,3.333,0,0,0-.4,1.866v.235a3.375,3.375,0,0,0,.4,1.878A1.377,1.377,0,0,0,57.457,13.336ZM64.668,15H62.4V6.547h2.266ZM62.27,4.359a1.112,1.112,0,0,1,.34-.836,1.465,1.465,0,0,1,1.848,0,1.105,1.105,0,0,1,.344.836,1.108,1.108,0,0,1-.348.844,1.448,1.448,0,0,1-1.836,0A1.108,1.108,0,0,1,62.27,4.359ZM66.176,10.7a5.013,5.013,0,0,1,.484-2.242A3.546,3.546,0,0,1,68.055,6.93a4.069,4.069,0,0,1,2.113-.539,3.849,3.849,0,0,1,2.793,1.047,4.2,4.2,0,0,1,1.207,2.844l.016.578A4.418,4.418,0,0,1,73.1,13.98a4.209,4.209,0,0,1-5.832,0,4.5,4.5,0,0,1-1.09-3.187Zm2.258.16a3.16,3.16,0,0,0,.453,1.843,1.628,1.628,0,0,0,2.578.008,3.457,3.457,0,0,0,.461-2.015,3.128,3.128,0,0,0-.461-1.831,1.5,1.5,0,0,0-1.3-.649,1.474,1.474,0,0,0-1.281.646A3.516,3.516,0,0,0,68.434,10.856ZM70.613,3h2.461L70.91,5.422H69.074Zm7.039,3.547.07.977a2.951,2.951,0,0,1,2.43-1.133,2.453,2.453,0,0,1,2,.789,3.682,3.682,0,0,1,.672,2.359V15H80.566V9.594a1.465,1.465,0,0,0-.312-1.043,1.4,1.4,0,0,0-1.039-.324,1.553,1.553,0,0,0-1.43.813V15H75.527V6.547Z" transform="translate(175 -10299)" fill="#12263f"/>
    <path id="Trazado_773915" data-name="Trazado 773915" d="M29.09,12.016A1.2,1.2,0,0,0,28.621,11a6.148,6.148,0,0,0-1.687-.75A11.963,11.963,0,0,1,25,9.469a3.153,3.153,0,0,1-1.937-2.82A2.747,2.747,0,0,1,23.586,5a3.389,3.389,0,0,1,1.492-1.129,5.616,5.616,0,0,1,2.184-.406,5.112,5.112,0,0,1,2.172.441,3.458,3.458,0,0,1,1.48,1.246,3.261,3.261,0,0,1,.527,1.828H29.1a1.534,1.534,0,0,0-.492-1.215,2.023,2.023,0,0,0-1.383-.434,2.162,2.162,0,0,0-1.336.363,1.146,1.146,0,0,0-.477.957,1.1,1.1,0,0,0,.559.93,6.311,6.311,0,0,0,1.645.7,7.106,7.106,0,0,1,2.914,1.492A2.972,2.972,0,0,1,31.441,12a2.737,2.737,0,0,1-1.117,2.316,4.891,4.891,0,0,1-3.008.84,5.808,5.808,0,0,1-2.391-.48,3.783,3.783,0,0,1-1.645-1.316,3.371,3.371,0,0,1-.566-1.937h2.352q0,1.883,2.25,1.883a2.189,2.189,0,0,0,1.3-.34A1.106,1.106,0,0,0,29.09,12.016Zm7.68,3.141a4.15,4.15,0,0,1-3.027-1.141,4.054,4.054,0,0,1-1.168-3.039v-.219a5.106,5.106,0,0,1,.492-2.277,3.612,3.612,0,0,1,1.395-1.547,3.914,3.914,0,0,1,2.059-.543,3.508,3.508,0,0,1,2.73,1.094,4.444,4.444,0,0,1,1,3.1v.922H34.863a2.1,2.1,0,0,0,.66,1.328,2,2,0,0,0,1.395.5,2.437,2.437,0,0,0,2.039-.945l1.109,1.242a3.389,3.389,0,0,1-1.375,1.121A4.511,4.511,0,0,1,36.77,15.156Zm-.258-6.945a1.411,1.411,0,0,0-1.09.455,2.357,2.357,0,0,0-.535,1.3h3.141V9.788a1.681,1.681,0,0,0-.406-1.165A1.456,1.456,0,0,0,36.512,8.211Zm9.766.453a6.134,6.134,0,0,0-.812-.062,1.654,1.654,0,0,0-1.68.867V15H41.527V6.547H43.66l.063,1.008a2.092,2.092,0,0,1,1.883-1.164,2.366,2.366,0,0,1,.7.1Zm4.391,3.578,1.57-5.7H54.6L51.746,15H49.59L46.738,6.547H49.1ZM57.973,15H55.707V6.547h2.266Zm-2.4-10.641a1.112,1.112,0,0,1,.34-.836,1.465,1.465,0,0,1,1.848,0,1.105,1.105,0,0,1,.344.836,1.108,1.108,0,0,1-.348.844,1.448,1.448,0,0,1-1.836,0A1.108,1.108,0,0,1,55.574,4.359Zm7.773,8.977a1.481,1.481,0,0,0,1.016-.344,1.2,1.2,0,0,0,.406-.914h2.117a2.9,2.9,0,0,1-.469,1.574,3.093,3.093,0,0,1-1.262,1.109,3.949,3.949,0,0,1-1.77.395A3.67,3.67,0,0,1,60.527,14,4.56,4.56,0,0,1,59.48,10.82v-.148A4.508,4.508,0,0,1,60.52,7.555a3.627,3.627,0,0,1,2.852-1.164,3.555,3.555,0,0,1,2.543.9,3.2,3.2,0,0,1,.973,2.4H64.77a1.551,1.551,0,0,0-.406-1.072,1.51,1.51,0,0,0-2.223.163,3.333,3.333,0,0,0-.4,1.866v.235a3.375,3.375,0,0,0,.4,1.878A1.377,1.377,0,0,0,63.348,13.336ZM70.559,15H68.293V6.547h2.266ZM68.16,4.359a1.112,1.112,0,0,1,.34-.836,1.465,1.465,0,0,1,1.848,0,1.105,1.105,0,0,1,.344.836,1.108,1.108,0,0,1-.348.844,1.448,1.448,0,0,1-1.836,0A1.108,1.108,0,0,1,68.16,4.359ZM72.066,10.7a5.013,5.013,0,0,1,.484-2.242A3.546,3.546,0,0,1,73.945,6.93a4.069,4.069,0,0,1,2.113-.539,3.849,3.849,0,0,1,2.793,1.047,4.2,4.2,0,0,1,1.207,2.844l.016.578a4.418,4.418,0,0,1-1.086,3.121,4.209,4.209,0,0,1-5.832,0,4.5,4.5,0,0,1-1.09-3.187Zm2.258.16a3.16,3.16,0,0,0,.453,1.843,1.628,1.628,0,0,0,2.578.008,3.457,3.457,0,0,0,.461-2.015,3.128,3.128,0,0,0-.461-1.831,1.5,1.5,0,0,0-1.3-.649,1.474,1.474,0,0,0-1.281.646A3.516,3.516,0,0,0,74.324,10.856Zm11.719,1.808a.727.727,0,0,0-.41-.652,4.659,4.659,0,0,0-1.316-.426Q81.3,10.953,81.3,9.023a2.323,2.323,0,0,1,.934-1.879,3.766,3.766,0,0,1,2.441-.754,4.053,4.053,0,0,1,2.574.758,2.388,2.388,0,0,1,.965,1.969H85.957a1.092,1.092,0,0,0-.312-.8A1.322,1.322,0,0,0,84.668,8a1.351,1.351,0,0,0-.883.258.814.814,0,0,0-.312.656.7.7,0,0,0,.355.605,3.657,3.657,0,0,0,1.2.4,9.8,9.8,0,0,1,1.422.379,2.336,2.336,0,0,1,1.789,2.273,2.2,2.2,0,0,1-.992,1.871,4.28,4.28,0,0,1-2.562.715,4.47,4.47,0,0,1-1.887-.379A3.166,3.166,0,0,1,81.5,13.738a2.414,2.414,0,0,1-.469-1.426h2.141a1.179,1.179,0,0,0,.445.922,1.766,1.766,0,0,0,1.109.32,1.635,1.635,0,0,0,.98-.246A.766.766,0,0,0,86.043,12.664ZM16.766,33V26.2H15.508V24.547h1.258v-.391a3.17,3.17,0,0,1,.98-2.457,3.945,3.945,0,0,1,2.723-.863,9.031,9.031,0,0,1,2.563.461L22.7,23.164a10,10,0,0,0-1.187-.293,5.834,5.834,0,0,0-.906-.066q-1.578,0-1.578,1.4v.344H20.7V26.2H19.031V33Zm7.32,0H21.82V24.547h2.266Zm3.945-8.453.07.977a2.951,2.951,0,0,1,2.43-1.133,2.453,2.453,0,0,1,2,.789,3.682,3.682,0,0,1,.672,2.359V33H30.945V27.594a1.465,1.465,0,0,0-.312-1.043,1.4,1.4,0,0,0-1.039-.324,1.553,1.553,0,0,0-1.43.813V33H25.906V24.547ZM39.813,33a2.507,2.507,0,0,1-.227-.758,2.732,2.732,0,0,1-2.133.914,3,3,0,0,1-2.059-.719,2.312,2.312,0,0,1-.816-1.812,2.389,2.389,0,0,1,1-2.062,4.915,4.915,0,0,1,2.879-.727h1.039v-.484a1.393,1.393,0,0,0-.3-.937,1.183,1.183,0,0,0-.949-.352,1.345,1.345,0,0,0-.895.273.929.929,0,0,0-.324.75H34.766a2.268,2.268,0,0,1,.453-1.359,3,3,0,0,1,1.281-.98,4.669,4.669,0,0,1,1.859-.355,3.689,3.689,0,0,1,2.48.785,2.747,2.747,0,0,1,.918,2.207v3.664a4.041,4.041,0,0,0,.336,1.82V33Zm-1.867-1.57a1.945,1.945,0,0,0,.922-.223,1.462,1.462,0,0,0,.625-.6V29.156h-.844q-1.7,0-1.8,1.172l-.008.133a.9.9,0,0,0,.3.7A1.153,1.153,0,0,0,37.945,31.43Zm7.625-6.883.07.977a2.951,2.951,0,0,1,2.43-1.133,2.453,2.453,0,0,1,2,.789,3.682,3.682,0,0,1,.672,2.359V33H48.484V27.594a1.465,1.465,0,0,0-.312-1.043,1.4,1.4,0,0,0-1.039-.324,1.553,1.553,0,0,0-1.43.813V33H43.445V24.547Zm10.4,6.789a1.481,1.481,0,0,0,1.016-.344,1.2,1.2,0,0,0,.406-.914h2.117a2.9,2.9,0,0,1-.469,1.574,3.093,3.093,0,0,1-1.262,1.109,3.949,3.949,0,0,1-1.77.395A3.67,3.67,0,0,1,53.148,32,4.56,4.56,0,0,1,52.1,28.82v-.148a4.508,4.508,0,0,1,1.039-3.117,3.627,3.627,0,0,1,2.852-1.164,3.555,3.555,0,0,1,2.543.9,3.2,3.2,0,0,1,.973,2.4H57.391a1.551,1.551,0,0,0-.406-1.072,1.51,1.51,0,0,0-2.223.163,3.333,3.333,0,0,0-.4,1.866v.235a3.375,3.375,0,0,0,.4,1.878A1.377,1.377,0,0,0,55.969,31.336ZM63.18,33H60.914V24.547H63.18Zm-2.4-10.641a1.112,1.112,0,0,1,.34-.836,1.465,1.465,0,0,1,1.848,0,1.193,1.193,0,0,1,0,1.68,1.448,1.448,0,0,1-1.836,0A1.108,1.108,0,0,1,60.781,22.359Zm8.148,10.8A4.15,4.15,0,0,1,65.9,32.016a4.054,4.054,0,0,1-1.168-3.039v-.219a5.106,5.106,0,0,1,.492-2.277,3.612,3.612,0,0,1,1.395-1.547,3.914,3.914,0,0,1,2.059-.543,3.508,3.508,0,0,1,2.73,1.094,4.444,4.444,0,0,1,1,3.1v.922H67.023a2.1,2.1,0,0,0,.66,1.328,2,2,0,0,0,1.395.5,2.437,2.437,0,0,0,2.039-.945l1.109,1.242a3.389,3.389,0,0,1-1.375,1.121A4.511,4.511,0,0,1,68.93,33.156Zm-.258-6.945a1.411,1.411,0,0,0-1.09.455,2.357,2.357,0,0,0-.535,1.3h3.141v-.181a1.681,1.681,0,0,0-.406-1.165A1.456,1.456,0,0,0,68.672,26.211Zm9.766.453a6.134,6.134,0,0,0-.812-.062,1.654,1.654,0,0,0-1.68.867V33H73.688V24.547H75.82l.063,1.008a2.092,2.092,0,0,1,1.883-1.164,2.366,2.366,0,0,1,.7.1Zm.453,2.031a5.013,5.013,0,0,1,.484-2.242A3.546,3.546,0,0,1,80.77,24.93a4.069,4.069,0,0,1,2.113-.539,3.849,3.849,0,0,1,2.793,1.047,4.2,4.2,0,0,1,1.207,2.844l.016.578a4.418,4.418,0,0,1-1.086,3.121,4.209,4.209,0,0,1-5.832,0,4.5,4.5,0,0,1-1.09-3.187Zm2.258.16A3.16,3.16,0,0,0,81.6,30.7a1.628,1.628,0,0,0,2.578.008,3.457,3.457,0,0,0,.461-2.015,3.128,3.128,0,0,0-.461-1.831,1.5,1.5,0,0,0-1.3-.649,1.474,1.474,0,0,0-1.281.646A3.516,3.516,0,0,0,81.148,28.856Zm11.719,1.808a.727.727,0,0,0-.41-.652,4.659,4.659,0,0,0-1.316-.426q-3.016-.633-3.016-2.562a2.323,2.323,0,0,1,.934-1.879,3.766,3.766,0,0,1,2.441-.754,4.053,4.053,0,0,1,2.574.758,2.388,2.388,0,0,1,.965,1.969H92.781a1.092,1.092,0,0,0-.312-.8A1.322,1.322,0,0,0,91.492,26a1.351,1.351,0,0,0-.883.258.814.814,0,0,0-.312.656.7.7,0,0,0,.355.605,3.657,3.657,0,0,0,1.2.4,9.8,9.8,0,0,1,1.422.379,2.336,2.336,0,0,1,1.789,2.273,2.2,2.2,0,0,1-.992,1.871,4.28,4.28,0,0,1-2.562.715,4.47,4.47,0,0,1-1.887-.379,3.166,3.166,0,0,1-1.293-1.039,2.414,2.414,0,0,1-.469-1.426H90a1.179,1.179,0,0,0,.445.922,1.766,1.766,0,0,0,1.109.32,1.635,1.635,0,0,0,.98-.246A.766.766,0,0,0,92.867,30.664Z" transform="translate(-144 -10299)" fill="#12263f"/>
  </g>
</svg>
