<svg xmlns="http://www.w3.org/2000/svg" xmlns:xlink="http://www.w3.org/1999/xlink" width="525" height="325" viewBox="0 0 525 325">
  <defs>
    <clipPath id="clip-path">
      <rect id="Rectángulo_360908" data-name="Rectángulo 360908" width="397.116" height="299.13" fill="none"/>
    </clipPath>
    <clipPath id="clip-path-2">
      <rect id="Rectángulo_360923" data-name="Rectángulo 360923" width="85.581" height="85.581" transform="translate(155.768)" fill="none"/>
    </clipPath>
  </defs>
  <g id="Grupo_1028061" data-name="Grupo 1028061" transform="translate(195 11130)">
    <path id="Trazado_773906" data-name="Trazado 773906" d="M0,0H525V325H0Z" transform="translate(-195 -11130)" fill="none"/>
    <g id="Grupo_1028005" data-name="Grupo 1028005" transform="translate(-131 -11130)">
      <path id="Trazado_773497" data-name="Trazado 773497" d="M54.779,194.674H49.43v-12.7l2.674-2.235,2.675,2.235Z" fill="#7b6c79"/>
      <path id="Trazado_773498" data-name="Trazado 773498" d="M9.315,194.674H3.966v-12.7l1.695-2.526-1.695-2.618V160.582l1.5-2.56-1.5-2.606V139.187l2.675-2.492,2.674,2.492v16.229l-1.652,2.7,1.652,2.463v16.229l-1.652,2.64,1.652,2.526Z" fill="#7b6c79"/>
      <rect id="Rectángulo_360893" data-name="Rectángulo 360893" width="5.349" height="7.84" transform="translate(3.966 131.346)" fill="#6d5f6c"/>
      <rect id="Rectángulo_360894" data-name="Rectángulo 360894" width="5.349" height="7.84" transform="translate(3.966 152.741)" fill="#6d5f6c"/>
      <rect id="Rectángulo_360895" data-name="Rectángulo 360895" width="5.349" height="7.84" transform="translate(3.966 174.136)" fill="#6d5f6c"/>
      <path id="Trazado_773499" data-name="Trazado 773499" d="M28.035,194.674H22.686v-12.7l1.694-2.526-1.694-2.618V160.582l1.5-2.56-1.5-2.606V139.187l2.675-2.492,2.674,2.492v16.229l-1.652,2.7,1.652,2.463v16.229l-1.652,2.64,1.652,2.526Z" fill="#7b6c79"/>
      <rect id="Rectángulo_360896" data-name="Rectángulo 360896" width="5.349" height="7.84" transform="translate(22.687 131.346)" fill="#6d5f6c"/>
      <rect id="Rectángulo_360897" data-name="Rectángulo 360897" width="5.349" height="7.84" transform="translate(22.687 152.741)" fill="#6d5f6c"/>
      <rect id="Rectángulo_360898" data-name="Rectángulo 360898" width="5.349" height="7.84" transform="translate(22.687 174.136)" fill="#6d5f6c"/>
      <rect id="Rectángulo_360899" data-name="Rectángulo 360899" width="5.349" height="7.84" transform="translate(49.43 174.136)" fill="#6d5f6c"/>
      <g id="Grupo_1028002" data-name="Grupo 1028002">
        <g id="Grupo_1028001" data-name="Grupo 1028001" clip-path="url(#clip-path)">
          <path id="Trazado_773500" data-name="Trazado 773500" d="M65.477,195.532H77.245V186.04a1.205,1.205,0,0,0-1.205-1.206H66.682a1.206,1.206,0,0,0-1.205,1.206Z" fill="#ffe02f"/>
          <path id="Trazado_773501" data-name="Trazado 773501" d="M75.152,184.834h5.166a1.205,1.205,0,0,1,1.205,1.205v9.493H76.357v-9.493a1.205,1.205,0,0,0-1.205-1.205" fill="#fbc700"/>
          <path id="Trazado_773502" data-name="Trazado 773502" d="M69.38,123.323h4.143a1.206,1.206,0,0,0,1.206-1.205v-8.287a1.206,1.206,0,0,0-1.206-1.206H69.38a1.205,1.205,0,0,0-1.2,1.206v8.287a1.2,1.2,0,0,0,1.2,1.205" fill="#ffe02f"/>
          <path id="Trazado_773503" data-name="Trazado 773503" d="M73.706,122.118v-8.287a1.205,1.205,0,0,0-1.205-1.205h5.165a1.205,1.205,0,0,1,1.206,1.205v8.287a1.205,1.205,0,0,1-1.206,1.205H72.5a1.205,1.205,0,0,0,1.205-1.205" fill="#fbc700"/>
          <path id="Trazado_773504" data-name="Trazado 773504" d="M45.551,128.672H39.309a1.206,1.206,0,0,1-1.206-1.2v-5.129h8.653v5.129a1.2,1.2,0,0,1-1.205,1.2" fill="#7b6c79"/>
          <path id="Trazado_773505" data-name="Trazado 773505" d="M47.91,150.067H36.949a1.206,1.206,0,0,1-1.206-1.205v-2.938a1.206,1.206,0,0,1,1.206-1.206H47.91a1.205,1.205,0,0,1,1.205,1.206v2.938a1.205,1.205,0,0,1-1.205,1.205" fill="#7b6c79"/>
          <path id="Trazado_773506" data-name="Trazado 773506" d="M64.008,198.206H78.8A1.206,1.206,0,0,0,80,197v-2.938a1.206,1.206,0,0,0-1.205-1.206H64.008a1.205,1.205,0,0,0-1.205,1.206V197a1.2,1.2,0,0,0,1.205,1.2" fill="#dcdcee"/>
          <path id="Trazado_773507" data-name="Trazado 773507" d="M79.032,197v-2.938a1.205,1.205,0,0,0-1.2-1.205h5.165a1.205,1.205,0,0,1,1.206,1.205V197a1.205,1.205,0,0,1-1.206,1.2H77.827a1.2,1.2,0,0,0,1.2-1.2" fill="#ccccea"/>
          <path id="Trazado_773508" data-name="Trazado 773508" d="M2.5,134.021H25.361a1.2,1.2,0,0,0,1.2-1.205v-2.938a1.205,1.205,0,0,0-1.2-1.206H2.5a1.205,1.205,0,0,0-1.2,1.206v2.938a1.2,1.2,0,0,0,1.2,1.205" fill="#dcdcee"/>
          <path id="Trazado_773509" data-name="Trazado 773509" d="M25.544,132.815v-2.938a1.205,1.205,0,0,0-1.2-1.205H29.5a1.205,1.205,0,0,1,1.206,1.205v2.938A1.205,1.205,0,0,1,29.5,134.02H24.339a1.205,1.205,0,0,0,1.2-1.205" fill="#ccccea"/>
          <path id="Trazado_773510" data-name="Trazado 773510" d="M2.5,155.416H25.361a1.2,1.2,0,0,0,1.2-1.205v-2.938a1.205,1.205,0,0,0-1.2-1.206H2.5a1.205,1.205,0,0,0-1.2,1.206v2.938a1.2,1.2,0,0,0,1.2,1.205" fill="#dcdcee"/>
          <path id="Trazado_773511" data-name="Trazado 773511" d="M25.544,154.21v-2.938a1.205,1.205,0,0,0-1.2-1.205H29.5a1.205,1.205,0,0,1,1.206,1.205v2.938a1.205,1.205,0,0,1-1.206,1.2H24.339a1.2,1.2,0,0,0,1.2-1.2" fill="#ccccea"/>
          <path id="Trazado_773512" data-name="Trazado 773512" d="M2.5,176.811H52.1a1.205,1.205,0,0,0,1.205-1.205v-2.938a1.205,1.205,0,0,0-1.205-1.206H2.5a1.205,1.205,0,0,0-1.2,1.206v2.938a1.205,1.205,0,0,0,1.2,1.205" fill="#dcdcee"/>
          <path id="Trazado_773513" data-name="Trazado 773513" d="M52.288,175.606v-2.938a1.205,1.205,0,0,0-1.2-1.205h5.165a1.205,1.205,0,0,1,1.206,1.205v2.938a1.205,1.205,0,0,1-1.206,1.205H51.083a1.205,1.205,0,0,0,1.2-1.205" fill="#ccccea"/>
          <path id="Trazado_773514" data-name="Trazado 773514" d="M2.5,198.206H52.1A1.2,1.2,0,0,0,53.31,197v-2.938a1.205,1.205,0,0,0-1.205-1.206H2.5a1.205,1.205,0,0,0-1.2,1.206V197a1.2,1.2,0,0,0,1.2,1.2" fill="#dcdcee"/>
          <path id="Trazado_773515" data-name="Trazado 773515" d="M52.288,197v-2.938a1.205,1.205,0,0,0-1.2-1.205h5.165a1.205,1.205,0,0,1,1.206,1.205V197a1.205,1.205,0,0,1-1.206,1.2H51.083a1.2,1.2,0,0,0,1.2-1.2" fill="#ccccea"/>
          <path id="Trazado_773516" data-name="Trazado 773516" d="M68.149,122.338H29.373l6.686-8.727h32.09" fill="none" stroke="#000" stroke-linecap="round" stroke-linejoin="round" stroke-width="2.583"/>
          <path id="Trazado_773517" data-name="Trazado 773517" d="M78.8,113.611h8.068v8.727H78.8" fill="none" stroke="#000" stroke-linecap="round" stroke-linejoin="round" stroke-width="2.583"/>
          <line id="Línea_3531" data-name="Línea 3531" y2="61.511" transform="translate(77.84 123.323)" fill="none" stroke="#000" stroke-linecap="round" stroke-linejoin="round" stroke-width="2.583"/>
          <line id="Línea_3532" data-name="Línea 3532" y1="61.511" transform="translate(69.113 123.323)" fill="none" stroke="#000" stroke-linecap="round" stroke-linejoin="round" stroke-width="2.583"/>
          <path id="Rectángulo_360900" data-name="Rectángulo 360900" d="M1.2,0H9.492A1.205,1.205,0,0,1,10.7,1.205V9.492A1.206,1.206,0,0,1,9.491,10.7H1.2A1.2,1.2,0,0,1,0,9.493V1.2A1.2,1.2,0,0,1,1.2,0Z" transform="translate(68.128 112.625)" fill="none" stroke="#000" stroke-linecap="round" stroke-linejoin="round" stroke-width="2.583"/>
          <line id="Línea_3533" data-name="Línea 3533" x1="8.047" y2="8.727" transform="translate(78.825 113.611)" fill="none" stroke="#000" stroke-linecap="round" stroke-linejoin="round" stroke-width="2.583"/>
          <path id="Trazado_773518" data-name="Trazado 773518" d="M68.174,113.611l-8.047,8.727L52.1,113.611l-8.023,8.727-8.023-8.727" fill="none" stroke="#000" stroke-linecap="round" stroke-linejoin="round" stroke-width="2.583"/>
          <path id="Trazado_773519" data-name="Trazado 773519" d="M77.84,123.312l-8.727,8.023,8.727,8.023-8.727,8.023,8.727,8.047-8.727,8.011,8.727,8.024-8.727,8.023,5.818,5.348" fill="none" stroke="#000" stroke-linecap="round" stroke-linejoin="round" stroke-width="2.583"/>
          <path id="Trazado_773520" data-name="Trazado 773520" d="M46.756,122.338v5.129a1.205,1.205,0,0,1-1.205,1.2H39.308a1.205,1.205,0,0,1-1.2-1.2v-5.129" fill="none" stroke="#000" stroke-linecap="round" stroke-linejoin="round" stroke-width="2.583"/>
          <line id="Línea_3534" data-name="Línea 3534" y2="10.697" transform="translate(42.43 128.672)" fill="none" stroke="#000" stroke-linecap="round" stroke-linejoin="round" stroke-width="2.583"/>
          <path id="Rectángulo_360901" data-name="Rectángulo 360901" d="M1.2,0H12.166a1.206,1.206,0,0,1,1.206,1.206V4.143a1.206,1.206,0,0,1-1.206,1.206H1.2A1.2,1.2,0,0,1,0,4.144V1.2A1.2,1.2,0,0,1,1.2,0Z" transform="translate(35.743 144.718)" fill="none" stroke="#000" stroke-linecap="round" stroke-linejoin="round" stroke-width="2.583"/>
          <path id="Trazado_773521" data-name="Trazado 773521" d="M65.477,192.857v-6.818a1.205,1.205,0,0,1,1.205-1.205H80.318a1.2,1.2,0,0,1,1.205,1.205v6.818" fill="none" stroke="#000" stroke-linecap="round" stroke-linejoin="round" stroke-width="2.583"/>
          <path id="Trazado_773522" data-name="Trazado 773522" d="M76.974,192.857h6.018a1.205,1.205,0,0,1,1.205,1.205V197a1.205,1.205,0,0,1-1.205,1.206H64.008A1.206,1.206,0,0,1,62.8,197v-2.938a1.206,1.206,0,0,1,1.206-1.205h7.337" fill="none" stroke="#000" stroke-linecap="round" stroke-linejoin="round" stroke-width="2.583"/>
          <path id="Trazado_773523" data-name="Trazado 773523" d="M46.566,144.718l-4.316-5.349-4.315,5.349" fill="none" stroke="#000" stroke-linecap="round" stroke-linejoin="round" stroke-width="2.583"/>
          <line id="Línea_3535" data-name="Línea 3535" y1="16.046" transform="translate(3.966 134.021)" fill="none" stroke="#000" stroke-linecap="round" stroke-linejoin="round" stroke-width="2.583"/>
          <line id="Línea_3536" data-name="Línea 3536" y1="16.046" transform="translate(3.966 155.416)" fill="none" stroke="#000" stroke-linecap="round" stroke-linejoin="round" stroke-width="2.583"/>
          <line id="Línea_3537" data-name="Línea 3537" y1="16.046" transform="translate(3.966 176.811)" fill="none" stroke="#000" stroke-linecap="round" stroke-linejoin="round" stroke-width="2.583"/>
          <line id="Línea_3538" data-name="Línea 3538" y2="16.046" transform="translate(9.315 176.811)" fill="none" stroke="#000" stroke-linecap="round" stroke-linejoin="round" stroke-width="2.583"/>
          <line id="Línea_3539" data-name="Línea 3539" y2="16.046" transform="translate(9.315 155.416)" fill="none" stroke="#000" stroke-linecap="round" stroke-linejoin="round" stroke-width="2.583"/>
          <line id="Línea_3540" data-name="Línea 3540" y2="16.046" transform="translate(9.315 134.021)" fill="none" stroke="#000" stroke-linecap="round" stroke-linejoin="round" stroke-width="2.583"/>
          <line id="Línea_3541" data-name="Línea 3541" y1="16.046" transform="translate(22.687 134.021)" fill="none" stroke="#000" stroke-linecap="round" stroke-linejoin="round" stroke-width="2.583"/>
          <line id="Línea_3542" data-name="Línea 3542" y1="5.209" transform="translate(22.687 155.416)" fill="none" stroke="#000" stroke-linecap="round" stroke-linejoin="round" stroke-width="2.583"/>
          <line id="Línea_3543" data-name="Línea 3543" y1="5.209" transform="translate(22.687 166.253)" fill="none" stroke="#000" stroke-linecap="round" stroke-linejoin="round" stroke-width="2.583"/>
          <line id="Línea_3544" data-name="Línea 3544" y1="16.046" transform="translate(22.687 176.811)" fill="none" stroke="#000" stroke-linecap="round" stroke-linejoin="round" stroke-width="2.583"/>
          <line id="Línea_3545" data-name="Línea 3545" y2="16.046" transform="translate(28.035 176.811)" fill="none" stroke="#000" stroke-linecap="round" stroke-linejoin="round" stroke-width="2.583"/>
          <line id="Línea_3546" data-name="Línea 3546" y2="16.046" transform="translate(28.035 155.416)" fill="none" stroke="#000" stroke-linecap="round" stroke-linejoin="round" stroke-width="2.583"/>
          <line id="Línea_3547" data-name="Línea 3547" y2="16.046" transform="translate(28.035 134.021)" fill="none" stroke="#000" stroke-linecap="round" stroke-linejoin="round" stroke-width="2.583"/>
          <line id="Línea_3548" data-name="Línea 3548" y1="16.046" transform="translate(49.43 176.811)" fill="none" stroke="#000" stroke-linecap="round" stroke-linejoin="round" stroke-width="2.583"/>
          <line id="Línea_3549" data-name="Línea 3549" y2="16.046" transform="translate(54.779 176.811)" fill="none" stroke="#000" stroke-linecap="round" stroke-linejoin="round" stroke-width="2.583"/>
          <path id="Trazado_773524" data-name="Trazado 773524" d="M12.645,128.672H29.5a1.206,1.206,0,0,1,1.2,1.205v2.938a1.206,1.206,0,0,1-1.2,1.206H2.5a1.205,1.205,0,0,1-1.2-1.206v-2.938a1.205,1.205,0,0,1,1.2-1.205h4.52" fill="none" stroke="#000" stroke-linecap="round" stroke-linejoin="round" stroke-width="2.583"/>
          <path id="Rectángulo_360902" data-name="Rectángulo 360902" d="M1.2,0H28.212a1.206,1.206,0,0,1,1.206,1.206V4.143a1.206,1.206,0,0,1-1.206,1.206H1.2A1.2,1.2,0,0,1,0,4.144V1.2A1.2,1.2,0,0,1,1.2,0Z" transform="translate(1.291 150.067)" fill="none" stroke="#000" stroke-linecap="round" stroke-linejoin="round" stroke-width="2.583"/>
          <path id="Rectángulo_360903" data-name="Rectángulo 360903" d="M1.2,0H54.956a1.206,1.206,0,0,1,1.206,1.206V4.143a1.206,1.206,0,0,1-1.206,1.206H1.206A1.206,1.206,0,0,1,0,4.143V1.2A1.2,1.2,0,0,1,1.2,0Z" transform="translate(1.291 171.462)" fill="none" stroke="#000" stroke-linecap="round" stroke-linejoin="round" stroke-width="2.583"/>
          <path id="Rectángulo_360904" data-name="Rectángulo 360904" d="M1.2,0H54.956a1.206,1.206,0,0,1,1.206,1.206V4.143a1.206,1.206,0,0,1-1.206,1.206H1.206A1.206,1.206,0,0,1,0,4.143V1.2A1.2,1.2,0,0,1,1.2,0Z" transform="translate(1.291 192.857)" fill="none" stroke="#000" stroke-linecap="round" stroke-linejoin="round" stroke-width="2.583"/>
          <line id="Línea_3550" data-name="Línea 3550" y2="16.046" transform="translate(38.733 176.811)" fill="none" stroke="#000" stroke-linecap="round" stroke-linejoin="round" stroke-width="2.583"/>
          <line id="Línea_3551" data-name="Línea 3551" y1="14.023" transform="translate(38.733 157.439)" fill="none" stroke="#000" stroke-linecap="round" stroke-linejoin="round" stroke-width="2.583"/>
          <line id="Línea_3552" data-name="Línea 3552" y1="16.046" transform="translate(49.43 155.416)" fill="none" stroke="#000" stroke-linecap="round" stroke-linejoin="round" stroke-width="2.583"/>
          <line id="Línea_3553" data-name="Línea 3553" x2="24.081" transform="translate(28.035 160.765)" fill="none" stroke="#000" stroke-linecap="round" stroke-linejoin="round" stroke-width="2.583"/>
          <line id="Línea_3554" data-name="Línea 3554" x2="26.744" transform="translate(28.035 166.113)" fill="none" stroke="#000" stroke-linecap="round" stroke-linejoin="round" stroke-width="2.583"/>
          <line id="Línea_3555" data-name="Línea 3555" x2="21.395" transform="translate(28.035 182.16)" fill="none" stroke="#000" stroke-linecap="round" stroke-linejoin="round" stroke-width="2.583"/>
          <line id="Línea_3556" data-name="Línea 3556" x2="21.395" transform="translate(28.035 187.509)" fill="none" stroke="#000" stroke-linecap="round" stroke-linejoin="round" stroke-width="2.583"/>
          <path id="Trazado_773525" data-name="Trazado 773525" d="M363.4,189.045c0,4.6,2.608,7.161,5.825,7.161.131,0,.261-.006.389-.014,3.111-1.594,5.436-2.737,5.436-7.147,0-4.772-4.367-7.307-5.279-9.11-.094-.07-.179-.13-.252-.18a.511.511,0,0,0-.588,0c-1.184.826-5.531,4.206-5.531,9.29" fill="#10a9f0"/>
          <path id="Trazado_773526" data-name="Trazado 773526" d="M367.635,188.136a15.911,15.911,0,0,0,1.982,8.055c3.036-.2,5.434-2.738,5.434-7.146,0-4.773-3.829-8.043-5.277-9.111a17.033,17.033,0,0,0-2.139,8.2" fill="#07a0d6"/>
          <path id="Trazado_773527" data-name="Trazado 773527" d="M329.159,121.428c0-3.489-3.667-7.486-4.821-8.658a.483.483,0,0,0-.688,0c-1.155,1.172-4.821,5.169-4.821,8.658,0,4.141,2.312,6,5.165,6s5.165-1.858,5.165-6" fill="#bcea73"/>
          <path id="Trazado_773528" data-name="Trazado 773528" d="M336.182,134.446c1.721-2.052,1.616-6.123,1.512-7.614a.555.555,0,0,0-.613-.514c-1.486.156-5.514.759-7.236,2.811-2.131,2.54-1.668,4.87.081,6.338s4.125,1.519,6.256-1.021" fill="#bcea73"/>
          <path id="Trazado_773529" data-name="Trazado 773529" d="M311.462,134.422c-1.708-2.035-1.6-6.075-1.5-7.553a.551.551,0,0,1,.608-.511c1.475.155,5.471.754,7.178,2.789,2.115,2.52,1.656,4.831-.08,6.288s-4.092,1.507-6.206-1.013" fill="#bcea73"/>
          <path id="Trazado_773530" data-name="Trazado 773530" d="M356.963,167.085v-1.722a10.162,10.162,0,0,1,3.475-7.67c2.807-2.443,5.293-6.041,5.293-10.055a15.9,15.9,0,0,0-3.162-9.41,13.405,13.405,0,1,0-18.407,19.465c.161.14.316.286.467.435a8.372,8.372,0,0,1,4.166,7.235v1.722Z" fill="#ffd85c"/>
          <path id="Trazado_773531" data-name="Trazado 773531" d="M366.488,147.638a13.289,13.289,0,0,1-4.58,10.054,10.159,10.159,0,0,0-3.477,7.672v1.722H347.638v-1.722a10.162,10.162,0,0,0-3.008-7.236,14.659,14.659,0,0,0,17.939-19.9,13.277,13.277,0,0,1,3.919,9.411" fill="#ffc532"/>
          <path id="Trazado_773532" data-name="Trazado 773532" d="M381.747,121.313a5.389,5.389,0,1,1-5.389,5.389,5.389,5.389,0,0,1,5.389-5.389" fill="#ffd85c"/>
          <path id="Trazado_773533" data-name="Trazado 773533" d="M395.824,189.045c0,4.6-2.608,7.161-5.825,7.161-.131,0-.261-.006-.389-.014-3.111-1.594-5.436-2.737-5.436-7.147,0-4.772,4.367-7.307,5.279-9.11.094-.07.179-.13.252-.18a.511.511,0,0,1,.588,0c1.184.826,5.531,4.206,5.531,9.29" fill="#10a9f0"/>
          <path id="Trazado_773534" data-name="Trazado 773534" d="M391.592,188.136a15.911,15.911,0,0,1-1.982,8.055c-3.036-.2-5.434-2.738-5.434-7.146,0-4.773,3.829-8.043,5.277-9.111a17.033,17.033,0,0,1,2.139,8.2" fill="#07a0d6"/>
          <path id="Trazado_773535" data-name="Trazado 773535" d="M387.8,188.137c0,6.465-3.667,10.069-8.191,10.069s-8.191-3.6-8.191-10.069c0-7.337,6.44-12.151,7.9-13.148a.515.515,0,0,1,.584,0c1.459,1,7.9,5.811,7.9,13.148" fill="#2bb6f6"/>
          <path id="Trazado_773536" data-name="Trazado 773536" d="M356.27,171.318l-.047,3.152a2.479,2.479,0,0,1-2.479,2.479l-.839.258h-1.24a2.479,2.479,0,0,1-2.479-2.479v-3.41Z" fill="#e8edf2"/>
          <path id="Trazado_773537" data-name="Trazado 773537" d="M356.623,172.8v1.929a2.478,2.478,0,0,1-2.478,2.479H352.9V172.8l1.676-1.319Z" fill="#d6e4ea"/>
          <path id="Trazado_773538" data-name="Trazado 773538" d="M357.371,172.32l-4.466.48h-4.7a1.682,1.682,0,0,1-1.682-1.682v-4.072a1.682,1.682,0,0,1,1.682-1.683h4.7l4.463.38a1.683,1.683,0,0,1,1.682,1.683l0,3.212a1.682,1.682,0,0,1-1.682,1.682" fill="#f5f8f9"/>
          <path id="Trazado_773539" data-name="Trazado 773539" d="M359.541,167.046v4.071a1.681,1.681,0,0,1-1.682,1.682H352.9v-7.435h4.954a1.681,1.681,0,0,1,1.682,1.682" fill="#e8edf2"/>
          <path id="Trazado_773540" data-name="Trazado 773540" d="M386.76,182.475A14.983,14.983,0,0,1,390,179.558s5.825,3.6,5.825,9.487c0,4.6-2.608,7.16-5.825,7.16a5.354,5.354,0,0,1-3.7-1.42" fill="none" stroke="#000" stroke-linecap="round" stroke-linejoin="round" stroke-width="2.583"/>
          <path id="Trazado_773541" data-name="Trazado 773541" d="M372.925,194.785a5.352,5.352,0,0,1-3.7,1.42c-3.217,0-5.825-2.563-5.825-7.16,0-5.885,5.825-9.487,5.825-9.487a14.957,14.957,0,0,1,3.239,2.917" fill="none" stroke="#000" stroke-linecap="round" stroke-linejoin="round" stroke-width="2.583"/>
          <path id="Trazado_773542" data-name="Trazado 773542" d="M323.994,147.452v.428a8.737,8.737,0,0,0,8.737,8.737h10.01" fill="none" stroke="#000" stroke-linecap="round" stroke-linejoin="round" stroke-width="2.583"/>
          <path id="Trazado_773543" data-name="Trazado 773543" d="M381.815,147.452v.428a8.737,8.737,0,0,1-8.737,8.737H363.4" fill="none" stroke="#000" stroke-linecap="round" stroke-linejoin="round" stroke-width="2.583"/>
          <path id="Trazado_773544" data-name="Trazado 773544" d="M326.144,169.713v-.4a8.088,8.088,0,0,1,8.087-8.087H345.85" fill="none" stroke="#000" stroke-linecap="round" stroke-linejoin="round" stroke-width="2.583"/>
          <path id="Trazado_773545" data-name="Trazado 773545" d="M379.665,169.713v-.4a8.088,8.088,0,0,0-8.087-8.087H359.959" fill="none" stroke="#000" stroke-linecap="round" stroke-linejoin="round" stroke-width="2.583"/>
          <path id="Trazado_773546" data-name="Trazado 773546" d="M361.266,137.082a13.4,13.4,0,0,0-17.1,20.61,10.163,10.163,0,0,1,3.475,7.67" fill="none" stroke="#000" stroke-linecap="round" stroke-linejoin="round" stroke-width="2.583"/>
          <path id="Trazado_773547" data-name="Trazado 773547" d="M358.431,165.363h0a10.162,10.162,0,0,1,3.475-7.67,13.292,13.292,0,0,0,3.194-15.954" fill="none" stroke="#000" stroke-linecap="round" stroke-linejoin="round" stroke-width="2.583"/>
          <path id="Trazado_773548" data-name="Trazado 773548" d="M356.623,173.488v1.239a2.478,2.478,0,0,1-2.479,2.479h-2.479a2.478,2.478,0,0,1-2.479-2.479v-1.239" fill="none" stroke="#000" stroke-linecap="round" stroke-linejoin="round" stroke-width="2.583"/>
          <path id="Trazado_773549" data-name="Trazado 773549" d="M358.45,144.956l-5.416,7.977-5.416-7.977" fill="none" stroke="#000" stroke-linecap="round" stroke-linejoin="round" stroke-width="2.583"/>
          <rect id="Rectángulo_360905" data-name="Rectángulo 360905" width="13.014" height="7.437" rx="1.682" transform="translate(346.398 165.362)" fill="none" stroke="#000" stroke-linecap="round" stroke-linejoin="round" stroke-width="2.583"/>
          <line id="Línea_3557" data-name="Línea 3557" y2="12.257" transform="translate(353.034 153.105)" fill="none" stroke="#000" stroke-linecap="round" stroke-linejoin="round" stroke-width="2.583"/>
          <circle id="Elipse_8690" data-name="Elipse 8690" cx="5.389" cy="5.389" r="5.389" transform="matrix(0.29, -0.957, 0.957, 0.29, 375.028, 130.299)" fill="none" stroke="#000" stroke-linecap="round" stroke-linejoin="round" stroke-width="2.583"/>
          <line id="Línea_3558" data-name="Línea 3558" y2="3.757" transform="translate(381.747 137.023)" fill="none" stroke="#000" stroke-linecap="round" stroke-linejoin="round" stroke-width="2.583"/>
          <line id="Línea_3559" data-name="Línea 3559" x2="2.656" y2="2.656" transform="translate(389.045 134)" fill="none" stroke="#000" stroke-linecap="round" stroke-linejoin="round" stroke-width="2.583"/>
          <line id="Línea_3560" data-name="Línea 3560" x2="3.757" transform="translate(392.068 126.702)" fill="none" stroke="#000" stroke-linecap="round" stroke-linejoin="round" stroke-width="2.583"/>
          <line id="Línea_3561" data-name="Línea 3561" y1="2.656" x2="2.656" transform="translate(389.045 116.749)" fill="none" stroke="#000" stroke-linecap="round" stroke-linejoin="round" stroke-width="2.583"/>
          <line id="Línea_3562" data-name="Línea 3562" y1="3.757" transform="translate(381.747 112.625)" fill="none" stroke="#000" stroke-linecap="round" stroke-linejoin="round" stroke-width="2.583"/>
          <line id="Línea_3563" data-name="Línea 3563" x1="2.656" y1="2.656" transform="translate(371.794 116.749)" fill="none" stroke="#000" stroke-linecap="round" stroke-linejoin="round" stroke-width="2.583"/>
          <line id="Línea_3564" data-name="Línea 3564" x1="3.757" transform="translate(367.67 126.702)" fill="none" stroke="#000" stroke-linecap="round" stroke-linejoin="round" stroke-width="2.583"/>
          <line id="Línea_3565" data-name="Línea 3565" x1="2.656" y2="2.656" transform="translate(371.794 134)" fill="none" stroke="#000" stroke-linecap="round" stroke-linejoin="round" stroke-width="2.583"/>
          <path id="Trazado_773550" data-name="Trazado 773550" d="M322.256,176.523a3.733,3.733,0,1,1,3.558,4.864H313.688" fill="none" stroke="#000" stroke-linecap="round" stroke-linejoin="round" stroke-width="2.583"/>
          <line id="Línea_3566" data-name="Línea 3566" x1="14.519" transform="translate(310.244 186.088)" fill="none" stroke="#000" stroke-linecap="round" stroke-linejoin="round" stroke-width="2.583"/>
          <path id="Trazado_773551" data-name="Trazado 773551" d="M332.388,190.952a3.733,3.733,0,1,0,3.558-4.864H330.79" fill="none" stroke="#000" stroke-linecap="round" stroke-linejoin="round" stroke-width="2.583"/>
          <path id="Trazado_773552" data-name="Trazado 773552" d="M317.826,195.6a3.733,3.733,0,1,0,3.558-4.864h-7.7" fill="none" stroke="#000" stroke-linecap="round" stroke-linejoin="round" stroke-width="2.583"/>
          <path id="Trazado_773553" data-name="Trazado 773553" d="M311.683,133.846c-1.963-2.339-1.347-7.531-1.347-7.531s5.22.295,7.183,2.634,1.537,4.485-.075,5.837S313.646,136.185,311.683,133.846Z" fill="none" stroke="#000" stroke-linecap="round" stroke-linejoin="round" stroke-width="2.583"/>
          <path id="Trazado_773554" data-name="Trazado 773554" d="M336.3,133.846c1.963-2.339,1.347-7.531,1.347-7.531s-5.22.295-7.183,2.634-1.537,4.485.075,5.837S334.342,136.185,336.3,133.846Z" fill="none" stroke="#000" stroke-linecap="round" stroke-linejoin="round" stroke-width="2.583"/>
          <path id="Trazado_773555" data-name="Trazado 773555" d="M317.579,134.894l6.415,5.151,6.312-5.068" fill="none" stroke="#000" stroke-linecap="round" stroke-linejoin="round" stroke-width="2.583"/>
          <path id="Trazado_773556" data-name="Trazado 773556" d="M320.489,116.974a23.2,23.2,0,0,1,3.5-4.349s4.947,4.652,4.947,8.618-2.215,5.744-4.947,5.744a4.637,4.637,0,0,1-4.807-4.124" fill="none" stroke="#000" stroke-linecap="round" stroke-linejoin="round" stroke-width="2.583"/>
          <line id="Línea_3567" data-name="Línea 3567" y1="15.626" transform="translate(323.994 127.445)" fill="none" stroke="#000" stroke-linecap="round" stroke-linejoin="round" stroke-width="2.583"/>
          <path id="Trazado_773557" data-name="Trazado 773557" d="M387.263,192.115c-1.182,3.947-4.16,6.091-7.65,6.091-4.523,0-8.191-3.6-8.191-10.069,0-8.275,8.191-13.341,8.191-13.341s6.852,4.237,8.022,11.292" fill="none" stroke="#000" stroke-linecap="round" stroke-linejoin="round" stroke-width="2.583"/>
          <path id="Trazado_773558" data-name="Trazado 773558" d="M199.851,272.385l-12.041,1.36-1.377,5.75,12.349,1.058,11.406-1.058-1.606-5.9Z" fill="#d16752"/>
          <path id="Trazado_773559" data-name="Trazado 773559" d="M215.458,264l-7.1,9.744H187.81l-6.868-9.51a21.7,21.7,0,0,1-1.133-23.673l4.189-7.15,14.54-1.186,13.128,1.186,4.108,6.9c4.4,7.391,4.674,16.681-.316,23.684" fill="#e07a69"/>
          <path id="Trazado_773560" data-name="Trazado 773560" d="M211.064,279.495l-1.975.864-3.191-.864-1.377-5.75,4.325-1.36.84,1.36Z" fill="#be563d"/>
          <path id="Trazado_773561" data-name="Trazado 773561" d="M216.629,264l-6.943,9.744H204.52L211.463,264a21.7,21.7,0,0,0,.978-23.684l-4.108-6.9,3.333-1.186,1.833,1.186,4.108,6.9A21.7,21.7,0,0,1,216.629,264" fill="#d16752"/>
          <path id="Trazado_773562" data-name="Trazado 773562" d="M155.543,213.256v19.822a.512.512,0,0,0,.07.26l5.759,9.874a5.2,5.2,0,0,0,2.791,2.294,21.712,21.712,0,0,1,6.147,3.313q2.862,2.2,5.6,4.546t5.353,4.835l5.846,5.565A2.442,2.442,0,0,0,191.237,262a8.833,8.833,0,0,0-.728-3.511c-.117-.269-.247-.533-.389-.789a29.374,29.374,0,0,1-2.409-1.818l-.393-1.381a2.492,2.492,0,0,0,3.919-2.043,8.172,8.172,0,0,0-2.469-5.856l-13.232-12.894a5.449,5.449,0,0,1-1.441-6.533,5.832,5.832,0,0,1,5.38-3.59,4.532,4.532,0,0,1,1.046.111c.54.1,1.8-.112,2.133-.017a1.436,1.436,0,0,1,.923.721l.633,1.192c1.33,2.5,3.723,3.873,6.287,2.675a.865.865,0,0,0,.5-.78.854.854,0,0,0-.064-.324l-1.9-2.689.138-1.63-.768-1.878a4.315,4.315,0,0,0-1.477-1.872l-3.931-2.817a9.31,9.31,0,0,0-5.53-1.743l-3.085.037a26.654,26.654,0,0,0-9.187,1.747,5.226,5.226,0,0,1-4.742-.6l-4.084-2.886a.517.517,0,0,0-.815.422" fill="#ffd9c3"/>
          <path id="Trazado_773563" data-name="Trazado 773563" d="M166.675,238.961a1.442,1.442,0,0,0,.38,2.008,84.343,84.343,0,0,1,11.82,9.456l6.1,5.918a5.418,5.418,0,0,0,3.773,1.532,5.344,5.344,0,0,0,1.376-.179,8.878,8.878,0,0,0-1.675-2.145l-1.125-1.052,0,0a2.567,2.567,0,0,1-.306-.255l-.939-.911-.005,0-.024-.022-5.129-4.98a87.083,87.083,0,0,0-12.214-9.777,1.443,1.443,0,0,0-2,.38l-.023.034" fill="#ffc3aa"/>
          <path id="Trazado_773564" data-name="Trazado 773564" d="M180.521,223.694c.539.1,1.135.239,1.471.334a1.43,1.43,0,0,1,.922.722l.634,1.191a5.32,5.32,0,0,0,6.948,2.323.859.859,0,0,0,.432-1.1l-1.766-4.318h-6.186a3.935,3.935,0,0,0-2.455.852" fill="#ffc3aa"/>
          <path id="Trazado_773565" data-name="Trazado 773565" d="M196.277,292.491v-3.8l1.046-4.027h3.111l.853,4.027v3.8Z" fill="#feba48"/>
          <rect id="Rectángulo_360906" data-name="Rectángulo 360906" width="5.011" height="4.026" transform="translate(196.277 284.661)" fill="#fe9a43"/>
          <path id="Trazado_773566" data-name="Trazado 773566" d="M219.335,284.746l-4.8.5H177.768a.86.86,0,0,1-.861-.861v-4.026a.861.861,0,0,1,.861-.861h36.763l4.816.378a.862.862,0,0,1,.861.861l-.012,3.152a.862.862,0,0,1-.861.861" fill="#ffcd5f"/>
          <path id="Trazado_773567" data-name="Trazado 773567" d="M220.658,280.356v4.026a.862.862,0,0,1-.861.861h-5.266v-5.748H219.8a.86.86,0,0,1,.861.861" fill="#feba48"/>
          <path id="Trazado_773568" data-name="Trazado 773568" d="M224.874,297.505l-5.964.334h-46.4a4.628,4.628,0,0,1-4.629-4.629v-.775a.344.344,0,0,1,.345-.344h54.568l.361.5,5.766-.36a.344.344,0,0,1,.344.344v.438a4.315,4.315,0,0,1-4.392,4.489" fill="#ffcd5f"/>
          <path id="Trazado_773569" data-name="Trazado 773569" d="M229.683,292.435v.775a4.628,4.628,0,0,1-4.629,4.628h-6.887a4.627,4.627,0,0,0,4.628-4.628v-1.119h6.544a.343.343,0,0,1,.344.344" fill="#feba48"/>
          <path id="Trazado_773570" data-name="Trazado 773570" d="M211.043,253.332l-.938.911a2.66,2.66,0,0,1-.307.255Z" fill="#ffc3aa"/>
          <path id="Trazado_773571" data-name="Trazado 773571" d="M241.573,213.256v19.822a.512.512,0,0,1-.07.26l-5.759,9.874a5.2,5.2,0,0,1-2.791,2.294,21.712,21.712,0,0,0-6.147,3.313q-2.862,2.2-5.6,4.546t-5.353,4.835l-5.846,5.565A2.442,2.442,0,0,1,205.879,262a8.833,8.833,0,0,1,.728-3.511c.117-.269.247-.533.389-.789a29.374,29.374,0,0,0,2.409-1.818l.393-1.381a2.492,2.492,0,0,1-3.919-2.043,8.172,8.172,0,0,1,2.469-5.856l13.232-12.894a5.449,5.449,0,0,0,1.441-6.533,5.83,5.83,0,0,0-5.38-3.59,4.532,4.532,0,0,0-1.046.111c-.54.1-1.8-.112-2.133-.017a1.436,1.436,0,0,0-.923.721l-.633,1.192c-1.33,2.5-3.723,3.873-6.287,2.675a.865.865,0,0,1-.5-.78.854.854,0,0,1,.064-.324l1.9-2.689-.138-1.63.768-1.878a4.31,4.31,0,0,1,1.477-1.872l3.931-2.817a9.3,9.3,0,0,1,5.53-1.743l3.085.036a26.678,26.678,0,0,1,9.187,1.748,5.223,5.223,0,0,0,4.742-.6l4.084-2.885a.517.517,0,0,1,.815.422" fill="#ffd9c3"/>
          <path id="Trazado_773572" data-name="Trazado 773572" d="M230.44,238.961a1.442,1.442,0,0,1-.38,2.008,84.344,84.344,0,0,0-11.82,9.456l-6.1,5.918a5.418,5.418,0,0,1-3.773,1.532A5.344,5.344,0,0,1,207,257.7a8.877,8.877,0,0,1,1.675-2.145L209.8,254.5l0,0a2.569,2.569,0,0,0,.306-.255l.939-.911.005,0,.024-.022,5.129-4.98a87.083,87.083,0,0,1,12.214-9.777,1.443,1.443,0,0,1,2,.38l.023.034" fill="#ffc3aa"/>
          <path id="Trazado_773573" data-name="Trazado 773573" d="M216.594,223.694c-.539.1-1.135.239-1.471.334a1.43,1.43,0,0,0-.922.722l-.634,1.191a5.32,5.32,0,0,1-6.948,2.323.859.859,0,0,1-.432-1.1l1.766-4.318h6.186a3.935,3.935,0,0,1,2.455.852" fill="#ffc3aa"/>
          <path id="Trazado_773574" data-name="Trazado 773574" d="M212.784,233.411H184l-1.479-6.416a.861.861,0,0,1,.839-1.054h26.7l3.2.368a.861.861,0,0,1,.839,1.054Z" fill="#d16752"/>
          <path id="Trazado_773575" data-name="Trazado 773575" d="M214.977,227l-1.479,6.416h-5.166l1.722-7.472h4.084a.863.863,0,0,1,.839,1.056" fill="#be563d"/>
          <rect id="Rectángulo_360907" data-name="Rectángulo 360907" width="43.751" height="5.748" rx="0.861" transform="translate(176.907 279.494)" fill="none" stroke="#000" stroke-linecap="round" stroke-linejoin="round" stroke-width="2.583"/>
          <line id="Línea_3568" data-name="Línea 3568" y2="6.466" transform="translate(201.288 285.41)" fill="none" stroke="#000" stroke-linecap="round" stroke-linejoin="round" stroke-width="2.583"/>
          <line id="Línea_3569" data-name="Línea 3569" y1="6.466" transform="translate(196.277 285.41)" fill="none" stroke="#000" stroke-linecap="round" stroke-linejoin="round" stroke-width="2.583"/>
          <line id="Línea_3570" data-name="Línea 3570" x1="2.874" y2="4.905" transform="translate(181.124 233.411)" fill="none" stroke="#000" stroke-linecap="round" stroke-linejoin="round" stroke-width="2.583"/>
          <line id="Línea_3571" data-name="Línea 3571" x1="2.917" y1="4.905" transform="translate(213.499 233.411)" fill="none" stroke="#000" stroke-linecap="round" stroke-linejoin="round" stroke-width="2.583"/>
          <path id="Trazado_773576" data-name="Trazado 773576" d="M216.187,264.622l.443-.622a21.658,21.658,0,0,0,3.829-9.672" fill="none" stroke="#000" stroke-linecap="round" stroke-linejoin="round" stroke-width="2.583"/>
          <path id="Trazado_773577" data-name="Trazado 773577" d="M211.064,279.494l-1.378-5.748,3-4.214" fill="none" stroke="#000" stroke-linecap="round" stroke-linejoin="round" stroke-width="2.583"/>
          <path id="Trazado_773578" data-name="Trazado 773578" d="M177,254.223a21.676,21.676,0,0,0,3.941,10.013l6.87,9.511-1.378,5.748" fill="none" stroke="#000" stroke-linecap="round" stroke-linejoin="round" stroke-width="2.583"/>
          <path id="Trazado_773579" data-name="Trazado 773579" d="M188.548,292.091h41.135v1.12a4.628,4.628,0,0,1-4.629,4.628H172.51a4.628,4.628,0,0,1-4.628-4.628v-1.12h14.639" fill="none" stroke="#000" stroke-linecap="round" stroke-linejoin="round" stroke-width="2.583"/>
          <line id="Línea_3572" data-name="Línea 3572" x2="6.528" transform="translate(191.483 256.637)" fill="none" stroke="#000" stroke-linecap="round" stroke-linejoin="round" stroke-width="2.583"/>
          <line id="Línea_3573" data-name="Línea 3573" x2="8.667" transform="translate(191.519 248.831)" fill="none" stroke="#000" stroke-linecap="round" stroke-linejoin="round" stroke-width="2.583"/>
          <line id="Línea_3574" data-name="Línea 3574" x2="6.452" transform="translate(189.383 264.443)" fill="none" stroke="#000" stroke-linecap="round" stroke-linejoin="round" stroke-width="2.583"/>
          <line id="Línea_3575" data-name="Línea 3575" x2="21.876" transform="translate(187.811 273.746)" fill="none" stroke="#000" stroke-linecap="round" stroke-linejoin="round" stroke-width="2.583"/>
          <path id="Trazado_773580" data-name="Trazado 773580" d="M241.573,233.219l-5.829,9.994a5.2,5.2,0,0,1-2.791,2.293,21.694,21.694,0,0,0-6.148,3.313A137.393,137.393,0,0,0,215.85,258.2L210,263.766A2.442,2.442,0,0,1,205.878,262a8.834,8.834,0,0,1,2.794-6.445l2.4-2.247" fill="none" stroke="#000" stroke-linecap="round" stroke-linejoin="round" stroke-width="2.583"/>
          <path id="Trazado_773581" data-name="Trazado 773581" d="M213.642,225.8l.559-1.052a1.438,1.438,0,0,1,.924-.721l1.116-.276a5.83,5.83,0,0,1,6.78,3.42,5.447,5.447,0,0,1-1.441,6.532l-13.232,12.9a8.178,8.178,0,0,0-2.47,5.856,2.492,2.492,0,0,0,4.227,1.788l6.1-5.919a79.725,79.725,0,0,1,10.489-8.578l2.919-2" fill="none" stroke="#000" stroke-linecap="round" stroke-linejoin="round" stroke-width="2.583"/>
          <path id="Trazado_773582" data-name="Trazado 773582" d="M241.573,212.258l-4.9,3.461a5.083,5.083,0,0,1-4.742.6,26.633,26.633,0,0,0-9.187-1.749l-3.085-.035a9.3,9.3,0,0,0-5.53,1.742l-3.93,2.817a4.312,4.312,0,0,0-1.478,1.872l-1.978,4.838" fill="none" stroke="#000" stroke-linecap="round" stroke-linejoin="round" stroke-width="2.583"/>
          <path id="Trazado_773583" data-name="Trazado 773583" d="M173.218,250.753q4.4,3.546,8.5,7.447l5.847,5.565A2.442,2.442,0,0,0,191.687,262a8.826,8.826,0,0,0-2.794-6.444l-2.4-2.248" fill="none" stroke="#000" stroke-linecap="round" stroke-linejoin="round" stroke-width="2.583"/>
          <path id="Trazado_773584" data-name="Trazado 773584" d="M155.992,233.219l5.829,9.994a5.2,5.2,0,0,0,2.791,2.293,21.716,21.716,0,0,1,3.731,1.7" fill="none" stroke="#000" stroke-linecap="round" stroke-linejoin="round" stroke-width="2.583"/>
          <path id="Trazado_773585" data-name="Trazado 773585" d="M183.9,225.763l-.539-1.014a1.436,1.436,0,0,0-.924-.721l-1.116-.276a5.83,5.83,0,0,0-6.78,3.42,5.447,5.447,0,0,0,1.441,6.532l13.232,12.9a8.178,8.178,0,0,1,2.47,5.856,2.492,2.492,0,0,1-4.227,1.788l-6.1-5.919a79.725,79.725,0,0,0-10.489-8.578l-2.918-2" fill="none" stroke="#000" stroke-linecap="round" stroke-linejoin="round" stroke-width="2.583"/>
          <path id="Trazado_773586" data-name="Trazado 773586" d="M155.992,212.258l4.9,3.461a5.083,5.083,0,0,0,4.742.6,26.633,26.633,0,0,1,9.187-1.749l3.085-.035a9.306,9.306,0,0,1,5.53,1.742l3.93,2.817a4.312,4.312,0,0,1,1.478,1.872l1.961,4.8" fill="none" stroke="#000" stroke-linecap="round" stroke-linejoin="round" stroke-width="2.583"/>
          <path id="Trazado_773587" data-name="Trazado 773587" d="M202.865,233.411H184l-1.479-6.416a.86.86,0,0,1,.839-1.054h30.78a.861.861,0,0,1,.839,1.054l-1.479,6.416h-4.607" fill="none" stroke="#000" stroke-linecap="round" stroke-linejoin="round" stroke-width="2.583"/>
          <path id="Trazado_773588" data-name="Trazado 773588" d="M228.933,31.833l-.37-3.677.37-.573-.616-6.6-1.07-.664h-7.229l-.877.664-.616,6.6.386.426-.386,4.012-.448.362-1.611,17.261.794.59H230.3l.694-.59-1.611-17.261Z" fill="#dbedff"/>
          <path id="Trazado_773589" data-name="Trazado 773589" d="M223.147,32.384l.448-.362.386-4.012-.386-.427.616-6.6.877-.664h-5.07l-.878.664-.615,6.6.385.427-.385,4.012-.448.362-1.611,17.261.794.59h5.07l-.794-.59Z" fill="#b5dcff"/>
        </g>
      </g>
      <g id="Grupo_1028004" data-name="Grupo 1028004">
        <g id="Grupo_1028003" data-name="Grupo 1028003" clip-path="url(#clip-path-2)">
          <path id="Trazado_773590" data-name="Trazado 773590" d="M235.794,49.644H210.732l-1.3,1.265V79.77h26.911l.383-.343V50.576a.932.932,0,0,0-.932-.932" fill="#8479c2"/>
          <path id="Trazado_773591" data-name="Trazado 773591" d="M216.466,50.576a.932.932,0,0,1,.932-.932h-6.667l-1.3,1.264V79.77h7.417l-.383-.343Z" fill="#6e60b8"/>
          <path id="Trazado_773592" data-name="Trazado 773592" d="M228.818,16.184H218.639a.871.871,0,0,0-.872.872v3.057a.871.871,0,0,0,.872.872h10.179a.871.871,0,0,0,.872-.872V17.056a.871.871,0,0,0-.872-.872" fill="#b5dcff"/>
          <path id="Trazado_773593" data-name="Trazado 773593" d="M222.67,20.113V17.056a.871.871,0,0,1,.872-.872h-4.9a.871.871,0,0,0-.872.872v3.057a.871.871,0,0,0,.872.872h4.9a.871.871,0,0,1-.872-.872" fill="#8bcaff"/>
          <path id="Trazado_773594" data-name="Trazado 773594" d="M222.233,4.344a.749.749,0,0,1-.825-.41,4.9,4.9,0,0,0-7.673-1.394.742.742,0,0,1-1,0,4.891,4.891,0,0,0-6.609,0,.743.743,0,0,1-1,0,4.892,4.892,0,1,0,0,7.212.743.743,0,0,1,1,0,4.891,4.891,0,0,0,6.61,0,.744.744,0,0,1,1,0,4.892,4.892,0,0,0,6.087.421.751.751,0,0,1,.926.04,3.386,3.386,0,1,0,1.484-5.864" fill="#dbedff"/>
          <path id="Trazado_773595" data-name="Trazado 773595" d="M220.749,6.406a.753.753,0,0,0-.927-.04,4.891,4.891,0,0,1-6.086-.421.744.744,0,0,0-1,0,4.893,4.893,0,0,1-6.611,0,.742.742,0,0,0-1,0,4.927,4.927,0,0,1-7.831-1.7,4.909,4.909,0,0,0,7.831,5.507.742.742,0,0,1,1,0,4.89,4.89,0,0,0,6.611,0,.744.744,0,0,1,1,0,4.889,4.889,0,0,0,6.086.422.753.753,0,0,1,.927.04,3.391,3.391,0,0,0,5.6-2.559,3.344,3.344,0,0,0-.577-1.892,3.416,3.416,0,0,1-5.026.648" fill="#b5dcff"/>
          <path id="Trazado_773596" data-name="Trazado 773596" d="M218.077,32.384h11.3l-.448-4.8H218.525Z" fill="#f27182"/>
          <path id="Trazado_773597" data-name="Trazado 773597" d="M218.525,27.583l-.448,4.8h5.07l.448-4.8Z" fill="#ed5469"/>
          <rect id="Rectángulo_360909" data-name="Rectángulo 360909" width="14.974" height="5.025" transform="translate(216.242 74.62)" fill="#00d2fc"/>
          <rect id="Rectángulo_360910" data-name="Rectángulo 360910" width="7.044" height="5.025" transform="translate(216.242 74.62)" fill="#00c2fb"/>
          <rect id="Rectángulo_360911" data-name="Rectángulo 360911" width="14.974" height="5.025" transform="translate(216.242 65.441)" fill="#00d2fc"/>
          <rect id="Rectángulo_360912" data-name="Rectángulo 360912" width="7.044" height="5.025" transform="translate(216.242 65.441)" fill="#00c2fb"/>
          <path id="Trazado_773598" data-name="Trazado 773598" d="M209.255,41.313l-14.743,7.422a1.018,1.018,0,0,0-.56.91l-.567.59V79.77h16.66l.687-.342V42.223a1.019,1.019,0,0,0-1.477-.91" fill="#ffc365"/>
          <rect id="Rectángulo_360913" data-name="Rectángulo 360913" width="14.974" height="4.589" transform="translate(216.242 70.249)" fill="#62ddfc"/>
          <rect id="Rectángulo_360914" data-name="Rectángulo 360914" width="7.044" height="4.589" transform="translate(216.242 70.249)" fill="#00d2fc"/>
          <path id="Trazado_773599" data-name="Trazado 773599" d="M230.992,60.6H216.466a.789.789,0,0,1-.224-.036v5.1h14.973v-5.1a.794.794,0,0,1-.223.036" fill="#62ddfc"/>
          <path id="Trazado_773600" data-name="Trazado 773600" d="M223.18,60.6h-6.833a.2.2,0,0,1-.1-.036v5.1h7.043v-5.1a.2.2,0,0,1-.105.036" fill="#00d2fc"/>
          <path id="Trazado_773601" data-name="Trazado 773601" d="M230.992,56.3H216.466a.871.871,0,0,0-.872.872v3.057a.871.871,0,0,0,.872.872h14.526a.871.871,0,0,0,.871-.872V57.174a.871.871,0,0,0-.871-.872" fill="#dbedff"/>
          <path id="Trazado_773602" data-name="Trazado 773602" d="M222.414,60.231V57.174a.871.871,0,0,1,.872-.872h-6.819a.871.871,0,0,0-.872.872v3.057a.871.871,0,0,0,.872.872h6.819a.871.871,0,0,1-.872-.872" fill="#b5dcff"/>
          <path id="Trazado_773603" data-name="Trazado 773603" d="M198.648,51.268a1.019,1.019,0,0,1,.561-.91l11.523-5.8V42.223a1.019,1.019,0,0,0-1.477-.91l-14.743,7.422a1.019,1.019,0,0,0-.56.91V79.428h4.7Z" fill="#ffa90f"/>
          <path id="Trazado_773604" data-name="Trazado 773604" d="M192.475,41.313l-14.743,7.422a1.019,1.019,0,0,0-.56.91l-.724.59V80.216h16.213l1.291-.788V42.223a1.019,1.019,0,0,0-1.477-.91" fill="#ffc365"/>
          <path id="Trazado_773605" data-name="Trazado 773605" d="M181.868,51.268a1.019,1.019,0,0,1,.561-.91l11.523-5.8V42.223a1.019,1.019,0,0,0-1.477-.91l-14.743,7.422a1.019,1.019,0,0,0-.561.91V79.428h4.7Z" fill="#ffa90f"/>
          <path id="Trazado_773606" data-name="Trazado 773606" d="M175.7,41.313l-14.743,7.422a1.019,1.019,0,0,0-.56.91V79.428h16.78V42.223a1.019,1.019,0,0,0-1.477-.91" fill="#ffc365"/>
          <path id="Trazado_773607" data-name="Trazado 773607" d="M165.088,51.268a1.018,1.018,0,0,1,.561-.91l11.523-5.8V42.223a1.019,1.019,0,0,0-1.477-.91l-14.743,7.422a1.019,1.019,0,0,0-.56.91V79.428h4.7Z" fill="#ffa90f"/>
          <path id="Trazado_773608" data-name="Trazado 773608" d="M238.884,79.26h-80.65a1.212,1.212,0,0,0-1.212,1.212v2.643a1.212,1.212,0,0,0,1.212,1.212h80.65a1.212,1.212,0,0,0,1.212-1.212V80.472a1.212,1.212,0,0,0-1.212-1.212" fill="#dbedff"/>
          <path id="Trazado_773609" data-name="Trazado 773609" d="M238.884,81.794h-80.65a1.212,1.212,0,0,1-1.212-1.212v2.534a1.212,1.212,0,0,0,1.212,1.211h80.65a1.212,1.212,0,0,0,1.212-1.211V80.582a1.212,1.212,0,0,1-1.212,1.212" fill="#b5dcff"/>
          <path id="Trazado_773610" data-name="Trazado 773610" d="M205.167,53.381h-5.651a1.035,1.035,0,0,0-1.035,1.035v6.32a1.035,1.035,0,0,0,1.035,1.035h5.651a1.035,1.035,0,0,0,1.035-1.035v-6.32a1.035,1.035,0,0,0-1.035-1.035" fill="#00d2fc"/>
          <path id="Trazado_773611" data-name="Trazado 773611" d="M188.387,53.381h-5.651a1.035,1.035,0,0,0-1.035,1.035v6.32a1.035,1.035,0,0,0,1.035,1.035h5.651a1.035,1.035,0,0,0,1.035-1.035v-6.32a1.035,1.035,0,0,0-1.035-1.035" fill="#00d2fc"/>
          <path id="Trazado_773612" data-name="Trazado 773612" d="M171.607,53.381h-5.651a1.035,1.035,0,0,0-1.035,1.035v6.32a1.035,1.035,0,0,0,1.035,1.035h5.651a1.035,1.035,0,0,0,1.035-1.035v-6.32a1.035,1.035,0,0,0-1.035-1.035" fill="#00d2fc"/>
          <path id="Trazado_773613" data-name="Trazado 773613" d="M202.342,60.736v-6.32a1.035,1.035,0,0,1,1.035-1.035h-3.861a1.036,1.036,0,0,0-1.035,1.035v6.32a1.035,1.035,0,0,0,1.035,1.035h3.861a1.035,1.035,0,0,1-1.035-1.035" fill="#00c2fb"/>
          <path id="Trazado_773614" data-name="Trazado 773614" d="M185.562,60.736v-6.32a1.036,1.036,0,0,1,1.035-1.035h-3.861a1.036,1.036,0,0,0-1.035,1.035v6.32a1.035,1.035,0,0,0,1.035,1.035H186.6a1.035,1.035,0,0,1-1.035-1.035" fill="#00c2fb"/>
          <path id="Trazado_773615" data-name="Trazado 773615" d="M168.781,60.736v-6.32a1.036,1.036,0,0,1,1.035-1.035h-3.861a1.036,1.036,0,0,0-1.035,1.035v6.32a1.035,1.035,0,0,0,1.035,1.035h3.861a1.035,1.035,0,0,1-1.035-1.035" fill="#00c2fb"/>
          <path id="Trazado_773616" data-name="Trazado 773616" d="M192.474,41.313l-14.743,7.422a1.019,1.019,0,0,0-.56.91V79.428h16.78V42.223A1.019,1.019,0,0,0,192.474,41.313Z" fill="none" stroke="#000" stroke-linecap="round" stroke-linejoin="round" stroke-width="2.507"/>
          <rect id="Rectángulo_360915" data-name="Rectángulo 360915" width="7.721" height="8.39" rx="1.035" transform="translate(164.92 53.381)" fill="none" stroke="#000" stroke-linecap="round" stroke-linejoin="round" stroke-width="2.507"/>
          <path id="Trazado_773617" data-name="Trazado 773617" d="M175.694,41.313l-14.743,7.422a1.019,1.019,0,0,0-.56.91V79.428h16.78V42.223A1.019,1.019,0,0,0,175.694,41.313Z" fill="none" stroke="#000" stroke-linecap="round" stroke-linejoin="round" stroke-width="2.507"/>
          <rect id="Rectángulo_360916" data-name="Rectángulo 360916" width="7.721" height="8.39" rx="1.035" transform="translate(181.7 53.381)" fill="none" stroke="#000" stroke-linecap="round" stroke-linejoin="round" stroke-width="2.507"/>
          <path id="Trazado_773618" data-name="Trazado 773618" d="M209.254,41.313l-14.743,7.422a1.019,1.019,0,0,0-.56.91V79.428h16.78V42.223A1.019,1.019,0,0,0,209.254,41.313Z" fill="none" stroke="#000" stroke-linecap="round" stroke-linejoin="round" stroke-width="2.507"/>
          <rect id="Rectángulo_360917" data-name="Rectángulo 360917" width="7.721" height="8.39" rx="1.035" transform="translate(198.481 53.381)" fill="none" stroke="#000" stroke-linecap="round" stroke-linejoin="round" stroke-width="2.507"/>
          <path id="Trazado_773619" data-name="Trazado 773619" d="M235.793,49.644H210.731V79.427h25.994V50.576A.932.932,0,0,0,235.793,49.644Z" fill="none" stroke="#000" stroke-linecap="round" stroke-linejoin="round" stroke-width="2.507"/>
          <rect id="Rectángulo_360918" data-name="Rectángulo 360918" width="16.269" height="4.801" rx="0.872" transform="translate(215.594 56.302)" fill="none" stroke="#000" stroke-linecap="round" stroke-linejoin="round" stroke-width="2.507"/>
          <path id="Rectángulo_360919" data-name="Rectángulo 360919" d="M.872,0h10.18a.871.871,0,0,1,.871.871V3.929a.872.872,0,0,1-.872.872H.872A.872.872,0,0,1,0,3.929V.872A.872.872,0,0,1,.872,0Z" transform="translate(217.767 16.184)" fill="none" stroke="#000" stroke-linecap="round" stroke-linejoin="round" stroke-width="2.507"/>
          <rect id="Rectángulo_360920" data-name="Rectángulo 360920" width="14.974" height="4.589" transform="translate(216.241 74.838)" fill="none" stroke="#000" stroke-linecap="round" stroke-linejoin="round" stroke-width="2.507"/>
          <path id="Trazado_773620" data-name="Trazado 773620" d="M230.991,61.1H216.466a.88.88,0,0,1-.225-.033v4.59h14.974V61.07A.872.872,0,0,1,230.991,61.1Z" fill="none" stroke="#000" stroke-linecap="round" stroke-linejoin="round" stroke-width="2.507"/>
          <rect id="Rectángulo_360921" data-name="Rectángulo 360921" width="14.974" height="4.589" transform="translate(216.241 65.659)" fill="none" stroke="#000" stroke-linecap="round" stroke-linejoin="round" stroke-width="2.507"/>
          <rect id="Rectángulo_360922" data-name="Rectángulo 360922" width="14.974" height="4.589" transform="translate(216.241 70.249)" fill="none" stroke="#000" stroke-linecap="round" stroke-linejoin="round" stroke-width="2.507"/>
          <path id="Trazado_773621" data-name="Trazado 773621" d="M218.076,32.384h11.3l-.448-4.8H218.524Z" fill="none" stroke="#000" stroke-linecap="round" stroke-linejoin="round" stroke-width="2.507"/>
          <path id="Trazado_773622" data-name="Trazado 773622" d="M222.232,4.344a.749.749,0,0,1-.825-.41,4.9,4.9,0,0,0-7.672-1.394.743.743,0,0,1-1.005,0,4.891,4.891,0,0,0-6.609,0,.743.743,0,0,1-1.005,0,4.892,4.892,0,1,0,0,7.212.743.743,0,0,1,1.005,0,4.891,4.891,0,0,0,6.61,0,.744.744,0,0,1,1,0,4.892,4.892,0,0,0,6.087.421.751.751,0,0,1,.926.04,3.386,3.386,0,1,0,1.484-5.864Z" fill="none" stroke="#000" stroke-linecap="round" stroke-linejoin="round" stroke-width="2.507"/>
          <path id="Trazado_773623" data-name="Trazado 773623" d="M201.483,84.327h37.4a1.212,1.212,0,0,0,1.212-1.212V80.639a1.212,1.212,0,0,0-1.212-1.212h-80.65a1.212,1.212,0,0,0-1.212,1.212v2.476a1.212,1.212,0,0,0,1.212,1.212h37.4" fill="none" stroke="#000" stroke-linecap="round" stroke-linejoin="round" stroke-width="2.507"/>
          <path id="Trazado_773624" data-name="Trazado 773624" d="M229.842,37.33l-1.525-16.345H219.14l-2.674,28.659h14.525l-.6-6.464" fill="none" stroke="#000" stroke-linecap="round" stroke-linejoin="round" stroke-width="2.507"/>
        </g>
      </g>
    </g>
    <path id="Trazado_773907" data-name="Trazado 773907" d="M18.066,15H15.723V3.625h2.344Zm4.1-8.453.07.977a2.951,2.951,0,0,1,2.43-1.133,2.453,2.453,0,0,1,2,.789,3.682,3.682,0,0,1,.672,2.359V15H25.082V9.594a1.465,1.465,0,0,0-.312-1.043,1.4,1.4,0,0,0-1.039-.324,1.553,1.553,0,0,0-1.43.813V15H20.043V6.547ZM28.7,10.711a5.094,5.094,0,0,1,.887-3.148,2.877,2.877,0,0,1,2.426-1.172,2.589,2.589,0,0,1,2.039.922V3h2.266V15H34.277l-.109-.9A2.657,2.657,0,0,1,32,15.156,2.869,2.869,0,0,1,29.6,13.98,5.258,5.258,0,0,1,28.7,10.711Zm2.258.168a3.337,3.337,0,0,0,.414,1.823,1.349,1.349,0,0,0,1.2.634,1.511,1.511,0,0,0,1.477-.884V9.111a1.489,1.489,0,0,0-1.461-.884Q30.957,8.227,30.957,10.879Zm12.172,3.262a2.831,2.831,0,0,1-2.312,1.016,2.67,2.67,0,0,1-2.074-.781,3.335,3.335,0,0,1-.73-2.289V6.547H40.27v5.467q0,1.322,1.2,1.322a1.63,1.63,0,0,0,1.578-.8V6.547h2.266V15H43.191ZM51.6,12.664a.727.727,0,0,0-.41-.652,4.659,4.659,0,0,0-1.316-.426q-3.016-.633-3.016-2.562a2.323,2.323,0,0,1,.934-1.879,3.766,3.766,0,0,1,2.441-.754,4.053,4.053,0,0,1,2.574.758,2.388,2.388,0,0,1,.965,1.969H51.512a1.092,1.092,0,0,0-.312-.8A1.322,1.322,0,0,0,50.223,8a1.351,1.351,0,0,0-.883.258.814.814,0,0,0-.312.656.7.7,0,0,0,.355.605,3.657,3.657,0,0,0,1.2.4A9.8,9.8,0,0,1,52,10.3a2.336,2.336,0,0,1,1.789,2.273,2.2,2.2,0,0,1-.992,1.871,4.28,4.28,0,0,1-2.562.715,4.47,4.47,0,0,1-1.887-.379,3.166,3.166,0,0,1-1.293-1.039,2.414,2.414,0,0,1-.469-1.426H48.73a1.179,1.179,0,0,0,.445.922,1.766,1.766,0,0,0,1.109.32,1.635,1.635,0,0,0,.98-.246A.766.766,0,0,0,51.6,12.664Zm6.352-8.2V6.547h1.445V8.2H57.949v4.219a1.007,1.007,0,0,0,.18.672.9.9,0,0,0,.688.2,3.6,3.6,0,0,0,.664-.055v1.711a4.648,4.648,0,0,1-1.367.2,2.156,2.156,0,0,1-2.422-2.4V8.2H54.457V6.547h1.234V4.469Zm7.453,4.2A6.134,6.134,0,0,0,64.59,8.6a1.654,1.654,0,0,0-1.68.867V15H60.652V6.547h2.133l.063,1.008A2.092,2.092,0,0,1,64.73,6.391a2.366,2.366,0,0,1,.7.1ZM68.871,15H66.605V6.547h2.266Zm-2.4-10.641a1.112,1.112,0,0,1,.34-.836,1.465,1.465,0,0,1,1.848,0A1.105,1.105,0,0,1,69,4.359a1.108,1.108,0,0,1-.348.844,1.448,1.448,0,0,1-1.836,0A1.108,1.108,0,0,1,66.473,4.359ZM75.629,15a2.507,2.507,0,0,1-.227-.758,2.732,2.732,0,0,1-2.133.914,3,3,0,0,1-2.059-.719,2.312,2.312,0,0,1-.816-1.812,2.389,2.389,0,0,1,1-2.062,4.915,4.915,0,0,1,2.879-.727h1.039V9.352a1.393,1.393,0,0,0-.3-.937,1.183,1.183,0,0,0-.949-.352,1.345,1.345,0,0,0-.895.273.929.929,0,0,0-.324.75H70.582a2.268,2.268,0,0,1,.453-1.359,3,3,0,0,1,1.281-.98,4.669,4.669,0,0,1,1.859-.355,3.689,3.689,0,0,1,2.48.785,2.747,2.747,0,0,1,.918,2.207v3.664a4.041,4.041,0,0,0,.336,1.82V15Zm-1.867-1.57a1.945,1.945,0,0,0,.922-.223,1.462,1.462,0,0,0,.625-.6V11.156h-.844q-1.7,0-1.8,1.172l-.008.133a.9.9,0,0,0,.3.7A1.153,1.153,0,0,0,73.762,13.43Z" transform="translate(21 -11038)" fill="#12263f"/>
    <path id="Trazado_773908" data-name="Trazado 773908" d="M19.051,12.656H14.941L14.16,15H11.668L15.9,3.625h2.172L22.332,15H19.84Zm-3.477-1.9h2.844L16.988,6.5ZM28,8.664a6.134,6.134,0,0,0-.812-.062,1.654,1.654,0,0,0-1.68.867V15H23.246V6.547h2.133l.063,1.008a2.092,2.092,0,0,1,1.883-1.164,2.366,2.366,0,0,1,.7.1Zm4.18-4.2V6.547h1.445V8.2H32.176v4.219a1.007,1.007,0,0,0,.18.672.9.9,0,0,0,.688.2,3.6,3.6,0,0,0,.664-.055v1.711a4.648,4.648,0,0,1-1.367.2,2.156,2.156,0,0,1-2.422-2.4V8.2H28.684V6.547h1.234V4.469ZM38.77,15.156a4.15,4.15,0,0,1-3.027-1.141,4.054,4.054,0,0,1-1.168-3.039v-.219a5.106,5.106,0,0,1,.492-2.277,3.612,3.612,0,0,1,1.395-1.547,3.914,3.914,0,0,1,2.059-.543,3.508,3.508,0,0,1,2.73,1.094,4.444,4.444,0,0,1,1,3.1v.922H36.863a2.1,2.1,0,0,0,.66,1.328,2,2,0,0,0,1.395.5,2.437,2.437,0,0,0,2.039-.945l1.109,1.242a3.389,3.389,0,0,1-1.375,1.121A4.511,4.511,0,0,1,38.77,15.156Zm-.258-6.945a1.411,1.411,0,0,0-1.09.455,2.357,2.357,0,0,0-.535,1.3h3.141V9.788a1.681,1.681,0,0,0-.406-1.165A1.456,1.456,0,0,0,38.512,8.211Zm9.594,4.453a.727.727,0,0,0-.41-.652,4.659,4.659,0,0,0-1.316-.426q-3.016-.633-3.016-2.562A2.323,2.323,0,0,1,44.3,7.145a3.766,3.766,0,0,1,2.441-.754,4.053,4.053,0,0,1,2.574.758,2.388,2.388,0,0,1,.965,1.969H48.02a1.092,1.092,0,0,0-.312-.8A1.322,1.322,0,0,0,46.73,8a1.351,1.351,0,0,0-.883.258.814.814,0,0,0-.312.656.7.7,0,0,0,.355.605,3.657,3.657,0,0,0,1.2.4,9.8,9.8,0,0,1,1.422.379A2.336,2.336,0,0,1,50.3,12.57a2.2,2.2,0,0,1-.992,1.871,4.28,4.28,0,0,1-2.562.715,4.47,4.47,0,0,1-1.887-.379,3.166,3.166,0,0,1-1.293-1.039,2.414,2.414,0,0,1-.469-1.426h2.141a1.179,1.179,0,0,0,.445.922,1.766,1.766,0,0,0,1.109.32,1.635,1.635,0,0,0,.98-.246A.766.766,0,0,0,48.105,12.664ZM56.652,15a2.507,2.507,0,0,1-.227-.758,2.732,2.732,0,0,1-2.133.914,3,3,0,0,1-2.059-.719,2.312,2.312,0,0,1-.816-1.812,2.389,2.389,0,0,1,1-2.062,4.915,4.915,0,0,1,2.879-.727h1.039V9.352a1.393,1.393,0,0,0-.3-.937,1.183,1.183,0,0,0-.949-.352,1.345,1.345,0,0,0-.895.273.929.929,0,0,0-.324.75H51.605a2.268,2.268,0,0,1,.453-1.359,3,3,0,0,1,1.281-.98A4.669,4.669,0,0,1,55.2,6.391a3.689,3.689,0,0,1,2.48.785A2.747,2.747,0,0,1,58.6,9.383v3.664a4.041,4.041,0,0,0,.336,1.82V15Zm-1.867-1.57a1.945,1.945,0,0,0,.922-.223,1.462,1.462,0,0,0,.625-.6V11.156h-.844q-1.7,0-1.8,1.172l-.008.133a.9.9,0,0,0,.3.7A1.153,1.153,0,0,0,54.785,13.43ZM62.41,6.547l.07.977a2.951,2.951,0,0,1,2.43-1.133,2.453,2.453,0,0,1,2,.789,3.682,3.682,0,0,1,.672,2.359V15H65.324V9.594a1.465,1.465,0,0,0-.312-1.043,1.4,1.4,0,0,0-1.039-.324,1.553,1.553,0,0,0-1.43.813V15H60.285V6.547ZM71.73,15H69.473V6.547H71.73ZM71.066,3.117h2.461L71.363,5.539H69.527ZM78.574,15a2.507,2.507,0,0,1-.227-.758,2.732,2.732,0,0,1-2.133.914,3,3,0,0,1-2.059-.719,2.312,2.312,0,0,1-.816-1.812,2.389,2.389,0,0,1,1-2.062,4.915,4.915,0,0,1,2.879-.727h1.039V9.352a1.393,1.393,0,0,0-.3-.937A1.183,1.183,0,0,0,77,8.063a1.345,1.345,0,0,0-.895.273.929.929,0,0,0-.324.75H73.527a2.268,2.268,0,0,1,.453-1.359,3,3,0,0,1,1.281-.98,4.669,4.669,0,0,1,1.859-.355,3.689,3.689,0,0,1,2.48.785,2.747,2.747,0,0,1,.918,2.207v3.664a4.041,4.041,0,0,0,.336,1.82V15Zm-1.867-1.57a1.945,1.945,0,0,0,.922-.223,1.462,1.462,0,0,0,.625-.6V11.156H77.41q-1.7,0-1.8,1.172l-.008.133a.9.9,0,0,0,.3.7A1.153,1.153,0,0,0,76.707,13.43Z" transform="translate(21 -10824)" fill="#12263f"/>
    <path id="Trazado_773909" data-name="Trazado 773909" d="M27.164,10.07h-4.5v3.047h5.281V15H20.32V3.625H27.93v1.9H22.664V8.234h4.5ZM31.25,6.547l.07.977a2.951,2.951,0,0,1,2.43-1.133,2.453,2.453,0,0,1,2,.789,3.682,3.682,0,0,1,.672,2.359V15H34.164V9.594a1.465,1.465,0,0,0-.312-1.043,1.4,1.4,0,0,0-1.039-.324,1.553,1.553,0,0,0-1.43.813V15H29.125V6.547Zm10.773,8.609A4.15,4.15,0,0,1,39,14.016a4.054,4.054,0,0,1-1.168-3.039v-.219A5.106,5.106,0,0,1,38.32,8.48a3.612,3.612,0,0,1,1.395-1.547,3.914,3.914,0,0,1,2.059-.543A3.508,3.508,0,0,1,44.5,7.484a4.444,4.444,0,0,1,1,3.1v.922H40.117a2.1,2.1,0,0,0,.66,1.328,2,2,0,0,0,1.395.5,2.437,2.437,0,0,0,2.039-.945l1.109,1.242a3.389,3.389,0,0,1-1.375,1.121A4.511,4.511,0,0,1,42.023,15.156Zm-.258-6.945a1.411,1.411,0,0,0-1.09.455,2.357,2.357,0,0,0-.535,1.3h3.141V9.788a1.681,1.681,0,0,0-.406-1.165A1.456,1.456,0,0,0,41.766,8.211Zm9.766.453a6.134,6.134,0,0,0-.812-.062,1.654,1.654,0,0,0-1.68.867V15H46.781V6.547h2.133l.063,1.008a2.092,2.092,0,0,1,1.883-1.164,2.366,2.366,0,0,1,.7.1Zm.609,2.047a4.954,4.954,0,0,1,.926-3.133,3,3,0,0,1,2.5-1.187,2.631,2.631,0,0,1,2.164.953l.094-.8h2.047v8.172a3.613,3.613,0,0,1-.5,1.93,3.236,3.236,0,0,1-1.418,1.25,4.985,4.985,0,0,1-2.141.43,4.635,4.635,0,0,1-1.812-.371A3.217,3.217,0,0,1,52.656,17l1-1.375a2.645,2.645,0,0,0,2.047.945,1.936,1.936,0,0,0,1.4-.48,1.8,1.8,0,0,0,.5-1.363v-.453a2.612,2.612,0,0,1-2.055.883,2.992,2.992,0,0,1-2.465-1.191,4.953,4.953,0,0,1-.941-3.16Zm2.258.168a3.085,3.085,0,0,0,.461,1.8,1.466,1.466,0,0,0,1.266.653,1.568,1.568,0,0,0,1.477-.775V9a1.564,1.564,0,0,0-1.461-.775,1.476,1.476,0,0,0-1.277.665A3.477,3.477,0,0,0,54.4,10.879ZM64.039,15H61.781V6.547h2.258ZM63.375,3.117h2.461L63.672,5.539H61.836ZM70.883,15a2.507,2.507,0,0,1-.227-.758,2.732,2.732,0,0,1-2.133.914,3,3,0,0,1-2.059-.719,2.312,2.312,0,0,1-.816-1.812,2.389,2.389,0,0,1,1-2.062,4.915,4.915,0,0,1,2.879-.727h1.039V9.352a1.393,1.393,0,0,0-.3-.937,1.183,1.183,0,0,0-.949-.352,1.345,1.345,0,0,0-.895.273.929.929,0,0,0-.324.75H65.836a2.268,2.268,0,0,1,.453-1.359,3,3,0,0,1,1.281-.98,4.669,4.669,0,0,1,1.859-.355,3.689,3.689,0,0,1,2.48.785,2.747,2.747,0,0,1,.918,2.207v3.664a4.041,4.041,0,0,0,.336,1.82V15Zm-1.867-1.57a1.945,1.945,0,0,0,.922-.223,1.462,1.462,0,0,0,.625-.6V11.156h-.844q-1.7,0-1.8,1.172l-.008.133a.9.9,0,0,0,.3.7A1.153,1.153,0,0,0,69.016,13.43Z" transform="translate(175 -10920)" fill="#12263f"/>
    <path id="Trazado_773910" data-name="Trazado 773910" d="M17.527,11.211A4.025,4.025,0,0,1,16.172,14.1a4.76,4.76,0,0,1-3.223,1.055,4.28,4.28,0,0,1-3.441-1.473A6.038,6.038,0,0,1,8.254,9.641v-.7a6.819,6.819,0,0,1,.578-2.891,4.332,4.332,0,0,1,1.652-1.918,4.629,4.629,0,0,1,2.5-.668,4.637,4.637,0,0,1,3.172,1.055,4.326,4.326,0,0,1,1.391,2.961H15.2a2.376,2.376,0,0,0-.613-1.6,2.271,2.271,0,0,0-1.605-.5,1.991,1.991,0,0,0-1.754.84,4.707,4.707,0,0,0-.6,2.605V9.7a5.038,5.038,0,0,0,.559,2.7,1.954,1.954,0,0,0,1.762.852,2.314,2.314,0,0,0,1.621-.5,2.241,2.241,0,0,0,.613-1.535Zm1.039-.516a5.013,5.013,0,0,1,.484-2.242A3.546,3.546,0,0,1,20.445,6.93a4.069,4.069,0,0,1,2.113-.539,3.849,3.849,0,0,1,2.793,1.047,4.2,4.2,0,0,1,1.207,2.844l.016.578a4.418,4.418,0,0,1-1.086,3.121,3.775,3.775,0,0,1-2.914,1.176,3.793,3.793,0,0,1-2.918-1.172,4.5,4.5,0,0,1-1.09-3.187Zm2.258.16a3.16,3.16,0,0,0,.453,1.843,1.628,1.628,0,0,0,2.578.008,3.457,3.457,0,0,0,.461-2.015,3.128,3.128,0,0,0-.461-1.831,1.5,1.5,0,0,0-1.3-.649,1.474,1.474,0,0,0-1.281.646A3.516,3.516,0,0,0,20.824,10.856Zm9.219-4.309.07.977a2.951,2.951,0,0,1,2.43-1.133,2.453,2.453,0,0,1,2,.789,3.682,3.682,0,0,1,.672,2.359V15H32.957V9.594a1.465,1.465,0,0,0-.312-1.043,1.4,1.4,0,0,0-1.039-.324,1.553,1.553,0,0,0-1.43.813V15H27.918V6.547ZM41.5,12.664a.727.727,0,0,0-.41-.652,4.659,4.659,0,0,0-1.316-.426q-3.016-.633-3.016-2.562A2.323,2.323,0,0,1,37.7,7.145a3.766,3.766,0,0,1,2.441-.754,4.053,4.053,0,0,1,2.574.758,2.388,2.388,0,0,1,.965,1.969H41.418a1.092,1.092,0,0,0-.312-.8A1.322,1.322,0,0,0,40.129,8a1.351,1.351,0,0,0-.883.258.814.814,0,0,0-.312.656.7.7,0,0,0,.355.605,3.657,3.657,0,0,0,1.2.4,9.8,9.8,0,0,1,1.422.379A2.336,2.336,0,0,1,43.7,12.57a2.2,2.2,0,0,1-.992,1.871,4.28,4.28,0,0,1-2.562.715,4.47,4.47,0,0,1-1.887-.379,3.166,3.166,0,0,1-1.293-1.039,2.414,2.414,0,0,1-.469-1.426h2.141a1.179,1.179,0,0,0,.445.922,1.766,1.766,0,0,0,1.109.32,1.635,1.635,0,0,0,.98-.246A.766.766,0,0,0,41.5,12.664Zm6.352-8.2V6.547H49.3V8.2H47.855v4.219a1.007,1.007,0,0,0,.18.672.9.9,0,0,0,.688.2,3.6,3.6,0,0,0,.664-.055v1.711a4.648,4.648,0,0,1-1.367.2,2.156,2.156,0,0,1-2.422-2.4V8.2H44.363V6.547H45.6V4.469Zm7.453,4.2A6.134,6.134,0,0,0,54.5,8.6a1.654,1.654,0,0,0-1.68.867V15H50.559V6.547h2.133l.063,1.008a2.092,2.092,0,0,1,1.883-1.164,2.366,2.366,0,0,1,.7.1Zm6.148,5.477a2.831,2.831,0,0,1-2.312,1.016,2.67,2.67,0,0,1-2.074-.781,3.335,3.335,0,0,1-.73-2.289V6.547H58.6v5.467q0,1.322,1.2,1.322a1.63,1.63,0,0,0,1.578-.8V6.547h2.266V15H61.52Zm7.406-.8a1.481,1.481,0,0,0,1.016-.344,1.2,1.2,0,0,0,.406-.914H72.4a2.9,2.9,0,0,1-.469,1.574,3.093,3.093,0,0,1-1.262,1.109,3.949,3.949,0,0,1-1.77.395A3.67,3.67,0,0,1,66.043,14,4.56,4.56,0,0,1,65,10.82v-.148a4.508,4.508,0,0,1,1.039-3.117,3.627,3.627,0,0,1,2.852-1.164,3.555,3.555,0,0,1,2.543.9A3.2,3.2,0,0,1,72.4,9.7H70.285a1.551,1.551,0,0,0-.406-1.072,1.51,1.51,0,0,0-2.223.163,3.333,3.333,0,0,0-.4,1.866v.235a3.375,3.375,0,0,0,.4,1.878A1.377,1.377,0,0,0,68.863,13.336Zm8.344,0a1.481,1.481,0,0,0,1.016-.344,1.2,1.2,0,0,0,.406-.914h2.117a2.9,2.9,0,0,1-.469,1.574,3.093,3.093,0,0,1-1.262,1.109,3.949,3.949,0,0,1-1.77.395A3.67,3.67,0,0,1,74.387,14,4.56,4.56,0,0,1,73.34,10.82v-.148a4.508,4.508,0,0,1,1.039-3.117A3.627,3.627,0,0,1,77.23,6.391a3.555,3.555,0,0,1,2.543.9,3.2,3.2,0,0,1,.973,2.4H78.629a1.551,1.551,0,0,0-.406-1.072A1.51,1.51,0,0,0,76,8.786a3.333,3.333,0,0,0-.4,1.866v.235a3.375,3.375,0,0,0,.4,1.878A1.377,1.377,0,0,0,77.207,13.336ZM84.418,15H82.152V6.547h2.266ZM82.02,4.359a1.112,1.112,0,0,1,.34-.836,1.465,1.465,0,0,1,1.848,0,1.105,1.105,0,0,1,.344.836A1.108,1.108,0,0,1,84.2,5.2a1.448,1.448,0,0,1-1.836,0A1.108,1.108,0,0,1,82.02,4.359ZM85.926,10.7a5.013,5.013,0,0,1,.484-2.242A3.546,3.546,0,0,1,87.8,6.93a4.069,4.069,0,0,1,2.113-.539,3.849,3.849,0,0,1,2.793,1.047,4.2,4.2,0,0,1,1.207,2.844l.016.578a4.418,4.418,0,0,1-1.086,3.121,4.209,4.209,0,0,1-5.832,0,4.5,4.5,0,0,1-1.09-3.187Zm2.258.16a3.16,3.16,0,0,0,.453,1.843,1.628,1.628,0,0,0,2.578.008,3.457,3.457,0,0,0,.461-2.015,3.128,3.128,0,0,0-.461-1.831,1.5,1.5,0,0,0-1.3-.649,1.474,1.474,0,0,0-1.281.646A3.516,3.516,0,0,0,88.184,10.856ZM90.363,3h2.461L90.66,5.422H88.824ZM97.4,6.547l.07.977A2.951,2.951,0,0,1,99.9,6.391a2.453,2.453,0,0,1,2,.789,3.682,3.682,0,0,1,.672,2.359V15h-2.258V9.594A1.465,1.465,0,0,0,100,8.551a1.4,1.4,0,0,0-1.039-.324,1.553,1.553,0,0,0-1.43.813V15H95.277V6.547Z" transform="translate(-144 -10920)" fill="#12263f"/>
  </g>
</svg>
