<svg xmlns="http://www.w3.org/2000/svg" xmlns:xlink="http://www.w3.org/1999/xlink" width="276.474" height="239.226" viewBox="0 0 276.474 239.226">
  <defs>
    <filter id="Trazado_762415" x="22.303" y="22.301" width="200.624" height="200.624" filterUnits="userSpaceOnUse">
      <feOffset dx="3" dy="3" input="SourceAlpha"/>
      <feGaussianBlur stdDeviation="3" result="blur"/>
      <feFlood flood-opacity="0.161"/>
      <feComposite operator="in" in2="blur"/>
      <feComposite in="SourceGraphic"/>
    </filter>
    <clipPath id="clip-path">
      <path id="Trazado_762439" data-name="Trazado 762439" d="M330.684,67.171a74.167,74.167,0,1,0,52.443-21.722,74.165,74.165,0,0,0-52.443,21.722" fill="none"/>
    </clipPath>
    <linearGradient id="linear-gradient" x1="-1.202" y1="1.015" x2="-1.197" y2="1.015" gradientUnits="objectBoundingBox">
      <stop offset="0" stop-color="#fdfdfd"/>
      <stop offset="0.397" stop-color="#f5f5f5"/>
      <stop offset="1" stop-color="#e0e0e0"/>
    </linearGradient>
  </defs>
  <g id="Grupo_1028063" data-name="Grupo 1028063" transform="translate(9438.487 8421.489)">
    <path id="Trazado_762414" data-name="Trazado 762414" d="M429.692,229.82a119.738,119.738,0,0,0,65.124-153.1l-.254.251a119.352,119.352,0,0,1-154.637,153.86l-.251.251a119.98,119.98,0,0,0,90.018-1.264M263.839,119.614A119.357,119.357,0,0,1,425.149,7.943l.252-.253A119.684,119.684,0,0,0,270.99,161.325l.255-.253a118.633,118.633,0,0,1-7.406-41.458" transform="translate(-9702 -8421.49)" fill="#ffca00"/>
    <g transform="matrix(1, 0, 0, 1, -9438.49, -8421.49)" filter="url(#Trazado_762415)">
      <path id="Trazado_762415-2" data-name="Trazado 762415" d="M474.439,119.614A91.312,91.312,0,1,1,383.127,28.3a91.312,91.312,0,0,1,91.312,91.312" transform="translate(-263.51 0)" fill="#ffca00"/>
    </g>
    <path id="Trazado_762416" data-name="Trazado 762416" d="M338.51,14.012a113.576,113.576,0,0,1,36.459-8.729V7.572A112.007,112.007,0,0,0,303.7,40.184a112.535,112.535,0,0,0-17.711,22.974,1.142,1.142,0,1,1-1.974-1.149,115.1,115.1,0,0,1,54.5-48" transform="translate(-9702 -8421.49)" fill="#ffca00"/>
    <path id="Trazado_762417" data-name="Trazado 762417" d="M481.992,63.856a1.142,1.142,0,0,1-1.56-.418,112.837,112.837,0,0,0-53.577-47.323,111.315,111.315,0,0,0-35.57-8.543V5.283a114.306,114.306,0,0,1,72.889,33.285A114.811,114.811,0,0,1,482.41,62.3a1.142,1.142,0,0,1-.418,1.56" transform="translate(-9702 -8421.49)" fill="#ffca00"/>
    <path id="Trazado_762418" data-name="Trazado 762418" d="M471.693,68.482a1.142,1.142,0,1,0-1.977,1.143l.039.069a1.142,1.142,0,1,0,1.98-1.14Z" transform="translate(-9702 -8421.49)" fill="#ffca00"/>
    <path id="Trazado_762419" data-name="Trazado 762419" d="M479.574,89.173a1.142,1.142,0,0,0-.762,1.424l.041.134a1.142,1.142,0,1,0,2.188-.656l-.043-.14a1.143,1.143,0,0,0-1.424-.762" transform="translate(-9702 -8421.49)" fill="#ffca00"/>
    <path id="Trazado_762420" data-name="Trazado 762420" d="M477,79.048l-.059-.136a1.142,1.142,0,0,0-2.093.914l.055.128a1.142,1.142,0,0,0,2.1-.906" transform="translate(-9702 -8421.49)" fill="#ffca00"/>
    <path id="Trazado_762421" data-name="Trazado 762421" d="M481.5,101.756l.025.141a1.143,1.143,0,0,0,1.123.94,1.079,1.079,0,0,0,.2-.018,1.142,1.142,0,0,0,.923-1.325l-.026-.142a1.142,1.142,0,1,0-2.248.4" transform="translate(-9702 -8421.49)" fill="#ffca00"/>
    <path id="Trazado_762422" data-name="Trazado 762422" d="M383.208,219.572h-.081a99.883,99.883,0,0,1-99.685-92.493,7.6,7.6,0,0,0,0-14.926,99.121,99.121,0,0,1,7.587-31.45,100.259,100.259,0,0,1,5.656-11.328,1.142,1.142,0,1,0-1.974-1.148,103.148,103.148,0,0,0-5.787,11.585,101.467,101.467,0,0,0-7.766,32.258,7.6,7.6,0,0,0,0,15.092,102.162,102.162,0,0,0,101.97,94.694h.081a1.142,1.142,0,1,0,0-2.284M276.713,119.616a5.313,5.313,0,1,1,5.312,5.312,5.318,5.318,0,0,1-5.312-5.312" transform="translate(-9702 -8421.49)" fill="#ffca00"/>
    <path id="Trazado_762423" data-name="Trazado 762423" d="M431.33,207.209l-.136.075a1.142,1.142,0,1,0,1.1,2l.139-.076a1.142,1.142,0,0,0-1.1-2" transform="translate(-9702 -8421.49)" fill="#ffca00"/>
    <path id="Trazado_762424" data-name="Trazado 762424" d="M395.731,218.79l-.152.019a1.142,1.142,0,0,0,.138,2.276,1.109,1.109,0,0,0,.14-.009l.16-.02a1.142,1.142,0,0,0-.286-2.266" transform="translate(-9702 -8421.49)" fill="#ffca00"/>
    <path id="Trazado_762425" data-name="Trazado 762425" d="M419.98,212.558l-.141.056a1.142,1.142,0,0,0,.836,2.126l.15-.06a1.142,1.142,0,1,0-.845-2.122" transform="translate(-9702 -8421.49)" fill="#ffca00"/>
    <path id="Trazado_762426" data-name="Trazado 762426" d="M441.917,200.476l-.128.094a1.142,1.142,0,1,0,1.344,1.846l.126-.091a1.142,1.142,0,0,0-1.342-1.849" transform="translate(-9702 -8421.49)" fill="#ffca00"/>
    <path id="Trazado_762427" data-name="Trazado 762427" d="M408.053,216.444l-.148.038a1.142,1.142,0,1,0,.564,2.213l.156-.039a1.142,1.142,0,0,0-.572-2.212" transform="translate(-9702 -8421.49)" fill="#ffca00"/>
    <path id="Trazado_762428" data-name="Trazado 762428" d="M451.57,192.468l-.113.1a1.143,1.143,0,0,0,1.563,1.667l.116-.109a1.142,1.142,0,0,0-1.566-1.663" transform="translate(-9702 -8421.49)" fill="#ffca00"/>
    <path id="Trazado_762429" data-name="Trazado 762429" d="M482.668,137.47a1.144,1.144,0,0,0-1.335.91l-.028.15a1.142,1.142,0,0,0,2.243.432l.03-.157a1.142,1.142,0,0,0-.91-1.335" transform="translate(-9702 -8421.49)" fill="#ffca00"/>
    <path id="Trazado_762430" data-name="Trazado 762430" d="M475.108,161.643a1.142,1.142,0,0,0-1.518.55l-.065.138a1.142,1.142,0,0,0,2.065.976l.068-.146a1.141,1.141,0,0,0-.55-1.518" transform="translate(-9702 -8421.49)" fill="#ffca00"/>
    <path id="Trazado_762431" data-name="Trazado 762431" d="M479.655,149.8a1.143,1.143,0,0,0-1.439.734l-.048.146a1.142,1.142,0,0,0,.731,1.441,1.156,1.156,0,0,0,.355.057,1.141,1.141,0,0,0,1.085-.788l.049-.151a1.142,1.142,0,0,0-.733-1.439" transform="translate(-9702 -8421.49)" fill="#ffca00"/>
    <path id="Trazado_762432" data-name="Trazado 762432" d="M469.124,172.832a1.143,1.143,0,0,0-1.578.349l-.084.132a1.142,1.142,0,0,0,1.926,1.228l.085-.132a1.144,1.144,0,0,0-.349-1.577" transform="translate(-9702 -8421.49)" fill="#ffca00"/>
    <path id="Trazado_762433" data-name="Trazado 762433" d="M461.769,183.172a1.142,1.142,0,0,0-1.608.153l-.1.117a1.142,1.142,0,0,0,1.755,1.462l.1-.124a1.142,1.142,0,0,0-.153-1.608" transform="translate(-9702 -8421.49)" fill="#ffca00"/>
    <path id="Trazado_762434" data-name="Trazado 762434" d="M284.4,119.616a2.376,2.376,0,1,0-2.376,2.376,2.379,2.379,0,0,0,2.376-2.376" transform="translate(-9702 -8421.49)" fill="#ffca00"/>
    <path id="Trazado_762435" data-name="Trazado 762435" d="M484.228,117.24a2.376,2.376,0,1,0,2.376,2.377,2.379,2.379,0,0,0-2.376-2.377" transform="translate(-9702 -8421.49)" fill="#ffca00"/>
    <path id="Trazado_762436" data-name="Trazado 762436" d="M538.844,118.475h-47.1a7.609,7.609,0,0,0-7.288-6.45,1.128,1.128,0,0,0-.919.028,7.6,7.6,0,0,0,0,15.126,1.084,1.084,0,0,0,.426.111c.023,0,.046,0,.068,0a1.148,1.148,0,0,0,.43-.084,7.609,7.609,0,0,0,7.286-6.449h47.1a1.142,1.142,0,1,0,0-2.284m-54.615,6.454a5.313,5.313,0,1,1,5.312-5.312,5.319,5.319,0,0,1-5.312,5.312" transform="translate(-9702 -8421.49)" fill="#ffca00"/>
    <path id="Trazado_762437" data-name="Trazado 762437" d="M388.022,6.425a4.895,4.895,0,1,1-4.895-4.9,4.895,4.895,0,0,1,4.895,4.9" transform="translate(-9702 -8421.49)" fill="#ffca00"/>
    <path id="Trazado_762438" data-name="Trazado 762438" d="M385.175,6.425a2.048,2.048,0,1,1-2.048-2.048,2.048,2.048,0,0,1,2.048,2.048" transform="translate(-9702 -8421.49)" fill="#fff"/>
    <g id="Grupo_1024276" data-name="Grupo 1024276" transform="translate(-9702 -8421.49)">
      <g id="Grupo_1024275" data-name="Grupo 1024275" clip-path="url(#clip-path)">
        <rect id="Rectángulo_358972" data-name="Rectángulo 358972" width="225.131" height="225.131" transform="translate(223.936 123.235) rotate(-45)" fill="url(#linear-gradient)"/>
      </g>
    </g>
    <path id="Trazado_762440" data-name="Trazado 762440" d="M332.508,68.994a71.587,71.587,0,1,1,0,101.239,71.587,71.587,0,0,1,0-101.239" transform="translate(-9702 -8421.49)" fill="#f3f4f5"/>
    <g id="Layer_69" transform="translate(-9354.324 -8340.848)">
      <g id="Grupo_1027863" data-name="Grupo 1027863" transform="translate(0)">
        <g id="Grupo_1027774" data-name="Grupo 1027774" transform="translate(31.818 42.484)">
          <path id="Trazado_773035" data-name="Trazado 773035" d="M117.9,155.5h1.5a.549.549,0,0,1,.157-.337l2.791-2.791A2.5,2.5,0,0,1,122,151.1v-1.183a7.208,7.208,0,0,1-6.695,0V151.1a2.5,2.5,0,0,1-.348,1.274l2.788,2.788A.552.552,0,0,1,117.9,155.5Z" transform="translate(-114.96 -149.914)" fill="#f9d0b4"/>
        </g>
        <g id="Grupo_1027775" data-name="Grupo 1027775" transform="translate(9.937 25.128)">
          <path id="Trazado_773036" data-name="Trazado 773036" d="M44.1,89.348a7.064,7.064,0,0,0-6.349.159V99.733a7.065,7.065,0,0,1,5.977-.322c.338.136.688-.153.688-.582V89.921A.625.625,0,0,0,44.1,89.348Z" transform="translate(-37.747 -88.672)" fill="#edf4fc"/>
        </g>
        <g id="Grupo_1027776" data-name="Grupo 1027776" transform="translate(3.271 25.129)">
          <path id="Trazado_773037" data-name="Trazado 773037" d="M14.543,89.348a.625.625,0,0,0-.317.573v8.908c0,.429.351.718.688.582a7.065,7.065,0,0,1,5.977.322V89.508a7.064,7.064,0,0,0-6.349-.16Z" transform="translate(-14.226 -88.672)" fill="#edf4fc"/>
        </g>
        <g id="Grupo_1027777" data-name="Grupo 1027777" transform="translate(0.708 26.872)">
          <path id="Trazado_773038" data-name="Trazado 773038" d="M23.06,94.826H21.077v8.413c0,.429-.351.718-.688.582a7.065,7.065,0,0,0-5.977.322,7.065,7.065,0,0,0-5.977-.322c-.338.136-.688-.153-.688-.582V94.826H5.762a.579.579,0,0,0-.579.579v10.588a.579.579,0,0,0,.579.579h17.3a.579.579,0,0,0,.579-.579V95.4A.579.579,0,0,0,23.06,94.826Z" transform="translate(-5.183 -94.826)" fill="#70d6f9"/>
        </g>
        <g id="Grupo_1027778" data-name="Grupo 1027778" transform="translate(12.275 4.959)">
          <path id="Trazado_773039" data-name="Trazado 773039" d="M58.419,18.246a.852.852,0,0,0-.845-.746H46.9a.852.852,0,0,0-.845.746,6.511,6.511,0,0,0-.051.812,6.236,6.236,0,1,0,12.469,0A6.566,6.566,0,0,0,58.419,18.246Z" transform="translate(-46 -17.5)" fill="#edf4fc"/>
        </g>
        <g id="Grupo_1027779" data-name="Grupo 1027779" transform="translate(13.267 12.894)">
          <path id="Trazado_773040" data-name="Trazado 773040" d="M59.35,45.5H50.135a.635.635,0,0,0-.635.635,2.2,2.2,0,0,0,2.2,2.2h6.088a2.2,2.2,0,0,0,2.2-2.2.635.635,0,0,0-.635-.635Z" transform="translate(-49.5 -45.5)" fill="#edf4fc"/>
        </g>
        <g id="Grupo_1027781" data-name="Grupo 1027781" transform="translate(49.283 6.693)">
          <g id="Grupo_1027780" data-name="Grupo 1027780">
            <path id="Trazado_773041" data-name="Trazado 773041" d="M176.715,25.708a.453.453,0,0,1,.112.453l1.868,1.989a.448.448,0,0,0,.126-.087l2.089-2.089-2.354-2.354-1.965,1.965Z" transform="translate(-176.591 -23.619)" fill="#edf4fc"/>
          </g>
        </g>
        <g id="Grupo_1027782" data-name="Grupo 1027782" transform="translate(44.964 6.693)">
          <path id="Trazado_773042" data-name="Trazado 773042" d="M163.705,23.618l2.089,2.089a.455.455,0,0,1,0,.643l-1.711,1.711a.455.455,0,0,1-.643,0l-2.089-2.089Z" transform="translate(-161.351 -23.618)" fill="#edf4fc"/>
        </g>
        <g id="Grupo_1027784" data-name="Grupo 1027784" transform="translate(43.07 11.223)">
          <g id="Grupo_1027783" data-name="Grupo 1027783">
            <path id="Trazado_773043" data-name="Trazado 773043" d="M159.1,39.629a.452.452,0,0,1-.326-.025l-3.794,4.039a1.165,1.165,0,0,0,1.647,1.647l4.251-3.993Z" transform="translate(-154.665 -39.604)" fill="#d1956d"/>
          </g>
        </g>
        <g id="Grupo_1027785" data-name="Grupo 1027785" transform="translate(47.506 9.235)">
          <path id="Trazado_773044" data-name="Trazado 773044" d="M170.51,34.489l1.711-1.711a.45.45,0,0,0,.112-.19l5.662,6.028a1.165,1.165,0,0,1-1.647,1.647L170.319,34.6a.453.453,0,0,0,.191-.112Z" transform="translate(-170.319 -32.587)" fill="#d1956d"/>
        </g>
        <g id="Grupo_1027786" data-name="Grupo 1027786" transform="translate(51.248 2.54)">
          <path id="Trazado_773045" data-name="Trazado 773045" d="M185.879,15.47l-2.354-2.354a5.1,5.1,0,0,1,1.413-3.3c1.156-1.156,3.1-.262,4.414-.8a.673.673,0,0,1,.943.559C190.408,11.331,190.432,14.965,185.879,15.47Z" transform="translate(-183.525 -8.963)" fill="#f5c84c"/>
        </g>
        <g id="Grupo_1027787" data-name="Grupo 1027787" transform="translate(40.519 2.54)">
          <path id="Trazado_773046" data-name="Trazado 773046" d="M150.11,15.47l2.354-2.354a5.1,5.1,0,0,0-1.413-3.3c-1.156-1.156-3.1-.262-4.414-.8a.673.673,0,0,0-.943.559C145.581,11.331,145.557,14.965,150.11,15.47Z" transform="translate(-145.664 -8.963)" fill="#f5c84c"/>
        </g>
        <g id="Grupo_1027788" data-name="Grupo 1027788" transform="translate(56.917 24.739)">
          <path id="Trazado_773047" data-name="Trazado 773047" d="M212,90.623l-8.468,1.815V89.111L212,87.3Z" transform="translate(-203.529 -87.296)" fill="#fc657e"/>
        </g>
        <g id="Grupo_1027789" data-name="Grupo 1027789" transform="translate(61.152 33.509)">
          <ellipse id="Elipse_8680" data-name="Elipse 8680" cx="2.117" cy="2.117" rx="2.117" ry="2.117" fill="#fc657e"/>
        </g>
        <g id="Grupo_1027790" data-name="Grupo 1027790" transform="translate(52.683 35.324)">
          <ellipse id="Elipse_8681" data-name="Elipse 8681" cx="2.117" cy="2.117" rx="2.117" ry="2.117" fill="#fc657e"/>
        </g>
        <g id="Grupo_1027791" data-name="Grupo 1027791" transform="translate(49.249 52.84)">
          <path id="Trazado_773048" data-name="Trazado 773048" d="M197.332,190.577l-.806-2.6c-.017-.056-.037-.11-.059-.163a1.794,1.794,0,0,0-2.837-.59l-.358.316a.972.972,0,0,1-1.547-.375.859.859,0,0,0-1.192-.636,1.686,1.686,0,0,0-1,1.718l.133,1.279a1.69,1.69,0,0,1-.955,1.726c-.837.4-2.442,1.147-5.658,2.688a.36.36,0,0,1-.451-.117l-1.325-1.9-4.808,3.663,3,4.117a2.749,2.749,0,0,0,3.722.686l8.126-5.289a12.827,12.827,0,0,1,2.208-1.149l2.729-1.1a1.857,1.857,0,0,0,1.08-2.274Z" transform="translate(-176.469 -186.459)" fill="#f9d0b4"/>
        </g>
        <g id="Grupo_1027792" data-name="Grupo 1027792" transform="translate(0.831 52.84)">
          <path id="Trazado_773049" data-name="Trazado 773049" d="M5.7,190.577l.806-2.6c.017-.056.037-.11.059-.163a1.794,1.794,0,0,1,2.837-.59l.358.316a.972.972,0,0,0,1.547-.375.859.859,0,0,1,1.192-.636,1.686,1.686,0,0,1,1,1.718l-.133,1.279a1.69,1.69,0,0,0,.955,1.726c.837.4,2.442,1.147,5.658,2.688a.36.36,0,0,0,.451-.117l1.325-1.9,4.808,3.663-3,4.117a2.749,2.749,0,0,1-3.722.686L11.717,195.1a12.827,12.827,0,0,0-2.208-1.149l-2.729-1.1a1.857,1.857,0,0,1-1.08-2.274Z" transform="translate(-5.616 -186.459)" fill="#f9d0b4"/>
        </g>
        <g id="Grupo_1027794" data-name="Grupo 1027794" transform="translate(16.531 46.647)">
          <g id="Grupo_1027793" data-name="Grupo 1027793">
            <path id="Trazado_773050" data-name="Trazado 773050" d="M98.854,175.2l-4.268-6.535a7.442,7.442,0,0,0-4.193-2.826,32.847,32.847,0,0,1-4.327-1.236.549.549,0,0,1-.141.249L83,167.779a.554.554,0,0,1-.783,0l-1.309-1.309a.551.551,0,0,1-.157-.447h-1.5a.55.55,0,0,1-.157.447l-1.309,1.309a.554.554,0,0,1-.783,0l-2.925-2.925a.549.549,0,0,1-.141-.249,32.823,32.823,0,0,1-4.327,1.236,7.442,7.442,0,0,0-4.193,2.826L61.146,175.2a.666.666,0,0,0,.134.923l5.108,3.892a.666.666,0,0,0,.931-.122l2.813-3.726v12.923a.7.7,0,0,0,.7.7H89.164a.7.7,0,0,0,.7-.7V176.17L92.68,179.9a.666.666,0,0,0,.931.122l5.108-3.892A.666.666,0,0,0,98.854,175.2Z" transform="translate(-61.018 -164.605)" fill="#70d6f9"/>
          </g>
        </g>
        <g id="Grupo_1027795" data-name="Grupo 1027795" transform="translate(48.631 52.132)">
          <path id="Trazado_773051" data-name="Trazado 773051" d="M180.128,199.752a3.454,3.454,0,0,1-2.8-1.423l-2.906-3.993a.709.709,0,0,1,1.146-.834l2.906,3.993a2.039,2.039,0,0,0,2.763.51l8.127-5.289a13.537,13.537,0,0,1,2.33-1.212l2.729-1.1a1.155,1.155,0,0,0,.668-1.406l-.806-2.6c-.01-.034-.023-.069-.037-.1a.982.982,0,0,0-.7-.581,1.138,1.138,0,0,0-1.011.252l-.359.315a1.68,1.68,0,0,1-2.675-.649.714.714,0,0,1-.038-.134.151.151,0,0,0-.21-.112.975.975,0,0,0-.579,1l.133,1.279a2.394,2.394,0,0,1-1.357,2.439l-.628.3c-.944.445-2.479,1.169-5.027,2.39a1.064,1.064,0,0,1-1.338-.351l-1.229-1.766a.708.708,0,1,1,1.163-.809l1.059,1.521c2.393-1.146,3.856-1.836,4.768-2.266l.626-.3a.981.981,0,0,0,.555-1l-.134-1.289a2.387,2.387,0,0,1,1.417-2.439,1.568,1.568,0,0,1,2.155,1.063.26.26,0,0,0,.166.124.256.256,0,0,0,.236-.058l.358-.315a2.559,2.559,0,0,1,2.267-.569,2.39,2.39,0,0,1,1.692,1.419q.045.109.08.222l.807,2.6a2.58,2.58,0,0,1-1.492,3.141l-2.729,1.1a12.112,12.112,0,0,0-2.086,1.085l-8.127,5.289a3.452,3.452,0,0,1-1.884.559Z" transform="translate(-174.288 -183.961)"/>
        </g>
        <g id="Grupo_1027796" data-name="Grupo 1027796" transform="translate(0.124 52.131)">
          <path id="Trazado_773052" data-name="Trazado 773052" d="M19.553,199.749a3.444,3.444,0,0,1-1.884-.561L9.543,193.9a12.107,12.107,0,0,0-2.086-1.086l-2.729-1.1a2.58,2.58,0,0,1-1.492-3.141l.806-2.6c.024-.077.051-.152.081-.224a2.389,2.389,0,0,1,1.693-1.42,2.56,2.56,0,0,1,2.267.569l.359.316a.264.264,0,0,0,.4-.066A1.569,1.569,0,0,1,11,184.091a2.387,2.387,0,0,1,1.417,2.44l-.133,1.279a.984.984,0,0,0,.553,1.013l.626.3c.912.43,2.375,1.12,4.768,2.266l1.078-1.549a.708.708,0,0,1,1.163.809l-1.248,1.793a1.064,1.064,0,0,1-1.338.352c-2.548-1.221-4.083-1.945-5.027-2.39l-.628-.3a2.4,2.4,0,0,1-1.355-2.449l.132-1.269a.976.976,0,0,0-.579-1,.151.151,0,0,0-.21.112.7.7,0,0,1-.038.134,1.68,1.68,0,0,1-2.675.649l-.359-.316a1.139,1.139,0,0,0-1.011-.252.981.981,0,0,0-.7.582c-.014.033-.026.068-.037.1l-.806,2.595a1.155,1.155,0,0,0,.668,1.406l2.729,1.1a13.549,13.549,0,0,1,2.33,1.213L18.443,198a2.038,2.038,0,0,0,2.763-.509l2.9-3.98a.709.709,0,1,1,1.146.834l-2.9,3.981A3.454,3.454,0,0,1,19.553,199.749Z" transform="translate(-3.122 -183.957)"/>
        </g>
        <g id="Grupo_1027798" data-name="Grupo 1027798" transform="translate(15.825 45.984)">
          <g id="Grupo_1027797" data-name="Grupo 1027797">
            <path id="Trazado_773053" data-name="Trazado 773053" d="M87.378,188.829H69.051a1.414,1.414,0,0,1-1.412-1.412V176.608L66.1,178.646a1.38,1.38,0,0,1-1.926.259l-5.108-3.892a1.382,1.382,0,0,1-.29-1.887l4.26-6.523.021-.03a8.15,8.15,0,0,1,4.592-3.1c.568-.152,1.063-.273,1.513-.382a17.7,17.7,0,0,0,2.6-.776.709.709,0,1,1,.525,1.316,19.008,19.008,0,0,1-2.794.836c-.441.107-.925.225-1.492.377a6.73,6.73,0,0,0-3.793,2.546l-4.255,6.516L65,177.753l2.783-3.686a.709.709,0,0,1,1.274.427v12.923l18.323-.005,0-12.918a.709.709,0,0,1,1.274-.427l2.783,3.686,5.043-3.842-4.255-6.516a6.736,6.736,0,0,0-3.783-2.543c-.574-.154-1.057-.271-1.5-.378a18.986,18.986,0,0,1-2.806-.841.708.708,0,1,1,.526-1.316,17.712,17.712,0,0,0,2.615.78c.449.109.942.23,1.518.384a8.154,8.154,0,0,1,4.581,3.093l.021.03,4.26,6.523a1.382,1.382,0,0,1-.289,1.887L92.255,178.9a1.378,1.378,0,0,1-1.921-.253l-1.544-2.045v10.809A1.414,1.414,0,0,1,87.378,188.829Z" transform="translate(-58.527 -162.266)"/>
          </g>
        </g>
        <g id="Grupo_1027799" data-name="Grupo 1027799" transform="translate(29.426 44.641)">
          <path id="Trazado_773054" data-name="Trazado 773054" d="M111.7,160.614l-2.925-2.925a.554.554,0,0,0-.783,0L106.682,159a.554.554,0,0,0,0,.783l2.925,2.925a.554.554,0,0,0,.783,0L111.7,161.4a.554.554,0,0,0,0-.783Z" transform="translate(-106.52 -157.527)" fill="#9be5f9"/>
        </g>
        <g id="Grupo_1027800" data-name="Grupo 1027800" transform="translate(36.259 44.641)">
          <path id="Trazado_773055" data-name="Trazado 773055" d="M130.793,160.614l2.925-2.925a.554.554,0,0,1,.783,0L135.81,159a.554.554,0,0,1,0,.783l-2.925,2.925a.554.554,0,0,1-.783,0l-1.309-1.309a.554.554,0,0,1,0-.783Z" transform="translate(-130.631 -157.527)" fill="#9be5f9"/>
        </g>
        <g id="Grupo_1027801" data-name="Grupo 1027801" transform="translate(28.718 43.933)">
          <path id="Trazado_773056" data-name="Trazado 773056" d="M108.208,161.785a1.257,1.257,0,0,1-.893-.369l-2.925-2.925a1.264,1.264,0,0,1,0-1.785L105.7,155.4a1.263,1.263,0,0,1,1.785,0l2.925,2.925h0a1.265,1.265,0,0,1,0,1.785l-1.309,1.309A1.258,1.258,0,0,1,108.208,161.785ZM105.5,157.6l2.707,2.707,1.091-1.091-2.707-2.707Z" transform="translate(-104.021 -155.027)"/>
        </g>
        <g id="Grupo_1027802" data-name="Grupo 1027802" transform="translate(35.551 43.933)">
          <path id="Trazado_773057" data-name="Trazado 773057" d="M130.7,161.786a1.257,1.257,0,0,1-.892-.369l-1.309-1.309a1.265,1.265,0,0,1,0-1.785h0l2.925-2.925a1.263,1.263,0,0,1,1.785,0l1.309,1.309a1.264,1.264,0,0,1,0,1.785l-2.925,2.925A1.258,1.258,0,0,1,130.7,161.786Zm-1.09-2.571,1.091,1.091,2.707-2.707-1.09-1.09Z" transform="translate(-128.135 -155.027)"/>
        </g>
        <g id="Grupo_1027803" data-name="Grupo 1027803" transform="translate(28.247 27.079)">
          <path id="Trazado_773058" data-name="Trazado 773058" d="M110.715,95.7a7.875,7.875,0,0,1-7.885,2.591.388.388,0,0,0-.469.375v5.849a7.266,7.266,0,0,0,14.532,0V98.046c0-.038,0-.076,0-.114a.39.39,0,0,0-.375-.382,7.566,7.566,0,0,1-5.22-1.884.391.391,0,0,0-.581.037Z" transform="translate(-102.361 -95.554)" fill="#f9d0b4"/>
        </g>
        <g id="Grupo_1027805" data-name="Grupo 1027805" transform="translate(25.889 20.311)">
          <g id="Grupo_1027804" data-name="Grupo 1027804">
            <path id="Trazado_773059" data-name="Trazado 773059" d="M95.931,81.866a3.042,3.042,0,0,1,.466.037v-.349a.388.388,0,0,1,.469-.375,7.875,7.875,0,0,0,7.885-2.591.391.391,0,0,1,.582-.037,7.563,7.563,0,0,0,5.22,1.884.39.39,0,0,1,.375.382c0,.038,0,.076,0,.114V81.9a3.016,3.016,0,0,1,2.57.814V77.261a4.162,4.162,0,0,0-4.15-4.15,4.11,4.11,0,0,0-2.12.592,4.155,4.155,0,0,0-3.559-2.031h-2.131a7.522,7.522,0,0,0-7.5,7.5v3.36a3.016,3.016,0,0,1,1.892-.665Z" transform="translate(-94.039 -71.671)" fill="#754e34"/>
          </g>
        </g>
        <g id="Grupo_1027806" data-name="Grupo 1027806" transform="translate(42.761 30.505)">
          <path id="Trazado_773060" data-name="Trazado 773060" d="M154.059,107.646a3.044,3.044,0,0,0-.466.037v5.5c0,.164-.007.326-.018.487a3.032,3.032,0,1,0,.485-6.025Z" transform="translate(-153.574 -107.646)" fill="#f9d0b4"/>
        </g>
        <g id="Grupo_1027807" data-name="Grupo 1027807" transform="translate(24.748 30.505)">
          <path id="Trazado_773061" data-name="Trazado 773061" d="M93.512,113.183v-5.5a3.035,3.035,0,1,0,.018,5.988C93.519,113.509,93.512,113.347,93.512,113.183Z" transform="translate(-90.012 -107.646)" fill="#f9d0b4"/>
        </g>
        <g id="Grupo_1027808" data-name="Grupo 1027808" transform="translate(27.539 26.37)">
          <path id="Trazado_773062" data-name="Trazado 773062" d="M107.835,110.7a7.983,7.983,0,0,1-7.974-7.975V96.882a1.1,1.1,0,0,1,1.323-1.073,7.119,7.119,0,0,0,7.185-2.338,1.1,1.1,0,0,1,1.632-.1,6.9,6.9,0,0,0,4.745,1.682,1.1,1.1,0,0,1,1.062,1.076c0,.041,0,.085,0,.128v6.472A7.983,7.983,0,0,1,107.835,110.7Zm-6.557-13.434v5.459a6.557,6.557,0,1,0,13.115,0V96.454a8.34,8.34,0,0,1-5.13-1.84,8.575,8.575,0,0,1-7.984,2.653Zm8.2-2.915Zm-.555-.441h0Z" transform="translate(-99.861 -93.054)"/>
        </g>
        <g id="Grupo_1027810" data-name="Grupo 1027810" transform="translate(25.18 19.602)">
          <g id="Grupo_1027809" data-name="Grupo 1027809">
            <path id="Trazado_773063" data-name="Trazado 773063" d="M111.705,81.467a.708.708,0,0,1-.708-.708v-5.29a3.429,3.429,0,0,0-5.2-2.951.709.709,0,0,1-.972-.243,3.465,3.465,0,0,0-2.951-1.687H99.744a6.8,6.8,0,0,0-6.791,6.791v3.25a.708.708,0,0,1-1.417,0v-3.25a8.217,8.217,0,0,1,8.208-8.208h2.131A4.885,4.885,0,0,1,105.662,71a4.811,4.811,0,0,1,1.893-.39,4.864,4.864,0,0,1,4.859,4.859v5.29A.709.709,0,0,1,111.705,81.467Z" transform="translate(-91.536 -69.17)"/>
          </g>
        </g>
        <g id="Grupo_1027811" data-name="Grupo 1027811" transform="translate(42.271 29.797)">
          <path id="Trazado_773064" data-name="Trazado 773064" d="M152.821,112.63c-.113,0-.224-.006-.335-.017a.708.708,0,1,1,.138-1.41c.065.006.13.01.2.01a2.325,2.325,0,0,0,0-4.65c-.06,0-.119,0-.178.007a.708.708,0,0,1-.116-1.412c.1-.008.195-.012.294-.012a3.742,3.742,0,0,1,0,7.484Z" transform="translate(-151.847 -105.146)"/>
        </g>
        <g id="Grupo_1027812" data-name="Grupo 1027812" transform="translate(24.039 29.797)">
          <path id="Trazado_773065" data-name="Trazado 773065" d="M91.254,112.63a3.742,3.742,0,0,1,0-7.484c.1,0,.2,0,.294.012a.708.708,0,1,1-.116,1.412q-.088-.007-.178-.007a2.325,2.325,0,0,0,0,4.65c.061,0,.12,0,.179-.009a.709.709,0,0,1,.131,1.411c-.1.009-.206.014-.311.014Z" transform="translate(-87.512 -105.146)"/>
        </g>
        <g id="Grupo_1027813" data-name="Grupo 1027813" transform="translate(38.152 41.924)">
          <path id="Trazado_773066" data-name="Trazado 773066" d="M138.314,151.557a.708.708,0,0,1-.627-.377,3.216,3.216,0,0,1-.375-1.5v-1.034a.708.708,0,0,1,1.417,0v1.034a1.8,1.8,0,0,0,.211.836.709.709,0,0,1-.625,1.04Z" transform="translate(-137.312 -147.938)"/>
        </g>
        <g id="Grupo_1027814" data-name="Grupo 1027814" transform="translate(34.185 47.356)">
          <path id="Trazado_773067" data-name="Trazado 773067" d="M125.272,168.525H124.02a.708.708,0,1,1,0-1.417h1.252a.708.708,0,1,1,0,1.417Z" transform="translate(-123.312 -167.108)"/>
        </g>
        <g id="Grupo_1027815" data-name="Grupo 1027815" transform="translate(31.204 41.906)">
          <path id="Trazado_773068" data-name="Trazado 773068" d="M113.5,151.442a.709.709,0,0,1-.636-1.02,1.778,1.778,0,0,0,.182-.787v-1.052a.708.708,0,0,1,1.417,0v1.052a3.229,3.229,0,0,1-.325,1.408.71.71,0,0,1-.638.4Z" transform="translate(-112.793 -147.875)"/>
        </g>
        <g id="Grupo_1027816" data-name="Grupo 1027816" transform="translate(9.228 25.523)">
          <path id="Trazado_773069" data-name="Trazado 773069" d="M35.955,101.109a.708.708,0,0,1-.708-.708V90.771a.708.708,0,1,1,1.417,0V100.4A.708.708,0,0,1,35.955,101.109Z" transform="translate(-35.247 -90.063)"/>
        </g>
        <g id="Grupo_1027817" data-name="Grupo 1027817" transform="translate(2.562 24.424)">
          <path id="Trazado_773070" data-name="Trazado 773070" d="M19.1,98.66a.708.708,0,0,1-.334-.084,6.339,6.339,0,0,0-5.378-.289,1.152,1.152,0,0,1-1.089-.116,1.342,1.342,0,0,1-.573-1.123V88.14a1.327,1.327,0,0,1,.723-1.213,7.811,7.811,0,0,1,6.651.007,7.81,7.81,0,0,1,6.651-.007,1.327,1.327,0,0,1,.723,1.213v8.908a1.343,1.343,0,0,1-.573,1.123,1.151,1.151,0,0,1-1.089.116,6.341,6.341,0,0,0-5.378.289A.706.706,0,0,1,19.1,98.66Zm-3.332-2.254a7.761,7.761,0,0,1,3.332.752,7.754,7.754,0,0,1,5.957-.294v-8.7a6.387,6.387,0,0,0-5.623.184.706.706,0,0,1-.668,0,6.384,6.384,0,0,0-5.622-.185v8.7a7.756,7.756,0,0,1,2.626-.458Zm9.377-8.2h0Z" transform="translate(-11.725 -86.186)"/>
        </g>
        <g id="Grupo_1027818" data-name="Grupo 1027818" transform="translate(0 26.164)">
          <path id="Trazado_773071" data-name="Trazado 773071" d="M21.269,105.489H3.971A1.289,1.289,0,0,1,2.683,104.2V93.613a1.289,1.289,0,0,1,1.288-1.288h1.8a.708.708,0,0,1,0,1.417H4.1v10.33h17.04V93.742H19.564a.708.708,0,0,1,0-1.417h1.705a1.289,1.289,0,0,1,1.287,1.288V104.2A1.289,1.289,0,0,1,21.269,105.489Z" transform="translate(-2.683 -92.325)"/>
        </g>
        <g id="Grupo_1027819" data-name="Grupo 1027819" transform="translate(11.57 27.132)">
          <path id="Trazado_773072" data-name="Trazado 773072" d="M44.22,97.221a.709.709,0,0,1-.094-1.411,7.646,7.646,0,0,1,2.016,0,.708.708,0,1,1-.185,1.4,6.237,6.237,0,0,0-1.643,0A.677.677,0,0,1,44.22,97.221Z" transform="translate(-43.512 -95.743)"/>
        </g>
        <g id="Grupo_1027820" data-name="Grupo 1027820" transform="translate(11.57 29.556)">
          <path id="Trazado_773073" data-name="Trazado 773073" d="M44.22,105.772a.709.709,0,0,1-.094-1.411,7.645,7.645,0,0,1,2.016,0,.708.708,0,0,1-.185,1.4,6.225,6.225,0,0,0-1.643,0A.677.677,0,0,1,44.22,105.772Z" transform="translate(-43.512 -104.294)"/>
        </g>
        <g id="Grupo_1027821" data-name="Grupo 1027821" transform="translate(11.57 31.979)">
          <path id="Trazado_773074" data-name="Trazado 773074" d="M44.22,114.323a.709.709,0,0,1-.094-1.411,7.645,7.645,0,0,1,2.016,0,.708.708,0,1,1-.185,1.4,6.249,6.249,0,0,0-1.643,0,.677.677,0,0,1-.095.007Z" transform="translate(-43.512 -112.845)"/>
        </g>
        <g id="Grupo_1027822" data-name="Grupo 1027822" transform="translate(4.907 27.132)">
          <path id="Trazado_773075" data-name="Trazado 773075" d="M22.536,97.221a.726.726,0,0,1-.1-.006,6.213,6.213,0,0,0-1.643,0,.708.708,0,1,1-.185-1.4,7.621,7.621,0,0,1,2.016,0,.708.708,0,0,1-.093,1.41Z" transform="translate(-19.997 -95.743)"/>
        </g>
        <g id="Grupo_1027823" data-name="Grupo 1027823" transform="translate(4.907 29.556)">
          <path id="Trazado_773076" data-name="Trazado 773076" d="M22.536,105.772a.726.726,0,0,1-.1-.006,6.225,6.225,0,0,0-1.643,0,.708.708,0,1,1-.185-1.4,7.621,7.621,0,0,1,2.016,0,.708.708,0,0,1-.093,1.41Z" transform="translate(-19.997 -104.294)"/>
        </g>
        <g id="Grupo_1027824" data-name="Grupo 1027824" transform="translate(4.907 31.979)">
          <path id="Trazado_773077" data-name="Trazado 773077" d="M22.536,114.323a.726.726,0,0,1-.1-.006,6.225,6.225,0,0,0-1.643,0,.708.708,0,0,1-.185-1.4,7.621,7.621,0,0,1,2.016,0,.708.708,0,0,1-.093,1.41Z" transform="translate(-19.997 -112.845)"/>
        </g>
        <g id="Grupo_1027825" data-name="Grupo 1027825" transform="translate(11.567 4.251)">
          <path id="Trazado_773078" data-name="Trazado 773078" d="M50.443,24.352A7.023,7.023,0,0,1,43.5,17.267a7.221,7.221,0,0,1,.056-.9A1.562,1.562,0,0,1,45.1,15H55.782a1.562,1.562,0,0,1,1.548,1.366,7.221,7.221,0,0,1,.056.9A7.023,7.023,0,0,1,50.443,24.352ZM45.1,16.417a.143.143,0,0,0-.142.125,5.878,5.878,0,0,0-.045.725,5.528,5.528,0,1,0,11.052,0,5.854,5.854,0,0,0-.045-.724h0a.143.143,0,0,0-.142-.125Z" transform="translate(-43.5 -15)"/>
        </g>
        <g id="Grupo_1027826" data-name="Grupo 1027826" transform="translate(12.559 12.186)">
          <path id="Trazado_773079" data-name="Trazado 773079" d="M56,47.251H49.907A2.91,2.91,0,0,1,47,44.344,1.345,1.345,0,0,1,48.344,43h9.215A1.345,1.345,0,0,1,58.9,44.344,2.91,2.91,0,0,1,56,47.251Zm-7.577-2.834a1.492,1.492,0,0,0,1.488,1.417H56a1.492,1.492,0,0,0,1.488-1.417Zm9.14,0h0Z" transform="translate(-47 -43)"/>
        </g>
        <g id="Grupo_1027827" data-name="Grupo 1027827" transform="translate(14.968)">
          <path id="Trazado_773080" data-name="Trazado 773080" d="M56.208,2.834a.708.708,0,0,1-.708-.708V.708a.708.708,0,0,1,1.417,0V2.125A.708.708,0,0,1,56.208,2.834Z" transform="translate(-55.5)"/>
        </g>
        <g id="Grupo_1027828" data-name="Grupo 1027828" transform="translate(17.802)">
          <path id="Trazado_773081" data-name="Trazado 773081" d="M66.208,2.834a.708.708,0,0,1-.708-.708V.708a.708.708,0,0,1,1.417,0V2.125A.708.708,0,0,1,66.208,2.834Z" transform="translate(-65.5)"/>
        </g>
        <g id="Grupo_1027829" data-name="Grupo 1027829" transform="translate(20.635)">
          <path id="Trazado_773082" data-name="Trazado 773082" d="M76.208,2.834a.708.708,0,0,1-.708-.708V.708a.708.708,0,0,1,1.417,0V2.125A.708.708,0,0,1,76.208,2.834Z" transform="translate(-75.5)"/>
        </g>
        <g id="Grupo_1027830" data-name="Grupo 1027830" transform="translate(22.407 5.384)">
          <path id="Trazado_773083" data-name="Trazado 773083" d="M84.382,25.235H82.458a.708.708,0,0,1,0-1.417h1.923a2.685,2.685,0,0,0,2.528-1.789,1.209,1.209,0,0,0-1.14-1.612H84.159a.708.708,0,0,1,0-1.417H85.77a2.626,2.626,0,0,1,2.476,3.5A4.1,4.1,0,0,1,84.382,25.235Z" transform="translate(-81.75 -19)"/>
        </g>
        <g id="Grupo_1027831" data-name="Grupo 1027831" transform="translate(56.209 24.03)">
          <path id="Trazado_773084" data-name="Trazado 773084" d="M201.737,91.355a.709.709,0,0,1-.708-.708V87.32a.708.708,0,0,1,.56-.693l8.468-1.815a.709.709,0,0,1,.857.693v3.327a.708.708,0,0,1-.56.693l-8.468,1.815A.694.694,0,0,1,201.737,91.355Zm.708-3.462V89.77l7.052-1.511V86.382Zm7.76.939h0Z" transform="translate(-201.029 -84.797)"/>
        </g>
        <g id="Grupo_1027832" data-name="Grupo 1027832" transform="translate(64.677 27.357)">
          <path id="Trazado_773085" data-name="Trazado 773085" d="M231.62,105.514a.708.708,0,0,1-.708-.708V97.244a.708.708,0,1,1,1.417,0v7.561A.708.708,0,0,1,231.62,105.514Z" transform="translate(-230.912 -96.536)"/>
        </g>
        <g id="Grupo_1027833" data-name="Grupo 1027833" transform="translate(60.443 32.801)">
          <path id="Trazado_773086" data-name="Trazado 773086" d="M218.8,121.4a2.826,2.826,0,1,1,2.826-2.826A2.829,2.829,0,0,1,218.8,121.4Zm0-4.234a1.409,1.409,0,1,0,1.409,1.409A1.41,1.41,0,0,0,218.8,117.162Z" transform="translate(-215.97 -115.745)"/>
        </g>
        <g id="Grupo_1027834" data-name="Grupo 1027834" transform="translate(56.209 29.172)">
          <path id="Trazado_773087" data-name="Trazado 773087" d="M201.737,111.917a.708.708,0,0,1-.708-.708v-7.561a.708.708,0,1,1,1.417,0v7.561A.708.708,0,0,1,201.737,111.917Z" transform="translate(-201.029 -102.939)"/>
        </g>
        <g id="Grupo_1027835" data-name="Grupo 1027835" transform="translate(51.975 34.616)">
          <path id="Trazado_773088" data-name="Trazado 773088" d="M188.914,127.8a2.826,2.826,0,1,1,2.826-2.826A2.829,2.829,0,0,1,188.914,127.8Zm0-4.234a1.409,1.409,0,1,0,1.409,1.409,1.41,1.41,0,0,0-1.409-1.409Z" transform="translate(-186.088 -122.15)"/>
        </g>
        <g id="Grupo_1027838" data-name="Grupo 1027838" transform="translate(48.702 6.069)">
          <g id="Grupo_1027836" data-name="Grupo 1027836" transform="translate(2.103 2.36)">
            <path id="Trazado_773089" data-name="Trazado 773089" d="M182.669,33.159a.708.708,0,0,1-.5-1.209l2-2a.708.708,0,0,1,1,1l-2,2A.706.706,0,0,1,182.669,33.159Z" transform="translate(-181.96 -29.743)"/>
          </g>
          <g id="Grupo_1027837" data-name="Grupo 1027837">
            <path id="Trazado_773090" data-name="Trazado 773090" d="M175.248,24.586a.708.708,0,0,1-.5-1.209l1.754-1.754a.708.708,0,0,1,1,1l-1.754,1.754A.707.707,0,0,1,175.248,24.586Z" transform="translate(-174.539 -21.415)"/>
          </g>
        </g>
        <g id="Grupo_1027839" data-name="Grupo 1027839" transform="translate(50.54 1.832)">
          <path id="Trazado_773091" data-name="Trazado 773091" d="M184.087,14.388a.71.71,0,0,1-.5-.207l-2.355-2.355a.708.708,0,0,1-.207-.5,5.8,5.8,0,0,1,1.62-3.8,3.9,3.9,0,0,1,3.1-.829,4.077,4.077,0,0,0,1.55-.128,1.411,1.411,0,0,1,1.283.1,1.344,1.344,0,0,1,.637,1.065c.258,4.008-1.439,6.243-5.044,6.643a.658.658,0,0,1-.078,0Zm-1.626-3.336,1.879,1.879c3.283-.514,3.586-2.944,3.458-5.047a5.005,5.005,0,0,1-2.1.232c-.849-.027-1.585-.05-2.049.414A4.333,4.333,0,0,0,182.462,11.051Z" transform="translate(-181.024 -6.464)"/>
        </g>
        <g id="Grupo_1027841" data-name="Grupo 1027841" transform="translate(42.358 10.621)">
          <g id="Grupo_1027840" data-name="Grupo 1027840">
            <path id="Trazado_773092" data-name="Trazado 773092" d="M154.029,44.8a1.877,1.877,0,0,1-1.366-3.16l3.694-3.933a.709.709,0,0,1,1.033.97L153.7,42.607a.457.457,0,0,0,.646.646l4.1-3.849a.709.709,0,1,1,.97,1.033l-4.1,3.849A1.871,1.871,0,0,1,154.029,44.8Z" transform="translate(-152.153 -37.48)"/>
          </g>
        </g>
        <g id="Grupo_1027842" data-name="Grupo 1027842" transform="translate(44.346 6.114)">
          <path id="Trazado_773093" data-name="Trazado 773093" d="M162.2,27.439a1.155,1.155,0,0,1-.823-.341l-2-2a.708.708,0,0,1,1-1l1.82,1.82,1.352-1.352-1.781-1.781a.708.708,0,1,1,1-1l1.96,1.96a1.165,1.165,0,0,1,0,1.645L163.019,27.1a1.157,1.157,0,0,1-.822.34Zm1.532-2.7h0Z" transform="translate(-159.167 -21.575)"/>
        </g>
        <g id="Grupo_1027843" data-name="Grupo 1027843" transform="translate(39.816 1.832)">
          <path id="Trazado_773094" data-name="Trazado 773094" d="M148.333,14.389a.658.658,0,0,1-.078,0c-3.605-.4-5.3-2.636-5.045-6.643a1.344,1.344,0,0,1,.637-1.065,1.414,1.414,0,0,1,1.283-.1,4.07,4.07,0,0,0,1.55.128,3.9,3.9,0,0,1,3.1.829,5.8,5.8,0,0,1,1.62,3.8.71.71,0,0,1-.207.5l-2.354,2.355A.71.71,0,0,1,148.333,14.389Zm-3.713-6.495c-.126,2.1.181,4.524,3.459,5.038l1.877-1.877a4.388,4.388,0,0,0-1.183-2.524c-.464-.464-1.2-.441-2.049-.414A5.2,5.2,0,0,1,144.621,7.894Z" transform="translate(-143.185 -6.465)"/>
        </g>
        <g id="Grupo_1027844" data-name="Grupo 1027844" transform="translate(46.884 8.64)">
          <path id="Trazado_773095" data-name="Trazado 773095" d="M175.573,39.786a1.868,1.868,0,0,1-1.283-.511l-5.942-5.581a.709.709,0,1,1,.97-1.033l5.942,5.581a.457.457,0,0,0,.646-.646l-5.555-5.914a.709.709,0,0,1,1.033-.97l5.555,5.915a1.877,1.877,0,0,1-1.365,3.16Z" transform="translate(-168.125 -30.489)"/>
        </g>
        <g id="Grupo_1027847" data-name="Grupo 1027847" transform="translate(4.863 10.202)">
          <g id="Grupo_1027846" data-name="Grupo 1027846">
            <g id="Grupo_1027845" data-name="Grupo 1027845">
              <path id="Trazado_773096" data-name="Trazado 773096" d="M25.042,38.508a3.145,3.145,0,0,1-2.522-2.465c0-.057-.113-.057-.113,0a3.145,3.145,0,0,1-2.522,2.465c-.057,0-.057.085,0,.113a3.145,3.145,0,0,1,2.522,2.465c0,.057.113.057.113,0a3.145,3.145,0,0,1,2.522-2.465C25.1,38.593,25.1,38.508,25.042,38.508Z" transform="translate(-19.842 -36)" fill="#f5c84c"/>
            </g>
          </g>
        </g>
        <g id="Grupo_1027850" data-name="Grupo 1027850" transform="translate(49.718 22.345)">
          <g id="Grupo_1027849" data-name="Grupo 1027849">
            <g id="Grupo_1027848" data-name="Grupo 1027848">
              <path id="Trazado_773097" data-name="Trazado 773097" d="M181.775,80.61a2.206,2.206,0,0,1-1.77-1.73c0-.04-.08-.04-.08,0a2.206,2.206,0,0,1-1.77,1.73c-.04,0-.04.06,0,.08a2.206,2.206,0,0,1,1.77,1.73c0,.04.08.04.08,0a2.206,2.206,0,0,1,1.77-1.73C181.815,80.669,181.815,80.61,181.775,80.61Z" transform="translate(-178.126 -78.85)" fill="#70d6f9"/>
            </g>
          </g>
        </g>
        <g id="Grupo_1027853" data-name="Grupo 1027853" transform="translate(53.619 46.716)">
          <g id="Grupo_1027852" data-name="Grupo 1027852">
            <g id="Grupo_1027851" data-name="Grupo 1027851">
              <path id="Trazado_773098" data-name="Trazado 773098" d="M195.916,166.408h-.652v-.652a.913.913,0,0,0-.907-.907.9.9,0,0,0-.907.907v.652H192.8a.913.913,0,0,0-.907.907.9.9,0,0,0,.907.907h.652v.652a.913.913,0,0,0,.907.907.9.9,0,0,0,.907-.907v-.652h.652a.913.913,0,0,0,.907-.907A.9.9,0,0,0,195.916,166.408Z" transform="translate(-191.892 -164.849)" fill="#87d147"/>
            </g>
          </g>
        </g>
        <g id="Grupo_1027856" data-name="Grupo 1027856" transform="translate(9.949 19.228)">
          <g id="Grupo_1027855" data-name="Grupo 1027855">
            <g id="Grupo_1027854" data-name="Grupo 1027854">
              <ellipse id="Elipse_8682" data-name="Elipse 8682" cx="0.964" cy="0.964" rx="0.964" ry="0.964" fill="#fc657e"/>
            </g>
          </g>
        </g>
        <g id="Grupo_1027859" data-name="Grupo 1027859" transform="translate(58.692 41.615)">
          <g id="Grupo_1027858" data-name="Grupo 1027858">
            <g id="Grupo_1027857" data-name="Grupo 1027857">
              <ellipse id="Elipse_8683" data-name="Elipse 8683" cx="0.964" cy="0.964" rx="0.964" ry="0.964" fill="#f5c84c"/>
            </g>
          </g>
        </g>
        <g id="Grupo_1027860" data-name="Grupo 1027860" transform="translate(32.724 37.179)">
          <path id="Trazado_773099" data-name="Trazado 773099" d="M121.057,133.55a3.574,3.574,0,0,1-2.733-1.192.708.708,0,1,1,1.086-.91,2.323,2.323,0,0,0,3.295,0,.708.708,0,0,1,1.085.91,3.574,3.574,0,0,1-2.733,1.192Z" transform="translate(-118.158 -131.195)"/>
        </g>
        <g id="Grupo_1027861" data-name="Grupo 1027861" transform="translate(37.379 32.58)">
          <ellipse id="Elipse_8684" data-name="Elipse 8684" cx="1.032" cy="1.032" rx="1.032" ry="1.032"/>
        </g>
        <g id="Grupo_1027862" data-name="Grupo 1027862" transform="translate(31.585 32.58)">
          <ellipse id="Elipse_8685" data-name="Elipse 8685" cx="1.032" cy="1.032" rx="1.032" ry="1.032"/>
        </g>
      </g>
    </g>
  </g>
</svg>
