<svg id="Grupo_1027976" data-name="Grupo 1027976" xmlns="http://www.w3.org/2000/svg" xmlns:xlink="http://www.w3.org/1999/xlink" width="95" height="95" viewBox="0 0 95 95">
  <defs>
    <clipPath id="clip-path">
      <rect id="Rect치ngulo_360873" data-name="Rect치ngulo 360873" width="95" height="95" fill="none"/>
    </clipPath>
    <clipPath id="clip-path-2">
      <rect id="Rect치ngulo_360874" data-name="Rect치ngulo 360874" width="74.287" height="74.487" transform="translate(10.356 10.257)" fill="none"/>
    </clipPath>
  </defs>
  <g id="Grupo_1027971" data-name="Grupo 1027971">
    <g id="Grupo_1027970" data-name="Grupo 1027970" clip-path="url(#clip-path)">
      <path id="Trazado_773173" data-name="Trazado 773173" d="M83.727,83.827c-24.736-13.264-48.754-12.905-72.415,0Z" fill="#d7e8ff"/>
      <path id="Trazado_773174" data-name="Trazado 773174" d="M72.375,44.632a9.892,9.892,0,0,0-9.917-9.917H61.143v1.313a9.893,9.893,0,0,0,9.918,9.919h1.314Z" fill="#ffc408"/>
      <path id="Trazado_773175" data-name="Trazado 773175" d="M72.375,57.418A9.893,9.893,0,0,0,62.458,47.5H61.143v1.314a9.893,9.893,0,0,0,9.918,9.918h1.314Z" fill="#ffc408"/>
      <path id="Trazado_773176" data-name="Trazado 773176" d="M72.375,70.324a9.892,9.892,0,0,0-9.917-9.918H61.143v1.313a9.893,9.893,0,0,0,9.918,9.919h1.314Z" fill="#ffc408"/>
      <path id="Trazado_773177" data-name="Trazado 773177" d="M72.375,44.632a9.893,9.893,0,0,1,9.918-9.917h1.315v1.313a9.893,9.893,0,0,1-9.918,9.919H72.375Z" fill="#ffc408"/>
      <path id="Trazado_773178" data-name="Trazado 773178" d="M72.375,57.418A9.893,9.893,0,0,1,82.293,47.5h1.315v1.314a9.893,9.893,0,0,1-9.918,9.918H72.375Z" fill="#ffc408"/>
      <path id="Trazado_773179" data-name="Trazado 773179" d="M72.375,70.324a9.893,9.893,0,0,1,9.918-9.918h1.315v1.313a9.893,9.893,0,0,1-9.918,9.919H72.375Z" fill="#ffc408"/>
      <path id="Trazado_773180" data-name="Trazado 773180" d="M73.212,19.538l-.956-.956-.956.956a9.88,9.88,0,0,0,0,14.1l.956.956.956-.956a9.881,9.881,0,0,0,0-14.1" fill="#ffc408"/>
      <path id="Trazado_773181" data-name="Trazado 773181" d="M47.4,37.223a9.893,9.893,0,0,0-9.918-9.917H36.168v1.313a9.893,9.893,0,0,0,9.917,9.919H47.4Z" fill="#34cba0"/>
      <path id="Trazado_773182" data-name="Trazado 773182" d="M47.4,50.01a9.893,9.893,0,0,0-9.918-9.918H36.168V41.4a9.892,9.892,0,0,0,9.917,9.919H47.4Z" fill="#34cba0"/>
      <path id="Trazado_773183" data-name="Trazado 773183" d="M47.4,62.8a9.893,9.893,0,0,0-9.918-9.918H36.168v1.314a9.892,9.892,0,0,0,9.917,9.918H47.4Z" fill="#34cba0"/>
      <path id="Trazado_773184" data-name="Trazado 773184" d="M47.4,37.223a9.893,9.893,0,0,1,9.918-9.917h1.314v1.313a9.893,9.893,0,0,1-9.917,9.919H47.4Z" fill="#34cba0"/>
      <path id="Trazado_773185" data-name="Trazado 773185" d="M47.4,50.01a9.893,9.893,0,0,1,9.918-9.918h1.314V41.4a9.892,9.892,0,0,1-9.917,9.919H47.4Z" fill="#34cba0"/>
      <path id="Trazado_773186" data-name="Trazado 773186" d="M47.4,62.8a9.893,9.893,0,0,1,9.918-9.918h1.314v1.314a9.892,9.892,0,0,1-9.917,9.918H47.4Z" fill="#34cba0"/>
      <path id="Trazado_773187" data-name="Trazado 773187" d="M48.357,12.129l-.956-.836-.956.956a9.882,9.882,0,0,0,0,14.1l.956.956.956-.956a10.248,10.248,0,0,0,0-14.221" fill="#34cba0"/>
      <path id="Trazado_773188" data-name="Trazado 773188" d="M22.426,44.632a9.893,9.893,0,0,0-9.918-9.917h-1.2v1.313a9.893,9.893,0,0,0,9.918,9.919h1.314Z" fill="#fe502d"/>
      <path id="Trazado_773189" data-name="Trazado 773189" d="M22.426,57.418A9.893,9.893,0,0,0,12.508,47.5h-1.2v1.314a9.893,9.893,0,0,0,9.918,9.918h1.314Z" fill="#fe502d"/>
      <path id="Trazado_773190" data-name="Trazado 773190" d="M22.426,70.324a9.893,9.893,0,0,0-9.918-9.918h-1.2v1.313a9.893,9.893,0,0,0,9.918,9.919h1.314Z" fill="#fe502d"/>
      <path id="Trazado_773191" data-name="Trazado 773191" d="M22.426,44.632a9.892,9.892,0,0,1,9.917-9.917h1.315v1.313a9.893,9.893,0,0,1-9.918,9.919H22.426Z" fill="#fe502d"/>
      <path id="Trazado_773192" data-name="Trazado 773192" d="M22.426,57.418A9.893,9.893,0,0,1,32.343,47.5h1.315v1.314a9.893,9.893,0,0,1-9.918,9.918H22.426Z" fill="#fe502d"/>
      <path id="Trazado_773193" data-name="Trazado 773193" d="M22.426,70.324a9.892,9.892,0,0,1,9.917-9.918h1.315v1.313a9.893,9.893,0,0,1-9.918,9.919H22.426Z" fill="#fe502d"/>
    </g>
  </g>
  <g id="Grupo_1027973" data-name="Grupo 1027973">
    <g id="Grupo_1027972" data-name="Grupo 1027972" clip-path="url(#clip-path-2)">
      <path id="Trazado_773194" data-name="Trazado 773194" d="M23.262,19.538l-.956-.956-.956.956a9.88,9.88,0,0,0,0,14.1l.956.956.956-.956a9.879,9.879,0,0,0,0-14.1" fill="#fe502d"/>
      <path id="Trazado_773195" data-name="Trazado 773195" d="M83.727,84.664a.9.9,0,0,1-.478-.12c-23.9-12.786-48.037-12.786-71.578,0a.883.883,0,0,1-.837-1.554c24.139-13.144,48.755-13.144,73.252,0a.828.828,0,0,1,.358,1.195.743.743,0,0,1-.717.479" fill="#191919"/>
    </g>
  </g>
  <g id="Grupo_1027975" data-name="Grupo 1027975">
    <g id="Grupo_1027974" data-name="Grupo 1027974" clip-path="url(#clip-path)">
      <path id="Trazado_773196" data-name="Trazado 773196" d="M47.4,39.374H46.085A10.912,10.912,0,0,1,35.212,28.5V27.186a.942.942,0,0,1,.956-.956h1.314A10.914,10.914,0,0,1,48.356,37.1v1.314a.942.942,0,0,1-.956.956M37,28.142V28.5a9.077,9.077,0,0,0,9.081,9.081h.359v-.359a9.077,9.077,0,0,0-9.081-9.081Z" fill="#191919"/>
      <path id="Trazado_773197" data-name="Trazado 773197" d="M47.4,52.28H46.085A10.913,10.913,0,0,1,35.212,41.406V40.092a.942.942,0,0,1,.956-.956h1.314A10.914,10.914,0,0,1,48.356,50.01v1.314a1.027,1.027,0,0,1-.956.956M37,40.928v.359a9.077,9.077,0,0,0,9.081,9.081h.359V50.01a9.077,9.077,0,0,0-9.081-9.082Z" fill="#191919"/>
      <path id="Trazado_773198" data-name="Trazado 773198" d="M47.4,64.947H46.085A10.912,10.912,0,0,1,35.212,54.073V52.758a.941.941,0,0,1,.956-.955h1.314A10.913,10.913,0,0,1,48.356,62.676v1.315a.942.942,0,0,1-.956.956M37,53.714v.359a9.078,9.078,0,0,0,9.081,9.082h.359V62.8a9.078,9.078,0,0,0-9.081-9.082Z" fill="#191919"/>
      <path id="Trazado_773199" data-name="Trazado 773199" d="M48.716,39.374H47.4a.942.942,0,0,1-.956-.956V37.1A10.914,10.914,0,0,1,57.319,26.23h1.314a.942.942,0,0,1,.956.956V28.5A10.912,10.912,0,0,1,48.716,39.374m-.359-1.792h.359A9.077,9.077,0,0,0,57.8,28.5v-.359h-.359a9.077,9.077,0,0,0-9.081,9.081Z" fill="#191919"/>
      <path id="Trazado_773200" data-name="Trazado 773200" d="M48.716,52.279H47.4a.942.942,0,0,1-.956-.956V50.009A10.914,10.914,0,0,1,57.319,39.135h1.314a.942.942,0,0,1,.956.956V41.4A10.912,10.912,0,0,1,48.716,52.279m-.359-1.792h.359A9.077,9.077,0,0,0,57.8,41.4v-.358h-.359a9.077,9.077,0,0,0-9.081,9.081Z" fill="#191919"/>
      <path id="Trazado_773201" data-name="Trazado 773201" d="M48.716,64.947H47.4a.943.943,0,0,1-.956-.957V62.676A10.912,10.912,0,0,1,57.319,51.8h1.314a.941.941,0,0,1,.956.954v1.316A10.912,10.912,0,0,1,48.716,64.947m-.359-1.793h.359A9.078,9.078,0,0,0,57.8,54.073v-.359h-.359A9.078,9.078,0,0,0,48.357,62.8Z" fill="#191919"/>
      <path id="Trazado_773202" data-name="Trazado 773202" d="M47.4,28.26a.907.907,0,0,1-.6-.238l-.957-.956a10.821,10.821,0,0,1,0-15.415l.957-.956a.8.8,0,0,1,1.194,0l.957.836a11.3,11.3,0,0,1,.119,15.535l-.956.956a1.689,1.689,0,0,1-.717.238m0-15.653-.359.359a9.087,9.087,0,0,0,0,12.905l.239.239.24-.239a9.459,9.459,0,0,0,0-13.025Z" fill="#191919"/>
      <path id="Trazado_773203" data-name="Trazado 773203" d="M47.4,74.864a.942.942,0,0,1-.956-.955V27.185a.943.943,0,0,1,.956-.956.88.88,0,0,1,.956.956V73.909a1.028,1.028,0,0,1-.956.955" fill="#191919"/>
      <path id="Trazado_773204" data-name="Trazado 773204" d="M22.545,46.782H21.231A10.912,10.912,0,0,1,10.357,35.909V34.594a.942.942,0,0,1,.956-.956h1.2a10.9,10.9,0,0,1,10.873,10.4.435.435,0,0,1,.12.357v1.315c-.12.718-.477,1.075-.956,1.075M12.149,35.55v.359a9.077,9.077,0,0,0,9.082,9.081h.358a.439.439,0,0,1-.119-.358,9.078,9.078,0,0,0-9.082-9.082Z" fill="#191919"/>
      <path id="Trazado_773205" data-name="Trazado 773205" d="M22.545,59.688H21.231A10.912,10.912,0,0,1,10.357,48.815V47.5a.942.942,0,0,1,.956-.956h1.2a10.9,10.9,0,0,1,10.873,10.4.438.438,0,0,1,.12.358v1.315c-.12.6-.477,1.075-.956,1.075m-10.4-11.232v.359A9.077,9.077,0,0,0,21.231,57.9h.358a.44.44,0,0,1-.119-.359,9.078,9.078,0,0,0-9.082-9.081Z" fill="#191919"/>
      <path id="Trazado_773206" data-name="Trazado 773206" d="M22.545,72.474H21.231A10.912,10.912,0,0,1,10.357,61.6V60.286a.816.816,0,0,1,.836-.836h1.195a10.9,10.9,0,0,1,10.874,10.4.438.438,0,0,1,.119.358v1.315a.85.85,0,0,1-.836.955m-10.4-11.232V61.6a9.077,9.077,0,0,0,9.082,9.081h.358a.439.439,0,0,1-.119-.358,9.078,9.078,0,0,0-9.082-9.082Z" fill="#191919"/>
      <path id="Trazado_773207" data-name="Trazado 773207" d="M23.621,46.782H22.306a.941.941,0,0,1-.956-.955V44.512A10.914,10.914,0,0,1,32.224,33.638h1.314a.942.942,0,0,1,.956.956v1.315A10.912,10.912,0,0,1,23.621,46.782m-.359-1.792h.359A9.077,9.077,0,0,0,32.7,35.909V35.55h-.359a9.077,9.077,0,0,0-9.081,9.082Z" fill="#191919"/>
      <path id="Trazado_773208" data-name="Trazado 773208" d="M23.621,59.688H22.306a.942.942,0,0,1-.956-.956V57.418A10.914,10.914,0,0,1,32.224,46.544h1.314a.942.942,0,0,1,.956.956v1.315A10.912,10.912,0,0,1,23.621,59.688M23.262,57.9h.359A9.077,9.077,0,0,0,32.7,48.815v-.359h-.359a9.077,9.077,0,0,0-9.081,9.081Z" fill="#191919"/>
      <path id="Trazado_773209" data-name="Trazado 773209" d="M23.621,72.474H22.306a.941.941,0,0,1-.956-.955V70.2A10.914,10.914,0,0,1,32.224,59.33h1.314a.942.942,0,0,1,.956.956V61.6A10.912,10.912,0,0,1,23.621,72.474m-.359-1.792h.359A9.077,9.077,0,0,0,32.7,61.6v-.359h-.359a9.077,9.077,0,0,0-9.081,9.082Z" fill="#191919"/>
      <path id="Trazado_773210" data-name="Trazado 773210" d="M22.426,35.55a.908.908,0,0,1-.6-.238l-1.077-.956a10.821,10.821,0,0,1,0-15.415l.957-.956a.866.866,0,0,1,1.195,0l.956.956a10.846,10.846,0,0,1,3.226,7.767,10.387,10.387,0,0,1-3.226,7.528l-.956.956c-.12.239-.239.358-.478.358m0-15.654-.24.24a9.087,9.087,0,0,0,0,12.905l.24.239.239-.239a9.61,9.61,0,0,0,2.748-6.333,9.124,9.124,0,0,0-2.748-6.572Z" fill="#191919"/>
      <path id="Trazado_773211" data-name="Trazado 773211" d="M22.426,79.167a.942.942,0,0,1-.956-.956V34.594a.943.943,0,0,1,.956-.956.879.879,0,0,1,.955.956V78.331a1.013,1.013,0,0,1-.955.836" fill="#191919"/>
      <path id="Trazado_773212" data-name="Trazado 773212" d="M72.375,46.782H71.061A10.912,10.912,0,0,1,60.187,35.909V34.594a.942.942,0,0,1,.956-.956h1.315A10.912,10.912,0,0,1,73.331,44.512v1.315a.878.878,0,0,1-.956.955M62.1,35.55v.359A9.077,9.077,0,0,0,71.18,44.99h.359v-.358a9.077,9.077,0,0,0-9.081-9.082Z" fill="#191919"/>
      <path id="Trazado_773213" data-name="Trazado 773213" d="M72.375,59.688H71.061A10.912,10.912,0,0,1,60.187,48.815V47.5a.942.942,0,0,1,.956-.956h1.315A10.912,10.912,0,0,1,73.331,57.418v1.314a.942.942,0,0,1-.956.956M62.1,48.456v.359A9.077,9.077,0,0,0,71.18,57.9h.359v-.359a9.077,9.077,0,0,0-9.081-9.081Z" fill="#191919"/>
      <path id="Trazado_773214" data-name="Trazado 773214" d="M72.375,72.474H71.061A10.912,10.912,0,0,1,60.187,61.6V60.286a.942.942,0,0,1,.956-.956h1.315A10.912,10.912,0,0,1,73.331,70.2v1.315a.878.878,0,0,1-.956.955M62.1,61.242V61.6a9.077,9.077,0,0,0,9.081,9.081h.359v-.358a9.077,9.077,0,0,0-9.081-9.082Z" fill="#191919"/>
      <path id="Trazado_773215" data-name="Trazado 773215" d="M73.69,46.782H72.375a.941.941,0,0,1-.955-.955V44.512A10.913,10.913,0,0,1,82.293,33.638h1.315a.943.943,0,0,1,.956.956v1.315A10.912,10.912,0,0,1,73.69,46.782m-.359-1.792h.359a9.078,9.078,0,0,0,9.082-9.081V35.55h-.359a9.078,9.078,0,0,0-9.082,9.082Z" fill="#191919"/>
      <path id="Trazado_773216" data-name="Trazado 773216" d="M73.69,59.688H72.375a.941.941,0,0,1-.955-.956V57.418A10.913,10.913,0,0,1,82.293,46.544h1.315a.942.942,0,0,1,.956.956v1.315A10.912,10.912,0,0,1,73.69,59.688M73.331,57.9h.359a9.078,9.078,0,0,0,9.082-9.081v-.359h-.359a9.078,9.078,0,0,0-9.082,9.081Z" fill="#191919"/>
      <path id="Trazado_773217" data-name="Trazado 773217" d="M73.69,72.474H72.375a.941.941,0,0,1-.955-.955V70.2A10.913,10.913,0,0,1,82.293,59.33h1.315a.942.942,0,0,1,.956.956V61.6A10.912,10.912,0,0,1,73.69,72.474m-.359-1.792h.359A9.078,9.078,0,0,0,82.772,61.6v-.359h-.359a9.078,9.078,0,0,0-9.082,9.082Z" fill="#191919"/>
      <path id="Trazado_773218" data-name="Trazado 773218" d="M72.256,35.55a.91.91,0,0,1-.6-.238l-.957-.956a10.819,10.819,0,0,1,0-15.415l.957-.956a.865.865,0,0,1,1.194,0l.957.956a10.85,10.85,0,0,1,3.226,7.767,10.387,10.387,0,0,1-3.226,7.528l-.957.956a.655.655,0,0,1-.6.358m0-15.654-.239.24a9.087,9.087,0,0,0,0,12.905l.239.239.239-.239a9.61,9.61,0,0,0,2.748-6.333A9.124,9.124,0,0,0,72.5,20.136Z" fill="#191919"/>
      <path id="Trazado_773219" data-name="Trazado 773219" d="M72.375,79.167a.942.942,0,0,1-.955-.956V34.594a.943.943,0,0,1,.955-.956.88.88,0,0,1,.956.956V78.331a.853.853,0,0,1-.956.836" fill="#191919"/>
    </g>
  </g>
</svg>
