<svg id="Grupo_1028018" data-name="Grupo 1028018" xmlns="http://www.w3.org/2000/svg" xmlns:xlink="http://www.w3.org/1999/xlink" width="95" height="95" viewBox="0 0 95 95">
  <defs>
    <clipPath id="clip-path">
      <rect id="Rectángulo_360965" data-name="Rectángulo 360965" width="95" height="95" fill="none"/>
    </clipPath>
  </defs>
  <g id="Grupo_1028017" data-name="Grupo 1028017" clip-path="url(#clip-path)">
    <path id="Trazado_773733" data-name="Trazado 773733" d="M35.248,68.272,20.456,76.657A7.485,7.485,0,0,1,15.932,77.9l-2.043.127c-4.329.275-4.112,6.618-.476,6.618H52.644c6.826,0,7.557-5.461,6.363-11.283-.892-4.6-.757-11.953.2-25.851L62.32,10.355H35.652l.411,8.042,1.5,29.113L38.3,61.865c.163,3.161-.382,4.89-3.053,6.407" fill="#ffbd86" fill-rule="evenodd"/>
    <path id="Trazado_773734" data-name="Trazado 773734" d="M58.748,54.824h2.319a1.4,1.4,0,0,0,1.4-1.394V41.591a1.4,1.4,0,0,0-1.4-1.394H55.821V43.57a2.454,2.454,0,0,1-2.451,2.445H43.375a2.452,2.452,0,0,1-2.451-2.445V40.2H35.677a1.4,1.4,0,0,0-1.4,1.394V53.43a1.4,1.4,0,0,0,1.4,1.394H58.748Z" fill="#554e56" fill-rule="evenodd"/>
    <path id="Trazado_773735" data-name="Trazado 773735" d="M55.821,40.2h-14.9V43.57a2.452,2.452,0,0,0,2.451,2.445h10a2.455,2.455,0,0,0,2.451-2.445Z" fill="#fe502d" fill-rule="evenodd"/>
    <path id="Trazado_773736" data-name="Trazado 773736" d="M75.064,54.149a4.445,4.445,0,0,1-1.309-.2l-3.8-1.174a4.426,4.426,0,1,1,2.619-8.455l3.8,1.173A4.436,4.436,0,0,1,79.3,51.033h0a4.441,4.441,0,0,1-4.235,3.115m-3.8-7.784a2.182,2.182,0,0,0-.649,4.269l3.805,1.174a2.2,2.2,0,0,0,2.742-1.44,2.193,2.193,0,0,0-1.449-2.731l-3.8-1.174a2.183,2.183,0,0,0-.648-.1M78.229,50.7h0Z"/>
    <path id="Trazado_773737" data-name="Trazado 773737" d="M48.116,78.3a6.653,6.653,0,0,1-3.019-.786,1.121,1.121,0,0,1,1.016-2c1.646.837,3.189.681,4.128-.417a2.955,2.955,0,0,0,.063-3.71,1.121,1.121,0,1,1,1.816-1.314,5.226,5.226,0,0,1-.175,6.481A5,5,0,0,1,48.116,78.3"/>
    <path id="Trazado_773738" data-name="Trazado 773738" d="M53.37,47.136h-10A3.574,3.574,0,0,1,39.8,43.57V40.2a1.121,1.121,0,0,1,2.242,0V43.57a1.329,1.329,0,0,0,1.33,1.324h10A1.329,1.329,0,0,0,54.7,43.57V40.2a1.121,1.121,0,0,1,2.242,0V43.57a3.573,3.573,0,0,1-3.572,3.566"/>
    <path id="Trazado_773739" data-name="Trazado 773739" d="M79.776,57.763a1.121,1.121,0,0,1-1.039-.7l-2.026-4.983a1.121,1.121,0,1,1,2.077-.844l2.026,4.982a1.122,1.122,0,0,1-1.038,1.544"/>
    <path id="Trazado_773740" data-name="Trazado 773740" d="M81.023,68.239a4.437,4.437,0,0,1-4.366-3.669l-.684-3.914a4.441,4.441,0,0,1,3.609-5.119h0a4.446,4.446,0,0,1,5.126,3.6l.68,3.917a4.435,4.435,0,0,1-3.609,5.119,4.559,4.559,0,0,1-.759.065M79.967,57.746a2.193,2.193,0,0,0-1.784,2.526l.683,3.914a2.19,2.19,0,0,0,3.948.88,2.152,2.152,0,0,0,.369-1.625l-.68-3.917a2.2,2.2,0,0,0-2.536-1.778"/>
    <path id="Trazado_773741" data-name="Trazado 773741" d="M80.805,73.749a1.21,1.21,0,0,1-.158-.011,1.121,1.121,0,0,1-.953-1.267l.785-5.559a1.121,1.121,0,1,1,2.22.314l-.785,5.559a1.123,1.123,0,0,1-1.109.964"/>
    <path id="Trazado_773742" data-name="Trazado 773742" d="M79.786,84.261a4.53,4.53,0,0,1-.622-.044,4.435,4.435,0,0,1-3.77-5l.557-3.936a4.431,4.431,0,0,1,7.931-2.036,4.383,4.383,0,0,1,.848,3.274l-.556,3.935a4.44,4.44,0,0,1-4.388,3.807m.554-10.544A2.192,2.192,0,0,0,78.171,75.6l-.557,3.936A2.193,2.193,0,0,0,79.477,82a2.191,2.191,0,0,0,2.476-1.857L82.51,76.2a2.2,2.2,0,0,0-1.863-2.466,2.3,2.3,0,0,0-.307-.021"/>
    <path id="Trazado_773743" data-name="Trazado 773743" d="M68.093,48.695H62.464a1.121,1.121,0,1,1,0-2.242h5.629a1.121,1.121,0,0,1,0,2.242"/>
    <path id="Trazado_773744" data-name="Trazado 773744" d="M59.818,40.2h-2a1.4,1.4,0,0,1,1.4,1.394V53.429a1.382,1.382,0,0,1-.446,1.021,1.415,1.415,0,0,1-.952.373h3.25a1.4,1.4,0,0,0,1.4-1.394V41.591a1.4,1.4,0,0,0-1.4-1.394Z" fill="#433f43" fill-rule="evenodd"/>
    <path id="Trazado_773745" data-name="Trazado 773745" d="M58.042,10.356,55.54,40.2h4.278l2.5-29.842Z" fill="#f6a96c" fill-rule="evenodd"/>
    <path id="Trazado_773746" data-name="Trazado 773746" d="M57.817,54.824H54.47c-.51,9.3-.463,14.821.263,18.537,1.189,5.822.459,11.284-6.368,11.284h4.278c6.827,0,7.557-5.462,6.363-11.284-.722-3.716-.773-9.232-.259-18.537Z" fill="#f6a96c" fill-rule="evenodd"/>
    <path id="Trazado_773747" data-name="Trazado 773747" d="M61.067,55.945H50.608a1.121,1.121,0,1,1,0-2.242H61.067a.279.279,0,0,0,.277-.273V41.592a.279.279,0,0,0-.277-.273H35.676a.278.278,0,0,0-.276.273V53.43a.278.278,0,0,0,.276.273h9.745a1.121,1.121,0,0,1,0,2.242H35.676a2.519,2.519,0,0,1-2.518-2.515V41.592a2.519,2.519,0,0,1,2.518-2.515H61.067a2.52,2.52,0,0,1,2.519,2.515V53.43a2.52,2.52,0,0,1-2.519,2.515"/>
    <path id="Trazado_773748" data-name="Trazado 773748" d="M52.643,85.766H13.413a3.941,3.941,0,0,1-3.868-4.087,4.483,4.483,0,0,1,4.272-4.771L16,76.772a6.277,6.277,0,0,0,3.9-1.089L34.694,67.3c2.107-1.2,2.642-2.352,2.488-5.374l-.361-7.042a1.121,1.121,0,0,1,2.239-.115l.361,7.042c.169,3.314-.369,5.593-3.621,7.439L21.008,77.633a8.364,8.364,0,0,1-4.863,1.376l-2.187.137a2.232,2.232,0,0,0-2.173,2.462c.023.711.39,1.916,1.628,1.916h39.23c2.11,0,3.586-.55,4.509-1.681,1.28-1.571,1.542-4.426.757-8.256-.731-3.76-.812-9.211-.281-18.824a1.122,1.122,0,0,1,2.24.123c-.521,9.417-.451,14.707.239,18.262.936,4.566.527,7.972-1.218,10.112-1.357,1.663-3.458,2.506-6.246,2.506M37.183,41.319a1.12,1.12,0,0,1-1.118-1.064l-.841-16.4a1.121,1.121,0,0,1,2.239-.115l.841,16.4a1.122,1.122,0,0,1-1.062,1.177h-.059m22.636,0c-.031,0-.062,0-.1,0A1.121,1.121,0,0,1,58.7,40.1l2.5-29.841a1.121,1.121,0,0,1,2.235.187l-2.5,29.842a1.121,1.121,0,0,1-1.116,1.027M36.083,19.875a1.121,1.121,0,0,1-1.119-1.063l-.433-8.4A1.121,1.121,0,0,1,36.77,10.3l.434,8.4a1.122,1.122,0,0,1-1.062,1.178h-.059"/>
  </g>
</svg>
