<svg id="Grupo_1027978" data-name="Grupo 1027978" xmlns="http://www.w3.org/2000/svg" xmlns:xlink="http://www.w3.org/1999/xlink" width="95" height="95" viewBox="0 0 95 95">
  <defs>
    <clipPath id="clip-path">
      <rect id="Rectángulo_360881" data-name="Rectángulo 360881" width="95" height="95" fill="none"/>
    </clipPath>
  </defs>
  <g id="Grupo_1027977" data-name="Grupo 1027977" clip-path="url(#clip-path)">
    <path id="Trazado_773220" data-name="Trazado 773220" d="M26.827,55.387H23.721l-.24-2.031a9.38,9.38,0,0,1-3.7-1.554L18.1,53.117l-2.151-2.151,1.314-1.674a8.483,8.483,0,0,1-1.553-3.7l-2.032-.238V42.362l1.913-.478a9.926,9.926,0,0,1,1.553-3.824l-1.314-1.673,1.912-1.912,1.672,1.195a11.813,11.813,0,0,1,3.944-1.792l.239-2.032h3.107l.239,2.032A7.941,7.941,0,0,1,30.89,35.67l1.673-1.195,1.912,1.912L33.28,38.06a8.938,8.938,0,0,1,1.553,3.824l2.032.238V45.11l-2.032.24a9.38,9.38,0,0,1-1.553,3.7l1.314,1.674-2.151,2.15-1.672-1.314a9.121,9.121,0,0,1-3.7,1.554Z" fill="#34cba0"/>
    <path id="Trazado_773221" data-name="Trazado 773221" d="M28.381,43.676a3.107,3.107,0,1,1-3.107-3.106,3.107,3.107,0,0,1,3.107,3.106" fill="#fff"/>
    <path id="Trazado_773222" data-name="Trazado 773222" d="M26.827,56.223H23.721a.817.817,0,0,1-.838-.836l-.118-1.434A9.729,9.729,0,0,1,19.9,52.758l-1.075.837a.919.919,0,0,1-1.195-.12l-2.151-2.15a.918.918,0,0,1-.119-1.195l.836-1.076A11.346,11.346,0,0,1,15,46.186l-1.434-.12a.9.9,0,0,1-.837-.837V42.243a.791.791,0,0,1,.718-.837l1.433-.358a11.963,11.963,0,0,1,1.2-2.988l-.956-1.195a.919.919,0,0,1,.12-1.2l1.912-1.913a.921.921,0,0,1,1.195-.118l1.195.836a9.069,9.069,0,0,1,3.107-1.315l.12-1.433a.9.9,0,0,1,.836-.837h3.107a.817.817,0,0,1,.836.837l.119,1.433A8.176,8.176,0,0,1,30.771,34.6l1.075-.838a.92.92,0,0,1,1.195.121l1.912,1.912a.919.919,0,0,1,.12,1.195l-.717,1.075a11.179,11.179,0,0,1,1.195,2.988l1.433.119a.9.9,0,0,1,.837.837v2.987a.815.815,0,0,1-.837.835l-1.433.24a9.794,9.794,0,0,1-1.195,2.869l.836,1.075a.92.92,0,0,1-.119,1.2l-2.151,2.151a.917.917,0,0,1-1.2.119l-1.076-.836A19.189,19.189,0,0,1,27.9,53.834l-.12,1.673c0,.358-.477.716-.956.716m-2.27-1.792h1.434L26.111,53a1.023,1.023,0,0,1,.716-.836,9.328,9.328,0,0,0,3.346-1.315.9.9,0,0,1,1.075,0l.956.836,1.076-1.075-.837-.956a.9.9,0,0,1,0-1.075,8.834,8.834,0,0,0,1.315-3.347.9.9,0,0,1,.836-.716l1.315-.119V42.84l-1.315-.12A1.027,1.027,0,0,1,33.758,42a9.956,9.956,0,0,0-1.315-3.466.9.9,0,0,1,0-1.075l.837-.957-.837-.836-.955.718a.9.9,0,0,1-1.076,0,7.583,7.583,0,0,0-3.465-1.555A.893.893,0,0,1,26.23,34l-.239-1.315H24.437L24.318,34a.772.772,0,0,1-.717.716,12.454,12.454,0,0,0-3.585,1.554.9.9,0,0,1-1.075,0l-.956-.719-.837.839.837.955a.939.939,0,0,1,.119.956,11.866,11.866,0,0,0-1.434,3.465c0,.359-.359.6-.717.717l-1.314.359v1.554l1.314.119a1.027,1.027,0,0,1,.837.716A8.456,8.456,0,0,0,18.1,48.576a.891.891,0,0,1,0,1.075l-.837.956,1.076,1.075.956-.836a.9.9,0,0,1,1.076,0,8.822,8.822,0,0,0,3.346,1.315.9.9,0,0,1,.716.836Z" fill="#191919"/>
    <path id="Trazado_773223" data-name="Trazado 773223" d="M25.273,47.74a4.063,4.063,0,1,1,4.063-4.064,4.106,4.106,0,0,1-4.063,4.064m0-6.334A2.268,2.268,0,0,0,23,43.676a2.271,2.271,0,1,0,4.541,0,2.269,2.269,0,0,0-2.271-2.27" fill="#191919"/>
    <path id="Trazado_773224" data-name="Trazado 773224" d="M20.493,27.664h-2.15L18.1,26.23a5.353,5.353,0,0,1-2.509-1.076L14.4,26.11l-1.553-1.433.956-1.195a6.975,6.975,0,0,1-1.076-2.749l-1.434-.12V18.582l1.434-.239A6.438,6.438,0,0,1,13.8,15.714l-.837-1.195L14.4,13.086l1.195.836a6.608,6.608,0,0,1,2.629-1.195l.239-1.434h2.151l.12,1.434a7.123,7.123,0,0,1,2.747,1.195l1.195-.836,1.435,1.433-.956,1.195a5.725,5.725,0,0,1,1.075,2.509l1.434.24v2.031l-1.434.239a5.352,5.352,0,0,1-1.075,2.51l.956,1.195L24.556,26.11l-1.194-.956a5.731,5.731,0,0,1-2.51,1.076Z" fill="#2d54fe"/>
    <path id="Trazado_773225" data-name="Trazado 773225" d="M21.449,19.538a2.031,2.031,0,1,1-2.031-2.031,2.031,2.031,0,0,1,2.031,2.031" fill="#fff"/>
    <path id="Trazado_773226" data-name="Trazado 773226" d="M20.494,28.619h-2.15a.8.8,0,0,1-.838-.717l-.119-.836a7.094,7.094,0,0,1-1.673-.718L15,26.827a.919.919,0,0,1-1.195-.12l-1.554-1.554a.919.919,0,0,1-.12-1.195l.6-.716a11.25,11.25,0,0,1-.716-1.792h-.717a.818.818,0,0,1-.837-.838V18.581a1.043,1.043,0,0,1,.718-.956l.836-.119a11.25,11.25,0,0,1,.716-1.792l-.477-.6a.919.919,0,0,1,.12-1.2L13.8,12.487A.921.921,0,0,1,15,12.367l.477.6a7.052,7.052,0,0,1,1.912-.836l.119-.837a1.043,1.043,0,0,1,.957-.717h2.151a.817.817,0,0,1,.836.836l.12.718a9.172,9.172,0,0,1,1.911.836l.718-.478a.92.92,0,0,1,1.195.119l1.433,1.434a.919.919,0,0,1,.12,1.195l-.478.6a5.082,5.082,0,0,1,.717,1.673l.717.119a.874.874,0,0,1,.717.837v2.031a.8.8,0,0,1-.717.837l-.837.12a7.024,7.024,0,0,1-.716,1.672l.477.718a.92.92,0,0,1-.119,1.195l-1.553,1.552a.919.919,0,0,1-1.2.12l-.6-.477a5.651,5.651,0,0,1-1.792.716l-.239.956a.8.8,0,0,1-.837.717M19.06,26.827h.717l.239-.837a1.079,1.079,0,0,1,.718-.717,5.375,5.375,0,0,0,2.15-.836.894.894,0,0,1,1.076,0l.477.478.359-.359-.478-.478a.9.9,0,0,1,0-1.076,7.214,7.214,0,0,0,.956-2.15.77.77,0,0,1,.717-.717l.6-.12V19.3l-.6-.12c-.359-.119-.717-.359-.717-.717a5.341,5.341,0,0,0-.837-2.151.9.9,0,0,1,0-1.076l.479-.478-.24-.238-.6.358a.9.9,0,0,1-1.075,0,4.814,4.814,0,0,0-2.51-.956,1.22,1.22,0,0,1-.6-.956v-.6H19.18l-.12.6a.771.771,0,0,1-.716.717,5.041,5.041,0,0,0-2.271,1.075.9.9,0,0,1-1.075,0l-.479-.358-.358.239.358.6a.72.72,0,0,1,0,.956,5.028,5.028,0,0,0-.836,2.271.772.772,0,0,1-.717.717l-.717.12v.477h.6c.478,0,.718.359.837.836a5.372,5.372,0,0,0,.836,2.152l.12.358a.9.9,0,0,1-.12.956l-.478.478.359.359.478-.478a.894.894,0,0,1,1.076,0,7.215,7.215,0,0,0,2.15.955.771.771,0,0,1,.717.718Z" fill="#191919"/>
    <path id="Trazado_773227" data-name="Trazado 773227" d="M19.418,22.525a2.987,2.987,0,1,1,0-5.974,3.119,3.119,0,0,1,2.987,2.987,3.034,3.034,0,0,1-2.987,2.987m0-4.182a1.2,1.2,0,0,0-1.195,1.195,1.2,1.2,0,1,0,1.195-1.195" fill="#191919"/>
    <path id="Trazado_773228" data-name="Trazado 773228" d="M74.148,83.946h-53.3a9.559,9.559,0,1,1,0-19.119h53.3a9.559,9.559,0,1,1,0,19.119" fill="#fff"/>
    <path id="Trazado_773229" data-name="Trazado 773229" d="M24.8,74.267a4.182,4.182,0,1,1-4.182-4.182A4.182,4.182,0,0,1,24.8,74.267" fill="#fe502d"/>
    <path id="Trazado_773230" data-name="Trazado 773230" d="M38.3,74.267a4.182,4.182,0,1,1-4.182-4.182A4.182,4.182,0,0,1,38.3,74.267" fill="#34cba0"/>
    <path id="Trazado_773231" data-name="Trazado 773231" d="M51.682,74.267A4.182,4.182,0,1,1,47.5,70.085a4.182,4.182,0,0,1,4.182,4.182" fill="#2d54fe"/>
    <path id="Trazado_773232" data-name="Trazado 773232" d="M65.066,74.267a4.183,4.183,0,1,1-4.182-4.182,4.182,4.182,0,0,1,4.182,4.182" fill="#ffc408"/>
    <path id="Trazado_773233" data-name="Trazado 773233" d="M78.569,74.267a4.182,4.182,0,1,1-4.182-4.182,4.182,4.182,0,0,1,4.182,4.182" fill="#d4d6e8"/>
    <rect id="Rectángulo_360876" data-name="Rectángulo 360876" width="5.736" height="5.019" transform="translate(21.449 59.689)" fill="#d7e8ff"/>
    <rect id="Rectángulo_360877" data-name="Rectángulo 360877" width="5.735" height="5.019" transform="translate(36.865 59.689)" fill="#d7e8ff"/>
    <rect id="Rectángulo_360878" data-name="Rectángulo 360878" width="5.735" height="5.019" transform="translate(52.4 59.689)" fill="#d7e8ff"/>
    <rect id="Rectángulo_360879" data-name="Rectángulo 360879" width="5.736" height="5.019" transform="translate(67.814 59.689)" fill="#d7e8ff"/>
    <path id="Trazado_773234" data-name="Trazado 773234" d="M74.148,84.783h-53.3a10.515,10.515,0,1,1,0-21.031h53.3A10.455,10.455,0,0,1,84.664,74.267,10.609,10.609,0,0,1,74.148,84.783m-53.3-19.239a8.723,8.723,0,0,0,0,17.447h53.3a8.723,8.723,0,0,0,0-17.447Z" fill="#191919"/>
    <path id="Trazado_773235" data-name="Trazado 773235" d="M20.613,79.286a5.019,5.019,0,1,1,5.019-5.019,5.049,5.049,0,0,1-5.019,5.019m0-8.245a3.226,3.226,0,1,0,3.226,3.226,3.213,3.213,0,0,0-3.226-3.226" fill="#191919"/>
    <path id="Trazado_773236" data-name="Trazado 773236" d="M34.117,79.286a5.019,5.019,0,1,1,5.019-5.019,5.049,5.049,0,0,1-5.019,5.019m0-8.245a3.226,3.226,0,1,0,3.226,3.226,3.213,3.213,0,0,0-3.226-3.226" fill="#191919"/>
    <path id="Trazado_773237" data-name="Trazado 773237" d="M47.5,79.286a5.019,5.019,0,1,1,5.019-5.019A5.049,5.049,0,0,1,47.5,79.286m0-8.245a3.226,3.226,0,1,0,3.226,3.226A3.213,3.213,0,0,0,47.5,71.041" fill="#191919"/>
    <path id="Trazado_773238" data-name="Trazado 773238" d="M60.883,79.286A5.019,5.019,0,1,1,65.9,74.267a4.9,4.9,0,0,1-5.019,5.019m0-8.245a3.226,3.226,0,1,0,3.226,3.226,3.072,3.072,0,0,0-3.226-3.226" fill="#191919"/>
    <path id="Trazado_773239" data-name="Trazado 773239" d="M74.387,79.286a5.019,5.019,0,1,1,5.019-5.019,5.049,5.049,0,0,1-5.019,5.019m0-8.245a3.226,3.226,0,1,0,3.226,3.226,3.213,3.213,0,0,0-3.226-3.226" fill="#191919"/>
    <path id="Trazado_773240" data-name="Trazado 773240" d="M83.827,60.525H11.293a.944.944,0,0,1-.957-.956.88.88,0,0,1,.957-.956H83.708a.942.942,0,0,1,.956.956.852.852,0,0,1-.837.956" fill="#191919"/>
    <path id="Trazado_773241" data-name="Trazado 773241" d="M27.186,65.544H21.449a.943.943,0,0,1-.956-.956V59.569a.943.943,0,0,1,.956-.956h5.737a.943.943,0,0,1,.956.956v5.019a.943.943,0,0,1-.956.956m-4.9-1.793H26.23V60.525H22.286Z" fill="#191919"/>
    <path id="Trazado_773242" data-name="Trazado 773242" d="M42.6,65.544H36.865a.943.943,0,0,1-.956-.956V59.569a.943.943,0,0,1,.956-.956H42.6a.942.942,0,0,1,.956.956v5.019a.942.942,0,0,1-.956.956m-4.9-1.793h3.944V60.525H37.7Z" fill="#191919"/>
    <path id="Trazado_773243" data-name="Trazado 773243" d="M58.135,65.544H52.4a.942.942,0,0,1-.956-.956V59.569a.942.942,0,0,1,.956-.956h5.735a.943.943,0,0,1,.956.956v5.019a.943.943,0,0,1-.956.956m-4.9-1.793H57.18V60.525H53.236Z" fill="#191919"/>
    <path id="Trazado_773244" data-name="Trazado 773244" d="M73.551,65.544H67.814a.943.943,0,0,1-.956-.956V59.569a.943.943,0,0,1,.956-.956h5.737a.943.943,0,0,1,.956.956v5.019a.943.943,0,0,1-.956.956m-4.9-1.793H72.6V60.525H68.651Z" fill="#191919"/>
    <path id="Trazado_773245" data-name="Trazado 773245" d="M64.707,55.387H58.852l-.6-3.944a20.377,20.377,0,0,1-7.05-2.867L48.1,50.966,44.035,46.9l2.27-3.106a18.316,18.316,0,0,1-2.868-7.051l-3.943-.477V30.531l3.943-.477A20.391,20.391,0,0,1,46.305,23L44.035,19.9l3.585-3.7,3.106,2.271a18.7,18.7,0,0,1,7.409-3.227l.478-3.943h5.855l.479,3.943a16.172,16.172,0,0,1,7.408,3.346l3.107-2.27,3.585,3.7-2.27,3.107a18.317,18.317,0,0,1,2.867,7.05l3.825.478v5.736l-3.705.358A20.4,20.4,0,0,1,76.9,43.8l2.39,3.106-3.943,4.064-3.107-2.39a16.625,16.625,0,0,1-7.05,2.867Z" fill="#fe502d"/>
    <path id="Trazado_773246" data-name="Trazado 773246" d="M64.708,56.223H58.853a.817.817,0,0,1-.837-.836l-.358-3.346a19.976,19.976,0,0,1-6.214-2.509l-2.629,2.031a.92.92,0,0,1-1.195-.119l-4.063-4.063a.917.917,0,0,1-.119-1.195l1.911-2.629a20,20,0,0,1-2.509-6.214l-3.346-.358a.9.9,0,0,1-.836-.838V30.413a.817.817,0,0,1,.836-.838l3.346-.357A19.991,19.991,0,0,1,45.349,23l-1.911-2.629a.917.917,0,0,1,.119-1.195l3.585-3.7a.92.92,0,0,1,1.2-.121l2.628,1.913A20.329,20.329,0,0,1,57.538,14.4l.358-3.347a.9.9,0,0,1,.837-.837h5.856a.818.818,0,0,1,.836.837l.359,3.228a18.687,18.687,0,0,1,6.572,2.866l2.629-1.671a.918.918,0,0,1,1.195.119l3.585,3.7a.919.919,0,0,1,.119,1.194l-1.912,2.63a20.013,20.013,0,0,1,2.51,6.214l3.226.358a.9.9,0,0,1,.836.837v5.736a.817.817,0,0,1-.836.836l-3.226.359a20.007,20.007,0,0,1-2.51,6.213L80,46.305a.92.92,0,0,1-.119,1.195l-3.943,4.063a.917.917,0,0,1-1.195.119l-2.629-2.031a17.9,17.9,0,0,1-6.214,2.51l-.358,3.346a.79.79,0,0,1-.837.716M59.57,54.431h4.3l.359-3.106a1.028,1.028,0,0,1,.717-.838,16.842,16.842,0,0,0,6.692-2.747.894.894,0,0,1,1.076,0l2.509,1.911,2.868-2.867-1.912-2.51a.9.9,0,0,1,0-1.075,16.271,16.271,0,0,0,2.748-6.693c.119-.359.359-.716.717-.716l2.987-.359V31.368l-2.987-.358a.771.771,0,0,1-.717-.717A19.328,19.328,0,0,0,76.18,23.6a.9.9,0,0,1,0-1.075l1.912-2.51-2.51-2.629-2.51,1.792a.9.9,0,0,1-1.075,0,16.838,16.838,0,0,0-7.05-3.106.9.9,0,0,1-.717-.837l-.359-3.106H59.45l-.359,3.225a.771.771,0,0,1-.716.718,18.125,18.125,0,0,0-7.051,3.106.9.9,0,0,1-1.075,0l-2.51-1.792L45.23,20.016l1.912,2.51a.9.9,0,0,1,0,1.075,16.269,16.269,0,0,0-2.749,6.692c-.119.359-.358.717-.716.717l-3.108.358v4.063l3.108.359a1.024,1.024,0,0,1,.836.716A19.342,19.342,0,0,0,47.262,43.2a.9.9,0,0,1,0,1.075l-1.913,2.51,2.988,2.987,2.51-1.912a.9.9,0,0,1,1.075,0,16.267,16.267,0,0,0,6.692,2.748.894.894,0,0,1,.716.837Z" fill="#191919"/>
    <path id="Trazado_773247" data-name="Trazado 773247" d="M67.576,42.481H55.865a3.34,3.34,0,0,1-3.346-3.346V27.544A3.341,3.341,0,0,1,55.865,24.2H67.576a3.34,3.34,0,0,1,3.346,3.346V39.255a3.239,3.239,0,0,1-3.346,3.226" fill="#fff"/>
    <rect id="Rectángulo_360880" data-name="Rectángulo 360880" width="9.56" height="9.56" transform="translate(56.94 28.62)" fill="#d7e8ff"/>
    <path id="Trazado_773248" data-name="Trazado 773248" d="M67.814,29.575l-2.031-1.911-2.031,1.911V24.2h4.062Z" fill="#34cba0"/>
    <path id="Trazado_773249" data-name="Trazado 773249" d="M67.576,43.437H55.865a4.284,4.284,0,0,1-4.3-4.3V27.544a4.283,4.283,0,0,1,4.3-4.3H67.576a4.282,4.282,0,0,1,4.3,4.3V39.255a4.257,4.257,0,0,1-4.3,4.182M55.865,25.154a2.525,2.525,0,0,0-2.51,2.51V39.255a2.525,2.525,0,0,0,2.51,2.51H67.576a2.425,2.425,0,0,0,2.509-2.39V27.664a2.524,2.524,0,0,0-2.509-2.51Z" fill="#191919"/>
  </g>
</svg>
