<svg id="Grupo_1028024" data-name="Grupo 1028024" xmlns="http://www.w3.org/2000/svg" xmlns:xlink="http://www.w3.org/1999/xlink" width="95" height="95" viewBox="0 0 95 95">
  <defs>
    <clipPath id="clip-path">
      <rect id="Rectángulo_360968" data-name="Rectángulo 360968" width="95" height="95" fill="none"/>
    </clipPath>
  </defs>
  <g id="Grupo_1028023" data-name="Grupo 1028023" clip-path="url(#clip-path)">
    <path id="Trazado_773805" data-name="Trazado 773805" d="M78.844,61.306A11.352,11.352,0,1,1,67.492,72.658,11.351,11.351,0,0,1,78.844,61.306" fill="#f5f8f9"/>
    <path id="Trazado_773806" data-name="Trazado 773806" d="M16.156,61.306A11.352,11.352,0,1,1,4.8,72.658,11.351,11.351,0,0,1,16.156,61.306" fill="#f5f8f9"/>
    <path id="Trazado_773807" data-name="Trazado 773807" d="M47.5,61.306A11.352,11.352,0,1,1,36.148,72.658,11.351,11.351,0,0,1,47.5,61.306" fill="#f5f8f9"/>
    <path id="Trazado_773808" data-name="Trazado 773808" d="M53.983,81.349v.628a11.355,11.355,0,0,1-12.967,0v-.628a6.484,6.484,0,1,1,12.967,0Z" fill="#2d54fe"/>
    <path id="Trazado_773809" data-name="Trazado 773809" d="M48.43,82.331a11.251,11.251,0,0,0,2.507,1.15,11.363,11.363,0,0,1-9.919-1.505v-.5a6.564,6.564,0,0,1,6.375-6.607,6.454,6.454,0,0,1,3.544.983,6.478,6.478,0,0,0-3.047,5.5,1.151,1.151,0,0,0,.54.982" fill="#204ae2"/>
    <path id="Trazado_773810" data-name="Trazado 773810" d="M22.639,81.349v.628a11.355,11.355,0,0,1-12.967,0v-.628a6.484,6.484,0,1,1,12.967,0Z" fill="#fe502d"/>
    <path id="Trazado_773811" data-name="Trazado 773811" d="M17.085,82.331a11.251,11.251,0,0,0,2.507,1.15,11.363,11.363,0,0,1-9.919-1.505v-.5a6.564,6.564,0,0,1,6.374-6.607,6.455,6.455,0,0,1,3.545.983,6.477,6.477,0,0,0-3.046,5.5,1.15,1.15,0,0,0,.539.982" fill="#e53e23"/>
    <path id="Trazado_773812" data-name="Trazado 773812" d="M85.327,81.349v.628a11.355,11.355,0,0,1-12.967,0v-.628a6.484,6.484,0,1,1,12.967,0Z" fill="#ffca00"/>
    <path id="Trazado_773813" data-name="Trazado 773813" d="M79.774,82.331a11.251,11.251,0,0,0,2.507,1.15,11.363,11.363,0,0,1-9.919-1.505v-.5a6.564,6.564,0,0,1,6.375-6.607,6.454,6.454,0,0,1,3.544.983,6.478,6.478,0,0,0-3.047,5.5,1.151,1.151,0,0,0,.54.982" fill="#c99900"/>
    <path id="Trazado_773814" data-name="Trazado 773814" d="M47.5,66.286a4.29,4.29,0,1,1-4.29,4.29,4.29,4.29,0,0,1,4.29-4.29" fill="#f1b0a2"/>
    <path id="Trazado_773815" data-name="Trazado 773815" d="M50.077,74.006a4.29,4.29,0,1,1,0-6.859,4.289,4.289,0,0,0,0,6.859" fill="#eb9c8d"/>
    <path id="Trazado_773816" data-name="Trazado 773816" d="M16.156,66.286a4.29,4.29,0,1,1-4.29,4.29,4.29,4.29,0,0,1,4.29-4.29" fill="#f1b0a2"/>
    <path id="Trazado_773817" data-name="Trazado 773817" d="M18.733,74.006a4.29,4.29,0,1,1,0-6.859,4.289,4.289,0,0,0,0,6.859" fill="#eb9c8d"/>
    <path id="Trazado_773818" data-name="Trazado 773818" d="M47.5,10.99A14.232,14.232,0,1,1,33.268,25.222,14.232,14.232,0,0,1,47.5,10.99" fill="#f5f8f9"/>
    <path id="Trazado_773819" data-name="Trazado 773819" d="M47.5,17.233a5.379,5.379,0,1,1-5.379,5.38,5.38,5.38,0,0,1,5.379-5.38" fill="#fff3de"/>
    <path id="Trazado_773820" data-name="Trazado 773820" d="M50.077,27.334a5.379,5.379,0,1,1,0-9.445,5.382,5.382,0,0,0,0,9.445" fill="#ffe5c2"/>
    <path id="Trazado_773821" data-name="Trazado 773821" d="M55.628,36.118V36.9a14.233,14.233,0,0,1-16.256,0v-.787a8.128,8.128,0,1,1,16.256,0Z" fill="#ade194"/>
    <path id="Trazado_773822" data-name="Trazado 773822" d="M47.962,36.9A14.152,14.152,0,0,0,51.795,38.8,14.283,14.283,0,0,1,39.371,36.9v-.788a8.135,8.135,0,0,1,12.426-6.9,8.123,8.123,0,0,0-3.835,6.9Z" fill="#97da7b"/>
    <path id="Trazado_773823" data-name="Trazado 773823" d="M78.844,66.286a4.29,4.29,0,1,1-4.29,4.29,4.29,4.29,0,0,1,4.29-4.29" fill="#f1b0a2"/>
    <path id="Trazado_773824" data-name="Trazado 773824" d="M81.422,74.006a4.29,4.29,0,1,1,0-6.859,4.29,4.29,0,0,0,0,6.859" fill="#eb9c8d"/>
    <path id="Trazado_773825" data-name="Trazado 773825" d="M56.365,37.96A15.521,15.521,0,1,0,32.939,19.84a1.289,1.289,0,1,0,2.418.893,12.944,12.944,0,1,1,21.382,13.55,9.352,9.352,0,0,0-2.58-4.824,9.45,9.45,0,0,0-2.386-1.735,6.667,6.667,0,1,0-8.541,0,9.438,9.438,0,0,0-4.969,6.562,12.81,12.81,0,0,1-3.69-8.449,1.289,1.289,0,0,0-2.575.12A15.519,15.519,0,0,0,46.211,40.688v7.876H16.156a1.289,1.289,0,0,0-1.289,1.289V60.081a12.641,12.641,0,1,0,13.6,15.448,1.289,1.289,0,0,0-2.511-.584,10.033,10.033,0,0,1-2.285,4.423,7.727,7.727,0,0,0-2.022-3.516A7.809,7.809,0,0,0,20.013,74.6a5.578,5.578,0,1,0-7.711,0,7.8,7.8,0,0,0-3.656,4.743,10.061,10.061,0,1,1,17.207-9.383,1.289,1.289,0,1,0,2.484-.688,12.678,12.678,0,0,0-10.893-9.192V51.141H46.211v8.941a12.641,12.641,0,1,0,2.578,0V51.141H61.225a1.288,1.288,0,0,0,0-2.577H48.789V40.687a15.388,15.388,0,0,0,7.576-2.726Zm-45.4,43.315a5.193,5.193,0,0,1,10.386.017,10.1,10.1,0,0,1-10.386-.017Zm5.193-13.7a3,3,0,1,1-3,3,3,3,0,0,1,3-3m26.151,13.7a5.193,5.193,0,0,1,10.386,0,10.048,10.048,0,0,1-10.386,0Zm5.193-7.7a3,3,0,1,1,3-3A3,3,0,0,1,47.5,73.576Zm10.063-.919a10.02,10.02,0,0,1-2.552,6.688A7.727,7.727,0,0,0,53,75.852,7.814,7.814,0,0,0,51.357,74.6a5.579,5.579,0,1,0-7.71,0,7.8,7.8,0,0,0-3.656,4.743,10.06,10.06,0,1,1,17.572-6.69ZM47.5,18.521a4.09,4.09,0,1,1-4.09,4.09,4.095,4.095,0,0,1,4.09-4.09m0,10.758a6.837,6.837,0,0,1,6.839,6.838c0,.03,0,.059.005.089a12.94,12.94,0,0,1-13.688,0c0-.03,0-.059,0-.089A6.847,6.847,0,0,1,47.5,29.279Z"/>
    <path id="Trazado_773826" data-name="Trazado 773826" d="M80.133,60.082V49.853a1.289,1.289,0,0,0-1.289-1.289h-12a1.289,1.289,0,0,0,0,2.578H77.555v8.94a12.641,12.641,0,1,0,2.578,0ZM73.651,81.274a5.193,5.193,0,0,1,10.386,0,10.042,10.042,0,0,1-10.386,0m5.193-7.7a3,3,0,1,1,3-3,3,3,0,0,1-3,3m7.511,5.769a7.727,7.727,0,0,0-2.015-3.493A7.814,7.814,0,0,0,82.7,74.6a5.579,5.579,0,1,0-7.71,0,7.8,7.8,0,0,0-3.656,4.743,10.063,10.063,0,1,1,15.02,0Z"/>
  </g>
</svg>
