<svg id="Grupo_1027980" data-name="Grupo 1027980" xmlns="http://www.w3.org/2000/svg" xmlns:xlink="http://www.w3.org/1999/xlink" width="95.163" height="95" viewBox="0 0 95.163 95">
  <defs>
    <clipPath id="clip-path">
      <rect id="Rectángulo_360882" data-name="Rectángulo 360882" width="95.163" height="95" fill="none"/>
    </clipPath>
  </defs>
  <g id="Grupo_1027979" data-name="Grupo 1027979" clip-path="url(#clip-path)">
    <path id="Trazado_773250" data-name="Trazado 773250" d="M90.742,79.893H25.5A1.13,1.13,0,0,1,24.3,78.7V75.831A1.129,1.129,0,0,1,25.5,74.636H90.861a1.128,1.128,0,0,1,1.195,1.195V78.7a1.4,1.4,0,0,1-1.314,1.195" fill="#fe502d"/>
    <path id="Trazado_773251" data-name="Trazado 773251" d="M25.138,21.58,58.12,38.548,91.1,21.58Z" fill="#d7e8ff"/>
    <path id="Trazado_773252" data-name="Trazado 773252" d="M25.138,38.548,58.12,55.755,91.1,38.548Z" fill="#d7e8ff"/>
    <path id="Trazado_773253" data-name="Trazado 773253" d="M86.56,74.516,64.453,21.58V14.41a2.269,2.269,0,0,0-2.271-2.271H54.057a2.269,2.269,0,0,0-2.271,2.271v7.17L29.679,74.516" fill="#fff"/>
    <path id="Trazado_773254" data-name="Trazado 773254" d="M64.453,21.34V14.17a2.014,2.014,0,0,0-2.031-2.031h-8.6a2.014,2.014,0,0,0-2.031,2.031v7.17Z" fill="#d7e8ff"/>
    <path id="Trazado_773255" data-name="Trazado 773255" d="M94.207,29.466A3.107,3.107,0,1,1,91.1,26.36a3.107,3.107,0,0,1,3.106,3.106" fill="#2d54fe"/>
    <path id="Trazado_773256" data-name="Trazado 773256" d="M94.207,46.554A3.107,3.107,0,1,1,91.1,43.447a3.107,3.107,0,0,1,3.106,3.107" fill="#ffc408"/>
    <path id="Trazado_773257" data-name="Trazado 773257" d="M28.245,29.466a3.105,3.105,0,1,1-.91-2.2,3.107,3.107,0,0,1,.91,2.2" fill="#fe502d"/>
    <path id="Trazado_773258" data-name="Trazado 773258" d="M28.245,46.554a3.107,3.107,0,1,1-.91-2.2,3.107,3.107,0,0,1,.91,2.2" fill="#34cba0"/>
    <path id="Trazado_773259" data-name="Trazado 773259" d="M90.742,80.73H25.5A1.945,1.945,0,0,1,23.465,78.7V75.831A1.945,1.945,0,0,1,25.5,73.8H90.861a1.946,1.946,0,0,1,2.032,2.032V78.7a2.12,2.12,0,0,1-2.151,2.032M25.5,75.472c-.239,0-.239.12-.239.239v2.868c0,.239.12.239.239.239H90.861a.234.234,0,0,0,.239-.239V75.831c0-.239-.12-.239-.239-.239H25.5Z" fill="#191919"/>
    <path id="Trazado_773260" data-name="Trazado 773260" d="M86.56,75.353a.9.9,0,0,1-.836-.6L63.617,21.937c0-.119-.12-.239-.12-.358V14.17a1.129,1.129,0,0,0-1.2-1.195H53.7a1.129,1.129,0,0,0-1.2,1.195v7.409a.439.439,0,0,1-.119.358L30.515,74.874a.909.909,0,1,1-1.672-.716L50.83,21.34V14.17a2.959,2.959,0,0,1,2.987-2.988h8.6a2.959,2.959,0,0,1,2.987,2.988v7.29L87.4,74.277a.873.873,0,0,1-.477,1.195.442.442,0,0,0-.359-.119" fill="#191919"/>
    <path id="Trazado_773261" data-name="Trazado 773261" d="M58.119,39.5a.439.439,0,0,1-.359-.12L24.66,22.3a.877.877,0,0,1-.478-.956,1.024,1.024,0,0,1,.836-.716H91.1a.873.873,0,0,1,.837.716.814.814,0,0,1-.479.956L58.477,39.384a.436.436,0,0,1-.358.12M28.842,22.416,58.119,37.592,87.395,22.416Z" fill="#191919"/>
    <path id="Trazado_773262" data-name="Trazado 773262" d="M58.119,56.591a.443.443,0,0,1-.359-.119L24.66,39.384a.878.878,0,0,1-.478-.956,1.023,1.023,0,0,1,.836-.716H91.1a.873.873,0,0,1,.837.716.814.814,0,0,1-.479.956L58.477,56.472a.439.439,0,0,1-.358.119M28.722,39.5l29.4,15.176,29.4-15.3H28.722Z" fill="#191919"/>
    <path id="Trazado_773263" data-name="Trazado 773263" d="M84.408,70.334a.44.44,0,0,1-.358-.119l-25.931-13.5-25.931,13.5a.927.927,0,0,1-1.194-.359.968.968,0,0,1,.358-1.195L56.088,55.755,41.031,47.988a1,1,0,0,1-.478-.836,1.21,1.21,0,0,1,.478-.837l15.057-7.767-9.56-4.9a.98.98,0,0,1-.478-.716,1.085,1.085,0,0,1,.358-.837l9.919-6.453L51.069,22.3a.8.8,0,0,1-.358-.956.9.9,0,0,1,.836-.6H64.333a.9.9,0,0,1,.836.6.752.752,0,0,1-.358.956l-5.019,3.346L69.71,32.1a.729.729,0,0,1,.359.837,1.1,1.1,0,0,1-.478.716l-9.56,4.9,15.056,7.767a.8.8,0,0,1,.479.837,1.211,1.211,0,0,1-.479.836L60.031,55.755,84.886,68.661a.829.829,0,0,1,.359,1.195,1.21,1.21,0,0,1-.837.478M43.541,47.152,58.119,54.8,72.7,47.152,58.119,39.623ZM48.8,32.812l9.321,4.78,9.321-4.78-9.321-6.1Zm5.975-10.4,3.346,2.151,3.346-2.151Z" fill="#191919"/>
    <path id="Trazado_773264" data-name="Trazado 773264" d="M91.1,27.2a.942.942,0,0,1-.956-.956V21.46A.943.943,0,0,1,91.1,20.5a.879.879,0,0,1,.955.956v4.78a.879.879,0,0,1-.955.956" fill="#191919"/>
    <path id="Trazado_773265" data-name="Trazado 773265" d="M91.1,44.4a.923.923,0,0,1-.956-.836v-4.9a.942.942,0,0,1,.956-.955.878.878,0,0,1,.955.955v4.9a.925.925,0,0,1-.955.836" fill="#191919"/>
    <path id="Trazado_773266" data-name="Trazado 773266" d="M25.138,27.2a.942.942,0,0,1-.955-.956V21.46a.942.942,0,0,1,.955-.956.879.879,0,0,1,.956.956v4.78c-.119.6-.477.956-.956.956" fill="#191919"/>
    <path id="Trazado_773267" data-name="Trazado 773267" d="M91.1,33.41a4.063,4.063,0,1,1,4.062-4.063A4.029,4.029,0,0,1,91.1,33.41m0-6.214a2.269,2.269,0,0,0-2.271,2.27A2.271,2.271,0,1,0,91.1,27.2" fill="#191919"/>
    <path id="Trazado_773268" data-name="Trazado 773268" d="M91.1,50.617a4.063,4.063,0,1,1,4.062-4.063A4.029,4.029,0,0,1,91.1,50.617m0-6.214a2.269,2.269,0,0,0-2.271,2.271A2.271,2.271,0,1,0,91.1,44.4" fill="#191919"/>
    <path id="Trazado_773269" data-name="Trazado 773269" d="M25.138,33.41a4,4,0,0,1-4.062-3.944A4.1,4.1,0,0,1,25.138,25.4a4,4,0,1,1,0,8.006m0-6.214a2.268,2.268,0,0,0-2.27,2.27,2.1,2.1,0,0,0,2.27,2.151,2.2,2.2,0,0,0,2.271-2.27A2.169,2.169,0,0,0,25.138,27.2" fill="#191919"/>
    <path id="Trazado_773270" data-name="Trazado 773270" d="M25.138,50.617A4.063,4.063,0,1,1,29.2,46.554a4.106,4.106,0,0,1-4.063,4.063m0-6.214a2.269,2.269,0,0,0-2.27,2.271,2.271,2.271,0,0,0,4.541,0A2.269,2.269,0,0,0,25.138,44.4" fill="#191919"/>
    <path id="Trazado_773271" data-name="Trazado 773271" d="M25.138,44.4a.923.923,0,0,1-.955-.836v-4.9a.941.941,0,0,1,.955-.955.879.879,0,0,1,.956.955v4.9a1.156,1.156,0,0,1-.956.836" fill="#191919"/>
    <path id="Trazado_773272" data-name="Trazado 773272" d="M58.119,12.975a.942.942,0,0,1-.956-.955V7.359a1.014,1.014,0,0,1,.956-.836.942.942,0,0,1,.956.956v4.66a1.026,1.026,0,0,1-.956.836" fill="#191919"/>
    <path id="Trazado_773273" data-name="Trazado 773273" d="M59.892,66.251a7.675,7.675,0,0,0-4.78-5.975l-10.994-4.66a13.59,13.59,0,0,1-4.9-5.138H25a13.59,13.59,0,0,1-4.9,5.138L9.106,60.276a8.11,8.11,0,0,0-4.78,5.975L.86,87.641h62.5Z" fill="#d7e8ff"/>
    <path id="Trazado_773274" data-name="Trazado 773274" d="M20.815,55.018v18.4H15.677V57.288l4.3-1.912a1.084,1.084,0,0,0,.836-.358" fill="#fe502d"/>
    <path id="Trazado_773275" data-name="Trazado 773275" d="M43.281,55.018v18.4H48.42V57.288L44,55.5a2.524,2.524,0,0,1-.717-.478" fill="#fe502d"/>
    <path id="Trazado_773276" data-name="Trazado 773276" d="M15.917,74.377a.942.942,0,0,1-.956-.956V57.289a.943.943,0,0,1,.956-.956.847.847,0,0,1,.836.956V73.421a.924.924,0,0,1-.836.956" fill="#191919"/>
    <path id="Trazado_773277" data-name="Trazado 773277" d="M20.815,74.377a.942.942,0,0,1-.955-.956v-18.4a.941.941,0,0,1,.955-.956.879.879,0,0,1,.956.956v18.4a1.028,1.028,0,0,1-.956.956" fill="#191919"/>
    <path id="Trazado_773278" data-name="Trazado 773278" d="M48.419,74.377a.943.943,0,0,1-.956-.956V57.289a.943.943,0,0,1,.956-.956.879.879,0,0,1,.956.956V73.421a1.029,1.029,0,0,1-.956.956" fill="#191919"/>
    <path id="Trazado_773279" data-name="Trazado 773279" d="M43.281,74.377a.943.943,0,0,1-.956-.956v-18.4a.942.942,0,0,1,.956-.956.879.879,0,0,1,.956.956v18.4a.943.943,0,0,1-.956.956" fill="#191919"/>
    <path id="Trazado_773280" data-name="Trazado 773280" d="M51.287,87.64V75.81a2.268,2.268,0,0,0-2.27-2.27h-33.7a2.269,2.269,0,0,0-2.271,2.27V87.64" fill="#fe502d"/>
    <path id="Trazado_773281" data-name="Trazado 773281" d="M51.287,88.477a.942.942,0,0,1-.955-.956V75.69A1.381,1.381,0,0,0,48.9,74.256H15.319a1.381,1.381,0,0,0-1.434,1.434V87.521a.943.943,0,0,1-.956.956.88.88,0,0,1-.956-.956V75.69A3.213,3.213,0,0,1,15.2,72.464H49.017a3.213,3.213,0,0,1,3.226,3.226V87.521a.942.942,0,0,1-.956.956" fill="#191919"/>
    <path id="Trazado_773282" data-name="Trazado 773282" d="M39.1,50.357a17.847,17.847,0,0,0,2.749,3.585,11.655,11.655,0,0,1-9.8,5.377,11.379,11.379,0,0,1-9.8-5.377A13.812,13.812,0,0,0,25,50.357" fill="#fff"/>
    <path id="Trazado_773283" data-name="Trazado 773283" d="M45.312,37.213c-2.031,8.126-7.17,17.208-13.145,17.208S21.055,45.339,19.143,37.213Z" fill="#fff"/>
    <path id="Trazado_773284" data-name="Trazado 773284" d="M32.048,55.376c-6.572,0-12.188-9.917-14.339-19.238,0-.239,0-.6.119-.718a.852.852,0,0,1,.717-.358H45.432a1.034,1.034,0,0,1,.717.358.792.792,0,0,1,.119.718c-1.911,9.321-7.647,19.238-14.22,19.238M19.74,36.854c2.151,8.365,7.17,16.73,12.308,16.73s10.158-8.365,12.309-16.73Z" fill="#191919"/>
    <path id="Trazado_773285" data-name="Trazado 773285" d="M19.023,77.842H17.709a.943.943,0,0,1-.956-.956.879.879,0,0,1,.956-.955h1.314a.956.956,0,1,1,0,1.911" fill="#191919"/>
    <path id="Trazado_773286" data-name="Trazado 773286" d="M46.627,77.842H45.193a.943.943,0,0,1-.956-.956.879.879,0,0,1,.956-.955h1.434a.956.956,0,1,1,0,1.911" fill="#191919"/>
    <path id="Trazado_773287" data-name="Trazado 773287" d="M32.049,60.156a12.587,12.587,0,0,1-10.636-5.735.862.862,0,0,1,1.435-.956,10.849,10.849,0,0,0,9.081,4.9,10.573,10.573,0,0,0,9.082-4.9.817.817,0,0,1,1.195-.239.926.926,0,0,1,.239,1.195,11.744,11.744,0,0,1-10.4,5.735" fill="#191919"/>
    <path id="Trazado_773288" data-name="Trazado 773288" d="M63.237,88.358a.8.8,0,0,1-.836-.717l-3.465-21.27a7.443,7.443,0,0,0-4.183-5.378L43.76,56.333a.117.117,0,0,1-.12-.119A14,14,0,0,1,38.5,50.836a.862.862,0,0,1,1.434-.956,12.587,12.587,0,0,0,4.541,4.78L55.351,59.2a8.5,8.5,0,0,1,5.257,6.691l3.466,21.391a.931.931,0,0,1-.717,1.075Z" fill="#191919"/>
    <path id="Trazado_773289" data-name="Trazado 773289" d="M.86,88.358H.741a.93.93,0,0,1-.717-1.075L3.489,66.011a8.513,8.513,0,0,1,5.258-6.692l10.874-4.54A12.572,12.572,0,0,0,24.162,50a.862.862,0,1,1,1.434.956,13.977,13.977,0,0,1-5.138,5.378l-.12.119L9.345,61.112A6.745,6.745,0,0,0,5.162,66.49L1.816,87.641a1.041,1.041,0,0,1-.956.717" fill="#191919"/>
    <path id="Trazado_773290" data-name="Trazado 773290" d="M25.237,20.006v-2.39a2.524,2.524,0,0,1,2.509-2.51h8.723a2.525,2.525,0,0,1,2.51,2.51v2.39" fill="#ffc408"/>
    <path id="Trazado_773291" data-name="Trazado 773291" d="M32.049,18.332a14.154,14.154,0,0,0-14.221,14.1H46.389a14.181,14.181,0,0,0-14.34-14.1" fill="#ffc408"/>
    <path id="Trazado_773292" data-name="Trazado 773292" d="M46.268,37.213H17.947a1.837,1.837,0,0,1-1.792-1.792V34.107a1.838,1.838,0,0,1,1.792-1.793H46.268a1.838,1.838,0,0,1,1.792,1.793v1.314a1.925,1.925,0,0,1-1.792,1.792" fill="#ffc408"/>
    <path id="Trazado_773293" data-name="Trazado 773293" d="M38.98,20.962a.942.942,0,0,1-.956-.956v-2.39a1.635,1.635,0,0,0-1.674-1.674H27.628a1.635,1.635,0,0,0-1.674,1.674v2.39a.943.943,0,0,1-.956.956.879.879,0,0,1-.955-.956v-2.39a3.468,3.468,0,0,1,3.465-3.466h8.723A3.468,3.468,0,0,1,39.7,17.616v2.39c.239.477-.119.956-.716.956" fill="#191919"/>
    <path id="Trazado_773294" data-name="Trazado 773294" d="M46.388,33.269a.941.941,0,0,1-.956-.955,13.384,13.384,0,0,0-26.767,0,.943.943,0,0,1-.956.955.879.879,0,0,1-.956-.955,15.176,15.176,0,0,1,30.351,0,.723.723,0,0,1-.716.955" fill="#191919"/>
    <path id="Trazado_773295" data-name="Trazado 773295" d="M46.269,38.049H17.948a2.652,2.652,0,0,1-2.629-2.629V34.106a2.652,2.652,0,0,1,2.629-2.629H46.269A2.652,2.652,0,0,1,48.9,34.106V35.42a2.576,2.576,0,0,1-2.628,2.629m-28.321-4.78a.817.817,0,0,0-.836.837V35.42a.815.815,0,0,0,.836.836H46.269a.811.811,0,0,0,.836-.836V34.106a.817.817,0,0,0-.836-.837Z" fill="#191919"/>
    <path id="Trazado_773296" data-name="Trazado 773296" d="M29.659,33.269a.9.9,0,0,1-.836-.6L24.4,20.364a.944.944,0,1,1,1.792-.6l4.422,12.427a1.049,1.049,0,0,1-.6,1.195.44.44,0,0,0-.359-.12" fill="#191919"/>
    <path id="Trazado_773297" data-name="Trazado 773297" d="M34.557,33.269H34.2a.84.84,0,0,1-.478-1.195l4.541-12.427a.91.91,0,1,1,1.672.717l-4.54,12.427a.8.8,0,0,1-.837.478" fill="#191919"/>
  </g>
</svg>
